<svg width="56" height="56" viewBox="0 0 56 56" fill="none" xmlns="http://www.w3.org/2000/svg">
<rect width="56" height="56" rx="10" fill="white"/>
<rect width="56" height="56" rx="10" fill="#F2F2F8"/>
<path d="M39.9706 29.6133C40.0253 29.359 40.0045 29.0943 39.9107 28.8517C39.8169 28.6091 39.6542 28.3992 39.4426 28.248L20.7759 14.9146C20.5658 14.7636 20.3163 14.677 20.0579 14.6654C19.7994 14.6538 19.5432 14.7178 19.3205 14.8494C19.0977 14.9811 18.9182 15.1747 18.8037 15.4067C18.6893 15.6388 18.6448 15.8991 18.6759 16.156L21.3426 38.8226C21.3733 39.0825 21.4797 39.3276 21.6487 39.5273C21.8177 39.7271 22.0418 39.8728 22.2929 39.9461C22.5441 40.0194 22.8113 40.0173 23.0613 39.9398C23.3112 39.8624 23.5328 39.7131 23.6986 39.5106L28.5146 33.6226L33.0172 40.9026L35.2852 39.5L30.8092 32.2626L38.9279 30.6386C39.183 30.5887 39.4179 30.4649 39.6033 30.2826C39.7886 30.1003 39.9163 29.8676 39.9706 29.6133ZM28.4052 30.0266C28.1025 30.087 27.8302 30.2505 27.6346 30.4893L23.6239 35.392L21.6759 18.836L35.3866 28.6293L28.4052 30.0266Z" fill="#040415"/>
</svg>
