<svg width="56" height="56" viewBox="0 0 56 56" fill="none" xmlns="http://www.w3.org/2000/svg">
<rect width="56" height="56" rx="10" fill="white"/>
<rect width="56" height="56" rx="10" fill="#F2F2F8"/>
<path d="M17.3026 25.1201C17.3562 24.4518 17.6596 23.8283 18.1523 23.3736C18.645 22.919 19.2909 22.6666 19.9613 22.6667H36.0386C36.709 22.6666 37.3549 22.919 37.8476 23.3736C38.3403 23.8283 38.6436 24.4518 38.6973 25.1201L39.7679 38.4534C39.7974 38.8203 39.7505 39.1894 39.6304 39.5373C39.5102 39.8853 39.3193 40.2045 39.0697 40.4751C38.8201 40.7456 38.5171 40.9615 38.18 41.1093C37.8428 41.257 37.4787 41.3333 37.1106 41.3334H18.8893C18.5212 41.3333 18.1571 41.257 17.8199 41.1093C17.4827 40.9615 17.1798 40.7456 16.9302 40.4751C16.6806 40.2045 16.4897 39.8853 16.3695 39.5373C16.2493 39.1894 16.2025 38.8203 16.2319 38.4534L17.3026 25.1201V25.1201Z" stroke="#040415" stroke-width="2" stroke-linecap="round" stroke-linejoin="round"/>
<path d="M33.3332 26.6667V20.0001C33.3332 18.5856 32.7713 17.229 31.7711 16.2288C30.7709 15.2287 29.4143 14.6667 27.9998 14.6667C26.5853 14.6667 25.2288 15.2287 24.2286 16.2288C23.2284 17.229 22.6665 18.5856 22.6665 20.0001V26.6667" stroke="#040415" stroke-width="2" stroke-linecap="round" stroke-linejoin="round"/>
</svg>
