<svg width="56" height="56" viewBox="0 0 56 56" fill="none" xmlns="http://www.w3.org/2000/svg">
<rect width="56" height="56" rx="10" fill="white"/>
<rect width="56" height="56" rx="10" fill="#F2F2F8"/>
<path d="M21.3333 18.6667V21.3333H19.3333C18.8028 21.3333 18.2941 21.544 17.919 21.9191C17.544 22.2942 17.3333 22.8029 17.3333 23.3333V36C17.3333 37.4145 17.8952 38.771 18.8953 39.7712C19.8955 40.7714 21.2521 41.3333 22.6666 41.3333H28.2239C28.0761 41.0207 27.9995 40.6791 27.9995 40.3333C27.9995 39.9875 28.0761 39.646 28.2239 39.3333H22.6666C22.2288 39.3333 21.7954 39.2471 21.391 39.0796C20.9866 38.9121 20.6191 38.6665 20.3096 38.357C20 38.0475 19.7545 37.68 19.587 37.2756C19.4195 36.8712 19.3333 36.4377 19.3333 36V23.3333H29.3466V27.1093C29.968 26.8168 30.6465 26.6657 31.3333 26.6667H31.3466V23.3333H36.6666V30.7L38.6666 28.7V23.3333C38.6666 22.8029 38.4559 22.2942 38.0808 21.9191C37.7057 21.544 37.197 21.3333 36.6666 21.3333H34.6666V18.6667C34.6666 17.8945 34.4431 17.1388 34.023 16.4909C33.603 15.843 33.0044 15.3305 32.2995 15.0152C31.5947 14.7 30.8136 14.5956 30.0506 14.7145C29.2877 14.8334 28.5755 15.1706 27.9999 15.6853C27.4244 15.1706 26.7122 14.8334 25.9492 14.7145C25.1862 14.5956 24.4052 14.7 23.7003 15.0152C22.9954 15.3305 22.3968 15.843 21.9768 16.4909C21.5568 17.1388 21.3333 17.8945 21.3333 18.6667ZM27.3333 18.6667V21.3333H23.3333V18.6667C23.3333 18.1362 23.544 17.6275 23.919 17.2524C24.2941 16.8774 24.8028 16.6667 25.3333 16.6667C25.8637 16.6667 26.3724 16.8774 26.7475 17.2524C27.1225 17.6275 27.3333 18.1362 27.3333 18.6667ZM32.6666 21.3333H29.3333V18.6667C29.3333 18.2213 29.2599 17.792 29.1253 17.392C29.3876 17.0747 29.7415 16.8461 30.1385 16.7374C30.5356 16.6287 30.9566 16.6452 31.3439 16.7847C31.7313 16.9241 32.0662 17.1797 32.3029 17.5165C32.5396 17.8533 32.6666 18.255 32.6666 18.6667V21.3333ZM31.3333 34.6667C32.2173 34.6667 33.0652 34.3155 33.6903 33.6903C34.3154 33.0652 34.6666 32.2174 34.6666 31.3333C34.6666 30.4493 34.3154 29.6014 33.6903 28.9763C33.0652 28.3512 32.2173 28 31.3333 28C30.4492 28 29.6014 28.3512 28.9762 28.9763C28.3511 29.6014 27.9999 30.4493 27.9999 31.3333C27.9999 32.2174 28.3511 33.0652 28.9762 33.6903C29.6014 34.3155 30.4492 34.6667 31.3333 34.6667ZM31.3333 30C31.6869 30 32.026 30.1405 32.2761 30.3905C32.5261 30.6406 32.6666 30.9797 32.6666 31.3333C32.6666 31.6869 32.5261 32.0261 32.2761 32.2761C32.026 32.5262 31.6869 32.6667 31.3333 32.6667C30.9796 32.6667 30.6405 32.5262 30.3904 32.2761C30.1404 32.0261 29.9999 31.6869 29.9999 31.3333C29.9999 30.9797 30.1404 30.6406 30.3904 30.3905C30.6405 30.1405 30.9796 30 31.3333 30ZM39.3333 42.6667C40.2173 42.6667 41.0652 42.3155 41.6903 41.6903C42.3154 41.0652 42.6666 40.2174 42.6666 39.3333C42.6666 38.4493 42.3154 37.6014 41.6903 36.9763C41.0652 36.3512 40.2173 36 39.3333 36C38.4492 36 37.6014 36.3512 36.9762 36.9763C36.3511 37.6014 35.9999 38.4493 35.9999 39.3333C35.9999 40.2174 36.3511 41.0652 36.9762 41.6903C37.6014 42.3155 38.4492 42.6667 39.3333 42.6667ZM39.3333 38C39.6869 38 40.026 38.1405 40.2761 38.3905C40.5261 38.6406 40.6666 38.9797 40.6666 39.3333C40.6666 39.6869 40.5261 40.0261 40.2761 40.2761C40.026 40.5262 39.6869 40.6667 39.3333 40.6667C38.9796 40.6667 38.6405 40.5262 38.3904 40.2761C38.1404 40.0261 37.9999 39.6869 37.9999 39.3333C37.9999 38.9797 38.1404 38.6406 38.3904 38.3905C38.6405 38.1405 38.9796 38 39.3333 38ZM41.0399 31.04C41.1382 30.9484 41.217 30.838 41.2716 30.7154C41.3263 30.5927 41.3557 30.4603 41.358 30.326C41.3604 30.1918 41.3357 30.0584 41.2854 29.9339C41.2351 29.8093 41.1603 29.6962 41.0653 29.6013C40.9703 29.5063 40.8572 29.4315 40.7327 29.3812C40.6082 29.3309 40.4748 29.3062 40.3406 29.3085C40.2063 29.3109 40.0739 29.3403 39.9512 29.395C39.8285 29.4496 39.7181 29.5284 39.6266 29.6267L29.6266 39.6267C29.5283 39.7182 29.4495 39.8286 29.3949 39.9513C29.3402 40.0739 29.3108 40.2064 29.3085 40.3406C29.3061 40.4749 29.3308 40.6083 29.3811 40.7328C29.4314 40.8573 29.5062 40.9704 29.6012 41.0654C29.6962 41.1603 29.8093 41.2352 29.9338 41.2855C30.0583 41.3358 30.1917 41.3605 30.3259 41.3581C30.4602 41.3557 30.5926 41.3264 30.7153 41.2717C30.838 41.217 30.9484 41.1382 31.0399 41.04L41.0399 31.04Z" fill="#040415"/>
</svg>
