<svg width="46" height="46" viewBox="0 0 46 46" fill="none" xmlns="http://www.w3.org/2000/svg">
<circle cx="23" cy="23" r="23" fill="#01CAB0"/>
<path d="M14 32H32" stroke="white" stroke-width="2" stroke-linecap="round"/>
<path d="M16 22L16 31" stroke="white" stroke-width="2" stroke-linecap="round"/>
<path d="M30 22L30 31" stroke="white" stroke-width="2" stroke-linecap="round"/>
<path d="M20 28C20 26.8954 20.8954 26 22 26H24C25.1046 26 26 26.8954 26 28V32H20V28Z" stroke="white" stroke-width="2"/>
<path d="M32 19V17.3028C32 17.1054 31.9416 16.9123 31.8321 16.7481L30.2969 14.4453C30.1114 14.1671 29.7992 14 29.4648 14H16.5352C16.2008 14 15.8886 14.1671 15.7031 14.4453L14.1679 16.7481C14.0584 16.9123 14 17.1054 14 17.3028V19" stroke="white" stroke-width="2" stroke-linecap="round"/>
<path d="M14 19V18H20V19C20 20.6569 18.6569 22 17 22C15.3431 22 14 20.6569 14 19Z" stroke="white" stroke-width="2"/>
<path d="M20 18H26V19C26 20.6569 24.6569 22 23 22C21.3431 22 20 20.6569 20 19V18Z" stroke="white" stroke-width="2"/>
<path d="M26 18H32V19C32 20.6569 30.6569 22 29 22C27.3431 22 26 20.6569 26 19V18Z" stroke="white" stroke-width="2"/>
</svg>
