<svg width="46" height="46" viewBox="0 0 46 46" fill="none" xmlns="http://www.w3.org/2000/svg">
<circle cx="23" cy="23" r="23" fill="#01CAB0"/>
<path d="M28.3839 30H17.5359V28.176L23.4639 22.128C25.0479 20.544 25.8399 19.184 25.8399 18.048C25.8399 17.12 25.5519 16.392 24.9759 15.864C24.4159 15.32 23.7119 15.048 22.8639 15.048C21.2799 15.048 20.1279 15.8 19.4079 17.304L17.5359 16.2C18.0479 15.128 18.7679 14.312 19.6959 13.752C20.6239 13.176 21.6719 12.888 22.8399 12.888C24.2639 12.888 25.4879 13.352 26.5119 14.28C27.5519 15.224 28.0719 16.472 28.0719 18.024C28.0719 19.72 27.0719 21.568 25.0719 23.568L20.7759 27.84H28.3839V30Z" fill="white"/>
</svg>
