<svg width="46" height="46" viewBox="0 0 46 46" fill="none" xmlns="http://www.w3.org/2000/svg">
<circle cx="23" cy="23" r="23" fill="#01CAB0"/>
<path d="M24.1621 21.088C25.4421 21.328 26.4901 21.88 27.3061 22.744C28.1221 23.608 28.5301 24.704 28.5301 26.032C28.5301 27.664 27.9701 28.952 26.8501 29.896C25.7301 30.84 24.3701 31.312 22.7701 31.312C21.4901 31.312 20.3541 31.024 19.3621 30.448C18.3701 29.856 17.6661 29.008 17.2501 27.904L19.1221 26.8C19.6181 28.352 20.8341 29.128 22.7701 29.128C23.8101 29.128 24.6581 28.856 25.3141 28.312C25.9701 27.768 26.2981 27.008 26.2981 26.032C26.2981 25.056 25.9701 24.296 25.3141 23.752C24.6581 23.192 23.8101 22.912 22.7701 22.912H22.1941L21.3061 21.544L25.1941 16.288H17.7301V14.2H27.8101V16.168L24.1621 21.088Z" fill="white"/>
</svg>
