<svg width="57" height="56" viewBox="0 0 57 56" fill="none" xmlns="http://www.w3.org/2000/svg">
<rect x="0.5" width="56" height="56" rx="10" fill="white"/>
<rect x="0.5" width="56" height="56" rx="10" fill="#F2F2F8"/>
<path d="M20.5 21C19.7089 21 18.9355 20.7654 18.2777 20.3259C17.6199 19.8864 17.1072 19.2616 16.8045 18.5307C16.5017 17.7998 16.4225 16.9956 16.5769 16.2196C16.7312 15.4437 17.1122 14.731 17.6716 14.1716C18.231 13.6122 18.9437 13.2312 19.7196 13.0769C20.4956 12.9225 21.2998 13.0017 22.0307 13.3045C22.7616 13.6072 23.3864 14.1199 23.8259 14.7777C24.2654 15.4355 24.5 16.2089 24.5 17C24.5 18.0609 24.0786 19.0783 23.3284 19.8284C22.5783 20.5786 21.5609 21 20.5 21ZM20.5 15C20.1044 15 19.7178 15.1173 19.3889 15.3371C19.06 15.5568 18.8036 15.8692 18.6522 16.2346C18.5009 16.6001 18.4613 17.0022 18.5384 17.3902C18.6156 17.7781 18.8061 18.1345 19.0858 18.4142C19.3655 18.6939 19.7219 18.8844 20.1098 18.9616C20.4978 19.0387 20.8999 18.9991 21.2654 18.8478C21.6308 18.6964 21.9432 18.44 22.1629 18.1111C22.3827 17.7822 22.5 17.3956 22.5 17C22.5 16.4696 22.2893 15.9609 21.9142 15.5858C21.5391 15.2107 21.0304 15 20.5 15ZM36.5 21C35.7089 21 34.9355 20.7654 34.2777 20.3259C33.6199 19.8864 33.1072 19.2616 32.8045 18.5307C32.5017 17.7998 32.4225 16.9956 32.5769 16.2196C32.7312 15.4437 33.1122 14.731 33.6716 14.1716C34.231 13.6122 34.9437 13.2312 35.7196 13.0769C36.4956 12.9225 37.2998 13.0017 38.0307 13.3045C38.7616 13.6072 39.3864 14.1199 39.8259 14.7777C40.2654 15.4355 40.5 16.2089 40.5 17C40.5 18.0609 40.0786 19.0783 39.3284 19.8284C38.5783 20.5786 37.5609 21 36.5 21ZM36.5 15C36.1044 15 35.7178 15.1173 35.3889 15.3371C35.06 15.5568 34.8036 15.8692 34.6522 16.2346C34.5009 16.6001 34.4613 17.0022 34.5384 17.3902C34.6156 17.7781 34.8061 18.1345 35.0858 18.4142C35.3655 18.6939 35.7219 18.8844 36.1098 18.9616C36.4978 19.0387 36.8999 18.9991 37.2654 18.8478C37.6308 18.6964 37.9432 18.44 38.1629 18.1111C38.3827 17.7822 38.5 17.3956 38.5 17C38.5 16.4696 38.2893 15.9609 37.9142 15.5858C37.5391 15.2107 37.0304 15 36.5 15ZM38.5 42H34.5C33.9696 42 33.4609 41.7893 33.0858 41.4142C32.7107 41.0391 32.5 40.5304 32.5 40V33H34.5V40H38.5V31H40.5V25C40.5 24.7348 40.3946 24.4804 40.2071 24.2929C40.0196 24.1054 39.7652 24 39.5 24H33.08L28.5 32L23.92 24H17.5C17.2348 24 16.9804 24.1054 16.7929 24.2929C16.6054 24.4804 16.5 24.7348 16.5 25V31H18.5V40H22.5V33H24.5V40C24.5 40.5304 24.2893 41.0391 23.9142 41.4142C23.5391 41.7893 23.0304 42 22.5 42H18.5C17.9696 42 17.4609 41.7893 17.0858 41.4142C16.7107 41.0391 16.5 40.5304 16.5 40V33C15.9696 33 15.4609 32.7893 15.0858 32.4142C14.7107 32.0391 14.5 31.5304 14.5 31V25C14.5 24.2044 14.8161 23.4413 15.3787 22.8787C15.9413 22.3161 16.7044 22 17.5 22H25.08L28.5 28L31.92 22H39.5C40.2956 22 41.0587 22.3161 41.6213 22.8787C42.1839 23.4413 42.5 24.2044 42.5 25V31C42.5 31.5304 42.2893 32.0391 41.9142 32.4142C41.5391 32.7893 41.0304 33 40.5 33V40C40.5 40.5304 40.2893 41.0391 39.9142 41.4142C39.5391 41.7893 39.0304 42 38.5 42Z" fill="#040415"/>
</svg>
