<svg width="57" height="56" viewBox="0 0 57 56" fill="none" xmlns="http://www.w3.org/2000/svg">
<rect x="0.5" width="56" height="56" rx="10" fill="white"/>
<rect x="0.5" width="56" height="56" rx="10" fill="#F2F2F8"/>
<path d="M33.2134 15.744C32.2054 14.736 30.4507 14.736 29.4427 15.744L16.2441 28.9427C15.7445 29.4429 15.4639 30.121 15.4639 30.828C15.4639 31.535 15.7445 32.2131 16.2441 32.7134L23.7867 40.256C24.2907 40.76 24.9601 41.0374 25.6721 41.0374C26.3841 41.0374 27.0534 40.76 27.5574 40.256L40.7561 27.0574C41.2601 26.5534 41.5374 25.884 41.5374 25.172C41.5374 24.46 41.2601 23.7907 40.7561 23.2867L33.2134 15.744V15.744ZM25.6721 38.3707V39.704V38.3707L18.1294 30.828L31.3281 17.6294L38.8707 25.172L25.6721 38.3707V38.3707Z" fill="#040415"/>
<path d="M24.5001 33.3334C25.2365 33.3334 25.8334 32.7365 25.8334 32.0001C25.8334 31.2637 25.2365 30.6667 24.5001 30.6667C23.7637 30.6667 23.1667 31.2637 23.1667 32.0001C23.1667 32.7365 23.7637 33.3334 24.5001 33.3334Z" fill="#040415"/>
<path d="M33.4427 40.9427L31.5574 39.0574L39.5574 31.0574L41.4427 32.944L33.4427 40.9427ZM23.5574 15.0574L25.4427 16.9427L17.4427 24.9427L15.5574 23.056L23.5574 15.0574Z" fill="#040415"/>
</svg>
