<svg width="56" height="56" viewBox="0 0 56 56" fill="none" xmlns="http://www.w3.org/2000/svg">
<rect width="56" height="56" rx="10" fill="white"/>
<rect width="56" height="56" rx="10" fill="#F2F2F8"/>
<path d="M38.3876 34C38.3032 34.1541 38.1782 34.2822 38.0261 34.3704C37.8741 34.4585 37.7008 34.5033 37.5251 34.5C37.3486 34.5035 37.1749 34.4557 37.0251 34.3625L29.0001 29.7375V39C29.0001 39.2652 28.8947 39.5196 28.7072 39.7071C28.5197 39.8946 28.2653 40 28.0001 40C27.7349 40 27.4805 39.8946 27.293 39.7071C27.1054 39.5196 27.0001 39.2652 27.0001 39V29.7375L18.9751 34.3625C18.8252 34.4557 18.6515 34.5035 18.4751 34.5C18.2994 34.5033 18.1261 34.4585 17.9741 34.3704C17.822 34.2822 17.697 34.1541 17.6126 34C17.4808 33.7711 17.4449 33.4993 17.5129 33.244C17.5808 32.9887 17.747 32.7707 17.9751 32.6375L26.0001 28L17.9751 23.3625C17.7678 23.2196 17.6221 23.0039 17.5669 22.7583C17.5118 22.5127 17.5512 22.2554 17.6775 22.0376C17.8037 21.8199 18.0074 21.6577 18.248 21.5835C18.4885 21.5094 18.7481 21.5286 18.9751 21.6375L27.0001 26.2625V17C27.0001 16.7348 27.1054 16.4804 27.293 16.2929C27.4805 16.1054 27.7349 16 28.0001 16C28.2653 16 28.5197 16.1054 28.7072 16.2929C28.8947 16.4804 29.0001 16.7348 29.0001 17V26.2625L37.0251 21.6375C37.1386 21.5592 37.2671 21.5053 37.4025 21.4791C37.5379 21.4529 37.6772 21.4549 37.8118 21.4852C37.9463 21.5154 38.0732 21.5731 38.1843 21.6547C38.2955 21.7363 38.3886 21.84 38.4578 21.9593C38.5269 22.0786 38.5707 22.2109 38.5862 22.348C38.6018 22.485 38.5889 22.6237 38.5482 22.7555C38.5076 22.8873 38.4401 23.0092 38.3501 23.1137C38.2601 23.2182 38.1494 23.3029 38.0251 23.3625L30.0001 28L38.0251 32.6375C38.2532 32.7707 38.4194 32.9887 38.4873 33.244C38.5552 33.4993 38.5194 33.7711 38.3876 34Z" fill="#040415"/>
</svg>
