<svg width="57" height="56" viewBox="0 0 57 56" fill="none" xmlns="http://www.w3.org/2000/svg">
<rect x="0.5" width="56" height="56" rx="10" fill="white"/>
<rect x="0.5" width="56" height="56" rx="10" fill="#F2F2F8"/>
<path d="M15.1667 21.3334C15.1667 20.6262 15.4477 19.9479 15.9478 19.4478C16.4479 18.9477 17.1262 18.6667 17.8334 18.6667H39.1667C39.874 18.6667 40.5523 18.9477 41.0524 19.4478C41.5525 19.9479 41.8334 20.6262 41.8334 21.3334V34.6667C41.8334 35.374 41.5525 36.0523 41.0524 36.5524C40.5523 37.0525 39.874 37.3334 39.1667 37.3334H17.8334C17.1262 37.3334 16.4479 37.0525 15.9478 36.5524C15.4477 36.0523 15.1667 35.374 15.1667 34.6667V21.3334Z" stroke="#040415" stroke-width="2" stroke-linecap="round" stroke-linejoin="round"/>
<path d="M28.5 32C30.7091 32 32.5 30.2091 32.5 28C32.5 25.7909 30.7091 24 28.5 24C26.2909 24 24.5 25.7909 24.5 28C24.5 30.2091 26.2909 32 28.5 32Z" stroke="#040415" stroke-width="2" stroke-linecap="round" stroke-linejoin="round"/>
<path d="M15.1667 24.0001C16.5812 24.0001 17.9378 23.4382 18.938 22.438C19.9382 21.4378 20.5001 20.0812 20.5001 18.6667M36.5001 37.3334C36.5001 35.9189 37.062 34.5624 38.0622 33.5622C39.0624 32.562 40.4189 32.0001 41.8334 32.0001" stroke="#040415" stroke-width="2" stroke-linecap="round" stroke-linejoin="round"/>
</svg>
