<svg width="56" height="56" viewBox="0 0 56 56" fill="none" xmlns="http://www.w3.org/2000/svg">
<rect width="56" height="56" rx="10" fill="white"/>
<rect width="56" height="56" rx="10" fill="#F2F2F8"/>
<path d="M16 25.3333V22.6667C16 21.9594 16.281 21.2811 16.781 20.781C17.2811 20.281 17.9594 20 18.6667 20H21.3333M16 25.3333C17.7773 25.3333 21.3333 24.2667 21.3333 20M16 25.3333V30.6667M21.3333 20H34.6667M16 30.6667V33.3333C16 34.0406 16.281 34.7189 16.781 35.219C17.2811 35.719 17.9594 36 18.6667 36H21.3333M16 30.6667C17.7773 30.6667 21.3333 31.7333 21.3333 36M40 25.3333V22.6667C40 21.9594 39.719 21.2811 39.219 20.781C38.7189 20.281 38.0406 20 37.3333 20H34.6667M40 25.3333C38.2227 25.3333 34.6667 24.2667 34.6667 20M40 25.3333V28M21.3333 36H26.6667" stroke="#040415" stroke-width="2" stroke-linecap="round" stroke-linejoin="round"/>
<path d="M27.9999 30.6666C29.4727 30.6666 30.6666 29.4727 30.6666 27.9999C30.6666 26.5272 29.4727 25.3333 27.9999 25.3333C26.5272 25.3333 25.3333 26.5272 25.3333 27.9999C25.3333 29.4727 26.5272 30.6666 27.9999 30.6666Z" stroke="#040415" stroke-width="2" stroke-linecap="round" stroke-linejoin="round"/>
<path d="M36 36H40M36 32V36V32ZM36 40V36V40ZM36 36H32H36Z" stroke="#040415" stroke-width="2" stroke-linecap="round" stroke-linejoin="round"/>
</svg>
