<svg width="72" height="72" viewBox="0 0 72 72" fill="none" xmlns="http://www.w3.org/2000/svg">
<path fill-rule="evenodd" clip-rule="evenodd" d="M61.4185 25.476L72 35.9999L61.4185 46.5239L61.4569 61.4567L46.524 61.4184L36 71.9999L25.476 61.4184L10.5431 61.4567L10.5815 46.5239L0 35.9999L10.5815 25.476L10.5431 10.5431L25.476 10.5814L36 0L46.524 10.5814L61.4569 10.5431L61.4185 25.476ZM67.1118 35.9999L61.8019 30.69V41.3098L67.1118 35.9999ZM41.3099 10.5623L36 5.25238L30.7093 10.5623H41.3099ZM34.2172 15.3546H28.9073V20.6645H34.2172V15.3546ZM5.52076 35.9999L10.8307 41.3098V30.69L5.52076 35.9999ZM30.6901 61.5334L36 66.8433L41.2907 61.5334H30.6901ZM35.3674 50.952V56.2619H40.6773V50.952H35.3674ZM43.8978 56.2619H49.2077V50.952H43.8978V56.2619ZM45.3738 45.3354H49.2652H49.3035V23.329H45.4121V41.444H18.23V15.3929H14.3387V53.0989V56.952V56.9711H27.9297H28.2939H31.8019V45.3354H45.3738ZM41.4824 19.2651H49.246V15.3546H37.5911V18.1341V33.6613H25.9553V15.3738H22.0639V33.6613V37.5526H37.5911H39.623H41.4824V19.2651ZM53.1374 56.952H57.0288V15.3929H53.1374V56.952ZM18.1967 45.3345H27.9155V53.0981H18.1967V45.3345Z" fill="#01CAB0"/>
</svg>
