<svg width="230" height="56" viewBox="0 0 230 56" fill="none" xmlns="http://www.w3.org/2000/svg">
<rect width="230" height="56" rx="16" fill="white"/>
<path d="M40.4375 24.25H40.437C39.7119 24.25 39.1245 24.8373 39.1245 25.5625V31.5625C39.1245 32.2871 39.7119 32.8745 40.437 32.8745C41.1617 32.874 41.749 32.2867 41.749 31.5615V25.5615C41.749 24.8364 41.1612 24.249 40.4365 24.249L40.4375 24.25Z" fill="#040415"/>
<path d="M23.5625 24.2502H23.562C22.8369 24.2502 22.2495 24.8375 22.2495 25.5627V31.5627C22.2495 32.2874 22.8369 32.8747 23.562 32.8747C24.2867 32.8743 24.874 32.2869 24.874 31.5618V25.5618C24.874 24.8366 24.2862 24.2493 23.5615 24.2493L23.5625 24.2502Z" fill="#040415"/>
<path d="M25.8125 24.2499V33.2499C25.8125 34.0782 26.4838 34.7495 27.3125 34.7495H28.25V37.937C28.25 38.6617 28.8373 39.249 29.5625 39.249C30.2872 39.2485 30.8745 38.6612 30.8745 37.936V34.7485H33.1245V37.936C33.1245 38.6607 33.7119 39.2481 34.437 39.2481C35.1617 39.2476 35.7491 38.6603 35.7491 37.9351V34.7476H36.6866L36.6861 34.7476C37.5144 34.7476 38.1861 34.0758 38.1861 33.2476V24.2476L25.8125 24.2499Z" fill="#040415"/>
<path d="M38.0103 22.375C37.625 21.002 36.7072 19.8292 35.4687 19.0576C35.3994 19.0145 35.329 18.9723 35.2578 18.932C35.1865 18.8912 35.1148 18.8514 35.0431 18.8125L35.2812 18.3869L36.0261 17.0434V17.043C36.0786 16.9473 36.0444 16.8273 35.9492 16.7744C35.9487 16.7739 35.9487 16.7739 35.9483 16.7739C35.9192 16.7575 35.8873 16.7491 35.8545 16.7486L35.854 16.7485C35.7819 16.7481 35.7158 16.787 35.6811 16.8503L34.9264 18.212L34.6883 18.6409C34.6133 18.6076 34.5373 18.5762 34.4604 18.5471C34.3836 18.5181 34.3067 18.4876 34.2284 18.4599L34.2279 18.4595C32.7865 17.9523 31.2158 17.9523 29.7748 18.4595C29.6965 18.4871 29.6192 18.5162 29.5428 18.5467C29.4659 18.5776 29.39 18.609 29.315 18.6404L29.0769 18.2115L28.3222 16.8521L28.3217 16.8517C28.2664 16.757 28.145 16.7256 28.0508 16.7809C27.9594 16.8339 27.9265 16.9496 27.9753 17.0429L28.7164 18.3835L28.9545 18.8092C28.8814 18.8471 28.8097 18.8865 28.7389 18.9268C28.6676 18.9671 28.5978 19.0093 28.5289 19.0543C27.2914 19.8259 26.3726 20.9987 25.9883 22.3703H25.9878C25.8814 22.7359 25.8228 23.1142 25.8134 23.4953H38.1819L38.1814 23.4948C38.1715 23.1142 38.1129 22.7364 38.0065 22.3707L38.0103 22.375ZM29.1875 21.625L29.187 21.6249C28.8762 21.6245 28.6245 21.3728 28.6245 21.0624C28.6245 20.7517 28.8762 20.4999 29.187 20.4999C29.4973 20.4999 29.7495 20.7517 29.7495 21.0624V21.062C29.7495 21.3723 29.4973 21.6245 29.187 21.6245L29.1875 21.625ZM34.8125 21.625L34.812 21.6249C34.5012 21.6245 34.2495 21.3728 34.2495 21.0624C34.2495 20.7517 34.5012 20.4999 34.812 20.4999C35.1223 20.4999 35.3745 20.7517 35.3745 21.0624V21.062C35.3745 21.3723 35.1223 21.6245 34.812 21.6245L34.8125 21.625Z" fill="#040415"/>
<path d="M60.416 33.208C58.7307 33.208 57.3333 32.6533 56.224 31.544C55.1147 30.424 54.56 29.0427 54.56 27.4C54.56 25.7573 55.1147 24.3813 56.224 23.272C57.3333 22.152 58.7307 21.592 60.416 21.592C61.4293 21.592 62.3627 21.832 63.216 22.312C64.08 22.792 64.752 23.4427 65.232 24.264L63.632 25.192C63.3333 24.6373 62.896 24.2 62.32 23.88C61.7547 23.5493 61.12 23.384 60.416 23.384C59.2213 23.384 58.2507 23.7627 57.504 24.52C56.768 25.2773 56.4 26.2373 56.4 27.4C56.4 28.5627 56.768 29.5227 57.504 30.28C58.2507 31.0373 59.2213 31.416 60.416 31.416C61.12 31.416 61.76 31.256 62.336 30.936C62.912 30.6053 63.344 30.1627 63.632 29.608L65.232 30.52C64.7627 31.3413 64.096 31.9973 63.232 32.488C62.3787 32.968 61.44 33.208 60.416 33.208ZM73.7987 33H71.7348L68.4548 29.304V33H66.7268V25H68.4548V28.536L71.5588 25H73.6708L70.1508 28.92L73.7987 33ZM80.6565 25H82.3845V33H80.6565V31.848C80.0058 32.7547 79.0725 33.208 77.8565 33.208C76.7578 33.208 75.8192 32.8027 75.0405 31.992C74.2618 31.1707 73.8725 30.1733 73.8725 29C73.8725 27.816 74.2618 26.8187 75.0405 26.008C75.8192 25.1973 76.7578 24.792 77.8565 24.792C79.0725 24.792 80.0058 25.24 80.6565 26.136V25ZM76.3205 30.84C76.8005 31.32 77.4032 31.56 78.1285 31.56C78.8538 31.56 79.4565 31.32 79.9365 30.84C80.4165 30.3493 80.6565 29.736 80.6565 29C80.6565 28.264 80.4165 27.656 79.9365 27.176C79.4565 26.6853 78.8538 26.44 78.1285 26.44C77.4032 26.44 76.8005 26.6853 76.3205 27.176C75.8405 27.656 75.6005 28.264 75.6005 29C75.6005 29.736 75.8405 30.3493 76.3205 30.84ZM89.2626 25H90.9906V33H89.2626V30.296C88.6226 30.5307 87.9506 30.648 87.2466 30.648C86.2546 30.648 85.4706 30.4027 84.8946 29.912C84.3186 29.4213 84.0306 28.7013 84.0306 27.752V25H85.7586V27.592C85.7586 28.552 86.3293 29.032 87.4706 29.032C88.1426 29.032 88.74 28.9093 89.2626 28.664V25ZM99.344 25H101.072V33H99.344V31.848C98.6933 32.7547 97.76 33.208 96.544 33.208C95.4453 33.208 94.5067 32.8027 93.728 31.992C92.9493 31.1707 92.56 30.1733 92.56 29C92.56 27.816 92.9493 26.8187 93.728 26.008C94.5067 25.1973 95.4453 24.792 96.544 24.792C97.76 24.792 98.6933 25.24 99.344 26.136V25ZM95.008 30.84C95.488 31.32 96.0907 31.56 96.816 31.56C97.5413 31.56 98.144 31.32 98.624 30.84C99.104 30.3493 99.344 29.736 99.344 29C99.344 28.264 99.104 27.656 98.624 27.176C98.144 26.6853 97.5413 26.44 96.816 26.44C96.0907 26.44 95.488 26.6853 95.008 27.176C94.528 27.656 94.288 28.264 94.288 29C94.288 29.736 94.528 30.3493 95.008 30.84ZM109.198 25V26.664H106.59V33H104.862V26.664H102.238V25H109.198ZM113.855 27.72C114.709 27.72 115.407 27.9653 115.951 28.456C116.495 28.936 116.767 29.5707 116.767 30.36C116.767 31.1387 116.495 31.7733 115.951 32.264C115.407 32.7547 114.709 33 113.855 33H110.367V25H112.095V27.72H113.855ZM113.871 31.448C114.213 31.448 114.495 31.3467 114.719 31.144C114.954 30.9413 115.071 30.68 115.071 30.36C115.071 30.0293 114.954 29.768 114.719 29.576C114.495 29.3733 114.213 29.272 113.871 29.272H112.095V31.448H113.871ZM129.22 31.368H130.292V35.144H128.596V33H123.108V35.144H121.412V31.368H122.388C122.879 30.6747 123.124 29.7093 123.124 28.472V25H129.22V31.368ZM124.292 31.368H127.524V26.584H124.82V28.472C124.82 29.6133 124.644 30.5787 124.292 31.368ZM138.448 25V33H136.72V26.664H134.048V29.64C134.048 30.9093 133.77 31.8107 133.216 32.344C132.661 32.8773 131.872 33.096 130.848 33V31.384C131.338 31.4693 131.706 31.368 131.952 31.08C132.197 30.792 132.32 30.2853 132.32 29.56V25H138.448ZM146.653 25V33H144.957V30.312H143.997L141.965 33H139.933L142.093 30.152C141.538 29.9707 141.09 29.6507 140.749 29.192C140.418 28.7333 140.253 28.2213 140.253 27.656C140.253 26.92 140.514 26.296 141.037 25.784C141.57 25.2613 142.253 25 143.085 25H146.653ZM143.181 28.824H144.957V26.568H143.181C142.829 26.568 142.536 26.6693 142.301 26.872C142.066 27.0747 141.949 27.352 141.949 27.704C141.949 28.0453 142.066 28.3173 142.301 28.52C142.536 28.7227 142.829 28.824 143.181 28.824ZM160.072 33L159.288 30.744H154.52L153.736 33H151.736L155.8 21.8H158.008L162.056 33H160.072ZM155.128 29.016H158.68L156.904 23.96L155.128 29.016ZM167.357 24.792C168.274 24.792 169.015 25.0853 169.581 25.672C170.146 26.2587 170.429 27.064 170.429 28.088V33H168.701V28.264C168.701 27.6667 168.541 27.208 168.221 26.888C167.901 26.568 167.463 26.408 166.909 26.408C166.301 26.408 165.81 26.6 165.437 26.984C165.063 27.3573 164.877 27.9333 164.877 28.712V33H163.149V25H164.877V26.024C165.399 25.2027 166.226 24.792 167.357 24.792ZM178.625 21.8H180.353V33H178.625V31.848C177.975 32.7547 177.041 33.208 175.825 33.208C174.727 33.208 173.788 32.8027 173.009 31.992C172.231 31.1707 171.841 30.1733 171.841 29C171.841 27.816 172.231 26.8187 173.009 26.008C173.788 25.1973 174.727 24.792 175.825 24.792C177.041 24.792 177.975 25.24 178.625 26.136V21.8ZM174.289 30.84C174.769 31.32 175.372 31.56 176.097 31.56C176.823 31.56 177.425 31.32 177.905 30.84C178.385 30.3493 178.625 29.736 178.625 29C178.625 28.264 178.385 27.656 177.905 27.176C177.425 26.6853 176.823 26.44 176.097 26.44C175.372 26.44 174.769 26.6853 174.289 27.176C173.809 27.656 173.569 28.264 173.569 29C173.569 29.736 173.809 30.3493 174.289 30.84ZM184.095 26.344C184.533 25.352 185.354 24.856 186.559 24.856V26.728C185.898 26.6853 185.322 26.8453 184.831 27.208C184.341 27.56 184.095 28.1467 184.095 28.968V33H182.367V25H184.095V26.344ZM191.237 33.208C190.064 33.208 189.066 32.8027 188.245 31.992C187.424 31.1813 187.013 30.184 187.013 29C187.013 27.816 187.424 26.8187 188.245 26.008C189.066 25.1973 190.064 24.792 191.237 24.792C192.421 24.792 193.418 25.1973 194.229 26.008C195.05 26.8187 195.461 27.816 195.461 29C195.461 30.184 195.05 31.1813 194.229 31.992C193.418 32.8027 192.421 33.208 191.237 33.208ZM189.461 30.808C189.941 31.288 190.533 31.528 191.237 31.528C191.941 31.528 192.533 31.288 193.013 30.808C193.493 30.328 193.733 29.7253 193.733 29C193.733 28.2747 193.493 27.672 193.013 27.192C192.533 26.712 191.941 26.472 191.237 26.472C190.533 26.472 189.941 26.712 189.461 27.192C188.981 27.672 188.741 28.2747 188.741 29C188.741 29.7253 188.981 30.328 189.461 30.808ZM198.656 23.48C198.442 23.6933 198.186 23.8 197.888 23.8C197.589 23.8 197.328 23.6933 197.104 23.48C196.89 23.256 196.784 22.9947 196.784 22.696C196.784 22.3973 196.89 22.1413 197.104 21.928C197.317 21.704 197.578 21.592 197.888 21.592C198.197 21.592 198.458 21.704 198.672 21.928C198.885 22.1413 198.992 22.3973 198.992 22.696C198.992 22.9947 198.88 23.256 198.656 23.48ZM197.024 33V25H198.752V33H197.024ZM207.094 21.8H208.822V33H207.094V31.848C206.443 32.7547 205.51 33.208 204.294 33.208C203.195 33.208 202.257 32.8027 201.478 31.992C200.699 31.1707 200.31 30.1733 200.31 29C200.31 27.816 200.699 26.8187 201.478 26.008C202.257 25.1973 203.195 24.792 204.294 24.792C205.51 24.792 206.443 25.24 207.094 26.136V21.8ZM202.758 30.84C203.238 31.32 203.841 31.56 204.566 31.56C205.291 31.56 205.894 31.32 206.374 30.84C206.854 30.3493 207.094 29.736 207.094 29C207.094 28.264 206.854 27.656 206.374 27.176C205.894 26.6853 205.291 26.44 204.566 26.44C203.841 26.44 203.238 26.6853 202.758 27.176C202.278 27.656 202.038 28.264 202.038 29C202.038 29.736 202.278 30.3493 202.758 30.84Z" fill="#040415"/>
</svg>
