<svg width="123" height="78" viewBox="0 0 123 78" fill="none" xmlns="http://www.w3.org/2000/svg">
<path fill-rule="evenodd" clip-rule="evenodd" d="M47.2575 51.9427L38.2796 52.6833C41.3148 52.9619 44.3096 52.6871 47.2575 51.9427ZM66.6449 55.6203C63.1877 55.5091 59.7597 55.5173 56.3562 55.0259C59.7367 56.236 63.202 56.0355 66.6449 55.6203ZM61.2648 43.4212C61.6266 42.1397 60.7533 42.0785 59.9623 41.9843C57.2874 41.6644 55.4314 43.2947 53.672 44.8706C52.3895 46.019 51.201 47.3743 50.7087 49.127C50.5207 49.7951 50.5563 50.3758 51.5522 50.1296C54.2711 49.457 56.8263 48.4388 58.9706 46.5825C59.9921 45.6981 60.8179 44.6492 61.2648 43.4212ZM56.7772 53.5081C58.8444 54.1735 61.0093 54.1349 63.1526 54.1629C72.4139 54.2833 80.9544 51.6259 89.1523 47.512C94.6284 44.7637 99.7887 41.5203 104.845 38.0882C105.306 37.7755 105.76 37.4407 106.341 37.3965C106.993 37.3472 107.401 37.5078 106.908 38.2268C106.787 38.4041 106.466 38.5142 106.807 38.7276C107.982 39.464 107.385 40.3036 106.93 41.0911C106.078 42.5692 104.675 43.5387 103.413 44.6007C99.8783 47.5763 96.2271 50.4211 92.2343 52.7621C88.5274 54.9352 84.5472 56.5469 80.5242 58.0462C77.9634 59.0005 75.3453 59.9358 72.6282 59.949C70.8231 59.9578 69.1893 60.621 67.4231 60.6486C64.0371 60.7014 60.6639 60.7179 57.3276 60.0194C54.5817 59.4443 52.1694 58.2231 50.1763 56.2461C49.5194 55.5941 48.7982 55.3675 47.9235 55.4808C45.5664 55.7854 43.1922 56.0152 40.8345 56.2114C36.9986 56.5314 33.1297 56.2412 29.297 55.8039C23.184 55.1064 17.2236 53.8057 11.6566 51.0645C8.38459 49.4534 5.26338 47.6523 3.3704 44.3375C2.87196 43.4648 2.56915 42.5679 2.8758 41.5516C3.00745 41.1135 3.23651 40.8167 3.71836 40.7476C4.28793 40.6667 4.2357 41.0411 4.38257 41.4355C5.38905 44.1408 7.88394 45.1284 10.1955 46.2878C16.5654 49.4829 23.4438 50.6444 30.4492 51.2672C35.8099 51.7436 41.1657 51.6925 46.5092 51.0146C46.9336 50.9608 47.4575 51.1155 47.3326 50.308C46.8971 47.4947 47.7654 44.9699 49.3393 42.7082C51.7684 39.2169 54.8785 36.6921 59.3715 36.6132C61.7858 36.5706 63.0857 37.6998 63.889 39.9624C65.9368 45.7263 62.6937 50.4731 58.0319 52.5858C57.6141 52.7745 57.1969 52.9633 56.7802 53.1517C56.779 53.2708 56.7783 53.3895 56.7772 53.5081Z" fill="#01CAB0"/>
<path fill-rule="evenodd" clip-rule="evenodd" d="M108.939 31.4982C111.785 31.3751 114.55 30.8718 117.197 29.811C114.444 30.3733 111.692 30.936 108.939 31.4982ZM111.409 43.9772C112.218 41.2075 113.484 38.6241 114.647 35.9981C114.821 35.6057 115.232 35.2372 114.813 34.7415C114.411 34.2654 113.936 34.5141 113.542 34.6448C111.395 35.355 109.16 35.3954 106.951 35.6858C105.555 35.8698 104.183 36.319 102.744 36.4643C100.527 36.6872 98.3249 37.0766 96.1267 37.4523C95.0127 37.6426 93.8578 37.303 92.7623 37.9409C91.6875 38.5665 90.839 38.0638 90.1779 36.3645C89.8402 35.4974 89.8812 34.4728 90.9705 34.0277C91.8664 33.6617 92.8061 33.3587 93.7546 33.1749C100.032 31.959 106.319 30.7938 112.598 29.5851C114.008 29.314 115.4 28.9474 116.796 28.6082C119.334 27.9912 120.184 28.5672 120.767 31.1251C121.219 33.1108 120.832 34.8474 119.718 36.5349C117.574 39.7834 115.522 43.0932 114.021 46.7037C113.72 47.4273 113.522 48.1924 113.249 48.9288C112.934 49.7816 112.464 49.895 111.851 49.1792C110.492 47.5934 110.454 47.1718 111.409 43.9772Z" fill="#01CAB0"/>
</svg>
