<svg width="1170" height="362" viewBox="0 0 1170 362" fill="none" xmlns="http://www.w3.org/2000/svg">
<g clip-path="url(#clip0_2_2406)">
<path d="M0 30.0002C0 13.4317 13.4315 0.000244141 30 0.000244141H1140C1156.57 0.000244141 1170 13.4317 1170 30.0002V332C1170 348.569 1156.57 362 1140 362H30C13.4315 362 0 348.569 0 332V30.0002Z" fill="#040415"/>
<g opacity="0.1" clip-path="url(#clip1_2_2406)">
<path d="M-1513.81 523.789C-1291.31 523.438 -1056.66 532.11 -836.487 512.102C-525.467 483.913 -227.986 415.45 81.2615 381.51C324.285 354.817 503.95 386.583 711.523 465.003C868.899 524.467 1031.29 597.137 1222.54 602.069C1448.81 607.889 1667.55 510.793 1866.98 455.84C1971.44 427.043 2086.66 396.68 2203.34 403.365C2312.71 409.629 2415.17 443.849 2506.63 479.331C2688.97 550.108 2874.86 655.175 3104.83 645.802C3386.1 634.302 3633.5 532.765 3916.76 523.789" stroke="#BEE6F2" stroke-miterlimit="10"/>
<path d="M-1513.77 493.729C-1296.58 493.309 -1065.4 501.98 -850.852 480.5C-529.688 448.313 -224.212 372.628 94.6149 334.154C216.013 319.522 331.076 311.06 449.985 336.725C546.87 357.645 632.102 394.366 714.316 431.484C861.397 497.843 1016.66 582.949 1207.45 589.61C1442.03 597.815 1678.34 483.118 1881.01 422.555C1987.28 390.79 2109.59 353.999 2230.72 361.782C2340.58 368.795 2441.69 408.227 2529.22 447.168C2701.87 523.929 2885.53 645.428 3116.75 633.671C3397 619.389 3634.14 505.276 3916.91 493.613" stroke="#BEE6F2" stroke-miterlimit="10"/>
<path d="M-1513.74 464.162C-1301.11 463.718 -1073.06 472.343 -863.45 449.88C-534.139 414.585 -222.855 332.401 104.004 290.305C225.817 274.621 340.541 264.897 458.847 294.021C554.826 317.793 636.626 358.581 714.843 399.345C853.288 471.408 1002.07 567.195 1193.8 575.259C1316.33 580.425 1439.54 540.806 1545.36 507.264C1662.76 470.052 1775.64 427.651 1893 390.393C2000.86 356.173 2129.08 314.193 2254.29 322.958C2364.94 330.695 2464.47 374.148 2548.87 415.988C2713.6 497.797 2893.79 633.04 3127.24 619.343C3406.99 602.981 3634.21 477.508 3916.95 464.068" stroke="#BEE6F2" stroke-miterlimit="10"/>
<path d="M-1513.7 435.131C-1304.88 434.687 -1079.24 443.336 -873.669 420.452C-538.55 383.17 -223.646 295.377 108.682 250.662C229.93 234.3 345.52 223.852 462.62 255.056C558.486 280.604 637.835 324.898 713.223 368.468C845.898 445.112 989.057 548.847 1183.13 557.799C1309.01 563.549 1435.81 520.634 1543.29 485.152C1664.61 445.065 1780.88 399.439 1902.2 359.305C2011.57 323.099 2143.57 277.823 2272.13 287.056C2383.95 295.096 2481.78 341.26 2563.88 385.508C2723.52 471.501 2898.21 616.445 3135.38 601.836C3415.14 584.609 3633.69 449.062 3916.99 435.225" stroke="#BEE6F2" stroke-miterlimit="10"/>
<path d="M-1513.62 406.616C-1307.75 406.242 -1083.51 415.054 -880.949 392.358C-543.002 354.491 -227.231 262.093 107.662 216.163C227.25 199.801 344.99 189.143 460.43 220.557C557.089 246.853 635.343 293.532 709.336 338.948C839.899 419.214 978.834 527.11 1176.98 535.805C1305.66 541.461 1432.79 498.102 1541.78 461.007C1665.66 418.934 1784.08 370.97 1907.93 328.85C2018.7 291.171 2151.26 245.17 2282.46 254.333C2395.6 262.234 2491.77 309.239 2572.85 355.38C2731.25 445.487 2897.6 594.1 3140.32 579.631C3420.79 562.919 3632.74 419.027 3917.21 406.663" stroke="#BEE6F2" stroke-miterlimit="10"/>
<path d="M-1513.59 378.566C-1308.46 377.771 -1084.94 387.681 -883.249 364.541C-547.602 325.95 -235.866 230.794 96.3866 183.789C215.635 166.936 333.3 156.838 448.664 187.879C546.718 214.315 626.519 261.554 701.606 307.531C834.582 388.967 974.988 498.241 1175.74 508.432C1305.32 515 1431.69 472.179 1541.17 434.5C1665.25 391.772 1783.44 342.873 1907.48 300.122C2018.77 261.741 2150.66 216.372 2282.84 226.189C2396.73 234.651 2492.34 281.75 2573.57 328.405C2732.61 419.774 2895.79 566.424 3140.44 552.797C3421.7 537.183 3631.46 389.364 3917.1 378.566" stroke="#BEE6F2" stroke-miterlimit="10"/>
<path d="M-1513.55 351.147C-1307.56 349.697 -1084.71 362.203 -882.306 337.449C-552.618 297.129 -247.897 200.407 78.2839 151.742C198.966 133.72 313.538 124.347 430.562 155.598C530.388 182.222 613.018 228.97 690.858 274.549C828.247 355.097 974.573 465.47 1175.32 479.377C1304.11 488.306 1430.94 445.368 1539.48 407.712C1662.05 365.195 1778.47 316.249 1901 273.685C2012.06 235.094 2143.94 190.075 2275.94 201.739C2389.49 211.766 2486.49 259.543 2568.86 305.684C2728.72 395.207 2896.62 539.098 3138.32 525.868C3420.27 510.418 3630.71 361.758 3917.02 351.147" stroke="#BEE6F2" stroke-miterlimit="10"/>
<path d="M-1513.47 324.198C-1306.31 322.468 -1084.07 338.456 -880.421 312.254C-557.446 270.694 -260.681 172.71 58.6354 122.923C180.336 103.896 292.23 95.4116 410.574 126.265C511.947 152.702 597.895 198.235 678.639 243.464C820.629 322.936 973.706 432.911 1174.26 450.185C1301.89 461.194 1427.73 419.144 1535.29 381.652C1655.78 339.578 1769.75 290.936 1890.17 248.886C2000.9 210.225 2131.54 166.492 2262.93 179.816C2376.6 191.363 2475.33 239.35 2559.54 284.999C2721.52 372.653 2894.92 512.944 3134.78 499.902C3417.97 484.521 3629.58 334.903 3917.14 324.338" stroke="#BEE6F2" stroke-miterlimit="10"/>
<path d="M-1513.4 297.761C-1304.81 296.102 -1082.68 316.32 -877.592 288.786C-562.009 246.455 -273.881 147.465 37.9311 96.8135C160.121 76.9688 269.904 69.5125 389.228 99.4782C492.412 125.377 581.565 169.601 665.439 214.012C813.35 292.058 971.783 400.444 1172.91 420.896C1299.02 433.705 1422.64 393.478 1529.14 356.243C1647 315.011 1758.06 266.79 1875.84 225.512C1986.15 186.827 2114.26 145.268 2244.86 160.064C2359.06 173.037 2459.83 220.837 2546.57 265.855C2711.79 351.569 2891.38 487.559 3129.95 474.587C3414.87 459.09 3628.1 308.467 3917.4 297.831" stroke="#BEE6F2" stroke-miterlimit="10"/>
<path d="M-1513.36 271.839C-1303.07 270.53 -1081.02 295.611 -874.084 266.884C-566.42 224.179 -287.456 124.301 16.3226 73.3692C138.438 52.8467 246.712 46.4655 366.64 75.1223C471.671 100.226 563.955 142.907 651.26 185.963C805.884 262.232 969.144 368.024 1171.02 391.421C1414.65 419.681 1660.84 272.611 1858.27 203.283C1968.16 164.669 2092.81 125.984 2222.27 142.183C2337.38 156.605 2440.26 203.937 2529.98 248.278C2699.38 331.981 2885.69 463.11 3123.66 450.067C3410.69 434.36 3625.96 282.638 3917.33 271.839" stroke="#BEE6F2" stroke-miterlimit="10"/>
<path d="M-1513.28 246.456C-1301.15 245.731 -1079.05 276.188 -869.973 246.456C-570.569 203.728 -301.222 103.382 -5.8906 52.2864C115.81 31.2496 223.028 26.0138 343.295 53.011C450.249 77.063 545.739 117.851 636.476 159.55C797.813 233.647 965.938 335.909 1168.83 362.205C1408.76 393.245 1644.36 250.429 1838.13 182.223C1945.27 144.568 2070.18 106.608 2196.1 126.008C2313.01 144.007 2416.01 187.646 2510.82 232.057C2685.09 313.633 2878.56 439.456 3116.53 426.273C3406.01 410.262 3623.58 257.395 3917.4 246.292" stroke="#BEE6F2" stroke-miterlimit="10"/>
<path d="M-1513.21 221.561C-1299.07 221.561 -1076.76 257.862 -865.336 227.031C-574.455 184.607 -314.988 83.8408 -28.369 33.0254C469.444 -55.3056 729.136 270.787 1166.42 333.196C1402.13 366.879 1625.8 229.205 1816.07 162.378C1922.72 124.979 2042.8 90.9232 2167.14 111.422C2285.52 130.94 2390.93 173.621 2489.55 217.19C2669.25 296.663 2870.22 416.759 3108.68 403.366C3400.85 387.004 3620.98 232.945 3917.51 221.561" stroke="#BEE6F2" stroke-miterlimit="10"/>
<path d="M-1513.13 197.205C-1296.92 198.187 -1074.23 240.447 -860.282 208.705C-578.075 166.842 -328.527 65.842 -50.846 15.4707C436.671 -72.9305 733.586 237.525 1163.82 304.399C1395.45 340.442 1605.7 208.869 1792.49 143.327C1898.69 106.069 2013.53 76.5006 2136.1 97.9348C2256.06 118.972 2364.15 160.578 2466.73 203.235C2652.2 280.37 2860.83 394.693 3100.31 380.996C3395.34 364.143 3618.22 208.962 3917.63 197.205" stroke="#BEE6F2" stroke-miterlimit="10"/>
<path d="M-1513.06 173.365C-1294.7 175.352 -1071.55 223.783 -854.927 191.246C-581.356 150.154 -342.029 49.0374 -72.9457 -0.656049C404.238 -88.8001 737.886 204.686 1161.14 276.024C1388.63 314.358 1584.58 189.259 1768.09 125.004C1873.92 87.9555 1983.06 63.1321 2103.74 85.2674C2225.37 107.683 2336.24 148.378 2442.89 189.984C2634.33 264.781 2850.65 373.144 3091.33 359.143C3389.27 341.776 3615.09 185.426 3917.48 173.271" stroke="#BEE6F2" stroke-miterlimit="10"/>
<path d="M-1512.98 150.037C-1292.51 153.052 -1068.72 207.678 -849.232 174.463C-584.109 134.306 -354.662 33.1429 -94.2533 -15.7091C372.786 -103.339 742.11 172.523 1158.42 248.139C1381.8 288.716 1563.05 170.279 1743.43 107.262C1848.8 70.4481 1952.62 50.5099 2071.31 73.44C2194.63 97.2817 2308.41 136.948 2419.06 177.525C2616.49 249.985 2840.43 352.364 3082.62 338.012C3383.69 320.154 3612.3 162.706 3917.7 150.037" stroke="#BEE6F2" stroke-miterlimit="10"/>
<path d="M-1512.91 127.247C-1290.4 131.268 -1065.86 191.947 -843.838 158.171C-586.861 119.066 -367.107 17.9264 -114.995 -29.9673C342.804 -116.919 746.372 140.991 1155.94 220.838C1375.24 263.612 1541.74 151.837 1719.18 89.9422C1824.1 53.3616 1922.83 38.3086 2039.25 61.8932C2164.27 87.184 2280.92 125.938 2395.53 165.394C2598.76 235.376 2830.17 331.982 3074.02 317.326C3378.11 298.977 3609.55 140.243 3917.93 127.294" stroke="#BEE6F2" stroke-miterlimit="10"/>
<path d="M-1512.83 104.947C-1288.1 109.925 -1063.03 176.425 -838.294 142.182C-589.049 104.199 -378.572 3.12875 -134.304 -43.7365C314.708 -129.894 750.558 110.112 1153.26 194.189C1368.9 239.208 1520.51 133.627 1695.5 72.9708C1800.08 36.7408 1893.64 26.2224 2008.1 50.4848C2134.74 77.2249 2254.22 115.208 2372.56 153.518C2581.38 221.093 2819.91 312.018 3065.46 296.989C3372.41 278.173 3606.57 118.293 3917.78 104.947" stroke="#BEE6F2" stroke-miterlimit="10"/>
<path d="M-1512.76 83.1863C-1285.91 88.9831 -1060.2 160.952 -832.939 126.358C-590.821 89.5207 -389.056 -11.5492 -152.105 -57.3158C77.7567 -101.727 322.288 -51.5892 536.989 1.98443C744.034 53.6647 940.859 121.45 1151 168.315C1363.92 215.811 1499.73 115.209 1673.4 56.119C1904.01 -22.3013 2140.21 77.1558 2351.29 141.645C2565.16 206.906 2810.41 292.409 3057.58 277.052C3367.24 257.838 3603.97 96.8368 3917.93 83.1629" stroke="#BEE6F2" stroke-miterlimit="10"/>
<path d="M-1512.68 61.9152C-1283.72 68.3898 -1057.97 145.338 -827.81 110.487C-592.141 74.771 -398.409 -26.2288 -167.831 -70.9904C59.9184 -115.261 310.899 -67.1804 526.618 -18.118C737.849 29.9393 938.897 93.4002 1149 143.327C1359.1 193.255 1481.82 97.5842 1653.26 39.3357C1878.63 -37.2147 2124.67 69.7222 2332.09 129.677C2550.45 192.787 2801.92 273.101 3050.45 257.534C3362.53 237.969 3601.59 75.8929 3917.85 61.9152" stroke="#BEE6F2" stroke-miterlimit="10"/>
<path d="M-1512.6 41.1836C-1281.5 48.1959 -1055.94 129.445 -823.096 94.3833C-593.046 59.7661 -406.441 -41.187 -181.973 -85.0837C44.0416 -129.144 300.754 -83.0267 517.454 -38.0314C732.419 6.63662 937.502 66.2875 1147.26 119.277C1246.22 144.264 1318.74 145.292 1414.42 113.059C1492.19 86.8568 1557.96 48.8036 1635.61 22.4142C1739.21 -12.8341 1821.72 -11.8524 1930.22 14.3501C2060.6 45.8818 2187.62 82.1352 2315.54 117.36C2537.56 178.32 2794.5 253.959 3044.16 238.251C3358.38 218.477 3599.44 55.325 3917.97 41.1836" stroke="#BEE6F2" stroke-miterlimit="10"/>
<path d="M-1512.53 20.9399C-1279.27 27.9522 -1054.39 113.081 -818.834 77.9028C-593.347 44.2206 -413.116 -57.1064 -193.174 -99.8812C31.6719 -143.614 293.099 -99.4137 510.666 -57.8077C728.233 -16.2016 937.125 40.3639 1146.21 96.4619C1242.83 122.384 1313.46 126.054 1408.31 93.9842C1483.51 68.5531 1546.27 31.0142 1621.28 5.39614C1724.31 -29.8054 1805.54 -26.0655 1912.16 1.00178C2043.17 34.2632 2172.15 70.4465 2302.49 104.69C2527.3 163.733 2789.25 235.164 3039.29 219.41C3355.25 199.519 3597.93 35.3852 3918.01 21.1503" stroke="#BEE6F2" stroke-miterlimit="10"/>
<path d="M-1512.45 1.2597C-1277.01 8.08496 -1053.41 96.1588 -815.215 60.8872C-593.085 27.953 -418.473 -74.1454 -201.585 -115.658C22.9587 -158.69 287.214 -116.499 506.139 -77.8619C726.836 -38.9439 937.539 15.2608 1145.75 74.4442C1240.41 101.325 1310.26 106.981 1404.39 74.9117C1477.55 50.0182 1537.78 12.713 1610.72 -12.4142C1713.26 -47.7326 1794.42 -42.0059 1899.41 -13.9102C2030.62 21.1511 2161.1 57.4278 2293.44 90.9464C2519.72 148.283 2786.05 216.022 3035.9 200.384C3353.1 180.516 3596.95 15.4478 3918.38 1.2597" stroke="#BEE6F2" stroke-miterlimit="10"/>
<path d="M-1512.38 -17.9297C-1274.79 -11.7356 -1053.11 78.4654 -812.273 43.1003C-592.444 10.8205 -421.603 -91.722 -207.318 -132.744C16.5094 -175.565 284.235 -134.286 503.725 -98.0564C726.685 -61.242 938.33 -8.50992 1145.56 53.8758C1238.68 81.9248 1308.9 88.7033 1402.54 56.4235C1474.2 31.717 1532.54 -5.6115 1604.08 -30.5517C1706.24 -66.174 1788.53 -59.4422 1892.28 -30.0609C2023.22 7.01053 2154.69 43.5444 2288.5 76.502C2515.45 132.39 2784.88 197.089 3033.71 181.686C3351.67 162.028 3596.12 -3.92858 3918.31 -17.9297" stroke="#BEE6F2" stroke-miterlimit="10"/>
<path d="M-1512.26 -36.6293C-1273.47 -31.0662 -1053.33 60.1165 -811.028 24.4241C-591.952 -7.83225 -422.13 -110.281 -208.523 -151.069C15.0777 -193.75 284.01 -151.63 503.575 -116.172C727.327 -80.0351 938.294 -27.7003 1145.79 34.9658C1238.57 63.0149 1309.77 68.8584 1402.77 36.789C1473.93 12.2461 1531.9 -24.7552 1603.06 -49.3682C1704.89 -84.5697 1788.69 -78.0249 1891.45 -47.8021C2021.83 -9.46846 2153.45 27.3459 2287.82 59.9762C2513.68 114.835 2786.61 178.811 3033.52 162.823C3351.03 142.3 3597.07 -20.8517 3918.42 -36.5591" stroke="#BEE6F2" stroke-miterlimit="10"/>
<path d="M-1512.19 -55.0258C-1272.86 -49.7432 -1053.37 42.0472 -810.499 5.93409C-591.763 -26.6028 -421.074 -128.187 -207.316 -168.718C16.2851 -211.119 284.614 -167.152 503.84 -131.459C726.875 -95.1358 936.937 -42.8946 1145.87 16.8031C1343.64 73.2985 1441.65 -13.5833 1604.53 -67.7647C1706.36 -101.634 1790.69 -95.4631 1892.51 -65.1234C2022.32 -26.4392 2153.71 10.2817 2288.05 42.5381C2512.59 96.4389 2789.07 160.718 3034.2 143.374C3350.35 120.982 3599.41 -35.5317 3918.61 -54.6752" stroke="#BEE6F2" stroke-miterlimit="10"/>
<path d="M-1512.11 -73.1394C-1272.07 -68.0438 -1053.11 24.4245 -809.481 -11.9925C-590.745 -44.7164 -419.377 -145.225 -205.506 -185.382C18.0954 -227.456 285.632 -181.806 504.519 -145.997C726.687 -109.65 935.957 -57.6423 1146.09 -0.959896C1342.2 51.9592 1443.73 -33.3799 1606.72 -85.1069C1708.55 -117.504 1793.63 -111.52 1894.55 -81.1333C2023.75 -42.2387 2154.77 -5.79837 2289.07 25.897C2512.7 78.6993 2791.93 142.3 3035.03 123.788C3349.6 99.8529 3601.71 -49.8587 3918.57 -72.0408" stroke="#BEE6F2" stroke-miterlimit="10"/>
<path d="M-1512.04 -90.927C-1271.16 -85.9717 -1052.54 7.24453 -808.01 -29.3361C-589.538 -62.0132 -417.151 -161.377 -203.13 -201.113C20.4712 -242.485 287.14 -195.69 505.612 -159.857C726.724 -123.628 935.541 -72.0173 1146.43 -18.4671C1341.15 30.9226 1446.14 -52.5233 1609.55 -101.843C1711.64 -132.627 1797.36 -126.643 1897.53 -96.2797C2026.02 -57.3149 2156.77 -21.2954 2290.84 9.65205C2513.91 61.1921 2794.83 123.227 3036.27 103.756C3349.29 78.5357 3604.31 -64.1402 3918.76 -89.0571" stroke="#BEE6F2" stroke-miterlimit="10"/>
<path d="M-1511.96 -108.412C-1270.07 -103.503 -1051.86 -9.56261 -806.088 -46.1666C-587.805 -78.6567 -414.362 -176.898 -200.152 -215.84C23.3736 -256.487 288.685 -208.64 507.082 -172.925C726.987 -136.928 935.163 -85.8559 1146.92 -35.5313C1340.16 10.3989 1448.85 -70.8497 1613.02 -117.505C1715.45 -146.629 1801.85 -140.435 1901.37 -110.165C2028.86 -71.0025 2159.67 -36.1549 2293.25 -5.77596C2516.13 44.3383 2797.85 104.083 3037.89 83.7237C3348.88 57.4745 3607.02 -78.0022 3918.72 -105.28" stroke="#BEE6F2" stroke-miterlimit="10"/>
<path d="M-1511.85 -125.569C-1268.86 -120.661 -1050.73 -25.9017 -803.749 -62.4589C-585.654 -94.6919 -411.042 -191.625 -196.568 -229.771C26.8823 -269.507 291.063 -220.912 509.044 -185.36C727.78 -149.738 935.391 -99.3668 1147.64 -52.3145C1339.45 -9.77354 1452.06 -88.6147 1617.21 -132.441C1720.13 -159.766 1807.17 -153.221 1906.13 -123.092C2032.84 -84.1884 2163.18 -49.9938 2296.46 -20.6893C2519.45 27.8589 2801.13 84.3542 3039.9 63.4577C3348.88 36.4138 3609.97 -91.6533 3918.95 -121.058" stroke="#BEE6F2" stroke-miterlimit="10"/>
<path d="M-1511.77 -142.352C-1267.54 -137.42 -1049.45 -41.8429 -801.071 -78.1196C-583.127 -109.955 -407.271 -205.486 -192.721 -242.721C30.6158 -281.475 293.4 -232.296 511.194 -197.047C728.308 -161.986 935.843 -112.41 1148.32 -68.6998C1338.77 -29.5014 1455.53 -105.654 1621.81 -146.512C1725.29 -171.944 1813.01 -164.908 1911.56 -134.825C2037.41 -96.294 2167.16 -62.8688 2300 -34.7605C2523.38 11.9878 2804.19 64.72 3041.93 43.3326C3348.76 15.7511 3612.68 -104.766 3918.87 -135.971" stroke="#BEE6F2" stroke-miterlimit="10"/>
<path d="M-1511.7 -158.807C-1266.11 -153.759 -1047.83 -57.2699 -798.016 -93.3597C-580.223 -124.634 -403.085 -218.645 -188.309 -254.875C34.8775 -292.508 296.229 -242.978 513.532 -208.127C729.138 -173.533 936.447 -125.078 1149 -84.7346C1338.13 -48.8553 1459.26 -122.133 1626.78 -159.859C1730.91 -183.233 1819.31 -175.66 1917.55 -145.835C2042.57 -107.76 2171.78 -75.2275 2304.22 -48.4813C2528.32 -3.5327 2807.54 44.735 3044.42 22.9736C3349.03 -5.07542 3615.66 -117.762 3918.99 -150.58" stroke="#BEE6F2" stroke-miterlimit="10"/>
<path d="M-1511.62 -174.887C-1264.57 -169.698 -1046.32 -72.2744 -794.661 -107.873C-577.019 -138.68 -398.485 -231.102 -183.483 -266.21C39.5147 -302.604 299.245 -252.91 516.246 -218.503C730.343 -184.541 937.464 -137.301 1149.83 -100.37C1337.67 -67.6463 1463.45 -137.932 1632.29 -172.409C1737.13 -193.797 1826.21 -185.405 1924.23 -156.047C2048.37 -118.55 2176.97 -87.0116 2308.9 -61.7093C2533.86 -18.8177 2810.82 24.4713 3047.02 2.45284C3349.37 -25.5962 3618.53 -130.546 3918.99 -164.719" stroke="#BEE6F2" stroke-miterlimit="10"/>
<path d="M-1511.55 -190.572C-1262.94 -185.196 -1044.47 -86.837 -791.227 -121.945C-573.472 -152.028 -393.543 -242.86 -178.276 -276.752C44.4951 -311.814 302.415 -262.143 519.416 -228.251C731.929 -195.013 938.899 -149.129 1151.03 -115.634C1337.6 -86.1592 1468.28 -153.173 1638.51 -184.237C1744.11 -203.498 1833.83 -194.288 1931.77 -165.07C2055.01 -128.231 2182.97 -97.7951 2314.33 -74.0747C2540.16 -33.3803 2814.33 4.5794 3050 -17.6962C3349.97 -45.9088 3621.54 -142.678 3919.14 -178.02" stroke="#BEE6F2" stroke-miterlimit="10"/>
</g>
</g>
<defs>
<clipPath id="clip0_2_2406">
<rect y="0.000244141" width="1170" height="362" rx="50" fill="white"/>
</clipPath>
<clipPath id="clip1_2_2406">
<rect width="3365" height="1240" fill="white" transform="translate(-1514 -422)"/>
</clipPath>
</defs>
</svg>
