<svg width="158" height="133" viewBox="0 0 158 133" fill="none" xmlns="http://www.w3.org/2000/svg">
<g opacity="0.8">
<mask id="path-1-inside-1_2_149" fill="white">
<path d="M128.124 11.2085C129.234 6.70414 133.8 3.92046 138.201 5.38733C157.332 11.7634 174.284 23.5378 186.962 39.371C199.64 55.2043 207.423 74.3208 209.462 94.3828C209.931 98.9982 206.216 102.845 201.578 102.944C196.94 103.043 193.141 99.3531 192.602 94.7453C190.687 78.3815 184.216 62.8197 173.848 49.8717C163.481 36.9237 149.71 27.2071 134.161 21.7601C129.783 20.2263 127.013 15.7128 128.124 11.2085Z"/>
</mask>
<path d="M128.124 11.2085C129.234 6.70414 133.8 3.92046 138.201 5.38733C157.332 11.7634 174.284 23.5378 186.962 39.371C199.64 55.2043 207.423 74.3208 209.462 94.3828C209.931 98.9982 206.216 102.845 201.578 102.944C196.94 103.043 193.141 99.3531 192.602 94.7453C190.687 78.3815 184.216 62.8197 173.848 49.8717C163.481 36.9237 149.71 27.2071 134.161 21.7601C129.783 20.2263 127.013 15.7128 128.124 11.2085Z" stroke="#01CAB0" stroke-width="40" mask="url(#path-1-inside-1_2_149)"/>
</g>
<mask id="path-2-inside-2_2_149" fill="white">
<path d="M11.629 129.767C7.14487 130.957 2.51023 128.289 1.68294 123.724C-0.941925 109.241 -0.497603 94.3341 3.02499 79.9781C6.54759 65.622 13.0536 52.2029 22.0844 40.5794C24.9307 36.916 30.2738 36.6965 33.698 39.8265C37.1223 42.9564 37.3246 48.2479 34.5344 51.9543C27.3722 61.4686 22.1927 72.3596 19.341 83.9816C16.4893 95.6036 16.0392 107.655 17.9841 119.404C18.7417 123.981 16.1131 128.578 11.629 129.767Z"/>
</mask>
<path d="M11.629 129.767C7.14487 130.957 2.51023 128.289 1.68294 123.724C-0.941925 109.241 -0.497603 94.3341 3.02499 79.9781C6.54759 65.622 13.0536 52.2029 22.0844 40.5794C24.9307 36.916 30.2738 36.6965 33.698 39.8265C37.1223 42.9564 37.3246 48.2479 34.5344 51.9543C27.3722 61.4686 22.1927 72.3596 19.341 83.9816C16.4893 95.6036 16.0392 107.655 17.9841 119.404C18.7417 123.981 16.1131 128.578 11.629 129.767Z" stroke="#1F4D91" stroke-width="40" mask="url(#path-2-inside-2_2_149)"/>
<mask id="path-3-inside-3_2_149" fill="white">
<path d="M36.6935 36.6935C33.4131 33.4131 33.3927 28.0655 36.9247 25.0578C47.8486 15.7554 60.5875 8.77059 74.3681 4.5675C88.1488 0.364406 102.617 -0.94904 116.873 0.673454C121.483 1.19806 124.45 5.64678 123.559 10.1996C122.668 14.7523 118.254 17.6782 113.637 17.2239C102.096 16.0882 90.4145 17.2374 79.2692 20.6367C68.1239 24.036 57.7898 29.6015 48.8466 36.985C45.2691 39.9386 39.9739 39.9739 36.6935 36.6935Z"/>
</mask>
<path d="M36.6935 36.6935C33.4131 33.4131 33.3927 28.0655 36.9247 25.0578C47.8486 15.7554 60.5875 8.77059 74.3681 4.5675C88.1488 0.364406 102.617 -0.94904 116.873 0.673454C121.483 1.19806 124.45 5.64678 123.559 10.1996C122.668 14.7523 118.254 17.6782 113.637 17.2239C102.096 16.0882 90.4145 17.2374 79.2692 20.6367C68.1239 24.036 57.7898 29.6015 48.8466 36.985C45.2691 39.9386 39.9739 39.9739 36.6935 36.6935Z" stroke="#004650" stroke-width="40" mask="url(#path-3-inside-3_2_149)"/>
<path d="M36.6935 36.6935C33.4131 33.4131 33.3927 28.0655 36.9247 25.0578C47.8486 15.7554 60.5875 8.77059 74.3681 4.5675C88.1488 0.364406 102.617 -0.94904 116.873 0.673454C121.483 1.19806 124.45 5.64678 123.559 10.1996C122.668 14.7523 118.254 17.6782 113.637 17.2239C102.096 16.0882 90.4145 17.2374 79.2692 20.6367C68.1239 24.036 57.7898 29.6015 48.8466 36.985C45.2691 39.9386 39.9739 39.9739 36.6935 36.6935Z" stroke="#046A71" stroke-width="40" mask="url(#path-3-inside-3_2_149)"/>
<mask id="path-4-inside-4_2_149" fill="white">
<path d="M185.061 159.053C188.906 161.649 189.944 166.895 187.05 170.52C176.518 183.709 162.932 194.199 147.417 201.051C129.333 209.037 109.363 211.756 89.8027 208.894C70.2426 206.033 51.8875 197.708 36.849 184.878C23.9462 173.869 13.9346 159.927 7.62149 144.274C5.88629 139.971 8.38342 135.243 12.8108 133.857C17.2382 132.471 21.9137 134.957 23.7142 139.233C29.0391 151.877 37.2574 163.142 47.7532 172.097C60.3855 182.875 75.8038 189.868 92.2343 192.271C108.665 194.675 125.44 192.391 140.63 185.683C153.251 180.109 164.352 171.67 173.075 161.081C176.025 157.5 181.217 156.457 185.061 159.053Z"/>
</mask>
<path d="M185.061 159.053C188.906 161.649 189.944 166.895 187.05 170.52C176.518 183.709 162.932 194.199 147.417 201.051C129.333 209.037 109.363 211.756 89.8027 208.894C70.2426 206.033 51.8875 197.708 36.849 184.878C23.9462 173.869 13.9346 159.927 7.62149 144.274C5.88629 139.971 8.38342 135.243 12.8108 133.857C17.2382 132.471 21.9137 134.957 23.7142 139.233C29.0391 151.877 37.2574 163.142 47.7532 172.097C60.3855 182.875 75.8038 189.868 92.2343 192.271C108.665 194.675 125.44 192.391 140.63 185.683C153.251 180.109 164.352 171.67 173.075 161.081C176.025 157.5 181.217 156.457 185.061 159.053Z" stroke="#006E63" stroke-width="40" mask="url(#path-4-inside-4_2_149)"/>
</svg>
