<svg width="102" height="102" viewBox="0 0 102 102" fill="none" xmlns="http://www.w3.org/2000/svg">
<path d="M101.75 0H0V101.75H101.75V0Z" fill="#040415"/>
<path d="M9.39782 6.32544H6.32544V9.39782H9.39782V6.32544Z" fill="white"/>
<path d="M12.4702 6.32544H9.39783V9.39782H12.4702V6.32544Z" fill="white"/>
<path d="M15.5426 6.32544H12.4702V9.39782H15.5426V6.32544Z" fill="white"/>
<path d="M18.615 6.32544H15.5426V9.39782H18.615V6.32544Z" fill="white"/>
<path d="M21.6874 6.32544H18.615V9.39782H21.6874V6.32544Z" fill="white"/>
<path d="M24.7598 6.32544H21.6874V9.39782H24.7598V6.32544Z" fill="white"/>
<path d="M27.8321 6.32544H24.7598V9.39782H27.8321V6.32544Z" fill="white"/>
<path d="M30.9045 6.32544H27.8322V9.39782H30.9045V6.32544Z" fill="#040415"/>
<path d="M33.9769 6.32544H30.9045V9.39782H33.9769V6.32544Z" fill="#040415"/>
<path d="M37.0493 6.32544H33.9769V9.39782H37.0493V6.32544Z" fill="white"/>
<path d="M40.1217 6.32544H37.0493V9.39782H40.1217V6.32544Z" fill="#040415"/>
<path d="M43.1941 6.32544H40.1217V9.39782H43.1941V6.32544Z" fill="#040415"/>
<path d="M46.2665 6.32544H43.1941V9.39782H46.2665V6.32544Z" fill="white"/>
<path d="M49.3389 6.32544H46.2665V9.39782H49.3389V6.32544Z" fill="#040415"/>
<path d="M52.4112 6.32544H49.3389V9.39782H52.4112V6.32544Z" fill="#040415"/>
<path d="M55.4835 6.32544H52.4111V9.39782H55.4835V6.32544Z" fill="white"/>
<path d="M58.5559 6.32544H55.4835V9.39782H58.5559V6.32544Z" fill="white"/>
<path d="M61.6283 6.32544H58.5559V9.39782H61.6283V6.32544Z" fill="#040415"/>
<path d="M64.7007 6.32544H61.6283V9.39782H64.7007V6.32544Z" fill="white"/>
<path d="M67.7731 6.32544H64.7007V9.39782H67.7731V6.32544Z" fill="white"/>
<path d="M70.8455 6.32544H67.7731V9.39782H70.8455V6.32544Z" fill="#040415"/>
<path d="M73.9178 6.32544H70.8455V9.39782H73.9178V6.32544Z" fill="#040415"/>
<path d="M76.9902 6.32544H73.9178V9.39782H76.9902V6.32544Z" fill="white"/>
<path d="M80.0626 6.32544H76.9902V9.39782H80.0626V6.32544Z" fill="white"/>
<path d="M83.135 6.32544H80.0626V9.39782H83.135V6.32544Z" fill="white"/>
<path d="M86.2074 6.32544H83.135V9.39782H86.2074V6.32544Z" fill="white"/>
<path d="M89.2798 6.32544H86.2074V9.39782H89.2798V6.32544Z" fill="white"/>
<path d="M92.3522 6.32544H89.2798V9.39782H92.3522V6.32544Z" fill="white"/>
<path d="M95.4246 6.32544H92.3522V9.39782H95.4246V6.32544Z" fill="white"/>
<path d="M9.39782 9.39795H6.32544V12.4703H9.39782V9.39795Z" fill="white"/>
<path d="M12.4702 9.39795H9.39783V12.4703H12.4702V9.39795Z" fill="#040415"/>
<path d="M15.5426 9.39795H12.4702V12.4703H15.5426V9.39795Z" fill="#040415"/>
<path d="M18.615 9.39795H15.5426V12.4703H18.615V9.39795Z" fill="#040415"/>
<path d="M21.6874 9.39795H18.615V12.4703H21.6874V9.39795Z" fill="#040415"/>
<path d="M24.7598 9.39795H21.6874V12.4703H24.7598V9.39795Z" fill="#040415"/>
<path d="M27.8321 9.39795H24.7598V12.4703H27.8321V9.39795Z" fill="white"/>
<path d="M30.9045 9.39795H27.8322V12.4703H30.9045V9.39795Z" fill="#040415"/>
<path d="M33.9769 9.39795H30.9045V12.4703H33.9769V9.39795Z" fill="white"/>
<path d="M37.0493 9.39795H33.9769V12.4703H37.0493V9.39795Z" fill="#040415"/>
<path d="M40.1217 9.39795H37.0493V12.4703H40.1217V9.39795Z" fill="#040415"/>
<path d="M43.1941 9.39795H40.1217V12.4703H43.1941V9.39795Z" fill="white"/>
<path d="M46.2665 9.39795H43.1941V12.4703H46.2665V9.39795Z" fill="white"/>
<path d="M49.3389 9.39795H46.2665V12.4703H49.3389V9.39795Z" fill="white"/>
<path d="M52.4112 9.39795H49.3389V12.4703H52.4112V9.39795Z" fill="white"/>
<path d="M55.4835 9.39795H52.4111V12.4703H55.4835V9.39795Z" fill="white"/>
<path d="M58.5559 9.39795H55.4835V12.4703H58.5559V9.39795Z" fill="white"/>
<path d="M61.6283 9.39795H58.5559V12.4703H61.6283V9.39795Z" fill="white"/>
<path d="M64.7007 9.39795H61.6283V12.4703H64.7007V9.39795Z" fill="white"/>
<path d="M67.7731 9.39795H64.7007V12.4703H67.7731V9.39795Z" fill="#040415"/>
<path d="M70.8455 9.39795H67.7731V12.4703H70.8455V9.39795Z" fill="white"/>
<path d="M73.9178 9.39795H70.8455V12.4703H73.9178V9.39795Z" fill="#040415"/>
<path d="M76.9902 9.39795H73.9178V12.4703H76.9902V9.39795Z" fill="white"/>
<path d="M80.0626 9.39795H76.9902V12.4703H80.0626V9.39795Z" fill="#040415"/>
<path d="M83.135 9.39795H80.0626V12.4703H83.135V9.39795Z" fill="#040415"/>
<path d="M86.2074 9.39795H83.135V12.4703H86.2074V9.39795Z" fill="#040415"/>
<path d="M89.2798 9.39795H86.2074V12.4703H89.2798V9.39795Z" fill="#040415"/>
<path d="M92.3522 9.39795H89.2798V12.4703H92.3522V9.39795Z" fill="#040415"/>
<path d="M95.4246 9.39795H92.3522V12.4703H95.4246V9.39795Z" fill="white"/>
<path d="M9.39782 12.4702H6.32544V15.5426H9.39782V12.4702Z" fill="white"/>
<path d="M12.4702 12.4702H9.39783V15.5426H12.4702V12.4702Z" fill="#040415"/>
<path d="M15.5426 12.4702H12.4702V15.5426H15.5426V12.4702Z" fill="white"/>
<path d="M18.615 12.4702H15.5426V15.5426H18.615V12.4702Z" fill="white"/>
<path d="M21.6874 12.4702H18.615V15.5426H21.6874V12.4702Z" fill="white"/>
<path d="M24.7598 12.4702H21.6874V15.5426H24.7598V12.4702Z" fill="#040415"/>
<path d="M27.8321 12.4702H24.7598V15.5426H27.8321V12.4702Z" fill="white"/>
<path d="M30.9045 12.4702H27.8322V15.5426H30.9045V12.4702Z" fill="#040415"/>
<path d="M33.9769 12.4702H30.9045V15.5426H33.9769V12.4702Z" fill="white"/>
<path d="M37.0493 12.4702H33.9769V15.5426H37.0493V12.4702Z" fill="white"/>
<path d="M40.1217 12.4702H37.0493V15.5426H40.1217V12.4702Z" fill="white"/>
<path d="M43.1941 12.4702H40.1217V15.5426H43.1941V12.4702Z" fill="white"/>
<path d="M46.2665 12.4702H43.1941V15.5426H46.2665V12.4702Z" fill="white"/>
<path d="M49.3389 12.4702H46.2665V15.5426H49.3389V12.4702Z" fill="#040415"/>
<path d="M52.4112 12.4702H49.3389V15.5426H52.4112V12.4702Z" fill="white"/>
<path d="M55.4835 12.4702H52.4111V15.5426H55.4835V12.4702Z" fill="#040415"/>
<path d="M58.5559 12.4702H55.4835V15.5426H58.5559V12.4702Z" fill="white"/>
<path d="M61.6283 12.4702H58.5559V15.5426H61.6283V12.4702Z" fill="white"/>
<path d="M64.7007 12.4702H61.6283V15.5426H64.7007V12.4702Z" fill="#040415"/>
<path d="M67.7731 12.4702H64.7007V15.5426H67.7731V12.4702Z" fill="#040415"/>
<path d="M70.8455 12.4702H67.7731V15.5426H70.8455V12.4702Z" fill="white"/>
<path d="M73.9178 12.4702H70.8455V15.5426H73.9178V12.4702Z" fill="#040415"/>
<path d="M76.9902 12.4702H73.9178V15.5426H76.9902V12.4702Z" fill="white"/>
<path d="M80.0626 12.4702H76.9902V15.5426H80.0626V12.4702Z" fill="#040415"/>
<path d="M83.135 12.4702H80.0626V15.5426H83.135V12.4702Z" fill="white"/>
<path d="M86.2074 12.4702H83.135V15.5426H86.2074V12.4702Z" fill="white"/>
<path d="M89.2798 12.4702H86.2074V15.5426H89.2798V12.4702Z" fill="white"/>
<path d="M92.3522 12.4702H89.2798V15.5426H92.3522V12.4702Z" fill="#040415"/>
<path d="M95.4246 12.4702H92.3522V15.5426H95.4246V12.4702Z" fill="white"/>
<path d="M9.39782 15.5427H6.32544V18.6151H9.39782V15.5427Z" fill="white"/>
<path d="M12.4702 15.5427H9.39783V18.6151H12.4702V15.5427Z" fill="#040415"/>
<path d="M15.5426 15.5427H12.4702V18.6151H15.5426V15.5427Z" fill="white"/>
<path d="M18.615 15.5427H15.5426V18.6151H18.615V15.5427Z" fill="white"/>
<path d="M21.6874 15.5427H18.615V18.6151H21.6874V15.5427Z" fill="white"/>
<path d="M24.7598 15.5427H21.6874V18.6151H24.7598V15.5427Z" fill="#040415"/>
<path d="M27.8321 15.5427H24.7598V18.6151H27.8321V15.5427Z" fill="white"/>
<path d="M30.9045 15.5427H27.8322V18.6151H30.9045V15.5427Z" fill="#040415"/>
<path d="M33.9769 15.5427H30.9045V18.6151H33.9769V15.5427Z" fill="#040415"/>
<path d="M37.0493 15.5427H33.9769V18.6151H37.0493V15.5427Z" fill="white"/>
<path d="M40.1217 15.5427H37.0493V18.6151H40.1217V15.5427Z" fill="white"/>
<path d="M43.1941 15.5427H40.1217V18.6151H43.1941V15.5427Z" fill="white"/>
<path d="M46.2665 15.5427H43.1941V18.6151H46.2665V15.5427Z" fill="#040415"/>
<path d="M49.3389 15.5427H46.2665V18.6151H49.3389V15.5427Z" fill="#040415"/>
<path d="M52.4112 15.5427H49.3389V18.6151H52.4112V15.5427Z" fill="#040415"/>
<path d="M55.4835 15.5427H52.4111V18.6151H55.4835V15.5427Z" fill="#040415"/>
<path d="M58.5559 15.5427H55.4835V18.6151H58.5559V15.5427Z" fill="white"/>
<path d="M61.6283 15.5427H58.5559V18.6151H61.6283V15.5427Z" fill="#040415"/>
<path d="M64.7007 15.5427H61.6283V18.6151H64.7007V15.5427Z" fill="#040415"/>
<path d="M67.7731 15.5427H64.7007V18.6151H67.7731V15.5427Z" fill="#040415"/>
<path d="M70.8455 15.5427H67.7731V18.6151H70.8455V15.5427Z" fill="#040415"/>
<path d="M73.9178 15.5427H70.8455V18.6151H73.9178V15.5427Z" fill="#040415"/>
<path d="M76.9902 15.5427H73.9178V18.6151H76.9902V15.5427Z" fill="white"/>
<path d="M80.0626 15.5427H76.9902V18.6151H80.0626V15.5427Z" fill="#040415"/>
<path d="M83.135 15.5427H80.0626V18.6151H83.135V15.5427Z" fill="white"/>
<path d="M86.2074 15.5427H83.135V18.6151H86.2074V15.5427Z" fill="white"/>
<path d="M89.2798 15.5427H86.2074V18.6151H89.2798V15.5427Z" fill="white"/>
<path d="M92.3522 15.5427H89.2798V18.6151H92.3522V15.5427Z" fill="#040415"/>
<path d="M95.4246 15.5427H92.3522V18.6151H95.4246V15.5427Z" fill="white"/>
<path d="M9.39782 18.615H6.32544V21.6874H9.39782V18.615Z" fill="white"/>
<path d="M12.4702 18.615H9.39783V21.6874H12.4702V18.615Z" fill="#040415"/>
<path d="M15.5426 18.615H12.4702V21.6874H15.5426V18.615Z" fill="white"/>
<path d="M18.615 18.615H15.5426V21.6874H18.615V18.615Z" fill="white"/>
<path d="M21.6874 18.615H18.615V21.6874H21.6874V18.615Z" fill="white"/>
<path d="M24.7598 18.615H21.6874V21.6874H24.7598V18.615Z" fill="#040415"/>
<path d="M27.8321 18.615H24.7598V21.6874H27.8321V18.615Z" fill="white"/>
<path d="M30.9045 18.615H27.8322V21.6874H30.9045V18.615Z" fill="#040415"/>
<path d="M33.9769 18.615H30.9045V21.6874H33.9769V18.615Z" fill="white"/>
<path d="M37.0493 18.615H33.9769V21.6874H37.0493V18.615Z" fill="#040415"/>
<path d="M40.1217 18.615H37.0493V21.6874H40.1217V18.615Z" fill="#040415"/>
<path d="M43.1941 18.615H40.1217V21.6874H43.1941V18.615Z" fill="#040415"/>
<path d="M46.2665 18.615H43.1941V21.6874H46.2665V18.615Z" fill="#040415"/>
<path d="M49.3389 18.615H46.2665V21.6874H49.3389V18.615Z" fill="#040415"/>
<path d="M52.4112 18.615H49.3389V21.6874H52.4112V18.615Z" fill="#040415"/>
<path d="M55.4835 18.615H52.4111V21.6874H55.4835V18.615Z" fill="white"/>
<path d="M58.5559 18.615H55.4835V21.6874H58.5559V18.615Z" fill="#040415"/>
<path d="M61.6283 18.615H58.5559V21.6874H61.6283V18.615Z" fill="white"/>
<path d="M64.7007 18.615H61.6283V21.6874H64.7007V18.615Z" fill="white"/>
<path d="M67.7731 18.615H64.7007V21.6874H67.7731V18.615Z" fill="#040415"/>
<path d="M70.8455 18.615H67.7731V21.6874H70.8455V18.615Z" fill="#040415"/>
<path d="M73.9178 18.615H70.8455V21.6874H73.9178V18.615Z" fill="#040415"/>
<path d="M76.9902 18.615H73.9178V21.6874H76.9902V18.615Z" fill="white"/>
<path d="M80.0626 18.615H76.9902V21.6874H80.0626V18.615Z" fill="#040415"/>
<path d="M83.135 18.615H80.0626V21.6874H83.135V18.615Z" fill="white"/>
<path d="M86.2074 18.615H83.135V21.6874H86.2074V18.615Z" fill="white"/>
<path d="M89.2798 18.615H86.2074V21.6874H89.2798V18.615Z" fill="white"/>
<path d="M92.3522 18.615H89.2798V21.6874H92.3522V18.615Z" fill="#040415"/>
<path d="M95.4246 18.615H92.3522V21.6874H95.4246V18.615Z" fill="white"/>
<path d="M9.39782 21.6875H6.32544V24.7599H9.39782V21.6875Z" fill="white"/>
<path d="M12.4702 21.6875H9.39783V24.7599H12.4702V21.6875Z" fill="#040415"/>
<path d="M15.5426 21.6875H12.4702V24.7599H15.5426V21.6875Z" fill="#040415"/>
<path d="M18.615 21.6875H15.5426V24.7599H18.615V21.6875Z" fill="#040415"/>
<path d="M21.6874 21.6875H18.615V24.7599H21.6874V21.6875Z" fill="#040415"/>
<path d="M24.7598 21.6875H21.6874V24.7599H24.7598V21.6875Z" fill="#040415"/>
<path d="M27.8321 21.6875H24.7598V24.7599H27.8321V21.6875Z" fill="white"/>
<path d="M30.9045 21.6875H27.8322V24.7599H30.9045V21.6875Z" fill="#040415"/>
<path d="M33.9769 21.6875H30.9045V24.7599H33.9769V21.6875Z" fill="white"/>
<path d="M37.0493 21.6875H33.9769V24.7599H37.0493V21.6875Z" fill="white"/>
<path d="M40.1217 21.6875H37.0493V24.7599H40.1217V21.6875Z" fill="#040415"/>
<path d="M43.1941 21.6875H40.1217V24.7599H43.1941V21.6875Z" fill="white"/>
<path d="M46.2665 21.6875H43.1941V24.7599H46.2665V21.6875Z" fill="#040415"/>
<path d="M49.3389 21.6875H46.2665V24.7599H49.3389V21.6875Z" fill="#040415"/>
<path d="M52.4112 21.6875H49.3389V24.7599H52.4112V21.6875Z" fill="#040415"/>
<path d="M55.4835 21.6875H52.4111V24.7599H55.4835V21.6875Z" fill="white"/>
<path d="M58.5559 21.6875H55.4835V24.7599H58.5559V21.6875Z" fill="#040415"/>
<path d="M61.6283 21.6875H58.5559V24.7599H61.6283V21.6875Z" fill="white"/>
<path d="M64.7007 21.6875H61.6283V24.7599H64.7007V21.6875Z" fill="white"/>
<path d="M67.7731 21.6875H64.7007V24.7599H67.7731V21.6875Z" fill="white"/>
<path d="M70.8455 21.6875H67.7731V24.7599H70.8455V21.6875Z" fill="white"/>
<path d="M73.9178 21.6875H70.8455V24.7599H73.9178V21.6875Z" fill="#040415"/>
<path d="M76.9902 21.6875H73.9178V24.7599H76.9902V21.6875Z" fill="white"/>
<path d="M80.0626 21.6875H76.9902V24.7599H80.0626V21.6875Z" fill="#040415"/>
<path d="M83.135 21.6875H80.0626V24.7599H83.135V21.6875Z" fill="#040415"/>
<path d="M86.2074 21.6875H83.135V24.7599H86.2074V21.6875Z" fill="#040415"/>
<path d="M89.2798 21.6875H86.2074V24.7599H89.2798V21.6875Z" fill="#040415"/>
<path d="M92.3522 21.6875H89.2798V24.7599H92.3522V21.6875Z" fill="#040415"/>
<path d="M95.4246 21.6875H92.3522V24.7599H95.4246V21.6875Z" fill="white"/>
<path d="M9.39782 24.7598H6.32544V27.8321H9.39782V24.7598Z" fill="white"/>
<path d="M12.4702 24.7598H9.39783V27.8321H12.4702V24.7598Z" fill="white"/>
<path d="M15.5426 24.7598H12.4702V27.8321H15.5426V24.7598Z" fill="white"/>
<path d="M18.615 24.7598H15.5426V27.8321H18.615V24.7598Z" fill="white"/>
<path d="M21.6874 24.7598H18.615V27.8321H21.6874V24.7598Z" fill="white"/>
<path d="M24.7598 24.7598H21.6874V27.8321H24.7598V24.7598Z" fill="white"/>
<path d="M27.8321 24.7598H24.7598V27.8321H27.8321V24.7598Z" fill="white"/>
<path d="M30.9045 24.7598H27.8322V27.8321H30.9045V24.7598Z" fill="#040415"/>
<path d="M33.9769 24.7598H30.9045V27.8321H33.9769V24.7598Z" fill="white"/>
<path d="M37.0493 24.7598H33.9769V27.8321H37.0493V24.7598Z" fill="#040415"/>
<path d="M40.1217 24.7598H37.0493V27.8321H40.1217V24.7598Z" fill="white"/>
<path d="M43.1941 24.7598H40.1217V27.8321H43.1941V24.7598Z" fill="#040415"/>
<path d="M46.2665 24.7598H43.1941V27.8321H46.2665V24.7598Z" fill="white"/>
<path d="M49.3389 24.7598H46.2665V27.8321H49.3389V24.7598Z" fill="#040415"/>
<path d="M52.4112 24.7598H49.3389V27.8321H52.4112V24.7598Z" fill="white"/>
<path d="M55.4835 24.7598H52.4111V27.8321H55.4835V24.7598Z" fill="#040415"/>
<path d="M58.5559 24.7598H55.4835V27.8321H58.5559V24.7598Z" fill="white"/>
<path d="M61.6283 24.7598H58.5559V27.8321H61.6283V24.7598Z" fill="#040415"/>
<path d="M64.7007 24.7598H61.6283V27.8321H64.7007V24.7598Z" fill="white"/>
<path d="M67.7731 24.7598H64.7007V27.8321H67.7731V24.7598Z" fill="#040415"/>
<path d="M70.8455 24.7598H67.7731V27.8321H70.8455V24.7598Z" fill="white"/>
<path d="M73.9178 24.7598H70.8455V27.8321H73.9178V24.7598Z" fill="#040415"/>
<path d="M76.9902 24.7598H73.9178V27.8321H76.9902V24.7598Z" fill="white"/>
<path d="M80.0626 24.7598H76.9902V27.8321H80.0626V24.7598Z" fill="white"/>
<path d="M83.135 24.7598H80.0626V27.8321H83.135V24.7598Z" fill="white"/>
<path d="M86.2074 24.7598H83.135V27.8321H86.2074V24.7598Z" fill="white"/>
<path d="M89.2798 24.7598H86.2074V27.8321H89.2798V24.7598Z" fill="white"/>
<path d="M92.3522 24.7598H89.2798V27.8321H92.3522V24.7598Z" fill="white"/>
<path d="M95.4246 24.7598H92.3522V27.8321H95.4246V24.7598Z" fill="white"/>
<path d="M9.39782 27.832H6.32544V30.9044H9.39782V27.832Z" fill="#040415"/>
<path d="M12.4702 27.832H9.39783V30.9044H12.4702V27.832Z" fill="#040415"/>
<path d="M15.5426 27.832H12.4702V30.9044H15.5426V27.832Z" fill="#040415"/>
<path d="M18.615 27.832H15.5426V30.9044H18.615V27.832Z" fill="#040415"/>
<path d="M21.6874 27.832H18.615V30.9044H21.6874V27.832Z" fill="#040415"/>
<path d="M24.7598 27.832H21.6874V30.9044H24.7598V27.832Z" fill="#040415"/>
<path d="M27.8321 27.832H24.7598V30.9044H27.8321V27.832Z" fill="#040415"/>
<path d="M30.9045 27.832H27.8322V30.9044H30.9045V27.832Z" fill="#040415"/>
<path d="M33.9769 27.832H30.9045V30.9044H33.9769V27.832Z" fill="white"/>
<path d="M37.0493 27.832H33.9769V30.9044H37.0493V27.832Z" fill="white"/>
<path d="M40.1217 27.832H37.0493V30.9044H40.1217V27.832Z" fill="#040415"/>
<path d="M43.1941 27.832H40.1217V30.9044H43.1941V27.832Z" fill="#040415"/>
<path d="M46.2665 27.832H43.1941V30.9044H46.2665V27.832Z" fill="white"/>
<path d="M49.3389 27.832H46.2665V30.9044H49.3389V27.832Z" fill="#040415"/>
<path d="M52.4112 27.832H49.3389V30.9044H52.4112V27.832Z" fill="white"/>
<path d="M55.4835 27.832H52.4111V30.9044H55.4835V27.832Z" fill="#040415"/>
<path d="M58.5559 27.832H55.4835V30.9044H58.5559V27.832Z" fill="white"/>
<path d="M61.6283 27.832H58.5559V30.9044H61.6283V27.832Z" fill="white"/>
<path d="M64.7007 27.832H61.6283V30.9044H64.7007V27.832Z" fill="white"/>
<path d="M67.7731 27.832H64.7007V30.9044H67.7731V27.832Z" fill="white"/>
<path d="M70.8455 27.832H67.7731V30.9044H70.8455V27.832Z" fill="white"/>
<path d="M73.9178 27.832H70.8455V30.9044H73.9178V27.832Z" fill="#040415"/>
<path d="M76.9902 27.832H73.9178V30.9044H76.9902V27.832Z" fill="#040415"/>
<path d="M80.0626 27.832H76.9902V30.9044H80.0626V27.832Z" fill="#040415"/>
<path d="M83.135 27.832H80.0626V30.9044H83.135V27.832Z" fill="#040415"/>
<path d="M86.2074 27.832H83.135V30.9044H86.2074V27.832Z" fill="#040415"/>
<path d="M89.2798 27.832H86.2074V30.9044H89.2798V27.832Z" fill="#040415"/>
<path d="M92.3522 27.832H89.2798V30.9044H92.3522V27.832Z" fill="#040415"/>
<path d="M95.4246 27.832H92.3522V30.9044H95.4246V27.832Z" fill="#040415"/>
<path d="M9.39782 30.9045H6.32544V33.9769H9.39782V30.9045Z" fill="white"/>
<path d="M12.4702 30.9045H9.39783V33.9769H12.4702V30.9045Z" fill="white"/>
<path d="M15.5426 30.9045H12.4702V33.9769H15.5426V30.9045Z" fill="#040415"/>
<path d="M18.615 30.9045H15.5426V33.9769H18.615V30.9045Z" fill="white"/>
<path d="M21.6874 30.9045H18.615V33.9769H21.6874V30.9045Z" fill="#040415"/>
<path d="M24.7598 30.9045H21.6874V33.9769H24.7598V30.9045Z" fill="#040415"/>
<path d="M27.8321 30.9045H24.7598V33.9769H27.8321V30.9045Z" fill="white"/>
<path d="M30.9045 30.9045H27.8322V33.9769H30.9045V30.9045Z" fill="white"/>
<path d="M33.9769 30.9045H30.9045V33.9769H33.9769V30.9045Z" fill="#040415"/>
<path d="M37.0493 30.9045H33.9769V33.9769H37.0493V30.9045Z" fill="#040415"/>
<path d="M40.1217 30.9045H37.0493V33.9769H40.1217V30.9045Z" fill="white"/>
<path d="M43.1941 30.9045H40.1217V33.9769H43.1941V30.9045Z" fill="#040415"/>
<path d="M46.2665 30.9045H43.1941V33.9769H46.2665V30.9045Z" fill="white"/>
<path d="M49.3389 30.9045H46.2665V33.9769H49.3389V30.9045Z" fill="white"/>
<path d="M52.4112 30.9045H49.3389V33.9769H52.4112V30.9045Z" fill="white"/>
<path d="M55.4835 30.9045H52.4111V33.9769H55.4835V30.9045Z" fill="#040415"/>
<path d="M58.5559 30.9045H55.4835V33.9769H58.5559V30.9045Z" fill="#040415"/>
<path d="M61.6283 30.9045H58.5559V33.9769H61.6283V30.9045Z" fill="white"/>
<path d="M64.7007 30.9045H61.6283V33.9769H64.7007V30.9045Z" fill="#040415"/>
<path d="M67.7731 30.9045H64.7007V33.9769H67.7731V30.9045Z" fill="white"/>
<path d="M70.8455 30.9045H67.7731V33.9769H70.8455V30.9045Z" fill="#040415"/>
<path d="M73.9178 30.9045H70.8455V33.9769H73.9178V30.9045Z" fill="#040415"/>
<path d="M76.9902 30.9045H73.9178V33.9769H76.9902V30.9045Z" fill="white"/>
<path d="M80.0626 30.9045H76.9902V33.9769H80.0626V30.9045Z" fill="white"/>
<path d="M83.135 30.9045H80.0626V33.9769H83.135V30.9045Z" fill="white"/>
<path d="M86.2074 30.9045H83.135V33.9769H86.2074V30.9045Z" fill="#040415"/>
<path d="M89.2798 30.9045H86.2074V33.9769H89.2798V30.9045Z" fill="white"/>
<path d="M92.3522 30.9045H89.2798V33.9769H92.3522V30.9045Z" fill="white"/>
<path d="M95.4246 30.9045H92.3522V33.9769H95.4246V30.9045Z" fill="#040415"/>
<path d="M9.39782 33.9768H6.32544V37.0492H9.39782V33.9768Z" fill="white"/>
<path d="M12.4702 33.9768H9.39783V37.0492H12.4702V33.9768Z" fill="white"/>
<path d="M15.5426 33.9768H12.4702V37.0492H15.5426V33.9768Z" fill="white"/>
<path d="M18.615 33.9768H15.5426V37.0492H18.615V33.9768Z" fill="#040415"/>
<path d="M21.6874 33.9768H18.615V37.0492H21.6874V33.9768Z" fill="white"/>
<path d="M24.7598 33.9768H21.6874V37.0492H24.7598V33.9768Z" fill="white"/>
<path d="M27.8321 33.9768H24.7598V37.0492H27.8321V33.9768Z" fill="#040415"/>
<path d="M30.9045 33.9768H27.8322V37.0492H30.9045V33.9768Z" fill="white"/>
<path d="M33.9769 33.9768H30.9045V37.0492H33.9769V33.9768Z" fill="white"/>
<path d="M37.0493 33.9768H33.9769V37.0492H37.0493V33.9768Z" fill="#040415"/>
<path d="M40.1217 33.9768H37.0493V37.0492H40.1217V33.9768Z" fill="white"/>
<path d="M43.1941 33.9768H40.1217V37.0492H43.1941V33.9768Z" fill="white"/>
<path d="M46.2665 33.9768H43.1941V37.0492H46.2665V33.9768Z" fill="#040415"/>
<path d="M49.3389 33.9768H46.2665V37.0492H49.3389V33.9768Z" fill="white"/>
<path d="M52.4112 33.9768H49.3389V37.0492H52.4112V33.9768Z" fill="#040415"/>
<path d="M55.4835 33.9768H52.4111V37.0492H55.4835V33.9768Z" fill="#040415"/>
<path d="M58.5559 33.9768H55.4835V37.0492H58.5559V33.9768Z" fill="#040415"/>
<path d="M61.6283 33.9768H58.5559V37.0492H61.6283V33.9768Z" fill="white"/>
<path d="M64.7007 33.9768H61.6283V37.0492H64.7007V33.9768Z" fill="white"/>
<path d="M67.7731 33.9768H64.7007V37.0492H67.7731V33.9768Z" fill="#040415"/>
<path d="M70.8455 33.9768H67.7731V37.0492H70.8455V33.9768Z" fill="#040415"/>
<path d="M73.9178 33.9768H70.8455V37.0492H73.9178V33.9768Z" fill="white"/>
<path d="M76.9902 33.9768H73.9178V37.0492H76.9902V33.9768Z" fill="white"/>
<path d="M80.0626 33.9768H76.9902V37.0492H80.0626V33.9768Z" fill="white"/>
<path d="M83.135 33.9768H80.0626V37.0492H83.135V33.9768Z" fill="#040415"/>
<path d="M86.2074 33.9768H83.135V37.0492H86.2074V33.9768Z" fill="white"/>
<path d="M89.2798 33.9768H86.2074V37.0492H89.2798V33.9768Z" fill="#040415"/>
<path d="M92.3522 33.9768H89.2798V37.0492H92.3522V33.9768Z" fill="#040415"/>
<path d="M95.4246 33.9768H92.3522V37.0492H95.4246V33.9768Z" fill="white"/>
<path d="M9.39782 37.0493H6.32544V40.1217H9.39782V37.0493Z" fill="white"/>
<path d="M12.4702 37.0493H9.39783V40.1217H12.4702V37.0493Z" fill="white"/>
<path d="M15.5426 37.0493H12.4702V40.1217H15.5426V37.0493Z" fill="white"/>
<path d="M18.615 37.0493H15.5426V40.1217H18.615V37.0493Z" fill="#040415"/>
<path d="M21.6874 37.0493H18.615V40.1217H21.6874V37.0493Z" fill="white"/>
<path d="M24.7598 37.0493H21.6874V40.1217H24.7598V37.0493Z" fill="white"/>
<path d="M27.8321 37.0493H24.7598V40.1217H27.8321V37.0493Z" fill="white"/>
<path d="M30.9045 37.0493H27.8322V40.1217H30.9045V37.0493Z" fill="#040415"/>
<path d="M33.9769 37.0493H30.9045V40.1217H33.9769V37.0493Z" fill="#040415"/>
<path d="M37.0493 37.0493H33.9769V40.1217H37.0493V37.0493Z" fill="white"/>
<path d="M40.1217 37.0493H37.0493V40.1217H40.1217V37.0493Z" fill="white"/>
<path d="M43.1941 37.0493H40.1217V40.1217H43.1941V37.0493Z" fill="#040415"/>
<path d="M46.2665 37.0493H43.1941V40.1217H46.2665V37.0493Z" fill="#040415"/>
<path d="M49.3389 37.0493H46.2665V40.1217H49.3389V37.0493Z" fill="white"/>
<path d="M52.4112 37.0493H49.3389V40.1217H52.4112V37.0493Z" fill="white"/>
<path d="M55.4835 37.0493H52.4111V40.1217H55.4835V37.0493Z" fill="#040415"/>
<path d="M58.5559 37.0493H55.4835V40.1217H58.5559V37.0493Z" fill="white"/>
<path d="M61.6283 37.0493H58.5559V40.1217H61.6283V37.0493Z" fill="#040415"/>
<path d="M64.7007 37.0493H61.6283V40.1217H64.7007V37.0493Z" fill="#040415"/>
<path d="M67.7731 37.0493H64.7007V40.1217H67.7731V37.0493Z" fill="white"/>
<path d="M70.8455 37.0493H67.7731V40.1217H70.8455V37.0493Z" fill="#040415"/>
<path d="M73.9178 37.0493H70.8455V40.1217H73.9178V37.0493Z" fill="white"/>
<path d="M76.9902 37.0493H73.9178V40.1217H76.9902V37.0493Z" fill="white"/>
<path d="M80.0626 37.0493H76.9902V40.1217H80.0626V37.0493Z" fill="#040415"/>
<path d="M83.135 37.0493H80.0626V40.1217H83.135V37.0493Z" fill="#040415"/>
<path d="M86.2074 37.0493H83.135V40.1217H86.2074V37.0493Z" fill="white"/>
<path d="M89.2798 37.0493H86.2074V40.1217H89.2798V37.0493Z" fill="white"/>
<path d="M92.3522 37.0493H89.2798V40.1217H92.3522V37.0493Z" fill="white"/>
<path d="M95.4246 37.0493H92.3522V40.1217H95.4246V37.0493Z" fill="#040415"/>
<path d="M9.39782 40.1216H6.32544V43.194H9.39782V40.1216Z" fill="#040415"/>
<path d="M12.4702 40.1216H9.39783V43.194H12.4702V40.1216Z" fill="white"/>
<path d="M15.5426 40.1216H12.4702V43.194H15.5426V40.1216Z" fill="white"/>
<path d="M18.615 40.1216H15.5426V43.194H18.615V40.1216Z" fill="#040415"/>
<path d="M21.6874 40.1216H18.615V43.194H21.6874V40.1216Z" fill="#040415"/>
<path d="M24.7598 40.1216H21.6874V43.194H24.7598V40.1216Z" fill="white"/>
<path d="M27.8321 40.1216H24.7598V43.194H27.8321V40.1216Z" fill="#040415"/>
<path d="M30.9045 40.1216H27.8322V43.194H30.9045V40.1216Z" fill="#040415"/>
<path d="M33.9769 40.1216H30.9045V43.194H33.9769V40.1216Z" fill="#040415"/>
<path d="M37.0493 40.1216H33.9769V43.194H37.0493V40.1216Z" fill="#040415"/>
<path d="M40.1217 40.1216H37.0493V43.194H40.1217V40.1216Z" fill="#040415"/>
<path d="M43.1941 40.1216H40.1217V43.194H43.1941V40.1216Z" fill="#040415"/>
<path d="M46.2665 40.1216H43.1941V43.194H46.2665V40.1216Z" fill="white"/>
<path d="M49.3389 40.1216H46.2665V43.194H49.3389V40.1216Z" fill="white"/>
<path d="M52.4112 40.1216H49.3389V43.194H52.4112V40.1216Z" fill="#040415"/>
<path d="M55.4835 40.1216H52.4111V43.194H55.4835V40.1216Z" fill="#040415"/>
<path d="M58.5559 40.1216H55.4835V43.194H58.5559V40.1216Z" fill="#040415"/>
<path d="M61.6283 40.1216H58.5559V43.194H61.6283V40.1216Z" fill="#040415"/>
<path d="M64.7007 40.1216H61.6283V43.194H64.7007V40.1216Z" fill="#040415"/>
<path d="M67.7731 40.1216H64.7007V43.194H67.7731V40.1216Z" fill="#040415"/>
<path d="M70.8455 40.1216H67.7731V43.194H70.8455V40.1216Z" fill="white"/>
<path d="M73.9178 40.1216H70.8455V43.194H73.9178V40.1216Z" fill="white"/>
<path d="M76.9902 40.1216H73.9178V43.194H76.9902V40.1216Z" fill="white"/>
<path d="M80.0626 40.1216H76.9902V43.194H80.0626V40.1216Z" fill="white"/>
<path d="M83.135 40.1216H80.0626V43.194H83.135V40.1216Z" fill="white"/>
<path d="M86.2074 40.1216H83.135V43.194H86.2074V40.1216Z" fill="#040415"/>
<path d="M89.2798 40.1216H86.2074V43.194H89.2798V40.1216Z" fill="white"/>
<path d="M92.3522 40.1216H89.2798V43.194H92.3522V40.1216Z" fill="white"/>
<path d="M95.4246 40.1216H92.3522V43.194H95.4246V40.1216Z" fill="#040415"/>
<path d="M9.39782 43.1941H6.32544V46.2665H9.39782V43.1941Z" fill="white"/>
<path d="M12.4702 43.1941H9.39783V46.2665H12.4702V43.1941Z" fill="white"/>
<path d="M15.5426 43.1941H12.4702V46.2665H15.5426V43.1941Z" fill="#040415"/>
<path d="M18.615 43.1941H15.5426V46.2665H18.615V43.1941Z" fill="#040415"/>
<path d="M21.6874 43.1941H18.615V46.2665H21.6874V43.1941Z" fill="#040415"/>
<path d="M24.7598 43.1941H21.6874V46.2665H24.7598V43.1941Z" fill="white"/>
<path d="M27.8321 43.1941H24.7598V46.2665H27.8321V43.1941Z" fill="white"/>
<path d="M30.9045 43.1941H27.8322V46.2665H30.9045V43.1941Z" fill="white"/>
<path d="M33.9769 43.1941H30.9045V46.2665H33.9769V43.1941Z" fill="#040415"/>
<path d="M37.0493 43.1941H33.9769V46.2665H37.0493V43.1941Z" fill="#040415"/>
<path d="M40.1217 43.1941H37.0493V46.2665H40.1217V43.1941Z" fill="#040415"/>
<path d="M43.1941 43.1941H40.1217V46.2665H43.1941V43.1941Z" fill="#040415"/>
<path d="M46.2665 43.1941H43.1941V46.2665H46.2665V43.1941Z" fill="white"/>
<path d="M49.3389 43.1941H46.2665V46.2665H49.3389V43.1941Z" fill="white"/>
<path d="M52.4112 43.1941H49.3389V46.2665H52.4112V43.1941Z" fill="#040415"/>
<path d="M55.4835 43.1941H52.4111V46.2665H55.4835V43.1941Z" fill="#040415"/>
<path d="M58.5559 43.1941H55.4835V46.2665H58.5559V43.1941Z" fill="#040415"/>
<path d="M61.6283 43.1941H58.5559V46.2665H61.6283V43.1941Z" fill="white"/>
<path d="M64.7007 43.1941H61.6283V46.2665H64.7007V43.1941Z" fill="white"/>
<path d="M67.7731 43.1941H64.7007V46.2665H67.7731V43.1941Z" fill="white"/>
<path d="M70.8455 43.1941H67.7731V46.2665H70.8455V43.1941Z" fill="white"/>
<path d="M73.9178 43.1941H70.8455V46.2665H73.9178V43.1941Z" fill="white"/>
<path d="M76.9902 43.1941H73.9178V46.2665H76.9902V43.1941Z" fill="white"/>
<path d="M80.0626 43.1941H76.9902V46.2665H80.0626V43.1941Z" fill="#040415"/>
<path d="M83.135 43.1941H80.0626V46.2665H83.135V43.1941Z" fill="#040415"/>
<path d="M86.2074 43.1941H83.135V46.2665H86.2074V43.1941Z" fill="white"/>
<path d="M89.2798 43.1941H86.2074V46.2665H89.2798V43.1941Z" fill="#040415"/>
<path d="M92.3522 43.1941H89.2798V46.2665H92.3522V43.1941Z" fill="white"/>
<path d="M95.4246 43.1941H92.3522V46.2665H95.4246V43.1941Z" fill="white"/>
<path d="M9.39782 46.2664H6.32544V49.3387H9.39782V46.2664Z" fill="white"/>
<path d="M12.4702 46.2664H9.39783V49.3387H12.4702V46.2664Z" fill="#040415"/>
<path d="M15.5426 46.2664H12.4702V49.3387H15.5426V46.2664Z" fill="white"/>
<path d="M18.615 46.2664H15.5426V49.3387H18.615V46.2664Z" fill="#040415"/>
<path d="M21.6874 46.2664H18.615V49.3387H21.6874V46.2664Z" fill="white"/>
<path d="M24.7598 46.2664H21.6874V49.3387H24.7598V46.2664Z" fill="white"/>
<path d="M27.8321 46.2664H24.7598V49.3387H27.8321V46.2664Z" fill="#040415"/>
<path d="M30.9045 46.2664H27.8322V49.3387H30.9045V46.2664Z" fill="#040415"/>
<path d="M33.9769 46.2664H30.9045V49.3387H33.9769V46.2664Z" fill="#040415"/>
<path d="M37.0493 46.2664H33.9769V49.3387H37.0493V46.2664Z" fill="#040415"/>
<path d="M40.1217 46.2664H37.0493V49.3387H40.1217V46.2664Z" fill="white"/>
<path d="M43.1941 46.2664H40.1217V49.3387H43.1941V46.2664Z" fill="#040415"/>
<path d="M46.2665 46.2664H43.1941V49.3387H46.2665V46.2664Z" fill="white"/>
<path d="M49.3389 46.2664H46.2665V49.3387H49.3389V46.2664Z" fill="#040415"/>
<path d="M52.4112 46.2664H49.3389V49.3387H52.4112V46.2664Z" fill="#040415"/>
<path d="M55.4835 46.2664H52.4111V49.3387H55.4835V46.2664Z" fill="#040415"/>
<path d="M58.5559 46.2664H55.4835V49.3387H58.5559V46.2664Z" fill="white"/>
<path d="M61.6283 46.2664H58.5559V49.3387H61.6283V46.2664Z" fill="white"/>
<path d="M64.7007 46.2664H61.6283V49.3387H64.7007V46.2664Z" fill="white"/>
<path d="M67.7731 46.2664H64.7007V49.3387H67.7731V46.2664Z" fill="white"/>
<path d="M70.8455 46.2664H67.7731V49.3387H70.8455V46.2664Z" fill="white"/>
<path d="M73.9178 46.2664H70.8455V49.3387H73.9178V46.2664Z" fill="white"/>
<path d="M76.9902 46.2664H73.9178V49.3387H76.9902V46.2664Z" fill="#040415"/>
<path d="M80.0626 46.2664H76.9902V49.3387H80.0626V46.2664Z" fill="#040415"/>
<path d="M83.135 46.2664H80.0626V49.3387H83.135V46.2664Z" fill="#040415"/>
<path d="M86.2074 46.2664H83.135V49.3387H86.2074V46.2664Z" fill="#040415"/>
<path d="M89.2798 46.2664H86.2074V49.3387H89.2798V46.2664Z" fill="#040415"/>
<path d="M92.3522 46.2664H89.2798V49.3387H92.3522V46.2664Z" fill="#040415"/>
<path d="M95.4246 46.2664H92.3522V49.3387H95.4246V46.2664Z" fill="#040415"/>
<path d="M9.39782 49.3389H6.32544V52.4112H9.39782V49.3389Z" fill="#040415"/>
<path d="M12.4702 49.3389H9.39783V52.4112H12.4702V49.3389Z" fill="#040415"/>
<path d="M15.5426 49.3389H12.4702V52.4112H15.5426V49.3389Z" fill="#040415"/>
<path d="M18.615 49.3389H15.5426V52.4112H18.615V49.3389Z" fill="#040415"/>
<path d="M21.6874 49.3389H18.615V52.4112H21.6874V49.3389Z" fill="white"/>
<path d="M24.7598 49.3389H21.6874V52.4112H24.7598V49.3389Z" fill="#040415"/>
<path d="M27.8321 49.3389H24.7598V52.4112H27.8321V49.3389Z" fill="white"/>
<path d="M30.9045 49.3389H27.8322V52.4112H30.9045V49.3389Z" fill="#040415"/>
<path d="M33.9769 49.3389H30.9045V52.4112H33.9769V49.3389Z" fill="white"/>
<path d="M37.0493 49.3389H33.9769V52.4112H37.0493V49.3389Z" fill="white"/>
<path d="M40.1217 49.3389H37.0493V52.4112H40.1217V49.3389Z" fill="#040415"/>
<path d="M43.1941 49.3389H40.1217V52.4112H43.1941V49.3389Z" fill="white"/>
<path d="M46.2665 49.3389H43.1941V52.4112H46.2665V49.3389Z" fill="#040415"/>
<path d="M49.3389 49.3389H46.2665V52.4112H49.3389V49.3389Z" fill="white"/>
<path d="M52.4112 49.3389H49.3389V52.4112H52.4112V49.3389Z" fill="white"/>
<path d="M55.4835 49.3389H52.4111V52.4112H55.4835V49.3389Z" fill="#040415"/>
<path d="M58.5559 49.3389H55.4835V52.4112H58.5559V49.3389Z" fill="white"/>
<path d="M61.6283 49.3389H58.5559V52.4112H61.6283V49.3389Z" fill="white"/>
<path d="M64.7007 49.3389H61.6283V52.4112H64.7007V49.3389Z" fill="#040415"/>
<path d="M67.7731 49.3389H64.7007V52.4112H67.7731V49.3389Z" fill="#040415"/>
<path d="M70.8455 49.3389H67.7731V52.4112H70.8455V49.3389Z" fill="#040415"/>
<path d="M73.9178 49.3389H70.8455V52.4112H73.9178V49.3389Z" fill="white"/>
<path d="M76.9902 49.3389H73.9178V52.4112H76.9902V49.3389Z" fill="#040415"/>
<path d="M80.0626 49.3389H76.9902V52.4112H80.0626V49.3389Z" fill="#040415"/>
<path d="M83.135 49.3389H80.0626V52.4112H83.135V49.3389Z" fill="white"/>
<path d="M86.2074 49.3389H83.135V52.4112H86.2074V49.3389Z" fill="white"/>
<path d="M89.2798 49.3389H86.2074V52.4112H89.2798V49.3389Z" fill="white"/>
<path d="M92.3522 49.3389H89.2798V52.4112H92.3522V49.3389Z" fill="white"/>
<path d="M95.4246 49.3389H92.3522V52.4112H95.4246V49.3389Z" fill="white"/>
<path d="M9.39782 52.4111H6.32544V55.4835H9.39782V52.4111Z" fill="white"/>
<path d="M12.4702 52.4111H9.39783V55.4835H12.4702V52.4111Z" fill="#040415"/>
<path d="M15.5426 52.4111H12.4702V55.4835H15.5426V52.4111Z" fill="white"/>
<path d="M18.615 52.4111H15.5426V55.4835H18.615V52.4111Z" fill="white"/>
<path d="M21.6874 52.4111H18.615V55.4835H21.6874V52.4111Z" fill="#040415"/>
<path d="M24.7598 52.4111H21.6874V55.4835H24.7598V52.4111Z" fill="#040415"/>
<path d="M27.8321 52.4111H24.7598V55.4835H27.8321V52.4111Z" fill="#040415"/>
<path d="M30.9045 52.4111H27.8322V55.4835H30.9045V52.4111Z" fill="#040415"/>
<path d="M33.9769 52.4111H30.9045V55.4835H33.9769V52.4111Z" fill="white"/>
<path d="M37.0493 52.4111H33.9769V55.4835H37.0493V52.4111Z" fill="#040415"/>
<path d="M40.1217 52.4111H37.0493V55.4835H40.1217V52.4111Z" fill="#040415"/>
<path d="M43.1941 52.4111H40.1217V55.4835H43.1941V52.4111Z" fill="white"/>
<path d="M46.2665 52.4111H43.1941V55.4835H46.2665V52.4111Z" fill="white"/>
<path d="M49.3389 52.4111H46.2665V55.4835H49.3389V52.4111Z" fill="white"/>
<path d="M52.4112 52.4111H49.3389V55.4835H52.4112V52.4111Z" fill="#040415"/>
<path d="M55.4835 52.4111H52.4111V55.4835H55.4835V52.4111Z" fill="white"/>
<path d="M58.5559 52.4111H55.4835V55.4835H58.5559V52.4111Z" fill="#040415"/>
<path d="M61.6283 52.4111H58.5559V55.4835H61.6283V52.4111Z" fill="white"/>
<path d="M64.7007 52.4111H61.6283V55.4835H64.7007V52.4111Z" fill="#040415"/>
<path d="M67.7731 52.4111H64.7007V55.4835H67.7731V52.4111Z" fill="#040415"/>
<path d="M70.8455 52.4111H67.7731V55.4835H70.8455V52.4111Z" fill="white"/>
<path d="M73.9178 52.4111H70.8455V55.4835H73.9178V52.4111Z" fill="#040415"/>
<path d="M76.9902 52.4111H73.9178V55.4835H76.9902V52.4111Z" fill="white"/>
<path d="M80.0626 52.4111H76.9902V55.4835H80.0626V52.4111Z" fill="white"/>
<path d="M83.135 52.4111H80.0626V55.4835H83.135V52.4111Z" fill="#040415"/>
<path d="M86.2074 52.4111H83.135V55.4835H86.2074V52.4111Z" fill="white"/>
<path d="M89.2798 52.4111H86.2074V55.4835H89.2798V52.4111Z" fill="#040415"/>
<path d="M92.3522 52.4111H89.2798V55.4835H92.3522V52.4111Z" fill="white"/>
<path d="M95.4246 52.4111H92.3522V55.4835H95.4246V52.4111Z" fill="#040415"/>
<path d="M9.39782 55.4836H6.32544V58.556H9.39782V55.4836Z" fill="white"/>
<path d="M12.4702 55.4836H9.39783V58.556H12.4702V55.4836Z" fill="#040415"/>
<path d="M15.5426 55.4836H12.4702V58.556H15.5426V55.4836Z" fill="#040415"/>
<path d="M18.615 55.4836H15.5426V58.556H18.615V55.4836Z" fill="white"/>
<path d="M21.6874 55.4836H18.615V58.556H21.6874V55.4836Z" fill="white"/>
<path d="M24.7598 55.4836H21.6874V58.556H24.7598V55.4836Z" fill="#040415"/>
<path d="M27.8321 55.4836H24.7598V58.556H27.8321V55.4836Z" fill="white"/>
<path d="M30.9045 55.4836H27.8322V58.556H30.9045V55.4836Z" fill="#040415"/>
<path d="M33.9769 55.4836H30.9045V58.556H33.9769V55.4836Z" fill="white"/>
<path d="M37.0493 55.4836H33.9769V58.556H37.0493V55.4836Z" fill="white"/>
<path d="M40.1217 55.4836H37.0493V58.556H40.1217V55.4836Z" fill="white"/>
<path d="M43.1941 55.4836H40.1217V58.556H43.1941V55.4836Z" fill="#040415"/>
<path d="M46.2665 55.4836H43.1941V58.556H46.2665V55.4836Z" fill="#040415"/>
<path d="M49.3389 55.4836H46.2665V58.556H49.3389V55.4836Z" fill="white"/>
<path d="M52.4112 55.4836H49.3389V58.556H52.4112V55.4836Z" fill="#040415"/>
<path d="M55.4835 55.4836H52.4111V58.556H55.4835V55.4836Z" fill="white"/>
<path d="M58.5559 55.4836H55.4835V58.556H58.5559V55.4836Z" fill="white"/>
<path d="M61.6283 55.4836H58.5559V58.556H61.6283V55.4836Z" fill="white"/>
<path d="M64.7007 55.4836H61.6283V58.556H64.7007V55.4836Z" fill="white"/>
<path d="M67.7731 55.4836H64.7007V58.556H67.7731V55.4836Z" fill="#040415"/>
<path d="M70.8455 55.4836H67.7731V58.556H70.8455V55.4836Z" fill="white"/>
<path d="M73.9178 55.4836H70.8455V58.556H73.9178V55.4836Z" fill="white"/>
<path d="M76.9902 55.4836H73.9178V58.556H76.9902V55.4836Z" fill="#040415"/>
<path d="M80.0626 55.4836H76.9902V58.556H80.0626V55.4836Z" fill="#040415"/>
<path d="M83.135 55.4836H80.0626V58.556H83.135V55.4836Z" fill="#040415"/>
<path d="M86.2074 55.4836H83.135V58.556H86.2074V55.4836Z" fill="#040415"/>
<path d="M89.2798 55.4836H86.2074V58.556H89.2798V55.4836Z" fill="#040415"/>
<path d="M92.3522 55.4836H89.2798V58.556H92.3522V55.4836Z" fill="white"/>
<path d="M95.4246 55.4836H92.3522V58.556H95.4246V55.4836Z" fill="#040415"/>
<path d="M9.39782 58.5559H6.32544V61.6283H9.39782V58.5559Z" fill="#040415"/>
<path d="M12.4702 58.5559H9.39783V61.6283H12.4702V58.5559Z" fill="white"/>
<path d="M15.5426 58.5559H12.4702V61.6283H15.5426V58.5559Z" fill="white"/>
<path d="M18.615 58.5559H15.5426V61.6283H18.615V58.5559Z" fill="white"/>
<path d="M21.6874 58.5559H18.615V61.6283H21.6874V58.5559Z" fill="#040415"/>
<path d="M24.7598 58.5559H21.6874V61.6283H24.7598V58.5559Z" fill="#040415"/>
<path d="M27.8321 58.5559H24.7598V61.6283H27.8321V58.5559Z" fill="#040415"/>
<path d="M30.9045 58.5559H27.8322V61.6283H30.9045V58.5559Z" fill="#040415"/>
<path d="M33.9769 58.5559H30.9045V61.6283H33.9769V58.5559Z" fill="white"/>
<path d="M37.0493 58.5559H33.9769V61.6283H37.0493V58.5559Z" fill="#040415"/>
<path d="M40.1217 58.5559H37.0493V61.6283H40.1217V58.5559Z" fill="white"/>
<path d="M43.1941 58.5559H40.1217V61.6283H43.1941V58.5559Z" fill="white"/>
<path d="M46.2665 58.5559H43.1941V61.6283H46.2665V58.5559Z" fill="white"/>
<path d="M49.3389 58.5559H46.2665V61.6283H49.3389V58.5559Z" fill="#040415"/>
<path d="M52.4112 58.5559H49.3389V61.6283H52.4112V58.5559Z" fill="#040415"/>
<path d="M55.4835 58.5559H52.4111V61.6283H55.4835V58.5559Z" fill="#040415"/>
<path d="M58.5559 58.5559H55.4835V61.6283H58.5559V58.5559Z" fill="#040415"/>
<path d="M61.6283 58.5559H58.5559V61.6283H61.6283V58.5559Z" fill="#040415"/>
<path d="M64.7007 58.5559H61.6283V61.6283H64.7007V58.5559Z" fill="white"/>
<path d="M67.7731 58.5559H64.7007V61.6283H67.7731V58.5559Z" fill="#040415"/>
<path d="M70.8455 58.5559H67.7731V61.6283H70.8455V58.5559Z" fill="#040415"/>
<path d="M73.9178 58.5559H70.8455V61.6283H73.9178V58.5559Z" fill="white"/>
<path d="M76.9902 58.5559H73.9178V61.6283H76.9902V58.5559Z" fill="white"/>
<path d="M80.0626 58.5559H76.9902V61.6283H80.0626V58.5559Z" fill="white"/>
<path d="M83.135 58.5559H80.0626V61.6283H83.135V58.5559Z" fill="#040415"/>
<path d="M86.2074 58.5559H83.135V61.6283H86.2074V58.5559Z" fill="white"/>
<path d="M89.2798 58.5559H86.2074V61.6283H89.2798V58.5559Z" fill="#040415"/>
<path d="M92.3522 58.5559H89.2798V61.6283H92.3522V58.5559Z" fill="#040415"/>
<path d="M95.4246 58.5559H92.3522V61.6283H95.4246V58.5559Z" fill="white"/>
<path d="M9.39782 61.6284H6.32544V64.7008H9.39782V61.6284Z" fill="white"/>
<path d="M12.4702 61.6284H9.39783V64.7008H12.4702V61.6284Z" fill="#040415"/>
<path d="M15.5426 61.6284H12.4702V64.7008H15.5426V61.6284Z" fill="white"/>
<path d="M18.615 61.6284H15.5426V64.7008H18.615V61.6284Z" fill="#040415"/>
<path d="M21.6874 61.6284H18.615V64.7008H21.6874V61.6284Z" fill="#040415"/>
<path d="M24.7598 61.6284H21.6874V64.7008H24.7598V61.6284Z" fill="#040415"/>
<path d="M27.8321 61.6284H24.7598V64.7008H27.8321V61.6284Z" fill="white"/>
<path d="M30.9045 61.6284H27.8322V64.7008H30.9045V61.6284Z" fill="#040415"/>
<path d="M33.9769 61.6284H30.9045V64.7008H33.9769V61.6284Z" fill="white"/>
<path d="M37.0493 61.6284H33.9769V64.7008H37.0493V61.6284Z" fill="white"/>
<path d="M40.1217 61.6284H37.0493V64.7008H40.1217V61.6284Z" fill="#040415"/>
<path d="M43.1941 61.6284H40.1217V64.7008H43.1941V61.6284Z" fill="#040415"/>
<path d="M46.2665 61.6284H43.1941V64.7008H46.2665V61.6284Z" fill="white"/>
<path d="M49.3389 61.6284H46.2665V64.7008H49.3389V61.6284Z" fill="white"/>
<path d="M52.4112 61.6284H49.3389V64.7008H52.4112V61.6284Z" fill="#040415"/>
<path d="M55.4835 61.6284H52.4111V64.7008H55.4835V61.6284Z" fill="#040415"/>
<path d="M58.5559 61.6284H55.4835V64.7008H58.5559V61.6284Z" fill="white"/>
<path d="M61.6283 61.6284H58.5559V64.7008H61.6283V61.6284Z" fill="white"/>
<path d="M64.7007 61.6284H61.6283V64.7008H64.7007V61.6284Z" fill="#040415"/>
<path d="M67.7731 61.6284H64.7007V64.7008H67.7731V61.6284Z" fill="#040415"/>
<path d="M70.8455 61.6284H67.7731V64.7008H70.8455V61.6284Z" fill="#040415"/>
<path d="M73.9178 61.6284H70.8455V64.7008H73.9178V61.6284Z" fill="white"/>
<path d="M76.9902 61.6284H73.9178V64.7008H76.9902V61.6284Z" fill="#040415"/>
<path d="M80.0626 61.6284H76.9902V64.7008H80.0626V61.6284Z" fill="white"/>
<path d="M83.135 61.6284H80.0626V64.7008H83.135V61.6284Z" fill="white"/>
<path d="M86.2074 61.6284H83.135V64.7008H86.2074V61.6284Z" fill="#040415"/>
<path d="M89.2798 61.6284H86.2074V64.7008H89.2798V61.6284Z" fill="#040415"/>
<path d="M92.3522 61.6284H89.2798V64.7008H92.3522V61.6284Z" fill="white"/>
<path d="M95.4246 61.6284H92.3522V64.7008H95.4246V61.6284Z" fill="white"/>
<path d="M9.39782 64.7007H6.32544V67.7731H9.39782V64.7007Z" fill="#040415"/>
<path d="M12.4702 64.7007H9.39783V67.7731H12.4702V64.7007Z" fill="#040415"/>
<path d="M15.5426 64.7007H12.4702V67.7731H15.5426V64.7007Z" fill="white"/>
<path d="M18.615 64.7007H15.5426V67.7731H18.615V64.7007Z" fill="#040415"/>
<path d="M21.6874 64.7007H18.615V67.7731H21.6874V64.7007Z" fill="#040415"/>
<path d="M24.7598 64.7007H21.6874V67.7731H24.7598V64.7007Z" fill="white"/>
<path d="M27.8321 64.7007H24.7598V67.7731H27.8321V64.7007Z" fill="#040415"/>
<path d="M30.9045 64.7007H27.8322V67.7731H30.9045V64.7007Z" fill="#040415"/>
<path d="M33.9769 64.7007H30.9045V67.7731H33.9769V64.7007Z" fill="white"/>
<path d="M37.0493 64.7007H33.9769V67.7731H37.0493V64.7007Z" fill="white"/>
<path d="M40.1217 64.7007H37.0493V67.7731H40.1217V64.7007Z" fill="white"/>
<path d="M43.1941 64.7007H40.1217V67.7731H43.1941V64.7007Z" fill="#040415"/>
<path d="M46.2665 64.7007H43.1941V67.7731H46.2665V64.7007Z" fill="#040415"/>
<path d="M49.3389 64.7007H46.2665V67.7731H49.3389V64.7007Z" fill="#040415"/>
<path d="M52.4112 64.7007H49.3389V67.7731H52.4112V64.7007Z" fill="white"/>
<path d="M55.4835 64.7007H52.4111V67.7731H55.4835V64.7007Z" fill="white"/>
<path d="M58.5559 64.7007H55.4835V67.7731H58.5559V64.7007Z" fill="#040415"/>
<path d="M61.6283 64.7007H58.5559V67.7731H61.6283V64.7007Z" fill="white"/>
<path d="M64.7007 64.7007H61.6283V67.7731H64.7007V64.7007Z" fill="#040415"/>
<path d="M67.7731 64.7007H64.7007V67.7731H67.7731V64.7007Z" fill="#040415"/>
<path d="M70.8455 64.7007H67.7731V67.7731H70.8455V64.7007Z" fill="#040415"/>
<path d="M73.9178 64.7007H70.8455V67.7731H73.9178V64.7007Z" fill="white"/>
<path d="M76.9902 64.7007H73.9178V67.7731H76.9902V64.7007Z" fill="#040415"/>
<path d="M80.0626 64.7007H76.9902V67.7731H80.0626V64.7007Z" fill="#040415"/>
<path d="M83.135 64.7007H80.0626V67.7731H83.135V64.7007Z" fill="white"/>
<path d="M86.2074 64.7007H83.135V67.7731H86.2074V64.7007Z" fill="#040415"/>
<path d="M89.2798 64.7007H86.2074V67.7731H89.2798V64.7007Z" fill="#040415"/>
<path d="M92.3522 64.7007H89.2798V67.7731H92.3522V64.7007Z" fill="white"/>
<path d="M95.4246 64.7007H92.3522V67.7731H95.4246V64.7007Z" fill="white"/>
<path d="M9.39782 67.7732H6.32544V70.8456H9.39782V67.7732Z" fill="white"/>
<path d="M12.4702 67.7732H9.39783V70.8456H12.4702V67.7732Z" fill="#040415"/>
<path d="M15.5426 67.7732H12.4702V70.8456H15.5426V67.7732Z" fill="white"/>
<path d="M18.615 67.7732H15.5426V70.8456H18.615V67.7732Z" fill="white"/>
<path d="M21.6874 67.7732H18.615V70.8456H21.6874V67.7732Z" fill="white"/>
<path d="M24.7598 67.7732H21.6874V70.8456H24.7598V67.7732Z" fill="#040415"/>
<path d="M27.8321 67.7732H24.7598V70.8456H27.8321V67.7732Z" fill="white"/>
<path d="M30.9045 67.7732H27.8322V70.8456H30.9045V67.7732Z" fill="white"/>
<path d="M33.9769 67.7732H30.9045V70.8456H33.9769V67.7732Z" fill="white"/>
<path d="M37.0493 67.7732H33.9769V70.8456H37.0493V67.7732Z" fill="white"/>
<path d="M40.1217 67.7732H37.0493V70.8456H40.1217V67.7732Z" fill="#040415"/>
<path d="M43.1941 67.7732H40.1217V70.8456H43.1941V67.7732Z" fill="white"/>
<path d="M46.2665 67.7732H43.1941V70.8456H46.2665V67.7732Z" fill="#040415"/>
<path d="M49.3389 67.7732H46.2665V70.8456H49.3389V67.7732Z" fill="white"/>
<path d="M52.4112 67.7732H49.3389V70.8456H52.4112V67.7732Z" fill="white"/>
<path d="M55.4835 67.7732H52.4111V70.8456H55.4835V67.7732Z" fill="#040415"/>
<path d="M58.5559 67.7732H55.4835V70.8456H58.5559V67.7732Z" fill="white"/>
<path d="M61.6283 67.7732H58.5559V70.8456H61.6283V67.7732Z" fill="white"/>
<path d="M64.7007 67.7732H61.6283V70.8456H64.7007V67.7732Z" fill="#040415"/>
<path d="M67.7731 67.7732H64.7007V70.8456H67.7731V67.7732Z" fill="white"/>
<path d="M70.8455 67.7732H67.7731V70.8456H70.8455V67.7732Z" fill="white"/>
<path d="M73.9178 67.7732H70.8455V70.8456H73.9178V67.7732Z" fill="white"/>
<path d="M76.9902 67.7732H73.9178V70.8456H76.9902V67.7732Z" fill="white"/>
<path d="M80.0626 67.7732H76.9902V70.8456H80.0626V67.7732Z" fill="white"/>
<path d="M83.135 67.7732H80.0626V70.8456H83.135V67.7732Z" fill="white"/>
<path d="M86.2074 67.7732H83.135V70.8456H86.2074V67.7732Z" fill="#040415"/>
<path d="M89.2798 67.7732H86.2074V70.8456H89.2798V67.7732Z" fill="white"/>
<path d="M92.3522 67.7732H89.2798V70.8456H92.3522V67.7732Z" fill="#040415"/>
<path d="M95.4246 67.7732H92.3522V70.8456H95.4246V67.7732Z" fill="#040415"/>
<path d="M9.39782 70.8455H6.32544V73.9178H9.39782V70.8455Z" fill="#040415"/>
<path d="M12.4702 70.8455H9.39783V73.9178H12.4702V70.8455Z" fill="#040415"/>
<path d="M15.5426 70.8455H12.4702V73.9178H15.5426V70.8455Z" fill="#040415"/>
<path d="M18.615 70.8455H15.5426V73.9178H18.615V70.8455Z" fill="#040415"/>
<path d="M21.6874 70.8455H18.615V73.9178H21.6874V70.8455Z" fill="#040415"/>
<path d="M24.7598 70.8455H21.6874V73.9178H24.7598V70.8455Z" fill="#040415"/>
<path d="M27.8321 70.8455H24.7598V73.9178H27.8321V70.8455Z" fill="#040415"/>
<path d="M30.9045 70.8455H27.8322V73.9178H30.9045V70.8455Z" fill="#040415"/>
<path d="M33.9769 70.8455H30.9045V73.9178H33.9769V70.8455Z" fill="white"/>
<path d="M37.0493 70.8455H33.9769V73.9178H37.0493V70.8455Z" fill="#040415"/>
<path d="M40.1217 70.8455H37.0493V73.9178H40.1217V70.8455Z" fill="#040415"/>
<path d="M43.1941 70.8455H40.1217V73.9178H43.1941V70.8455Z" fill="#040415"/>
<path d="M46.2665 70.8455H43.1941V73.9178H46.2665V70.8455Z" fill="white"/>
<path d="M49.3389 70.8455H46.2665V73.9178H49.3389V70.8455Z" fill="white"/>
<path d="M52.4112 70.8455H49.3389V73.9178H52.4112V70.8455Z" fill="white"/>
<path d="M55.4835 70.8455H52.4111V73.9178H55.4835V70.8455Z" fill="#040415"/>
<path d="M58.5559 70.8455H55.4835V73.9178H58.5559V70.8455Z" fill="white"/>
<path d="M61.6283 70.8455H58.5559V73.9178H61.6283V70.8455Z" fill="white"/>
<path d="M64.7007 70.8455H61.6283V73.9178H64.7007V70.8455Z" fill="#040415"/>
<path d="M67.7731 70.8455H64.7007V73.9178H67.7731V70.8455Z" fill="white"/>
<path d="M70.8455 70.8455H67.7731V73.9178H70.8455V70.8455Z" fill="white"/>
<path d="M73.9178 70.8455H70.8455V73.9178H73.9178V70.8455Z" fill="#040415"/>
<path d="M76.9902 70.8455H73.9178V73.9178H76.9902V70.8455Z" fill="#040415"/>
<path d="M80.0626 70.8455H76.9902V73.9178H80.0626V70.8455Z" fill="#040415"/>
<path d="M83.135 70.8455H80.0626V73.9178H83.135V70.8455Z" fill="white"/>
<path d="M86.2074 70.8455H83.135V73.9178H86.2074V70.8455Z" fill="#040415"/>
<path d="M89.2798 70.8455H86.2074V73.9178H89.2798V70.8455Z" fill="white"/>
<path d="M92.3522 70.8455H89.2798V73.9178H92.3522V70.8455Z" fill="white"/>
<path d="M95.4246 70.8455H92.3522V73.9178H95.4246V70.8455Z" fill="white"/>
<path d="M9.39782 73.918H6.32544V76.9903H9.39782V73.918Z" fill="white"/>
<path d="M12.4702 73.918H9.39783V76.9903H12.4702V73.918Z" fill="white"/>
<path d="M15.5426 73.918H12.4702V76.9903H15.5426V73.918Z" fill="white"/>
<path d="M18.615 73.918H15.5426V76.9903H18.615V73.918Z" fill="white"/>
<path d="M21.6874 73.918H18.615V76.9903H21.6874V73.918Z" fill="white"/>
<path d="M24.7598 73.918H21.6874V76.9903H24.7598V73.918Z" fill="white"/>
<path d="M27.8321 73.918H24.7598V76.9903H27.8321V73.918Z" fill="white"/>
<path d="M30.9045 73.918H27.8322V76.9903H30.9045V73.918Z" fill="#040415"/>
<path d="M33.9769 73.918H30.9045V76.9903H33.9769V73.918Z" fill="white"/>
<path d="M37.0493 73.918H33.9769V76.9903H37.0493V73.918Z" fill="white"/>
<path d="M40.1217 73.918H37.0493V76.9903H40.1217V73.918Z" fill="#040415"/>
<path d="M43.1941 73.918H40.1217V76.9903H43.1941V73.918Z" fill="#040415"/>
<path d="M46.2665 73.918H43.1941V76.9903H46.2665V73.918Z" fill="white"/>
<path d="M49.3389 73.918H46.2665V76.9903H49.3389V73.918Z" fill="white"/>
<path d="M52.4112 73.918H49.3389V76.9903H52.4112V73.918Z" fill="white"/>
<path d="M55.4835 73.918H52.4111V76.9903H55.4835V73.918Z" fill="#040415"/>
<path d="M58.5559 73.918H55.4835V76.9903H58.5559V73.918Z" fill="#040415"/>
<path d="M61.6283 73.918H58.5559V76.9903H61.6283V73.918Z" fill="#040415"/>
<path d="M64.7007 73.918H61.6283V76.9903H64.7007V73.918Z" fill="white"/>
<path d="M67.7731 73.918H64.7007V76.9903H67.7731V73.918Z" fill="#040415"/>
<path d="M70.8455 73.918H67.7731V76.9903H70.8455V73.918Z" fill="white"/>
<path d="M73.9178 73.918H70.8455V76.9903H73.9178V73.918Z" fill="#040415"/>
<path d="M76.9902 73.918H73.9178V76.9903H76.9902V73.918Z" fill="white"/>
<path d="M80.0626 73.918H76.9902V76.9903H80.0626V73.918Z" fill="#040415"/>
<path d="M83.135 73.918H80.0626V76.9903H83.135V73.918Z" fill="white"/>
<path d="M86.2074 73.918H83.135V76.9903H86.2074V73.918Z" fill="#040415"/>
<path d="M89.2798 73.918H86.2074V76.9903H89.2798V73.918Z" fill="#040415"/>
<path d="M92.3522 73.918H89.2798V76.9903H92.3522V73.918Z" fill="white"/>
<path d="M95.4246 73.918H92.3522V76.9903H95.4246V73.918Z" fill="#040415"/>
<path d="M9.39782 76.9902H6.32544V80.0626H9.39782V76.9902Z" fill="white"/>
<path d="M12.4702 76.9902H9.39783V80.0626H12.4702V76.9902Z" fill="#040415"/>
<path d="M15.5426 76.9902H12.4702V80.0626H15.5426V76.9902Z" fill="#040415"/>
<path d="M18.615 76.9902H15.5426V80.0626H18.615V76.9902Z" fill="#040415"/>
<path d="M21.6874 76.9902H18.615V80.0626H21.6874V76.9902Z" fill="#040415"/>
<path d="M24.7598 76.9902H21.6874V80.0626H24.7598V76.9902Z" fill="#040415"/>
<path d="M27.8321 76.9902H24.7598V80.0626H27.8321V76.9902Z" fill="white"/>
<path d="M30.9045 76.9902H27.8322V80.0626H30.9045V76.9902Z" fill="#040415"/>
<path d="M33.9769 76.9902H30.9045V80.0626H33.9769V76.9902Z" fill="#040415"/>
<path d="M37.0493 76.9902H33.9769V80.0626H37.0493V76.9902Z" fill="white"/>
<path d="M40.1217 76.9902H37.0493V80.0626H40.1217V76.9902Z" fill="#040415"/>
<path d="M43.1941 76.9902H40.1217V80.0626H43.1941V76.9902Z" fill="#040415"/>
<path d="M46.2665 76.9902H43.1941V80.0626H46.2665V76.9902Z" fill="white"/>
<path d="M49.3389 76.9902H46.2665V80.0626H49.3389V76.9902Z" fill="white"/>
<path d="M52.4112 76.9902H49.3389V80.0626H52.4112V76.9902Z" fill="#040415"/>
<path d="M55.4835 76.9902H52.4111V80.0626H55.4835V76.9902Z" fill="white"/>
<path d="M58.5559 76.9902H55.4835V80.0626H58.5559V76.9902Z" fill="#040415"/>
<path d="M61.6283 76.9902H58.5559V80.0626H61.6283V76.9902Z" fill="#040415"/>
<path d="M64.7007 76.9902H61.6283V80.0626H64.7007V76.9902Z" fill="white"/>
<path d="M67.7731 76.9902H64.7007V80.0626H67.7731V76.9902Z" fill="#040415"/>
<path d="M70.8455 76.9902H67.7731V80.0626H70.8455V76.9902Z" fill="white"/>
<path d="M73.9178 76.9902H70.8455V80.0626H73.9178V76.9902Z" fill="#040415"/>
<path d="M76.9902 76.9902H73.9178V80.0626H76.9902V76.9902Z" fill="#040415"/>
<path d="M80.0626 76.9902H76.9902V80.0626H80.0626V76.9902Z" fill="#040415"/>
<path d="M83.135 76.9902H80.0626V80.0626H83.135V76.9902Z" fill="white"/>
<path d="M86.2074 76.9902H83.135V80.0626H86.2074V76.9902Z" fill="white"/>
<path d="M89.2798 76.9902H86.2074V80.0626H89.2798V76.9902Z" fill="white"/>
<path d="M92.3522 76.9902H89.2798V80.0626H92.3522V76.9902Z" fill="white"/>
<path d="M95.4246 76.9902H92.3522V80.0626H95.4246V76.9902Z" fill="#040415"/>
<path d="M9.39782 80.0625H6.32544V83.1349H9.39782V80.0625Z" fill="white"/>
<path d="M12.4702 80.0625H9.39783V83.1349H12.4702V80.0625Z" fill="#040415"/>
<path d="M15.5426 80.0625H12.4702V83.1349H15.5426V80.0625Z" fill="white"/>
<path d="M18.615 80.0625H15.5426V83.1349H18.615V80.0625Z" fill="white"/>
<path d="M21.6874 80.0625H18.615V83.1349H21.6874V80.0625Z" fill="white"/>
<path d="M24.7598 80.0625H21.6874V83.1349H24.7598V80.0625Z" fill="#040415"/>
<path d="M27.8321 80.0625H24.7598V83.1349H27.8321V80.0625Z" fill="white"/>
<path d="M30.9045 80.0625H27.8322V83.1349H30.9045V80.0625Z" fill="#040415"/>
<path d="M33.9769 80.0625H30.9045V83.1349H33.9769V80.0625Z" fill="#040415"/>
<path d="M37.0493 80.0625H33.9769V83.1349H37.0493V80.0625Z" fill="white"/>
<path d="M40.1217 80.0625H37.0493V83.1349H40.1217V80.0625Z" fill="#040415"/>
<path d="M43.1941 80.0625H40.1217V83.1349H43.1941V80.0625Z" fill="#040415"/>
<path d="M46.2665 80.0625H43.1941V83.1349H46.2665V80.0625Z" fill="#040415"/>
<path d="M49.3389 80.0625H46.2665V83.1349H49.3389V80.0625Z" fill="white"/>
<path d="M52.4112 80.0625H49.3389V83.1349H52.4112V80.0625Z" fill="#040415"/>
<path d="M55.4835 80.0625H52.4111V83.1349H55.4835V80.0625Z" fill="white"/>
<path d="M58.5559 80.0625H55.4835V83.1349H58.5559V80.0625Z" fill="#040415"/>
<path d="M61.6283 80.0625H58.5559V83.1349H61.6283V80.0625Z" fill="white"/>
<path d="M64.7007 80.0625H61.6283V83.1349H64.7007V80.0625Z" fill="white"/>
<path d="M67.7731 80.0625H64.7007V83.1349H67.7731V80.0625Z" fill="#040415"/>
<path d="M70.8455 80.0625H67.7731V83.1349H70.8455V80.0625Z" fill="white"/>
<path d="M73.9178 80.0625H70.8455V83.1349H73.9178V80.0625Z" fill="white"/>
<path d="M76.9902 80.0625H73.9178V83.1349H76.9902V80.0625Z" fill="white"/>
<path d="M80.0626 80.0625H76.9902V83.1349H80.0626V80.0625Z" fill="white"/>
<path d="M83.135 80.0625H80.0626V83.1349H83.135V80.0625Z" fill="white"/>
<path d="M86.2074 80.0625H83.135V83.1349H86.2074V80.0625Z" fill="#040415"/>
<path d="M89.2798 80.0625H86.2074V83.1349H89.2798V80.0625Z" fill="#040415"/>
<path d="M92.3522 80.0625H89.2798V83.1349H92.3522V80.0625Z" fill="#040415"/>
<path d="M95.4246 80.0625H92.3522V83.1349H95.4246V80.0625Z" fill="white"/>
<path d="M9.39782 83.135H6.32544V86.2074H9.39782V83.135Z" fill="white"/>
<path d="M12.4702 83.135H9.39783V86.2074H12.4702V83.135Z" fill="#040415"/>
<path d="M15.5426 83.135H12.4702V86.2074H15.5426V83.135Z" fill="white"/>
<path d="M18.615 83.135H15.5426V86.2074H18.615V83.135Z" fill="white"/>
<path d="M21.6874 83.135H18.615V86.2074H21.6874V83.135Z" fill="white"/>
<path d="M24.7598 83.135H21.6874V86.2074H24.7598V83.135Z" fill="#040415"/>
<path d="M27.8321 83.135H24.7598V86.2074H27.8321V83.135Z" fill="white"/>
<path d="M30.9045 83.135H27.8322V86.2074H30.9045V83.135Z" fill="#040415"/>
<path d="M33.9769 83.135H30.9045V86.2074H33.9769V83.135Z" fill="white"/>
<path d="M37.0493 83.135H33.9769V86.2074H37.0493V83.135Z" fill="#040415"/>
<path d="M40.1217 83.135H37.0493V86.2074H40.1217V83.135Z" fill="#040415"/>
<path d="M43.1941 83.135H40.1217V86.2074H43.1941V83.135Z" fill="#040415"/>
<path d="M46.2665 83.135H43.1941V86.2074H46.2665V83.135Z" fill="white"/>
<path d="M49.3389 83.135H46.2665V86.2074H49.3389V83.135Z" fill="#040415"/>
<path d="M52.4112 83.135H49.3389V86.2074H52.4112V83.135Z" fill="white"/>
<path d="M55.4835 83.135H52.4111V86.2074H55.4835V83.135Z" fill="#040415"/>
<path d="M58.5559 83.135H55.4835V86.2074H58.5559V83.135Z" fill="white"/>
<path d="M61.6283 83.135H58.5559V86.2074H61.6283V83.135Z" fill="#040415"/>
<path d="M64.7007 83.135H61.6283V86.2074H64.7007V83.135Z" fill="#040415"/>
<path d="M67.7731 83.135H64.7007V86.2074H67.7731V83.135Z" fill="#040415"/>
<path d="M70.8455 83.135H67.7731V86.2074H70.8455V83.135Z" fill="#040415"/>
<path d="M73.9178 83.135H70.8455V86.2074H73.9178V83.135Z" fill="#040415"/>
<path d="M76.9902 83.135H73.9178V86.2074H76.9902V83.135Z" fill="white"/>
<path d="M80.0626 83.135H76.9902V86.2074H80.0626V83.135Z" fill="white"/>
<path d="M83.135 83.135H80.0626V86.2074H83.135V83.135Z" fill="white"/>
<path d="M86.2074 83.135H83.135V86.2074H86.2074V83.135Z" fill="white"/>
<path d="M89.2798 83.135H86.2074V86.2074H89.2798V83.135Z" fill="white"/>
<path d="M92.3522 83.135H89.2798V86.2074H92.3522V83.135Z" fill="#040415"/>
<path d="M95.4246 83.135H92.3522V86.2074H95.4246V83.135Z" fill="#040415"/>
<path d="M9.39782 86.2073H6.32544V89.2797H9.39782V86.2073Z" fill="white"/>
<path d="M12.4702 86.2073H9.39783V89.2797H12.4702V86.2073Z" fill="#040415"/>
<path d="M15.5426 86.2073H12.4702V89.2797H15.5426V86.2073Z" fill="white"/>
<path d="M18.615 86.2073H15.5426V89.2797H18.615V86.2073Z" fill="white"/>
<path d="M21.6874 86.2073H18.615V89.2797H21.6874V86.2073Z" fill="white"/>
<path d="M24.7598 86.2073H21.6874V89.2797H24.7598V86.2073Z" fill="#040415"/>
<path d="M27.8321 86.2073H24.7598V89.2797H27.8321V86.2073Z" fill="white"/>
<path d="M30.9045 86.2073H27.8322V89.2797H30.9045V86.2073Z" fill="#040415"/>
<path d="M33.9769 86.2073H30.9045V89.2797H33.9769V86.2073Z" fill="#040415"/>
<path d="M37.0493 86.2073H33.9769V89.2797H37.0493V86.2073Z" fill="#040415"/>
<path d="M40.1217 86.2073H37.0493V89.2797H40.1217V86.2073Z" fill="#040415"/>
<path d="M43.1941 86.2073H40.1217V89.2797H43.1941V86.2073Z" fill="white"/>
<path d="M46.2665 86.2073H43.1941V89.2797H46.2665V86.2073Z" fill="#040415"/>
<path d="M49.3389 86.2073H46.2665V89.2797H49.3389V86.2073Z" fill="white"/>
<path d="M52.4112 86.2073H49.3389V89.2797H52.4112V86.2073Z" fill="#040415"/>
<path d="M55.4835 86.2073H52.4111V89.2797H55.4835V86.2073Z" fill="#040415"/>
<path d="M58.5559 86.2073H55.4835V89.2797H58.5559V86.2073Z" fill="white"/>
<path d="M61.6283 86.2073H58.5559V89.2797H61.6283V86.2073Z" fill="#040415"/>
<path d="M64.7007 86.2073H61.6283V89.2797H64.7007V86.2073Z" fill="#040415"/>
<path d="M67.7731 86.2073H64.7007V89.2797H67.7731V86.2073Z" fill="white"/>
<path d="M70.8455 86.2073H67.7731V89.2797H70.8455V86.2073Z" fill="white"/>
<path d="M73.9178 86.2073H70.8455V89.2797H73.9178V86.2073Z" fill="#040415"/>
<path d="M76.9902 86.2073H73.9178V89.2797H76.9902V86.2073Z" fill="#040415"/>
<path d="M80.0626 86.2073H76.9902V89.2797H80.0626V86.2073Z" fill="#040415"/>
<path d="M83.135 86.2073H80.0626V89.2797H83.135V86.2073Z" fill="white"/>
<path d="M86.2074 86.2073H83.135V89.2797H86.2074V86.2073Z" fill="white"/>
<path d="M89.2798 86.2073H86.2074V89.2797H89.2798V86.2073Z" fill="white"/>
<path d="M92.3522 86.2073H89.2798V89.2797H92.3522V86.2073Z" fill="#040415"/>
<path d="M95.4246 86.2073H92.3522V89.2797H95.4246V86.2073Z" fill="white"/>
<path d="M9.39782 89.2798H6.32544V92.3522H9.39782V89.2798Z" fill="white"/>
<path d="M12.4702 89.2798H9.39783V92.3522H12.4702V89.2798Z" fill="#040415"/>
<path d="M15.5426 89.2798H12.4702V92.3522H15.5426V89.2798Z" fill="#040415"/>
<path d="M18.615 89.2798H15.5426V92.3522H18.615V89.2798Z" fill="#040415"/>
<path d="M21.6874 89.2798H18.615V92.3522H21.6874V89.2798Z" fill="#040415"/>
<path d="M24.7598 89.2798H21.6874V92.3522H24.7598V89.2798Z" fill="#040415"/>
<path d="M27.8321 89.2798H24.7598V92.3522H27.8321V89.2798Z" fill="white"/>
<path d="M30.9045 89.2798H27.8322V92.3522H30.9045V89.2798Z" fill="#040415"/>
<path d="M33.9769 89.2798H30.9045V92.3522H33.9769V89.2798Z" fill="white"/>
<path d="M37.0493 89.2798H33.9769V92.3522H37.0493V89.2798Z" fill="#040415"/>
<path d="M40.1217 89.2798H37.0493V92.3522H40.1217V89.2798Z" fill="white"/>
<path d="M43.1941 89.2798H40.1217V92.3522H43.1941V89.2798Z" fill="white"/>
<path d="M46.2665 89.2798H43.1941V92.3522H46.2665V89.2798Z" fill="white"/>
<path d="M49.3389 89.2798H46.2665V92.3522H49.3389V89.2798Z" fill="white"/>
<path d="M52.4112 89.2798H49.3389V92.3522H52.4112V89.2798Z" fill="#040415"/>
<path d="M55.4835 89.2798H52.4111V92.3522H55.4835V89.2798Z" fill="#040415"/>
<path d="M58.5559 89.2798H55.4835V92.3522H58.5559V89.2798Z" fill="white"/>
<path d="M61.6283 89.2798H58.5559V92.3522H61.6283V89.2798Z" fill="white"/>
<path d="M64.7007 89.2798H61.6283V92.3522H64.7007V89.2798Z" fill="white"/>
<path d="M67.7731 89.2798H64.7007V92.3522H67.7731V89.2798Z" fill="white"/>
<path d="M70.8455 89.2798H67.7731V92.3522H70.8455V89.2798Z" fill="white"/>
<path d="M73.9178 89.2798H70.8455V92.3522H73.9178V89.2798Z" fill="#040415"/>
<path d="M76.9902 89.2798H73.9178V92.3522H76.9902V89.2798Z" fill="#040415"/>
<path d="M80.0626 89.2798H76.9902V92.3522H80.0626V89.2798Z" fill="#040415"/>
<path d="M83.135 89.2798H80.0626V92.3522H83.135V89.2798Z" fill="#040415"/>
<path d="M86.2074 89.2798H83.135V92.3522H86.2074V89.2798Z" fill="#040415"/>
<path d="M89.2798 89.2798H86.2074V92.3522H89.2798V89.2798Z" fill="#040415"/>
<path d="M92.3522 89.2798H89.2798V92.3522H92.3522V89.2798Z" fill="white"/>
<path d="M95.4246 89.2798H92.3522V92.3522H95.4246V89.2798Z" fill="#040415"/>
<path d="M9.39782 92.3521H6.32544V95.4244H9.39782V92.3521Z" fill="white"/>
<path d="M12.4702 92.3521H9.39783V95.4244H12.4702V92.3521Z" fill="white"/>
<path d="M15.5426 92.3521H12.4702V95.4244H15.5426V92.3521Z" fill="white"/>
<path d="M18.615 92.3521H15.5426V95.4244H18.615V92.3521Z" fill="white"/>
<path d="M21.6874 92.3521H18.615V95.4244H21.6874V92.3521Z" fill="white"/>
<path d="M24.7598 92.3521H21.6874V95.4244H24.7598V92.3521Z" fill="white"/>
<path d="M27.8321 92.3521H24.7598V95.4244H27.8321V92.3521Z" fill="white"/>
<path d="M30.9045 92.3521H27.8322V95.4244H30.9045V92.3521Z" fill="#040415"/>
<path d="M33.9769 92.3521H30.9045V95.4244H33.9769V92.3521Z" fill="white"/>
<path d="M37.0493 92.3521H33.9769V95.4244H37.0493V92.3521Z" fill="#040415"/>
<path d="M40.1217 92.3521H37.0493V95.4244H40.1217V92.3521Z" fill="white"/>
<path d="M43.1941 92.3521H40.1217V95.4244H43.1941V92.3521Z" fill="white"/>
<path d="M46.2665 92.3521H43.1941V95.4244H46.2665V92.3521Z" fill="#040415"/>
<path d="M49.3389 92.3521H46.2665V95.4244H49.3389V92.3521Z" fill="#040415"/>
<path d="M52.4112 92.3521H49.3389V95.4244H52.4112V92.3521Z" fill="white"/>
<path d="M55.4835 92.3521H52.4111V95.4244H55.4835V92.3521Z" fill="#040415"/>
<path d="M58.5559 92.3521H55.4835V95.4244H58.5559V92.3521Z" fill="white"/>
<path d="M61.6283 92.3521H58.5559V95.4244H61.6283V92.3521Z" fill="white"/>
<path d="M64.7007 92.3521H61.6283V95.4244H64.7007V92.3521Z" fill="white"/>
<path d="M67.7731 92.3521H64.7007V95.4244H67.7731V92.3521Z" fill="#040415"/>
<path d="M70.8455 92.3521H67.7731V95.4244H70.8455V92.3521Z" fill="white"/>
<path d="M73.9178 92.3521H70.8455V95.4244H73.9178V92.3521Z" fill="white"/>
<path d="M76.9902 92.3521H73.9178V95.4244H76.9902V92.3521Z" fill="#040415"/>
<path d="M80.0626 92.3521H76.9902V95.4244H80.0626V92.3521Z" fill="#040415"/>
<path d="M83.135 92.3521H80.0626V95.4244H83.135V92.3521Z" fill="#040415"/>
<path d="M86.2074 92.3521H83.135V95.4244H86.2074V92.3521Z" fill="white"/>
<path d="M89.2798 92.3521H86.2074V95.4244H89.2798V92.3521Z" fill="#040415"/>
<path d="M92.3522 92.3521H89.2798V95.4244H92.3522V92.3521Z" fill="white"/>
<path d="M95.4246 92.3521H92.3522V95.4244H95.4246V92.3521Z" fill="#040415"/>
</svg>
