<svg width="143" height="143" viewBox="0 0 143 143" fill="none" xmlns="http://www.w3.org/2000/svg">
<path fill-rule="evenodd" clip-rule="evenodd" d="M56.5886 148.444C96.5985 159.165 137.724 135.421 148.444 95.4111C159.165 55.4011 135.421 14.2759 95.4114 3.55523C55.4015 -7.16541 14.2762 16.5783 3.55555 56.5882C-7.16508 96.5982 16.5786 137.723 56.5886 148.444ZM129.975 68.894L142.672 90.8858C143.795 92.832 143.129 95.3205 141.182 96.4437L119.19 109.141L112.618 133.669C112.036 135.84 109.805 137.128 107.634 136.547L83.1055 129.974L61.1139 142.671C60.1795 143.211 59.0687 143.357 58.0263 143.078C56.984 142.799 56.095 142.117 55.5555 141.182L42.8587 119.19L18.3298 112.618C16.1592 112.036 14.871 109.805 15.4526 107.634L22.025 83.1057L9.32828 61.114C8.20463 59.1677 8.87141 56.6793 10.8176 55.5556L32.8092 42.8586L39.3816 18.33C39.9633 16.1594 42.1945 14.8711 44.3651 15.4527L68.894 22.0252L90.8859 9.32824C91.8202 8.7886 92.9308 8.64218 93.9734 8.92155C95.016 9.20091 95.9046 9.88302 96.4442 10.8176L109.141 32.8094L133.67 39.3819C135.841 39.9635 137.129 42.1948 136.547 44.3654L129.975 68.894ZM77.4057 58.6486C76.2682 56.7102 73.7747 56.0611 71.8368 57.1986C69.8985 58.3358 69.2495 60.8293 70.3868 62.7674C71.3871 64.4716 71.7848 67.0041 71.4002 69.219C71.0372 71.3103 72.3402 73.3055 74.3515 73.8444C74.4697 73.876 74.5906 73.9026 74.7132 73.9239C76.9275 74.308 79.0341 72.8249 79.4184 70.6107C80.1339 66.4879 79.3817 62.0159 77.4057 58.6486ZM46.5807 88.4129C48.0936 88.8183 49.5559 88.9023 50.7757 88.6535C63.754 86.0079 66.0781 65.9226 67.4664 53.9224C67.6906 51.9843 67.8844 50.3104 68.0837 49.0771C68.442 46.8584 66.9378 44.7718 64.7155 44.4114C62.4971 44.0531 60.4081 45.5609 60.0498 47.7795C59.8215 49.1933 59.6181 50.9513 59.3827 52.987C58.4008 61.4728 56.3604 79.1021 49.2169 80.6653C48.4704 80.6675 46.2738 79.75 45.344 77.9347C44.0631 75.4349 45.8751 72.2726 47.6206 70.0598C49.0125 68.2955 48.7104 65.7368 46.9461 64.3451C45.1816 62.9532 42.6231 63.2553 41.2312 65.0195C34.6772 73.3283 36.7545 79.5311 38.5765 82.489C40.5068 85.6236 43.6405 87.6251 46.5807 88.4129ZM108.238 99.9629C109.419 99.6268 110.386 98.7748 110.868 97.6449C111.35 96.515 111.295 95.2276 110.72 94.1427C109.558 91.9533 105.504 84.6305 102.099 82.3315C100.236 81.0745 97.7067 81.5647 96.4494 83.4273C95.192 85.2899 95.6821 87.8188 97.5447 89.0761C98.1758 89.512 99.4105 91.1392 100.752 93.2205C99.3853 93.3987 98.2206 93.4492 97.6302 93.2922L97.6064 93.2858C95.2369 92.6509 92.7413 91.2916 92.1443 86.0836C91.6418 81.6996 92.6639 76.1686 93.4851 71.7242C93.9972 68.9548 94.4393 66.5628 94.5235 64.5903C94.6074 62.6338 93.2888 60.8903 91.3778 60.4527C89.4702 60.0101 87.518 60.9892 86.7319 62.7829C79.7395 78.7331 72.3906 86.8735 64.2642 87.6693C62.0277 87.8884 60.3923 89.8788 60.6114 92.1154C60.7813 93.851 62.0178 95.2243 63.608 95.6504C64.0673 95.7734 64.5562 95.8177 65.0574 95.7686C71.8344 95.1049 78.0799 91.2889 83.6209 84.4266C83.7064 84.3203 83.7916 84.214 83.8768 84.1065C83.8924 85.086 83.9499 86.0568 84.0592 87.0104C85.1405 96.4452 90.8728 99.9066 95.5056 101.148L95.5381 101.157C99.6151 102.241 106.289 100.517 108.238 99.9629Z" fill="#01CAB0"/>
</svg>
