<svg width="112" height="112" viewBox="0 0 112 112" fill="none" xmlns="http://www.w3.org/2000/svg">
<rect width="112" height="112" rx="18" fill="white"/>
<rect width="112" height="112" rx="18" fill="url(#paint0_linear_811_952)"/>
<rect x="8" y="8" width="96" height="96" rx="12" fill="white"/>
<path d="M98 14H14V98H98V14Z" fill="white"/>
<path d="M21.7585 19.2219H19.222V21.7583H21.7585V19.2219Z" fill="#040415"/>
<path d="M24.2948 19.2219H21.7584V21.7583H24.2948V19.2219Z" fill="#040415"/>
<path d="M26.8312 19.2219H24.2948V21.7583H26.8312V19.2219Z" fill="#040415"/>
<path d="M29.3677 19.2219H26.8313V21.7583H29.3677V19.2219Z" fill="#040415"/>
<path d="M31.9041 19.2219H29.3677V21.7583H31.9041V19.2219Z" fill="#040415"/>
<path d="M34.4405 19.2219H31.9041V21.7583H34.4405V19.2219Z" fill="#040415"/>
<path d="M36.977 19.2219H34.4406V21.7583H36.977V19.2219Z" fill="#040415"/>
<path d="M39.5133 19.2219H36.9769V21.7583H39.5133V19.2219Z" fill="white"/>
<path d="M42.0497 19.2219H39.5133V21.7583H42.0497V19.2219Z" fill="white"/>
<path d="M44.5861 19.2219H42.0497V21.7583H44.5861V19.2219Z" fill="#040415"/>
<path d="M47.1226 19.2219H44.5862V21.7583H47.1226V19.2219Z" fill="white"/>
<path d="M49.659 19.2219H47.1226V21.7583H49.659V19.2219Z" fill="white"/>
<path d="M52.1953 19.2219H49.6589V21.7583H52.1953V19.2219Z" fill="#040415"/>
<path d="M54.7318 19.2219H52.1954V21.7583H54.7318V19.2219Z" fill="white"/>
<path d="M57.2682 19.2219H54.7318V21.7583H57.2682V19.2219Z" fill="white"/>
<path d="M59.8046 19.2219H57.2682V21.7583H59.8046V19.2219Z" fill="#040415"/>
<path d="M62.341 19.2219H59.8046V21.7583H62.341V19.2219Z" fill="#040415"/>
<path d="M64.8775 19.2219H62.3411V21.7583H64.8775V19.2219Z" fill="white"/>
<path d="M67.4139 19.2219H64.8774V21.7583H67.4139V19.2219Z" fill="#040415"/>
<path d="M69.9502 19.2219H67.4138V21.7583H69.9502V19.2219Z" fill="#040415"/>
<path d="M72.4866 19.2219H69.9502V21.7583H72.4866V19.2219Z" fill="white"/>
<path d="M75.0231 19.2219H72.4867V21.7583H75.0231V19.2219Z" fill="white"/>
<path d="M77.5595 19.2219H75.0231V21.7583H77.5595V19.2219Z" fill="#040415"/>
<path d="M80.0959 19.2219H77.5594V21.7583H80.0959V19.2219Z" fill="#040415"/>
<path d="M82.6324 19.2219H80.0959V21.7583H82.6324V19.2219Z" fill="#040415"/>
<path d="M85.1687 19.2219H82.6323V21.7583H85.1687V19.2219Z" fill="#040415"/>
<path d="M87.7051 19.2219H85.1687V21.7583H87.7051V19.2219Z" fill="#040415"/>
<path d="M90.2416 19.2219H87.7052V21.7583H90.2416V19.2219Z" fill="#040415"/>
<path d="M92.778 19.2219H90.2416V21.7583H92.778V19.2219Z" fill="#040415"/>
<path d="M21.7585 21.7585H19.222V24.295H21.7585V21.7585Z" fill="#040415"/>
<path d="M24.2948 21.7585H21.7584V24.295H24.2948V21.7585Z" fill="white"/>
<path d="M26.8312 21.7585H24.2948V24.295H26.8312V21.7585Z" fill="white"/>
<path d="M29.3677 21.7585H26.8313V24.295H29.3677V21.7585Z" fill="white"/>
<path d="M31.9041 21.7585H29.3677V24.295H31.9041V21.7585Z" fill="white"/>
<path d="M34.4405 21.7585H31.9041V24.295H34.4405V21.7585Z" fill="white"/>
<path d="M36.977 21.7585H34.4406V24.295H36.977V21.7585Z" fill="#040415"/>
<path d="M39.5133 21.7585H36.9769V24.295H39.5133V21.7585Z" fill="white"/>
<path d="M42.0497 21.7585H39.5133V24.295H42.0497V21.7585Z" fill="#040415"/>
<path d="M44.5861 21.7585H42.0497V24.295H44.5861V21.7585Z" fill="white"/>
<path d="M47.1226 21.7585H44.5862V24.295H47.1226V21.7585Z" fill="white"/>
<path d="M49.659 21.7585H47.1226V24.295H49.659V21.7585Z" fill="#040415"/>
<path d="M52.1953 21.7585H49.6589V24.295H52.1953V21.7585Z" fill="#040415"/>
<path d="M54.7318 21.7585H52.1954V24.295H54.7318V21.7585Z" fill="#040415"/>
<path d="M57.2682 21.7585H54.7318V24.295H57.2682V21.7585Z" fill="#040415"/>
<path d="M59.8046 21.7585H57.2682V24.295H59.8046V21.7585Z" fill="#040415"/>
<path d="M62.341 21.7585H59.8046V24.295H62.341V21.7585Z" fill="#040415"/>
<path d="M64.8775 21.7585H62.3411V24.295H64.8775V21.7585Z" fill="#040415"/>
<path d="M67.4139 21.7585H64.8774V24.295H67.4139V21.7585Z" fill="#040415"/>
<path d="M69.9502 21.7585H67.4138V24.295H69.9502V21.7585Z" fill="white"/>
<path d="M72.4866 21.7585H69.9502V24.295H72.4866V21.7585Z" fill="#040415"/>
<path d="M75.0231 21.7585H72.4867V24.295H75.0231V21.7585Z" fill="white"/>
<path d="M77.5595 21.7585H75.0231V24.295H77.5595V21.7585Z" fill="#040415"/>
<path d="M80.0959 21.7585H77.5594V24.295H80.0959V21.7585Z" fill="white"/>
<path d="M82.6324 21.7585H80.0959V24.295H82.6324V21.7585Z" fill="white"/>
<path d="M85.1687 21.7585H82.6323V24.295H85.1687V21.7585Z" fill="white"/>
<path d="M87.7051 21.7585H85.1687V24.295H87.7051V21.7585Z" fill="white"/>
<path d="M90.2416 21.7585H87.7052V24.295H90.2416V21.7585Z" fill="white"/>
<path d="M92.778 21.7585H90.2416V24.295H92.778V21.7585Z" fill="#040415"/>
<path d="M21.7585 24.2949H19.222V26.8313H21.7585V24.2949Z" fill="#040415"/>
<path d="M24.2948 24.2949H21.7584V26.8313H24.2948V24.2949Z" fill="white"/>
<path d="M26.8312 24.2949H24.2948V26.8313H26.8312V24.2949Z" fill="#040415"/>
<path d="M29.3677 24.2949H26.8313V26.8313H29.3677V24.2949Z" fill="#040415"/>
<path d="M31.9041 24.2949H29.3677V26.8313H31.9041V24.2949Z" fill="#040415"/>
<path d="M34.4405 24.2949H31.9041V26.8313H34.4405V24.2949Z" fill="white"/>
<path d="M36.977 24.2949H34.4406V26.8313H36.977V24.2949Z" fill="#040415"/>
<path d="M39.5133 24.2949H36.9769V26.8313H39.5133V24.2949Z" fill="white"/>
<path d="M42.0497 24.2949H39.5133V26.8313H42.0497V24.2949Z" fill="#040415"/>
<path d="M44.5861 24.2949H42.0497V26.8313H44.5861V24.2949Z" fill="#040415"/>
<path d="M47.1226 24.2949H44.5862V26.8313H47.1226V24.2949Z" fill="#040415"/>
<path d="M49.659 24.2949H47.1226V26.8313H49.659V24.2949Z" fill="#040415"/>
<path d="M52.1953 24.2949H49.6589V26.8313H52.1953V24.2949Z" fill="#040415"/>
<path d="M54.7318 24.2949H52.1954V26.8313H54.7318V24.2949Z" fill="white"/>
<path d="M57.2682 24.2949H54.7318V26.8313H57.2682V24.2949Z" fill="#040415"/>
<path d="M59.8046 24.2949H57.2682V26.8313H59.8046V24.2949Z" fill="white"/>
<path d="M62.341 24.2949H59.8046V26.8313H62.341V24.2949Z" fill="#040415"/>
<path d="M64.8775 24.2949H62.3411V26.8313H64.8775V24.2949Z" fill="#040415"/>
<path d="M67.4139 24.2949H64.8774V26.8313H67.4139V24.2949Z" fill="white"/>
<path d="M69.9502 24.2949H67.4138V26.8313H69.9502V24.2949Z" fill="white"/>
<path d="M72.4866 24.2949H69.9502V26.8313H72.4866V24.2949Z" fill="#040415"/>
<path d="M75.0231 24.2949H72.4867V26.8313H75.0231V24.2949Z" fill="white"/>
<path d="M77.5595 24.2949H75.0231V26.8313H77.5595V24.2949Z" fill="#040415"/>
<path d="M80.0959 24.2949H77.5594V26.8313H80.0959V24.2949Z" fill="white"/>
<path d="M82.6324 24.2949H80.0959V26.8313H82.6324V24.2949Z" fill="#040415"/>
<path d="M85.1687 24.2949H82.6323V26.8313H85.1687V24.2949Z" fill="#040415"/>
<path d="M87.7051 24.2949H85.1687V26.8313H87.7051V24.2949Z" fill="#040415"/>
<path d="M90.2416 24.2949H87.7052V26.8313H90.2416V24.2949Z" fill="white"/>
<path d="M92.778 24.2949H90.2416V26.8313H92.778V24.2949Z" fill="#040415"/>
<path d="M21.7585 26.8313H19.222V29.3677H21.7585V26.8313Z" fill="#040415"/>
<path d="M24.2948 26.8313H21.7584V29.3677H24.2948V26.8313Z" fill="white"/>
<path d="M26.8312 26.8313H24.2948V29.3677H26.8312V26.8313Z" fill="#040415"/>
<path d="M29.3677 26.8313H26.8313V29.3677H29.3677V26.8313Z" fill="#040415"/>
<path d="M31.9041 26.8313H29.3677V29.3677H31.9041V26.8313Z" fill="#040415"/>
<path d="M34.4405 26.8313H31.9041V29.3677H34.4405V26.8313Z" fill="white"/>
<path d="M36.977 26.8313H34.4406V29.3677H36.977V26.8313Z" fill="#040415"/>
<path d="M39.5133 26.8313H36.9769V29.3677H39.5133V26.8313Z" fill="white"/>
<path d="M42.0497 26.8313H39.5133V29.3677H42.0497V26.8313Z" fill="white"/>
<path d="M44.5861 26.8313H42.0497V29.3677H44.5861V26.8313Z" fill="#040415"/>
<path d="M47.1226 26.8313H44.5862V29.3677H47.1226V26.8313Z" fill="#040415"/>
<path d="M49.659 26.8313H47.1226V29.3677H49.659V26.8313Z" fill="#040415"/>
<path d="M52.1953 26.8313H49.6589V29.3677H52.1953V26.8313Z" fill="white"/>
<path d="M54.7318 26.8313H52.1954V29.3677H54.7318V26.8313Z" fill="white"/>
<path d="M57.2682 26.8313H54.7318V29.3677H57.2682V26.8313Z" fill="white"/>
<path d="M59.8046 26.8313H57.2682V29.3677H59.8046V26.8313Z" fill="white"/>
<path d="M62.341 26.8313H59.8046V29.3677H62.341V26.8313Z" fill="#040415"/>
<path d="M64.8775 26.8313H62.3411V29.3677H64.8775V26.8313Z" fill="white"/>
<path d="M67.4139 26.8313H64.8774V29.3677H67.4139V26.8313Z" fill="white"/>
<path d="M69.9502 26.8313H67.4138V29.3677H69.9502V26.8313Z" fill="white"/>
<path d="M72.4866 26.8313H69.9502V29.3677H72.4866V26.8313Z" fill="white"/>
<path d="M75.0231 26.8313H72.4867V29.3677H75.0231V26.8313Z" fill="white"/>
<path d="M77.5595 26.8313H75.0231V29.3677H77.5595V26.8313Z" fill="#040415"/>
<path d="M80.0959 26.8313H77.5594V29.3677H80.0959V26.8313Z" fill="white"/>
<path d="M82.6324 26.8313H80.0959V29.3677H82.6324V26.8313Z" fill="#040415"/>
<path d="M85.1687 26.8313H82.6323V29.3677H85.1687V26.8313Z" fill="#040415"/>
<path d="M87.7051 26.8313H85.1687V29.3677H87.7051V26.8313Z" fill="#040415"/>
<path d="M90.2416 26.8313H87.7052V29.3677H90.2416V26.8313Z" fill="white"/>
<path d="M92.778 26.8313H90.2416V29.3677H92.778V26.8313Z" fill="#040415"/>
<path d="M21.7585 29.3677H19.222V31.9041H21.7585V29.3677Z" fill="#040415"/>
<path d="M24.2948 29.3677H21.7584V31.9041H24.2948V29.3677Z" fill="white"/>
<path d="M26.8312 29.3677H24.2948V31.9041H26.8312V29.3677Z" fill="#040415"/>
<path d="M29.3677 29.3677H26.8313V31.9041H29.3677V29.3677Z" fill="#040415"/>
<path d="M31.9041 29.3677H29.3677V31.9041H31.9041V29.3677Z" fill="#040415"/>
<path d="M34.4405 29.3677H31.9041V31.9041H34.4405V29.3677Z" fill="white"/>
<path d="M36.977 29.3677H34.4406V31.9041H36.977V29.3677Z" fill="#040415"/>
<path d="M39.5133 29.3677H36.9769V31.9041H39.5133V29.3677Z" fill="white"/>
<path d="M42.0497 29.3677H39.5133V31.9041H42.0497V29.3677Z" fill="#040415"/>
<path d="M44.5861 29.3677H42.0497V31.9041H44.5861V29.3677Z" fill="white"/>
<path d="M47.1226 29.3677H44.5862V31.9041H47.1226V29.3677Z" fill="white"/>
<path d="M49.659 29.3677H47.1226V31.9041H49.659V29.3677Z" fill="white"/>
<path d="M52.1953 29.3677H49.6589V31.9041H52.1953V29.3677Z" fill="white"/>
<path d="M54.7318 29.3677H52.1954V31.9041H54.7318V29.3677Z" fill="white"/>
<path d="M57.2682 29.3677H54.7318V31.9041H57.2682V29.3677Z" fill="white"/>
<path d="M59.8046 29.3677H57.2682V31.9041H59.8046V29.3677Z" fill="#040415"/>
<path d="M62.341 29.3677H59.8046V31.9041H62.341V29.3677Z" fill="white"/>
<path d="M64.8775 29.3677H62.3411V31.9041H64.8775V29.3677Z" fill="#040415"/>
<path d="M67.4139 29.3677H64.8774V31.9041H67.4139V29.3677Z" fill="#040415"/>
<path d="M69.9502 29.3677H67.4138V31.9041H69.9502V29.3677Z" fill="white"/>
<path d="M72.4866 29.3677H69.9502V31.9041H72.4866V29.3677Z" fill="white"/>
<path d="M75.0231 29.3677H72.4867V31.9041H75.0231V29.3677Z" fill="white"/>
<path d="M77.5595 29.3677H75.0231V31.9041H77.5595V29.3677Z" fill="#040415"/>
<path d="M80.0959 29.3677H77.5594V31.9041H80.0959V29.3677Z" fill="white"/>
<path d="M82.6324 29.3677H80.0959V31.9041H82.6324V29.3677Z" fill="#040415"/>
<path d="M85.1687 29.3677H82.6323V31.9041H85.1687V29.3677Z" fill="#040415"/>
<path d="M87.7051 29.3677H85.1687V31.9041H87.7051V29.3677Z" fill="#040415"/>
<path d="M90.2416 29.3677H87.7052V31.9041H90.2416V29.3677Z" fill="white"/>
<path d="M92.778 29.3677H90.2416V31.9041H92.778V29.3677Z" fill="#040415"/>
<path d="M21.7585 31.9041H19.222V34.4405H21.7585V31.9041Z" fill="#040415"/>
<path d="M24.2948 31.9041H21.7584V34.4405H24.2948V31.9041Z" fill="white"/>
<path d="M26.8312 31.9041H24.2948V34.4405H26.8312V31.9041Z" fill="white"/>
<path d="M29.3677 31.9041H26.8313V34.4405H29.3677V31.9041Z" fill="white"/>
<path d="M31.9041 31.9041H29.3677V34.4405H31.9041V31.9041Z" fill="white"/>
<path d="M34.4405 31.9041H31.9041V34.4405H34.4405V31.9041Z" fill="white"/>
<path d="M36.977 31.9041H34.4406V34.4405H36.977V31.9041Z" fill="#040415"/>
<path d="M39.5133 31.9041H36.9769V34.4405H39.5133V31.9041Z" fill="white"/>
<path d="M42.0497 31.9041H39.5133V34.4405H42.0497V31.9041Z" fill="#040415"/>
<path d="M44.5861 31.9041H42.0497V34.4405H44.5861V31.9041Z" fill="#040415"/>
<path d="M47.1226 31.9041H44.5862V34.4405H47.1226V31.9041Z" fill="white"/>
<path d="M49.659 31.9041H47.1226V34.4405H49.659V31.9041Z" fill="#040415"/>
<path d="M52.1953 31.9041H49.6589V34.4405H52.1953V31.9041Z" fill="white"/>
<path d="M54.7318 31.9041H52.1954V34.4405H54.7318V31.9041Z" fill="white"/>
<path d="M57.2682 31.9041H54.7318V34.4405H57.2682V31.9041Z" fill="white"/>
<path d="M59.8046 31.9041H57.2682V34.4405H59.8046V31.9041Z" fill="#040415"/>
<path d="M62.341 31.9041H59.8046V34.4405H62.341V31.9041Z" fill="white"/>
<path d="M64.8775 31.9041H62.3411V34.4405H64.8775V31.9041Z" fill="#040415"/>
<path d="M67.4139 31.9041H64.8774V34.4405H67.4139V31.9041Z" fill="#040415"/>
<path d="M69.9502 31.9041H67.4138V34.4405H69.9502V31.9041Z" fill="#040415"/>
<path d="M72.4866 31.9041H69.9502V34.4405H72.4866V31.9041Z" fill="#040415"/>
<path d="M75.0231 31.9041H72.4867V34.4405H75.0231V31.9041Z" fill="white"/>
<path d="M77.5595 31.9041H75.0231V34.4405H77.5595V31.9041Z" fill="#040415"/>
<path d="M80.0959 31.9041H77.5594V34.4405H80.0959V31.9041Z" fill="white"/>
<path d="M82.6324 31.9041H80.0959V34.4405H82.6324V31.9041Z" fill="white"/>
<path d="M85.1687 31.9041H82.6323V34.4405H85.1687V31.9041Z" fill="white"/>
<path d="M87.7051 31.9041H85.1687V34.4405H87.7051V31.9041Z" fill="white"/>
<path d="M90.2416 31.9041H87.7052V34.4405H90.2416V31.9041Z" fill="white"/>
<path d="M92.778 31.9041H90.2416V34.4405H92.778V31.9041Z" fill="#040415"/>
<path d="M21.7585 34.4404H19.222V36.9768H21.7585V34.4404Z" fill="#040415"/>
<path d="M24.2948 34.4404H21.7584V36.9768H24.2948V34.4404Z" fill="#040415"/>
<path d="M26.8312 34.4404H24.2948V36.9768H26.8312V34.4404Z" fill="#040415"/>
<path d="M29.3677 34.4404H26.8313V36.9768H29.3677V34.4404Z" fill="#040415"/>
<path d="M31.9041 34.4404H29.3677V36.9768H31.9041V34.4404Z" fill="#040415"/>
<path d="M34.4405 34.4404H31.9041V36.9768H34.4405V34.4404Z" fill="#040415"/>
<path d="M36.977 34.4404H34.4406V36.9768H36.977V34.4404Z" fill="#040415"/>
<path d="M39.5133 34.4404H36.9769V36.9768H39.5133V34.4404Z" fill="white"/>
<path d="M42.0497 34.4404H39.5133V36.9768H42.0497V34.4404Z" fill="#040415"/>
<path d="M44.5861 34.4404H42.0497V36.9768H44.5861V34.4404Z" fill="white"/>
<path d="M47.1226 34.4404H44.5862V36.9768H47.1226V34.4404Z" fill="#040415"/>
<path d="M49.659 34.4404H47.1226V36.9768H49.659V34.4404Z" fill="white"/>
<path d="M52.1953 34.4404H49.6589V36.9768H52.1953V34.4404Z" fill="#040415"/>
<path d="M54.7318 34.4404H52.1954V36.9768H54.7318V34.4404Z" fill="white"/>
<path d="M57.2682 34.4404H54.7318V36.9768H57.2682V34.4404Z" fill="#040415"/>
<path d="M59.8046 34.4404H57.2682V36.9768H59.8046V34.4404Z" fill="white"/>
<path d="M62.341 34.4404H59.8046V36.9768H62.341V34.4404Z" fill="#040415"/>
<path d="M64.8775 34.4404H62.3411V36.9768H64.8775V34.4404Z" fill="white"/>
<path d="M67.4139 34.4404H64.8774V36.9768H67.4139V34.4404Z" fill="#040415"/>
<path d="M69.9502 34.4404H67.4138V36.9768H69.9502V34.4404Z" fill="white"/>
<path d="M72.4866 34.4404H69.9502V36.9768H72.4866V34.4404Z" fill="#040415"/>
<path d="M75.0231 34.4404H72.4867V36.9768H75.0231V34.4404Z" fill="white"/>
<path d="M77.5595 34.4404H75.0231V36.9768H77.5595V34.4404Z" fill="#040415"/>
<path d="M80.0959 34.4404H77.5594V36.9768H80.0959V34.4404Z" fill="#040415"/>
<path d="M82.6324 34.4404H80.0959V36.9768H82.6324V34.4404Z" fill="#040415"/>
<path d="M85.1687 34.4404H82.6323V36.9768H85.1687V34.4404Z" fill="#040415"/>
<path d="M87.7051 34.4404H85.1687V36.9768H87.7051V34.4404Z" fill="#040415"/>
<path d="M90.2416 34.4404H87.7052V36.9768H90.2416V34.4404Z" fill="#040415"/>
<path d="M92.778 34.4404H90.2416V36.9768H92.778V34.4404Z" fill="#040415"/>
<path d="M21.7585 36.9768H19.222V39.5132H21.7585V36.9768Z" fill="white"/>
<path d="M24.2948 36.9768H21.7584V39.5132H24.2948V36.9768Z" fill="white"/>
<path d="M26.8312 36.9768H24.2948V39.5132H26.8312V36.9768Z" fill="white"/>
<path d="M29.3677 36.9768H26.8313V39.5132H29.3677V36.9768Z" fill="white"/>
<path d="M31.9041 36.9768H29.3677V39.5132H31.9041V36.9768Z" fill="white"/>
<path d="M34.4405 36.9768H31.9041V39.5132H34.4405V36.9768Z" fill="white"/>
<path d="M36.977 36.9768H34.4406V39.5132H36.977V36.9768Z" fill="white"/>
<path d="M39.5133 36.9768H36.9769V39.5132H39.5133V36.9768Z" fill="white"/>
<path d="M42.0497 36.9768H39.5133V39.5132H42.0497V36.9768Z" fill="#040415"/>
<path d="M44.5861 36.9768H42.0497V39.5132H44.5861V36.9768Z" fill="#040415"/>
<path d="M47.1226 36.9768H44.5862V39.5132H47.1226V36.9768Z" fill="white"/>
<path d="M49.659 36.9768H47.1226V39.5132H49.659V36.9768Z" fill="white"/>
<path d="M52.1953 36.9768H49.6589V39.5132H52.1953V36.9768Z" fill="#040415"/>
<path d="M54.7318 36.9768H52.1954V39.5132H54.7318V36.9768Z" fill="white"/>
<path d="M57.2682 36.9768H54.7318V39.5132H57.2682V36.9768Z" fill="#040415"/>
<path d="M59.8046 36.9768H57.2682V39.5132H59.8046V36.9768Z" fill="white"/>
<path d="M62.341 36.9768H59.8046V39.5132H62.341V36.9768Z" fill="#040415"/>
<path d="M64.8775 36.9768H62.3411V39.5132H64.8775V36.9768Z" fill="#040415"/>
<path d="M67.4139 36.9768H64.8774V39.5132H67.4139V36.9768Z" fill="#040415"/>
<path d="M69.9502 36.9768H67.4138V39.5132H69.9502V36.9768Z" fill="#040415"/>
<path d="M72.4866 36.9768H69.9502V39.5132H72.4866V36.9768Z" fill="#040415"/>
<path d="M75.0231 36.9768H72.4867V39.5132H75.0231V36.9768Z" fill="white"/>
<path d="M77.5595 36.9768H75.0231V39.5132H77.5595V36.9768Z" fill="white"/>
<path d="M80.0959 36.9768H77.5594V39.5132H80.0959V36.9768Z" fill="white"/>
<path d="M82.6324 36.9768H80.0959V39.5132H82.6324V36.9768Z" fill="white"/>
<path d="M85.1687 36.9768H82.6323V39.5132H85.1687V36.9768Z" fill="white"/>
<path d="M87.7051 36.9768H85.1687V39.5132H87.7051V36.9768Z" fill="white"/>
<path d="M90.2416 36.9768H87.7052V39.5132H90.2416V36.9768Z" fill="white"/>
<path d="M92.778 36.9768H90.2416V39.5132H92.778V36.9768Z" fill="white"/>
<path d="M21.7585 39.5134H19.222V42.0498H21.7585V39.5134Z" fill="#040415"/>
<path d="M24.2948 39.5134H21.7584V42.0498H24.2948V39.5134Z" fill="#040415"/>
<path d="M26.8312 39.5134H24.2948V42.0498H26.8312V39.5134Z" fill="white"/>
<path d="M29.3677 39.5134H26.8313V42.0498H29.3677V39.5134Z" fill="#040415"/>
<path d="M31.9041 39.5134H29.3677V42.0498H31.9041V39.5134Z" fill="white"/>
<path d="M34.4405 39.5134H31.9041V42.0498H34.4405V39.5134Z" fill="white"/>
<path d="M36.977 39.5134H34.4406V42.0498H36.977V39.5134Z" fill="#040415"/>
<path d="M39.5133 39.5134H36.9769V42.0498H39.5133V39.5134Z" fill="#040415"/>
<path d="M42.0497 39.5134H39.5133V42.0498H42.0497V39.5134Z" fill="white"/>
<path d="M44.5861 39.5134H42.0497V42.0498H44.5861V39.5134Z" fill="white"/>
<path d="M47.1226 39.5134H44.5862V42.0498H47.1226V39.5134Z" fill="#040415"/>
<path d="M49.659 39.5134H47.1226V42.0498H49.659V39.5134Z" fill="white"/>
<path d="M52.1953 39.5134H49.6589V42.0498H52.1953V39.5134Z" fill="#040415"/>
<path d="M54.7318 39.5134H52.1954V42.0498H54.7318V39.5134Z" fill="#040415"/>
<path d="M57.2682 39.5134H54.7318V42.0498H57.2682V39.5134Z" fill="#040415"/>
<path d="M59.8046 39.5134H57.2682V42.0498H59.8046V39.5134Z" fill="white"/>
<path d="M62.341 39.5134H59.8046V42.0498H62.341V39.5134Z" fill="white"/>
<path d="M64.8775 39.5134H62.3411V42.0498H64.8775V39.5134Z" fill="#040415"/>
<path d="M67.4139 39.5134H64.8774V42.0498H67.4139V39.5134Z" fill="white"/>
<path d="M69.9502 39.5134H67.4138V42.0498H69.9502V39.5134Z" fill="#040415"/>
<path d="M72.4866 39.5134H69.9502V42.0498H72.4866V39.5134Z" fill="white"/>
<path d="M75.0231 39.5134H72.4867V42.0498H75.0231V39.5134Z" fill="white"/>
<path d="M77.5595 39.5134H75.0231V42.0498H77.5595V39.5134Z" fill="#040415"/>
<path d="M80.0959 39.5134H77.5594V42.0498H80.0959V39.5134Z" fill="#040415"/>
<path d="M82.6324 39.5134H80.0959V42.0498H82.6324V39.5134Z" fill="#040415"/>
<path d="M85.1687 39.5134H82.6323V42.0498H85.1687V39.5134Z" fill="white"/>
<path d="M87.7051 39.5134H85.1687V42.0498H87.7051V39.5134Z" fill="#040415"/>
<path d="M90.2416 39.5134H87.7052V42.0498H90.2416V39.5134Z" fill="#040415"/>
<path d="M92.778 39.5134H90.2416V42.0498H92.778V39.5134Z" fill="white"/>
<path d="M21.7585 42.0498H19.222V44.5862H21.7585V42.0498Z" fill="#040415"/>
<path d="M24.2948 42.0498H21.7584V44.5862H24.2948V42.0498Z" fill="#040415"/>
<path d="M26.8312 42.0498H24.2948V44.5862H26.8312V42.0498Z" fill="#040415"/>
<path d="M29.3677 42.0498H26.8313V44.5862H29.3677V42.0498Z" fill="white"/>
<path d="M31.9041 42.0498H29.3677V44.5862H31.9041V42.0498Z" fill="#040415"/>
<path d="M34.4405 42.0498H31.9041V44.5862H34.4405V42.0498Z" fill="#040415"/>
<path d="M36.977 42.0498H34.4406V44.5862H36.977V42.0498Z" fill="white"/>
<path d="M39.5133 42.0498H36.9769V44.5862H39.5133V42.0498Z" fill="#040415"/>
<path d="M42.0497 42.0498H39.5133V44.5862H42.0497V42.0498Z" fill="#040415"/>
<path d="M44.5861 42.0498H42.0497V44.5862H44.5861V42.0498Z" fill="white"/>
<path d="M47.1226 42.0498H44.5862V44.5862H47.1226V42.0498Z" fill="#040415"/>
<path d="M49.659 42.0498H47.1226V44.5862H49.659V42.0498Z" fill="#040415"/>
<path d="M52.1953 42.0498H49.6589V44.5862H52.1953V42.0498Z" fill="white"/>
<path d="M54.7318 42.0498H52.1954V44.5862H54.7318V42.0498Z" fill="#040415"/>
<path d="M57.2682 42.0498H54.7318V44.5862H57.2682V42.0498Z" fill="white"/>
<path d="M59.8046 42.0498H57.2682V44.5862H59.8046V42.0498Z" fill="white"/>
<path d="M62.341 42.0498H59.8046V44.5862H62.341V42.0498Z" fill="white"/>
<path d="M64.8775 42.0498H62.3411V44.5862H64.8775V42.0498Z" fill="#040415"/>
<path d="M67.4139 42.0498H64.8774V44.5862H67.4139V42.0498Z" fill="#040415"/>
<path d="M69.9502 42.0498H67.4138V44.5862H69.9502V42.0498Z" fill="white"/>
<path d="M72.4866 42.0498H69.9502V44.5862H72.4866V42.0498Z" fill="white"/>
<path d="M75.0231 42.0498H72.4867V44.5862H75.0231V42.0498Z" fill="#040415"/>
<path d="M77.5595 42.0498H75.0231V44.5862H77.5595V42.0498Z" fill="#040415"/>
<path d="M80.0959 42.0498H77.5594V44.5862H80.0959V42.0498Z" fill="#040415"/>
<path d="M82.6324 42.0498H80.0959V44.5862H82.6324V42.0498Z" fill="white"/>
<path d="M85.1687 42.0498H82.6323V44.5862H85.1687V42.0498Z" fill="#040415"/>
<path d="M87.7051 42.0498H85.1687V44.5862H87.7051V42.0498Z" fill="white"/>
<path d="M90.2416 42.0498H87.7052V44.5862H90.2416V42.0498Z" fill="white"/>
<path d="M92.778 42.0498H90.2416V44.5862H92.778V42.0498Z" fill="#040415"/>
<path d="M21.7585 44.5862H19.222V47.1226H21.7585V44.5862Z" fill="#040415"/>
<path d="M24.2948 44.5862H21.7584V47.1226H24.2948V44.5862Z" fill="#040415"/>
<path d="M26.8312 44.5862H24.2948V47.1226H26.8312V44.5862Z" fill="#040415"/>
<path d="M29.3677 44.5862H26.8313V47.1226H29.3677V44.5862Z" fill="white"/>
<path d="M31.9041 44.5862H29.3677V47.1226H31.9041V44.5862Z" fill="#040415"/>
<path d="M34.4405 44.5862H31.9041V47.1226H34.4405V44.5862Z" fill="#040415"/>
<path d="M36.977 44.5862H34.4406V47.1226H36.977V44.5862Z" fill="#040415"/>
<path d="M39.5133 44.5862H36.9769V47.1226H39.5133V44.5862Z" fill="white"/>
<path d="M42.0497 44.5862H39.5133V47.1226H42.0497V44.5862Z" fill="white"/>
<path d="M44.5861 44.5862H42.0497V47.1226H44.5861V44.5862Z" fill="#040415"/>
<path d="M47.1226 44.5862H44.5862V47.1226H47.1226V44.5862Z" fill="#040415"/>
<path d="M49.659 44.5862H47.1226V47.1226H49.659V44.5862Z" fill="white"/>
<path d="M52.1953 44.5862H49.6589V47.1226H52.1953V44.5862Z" fill="white"/>
<path d="M54.7318 44.5862H52.1954V47.1226H54.7318V44.5862Z" fill="#040415"/>
<path d="M57.2682 44.5862H54.7318V47.1226H57.2682V44.5862Z" fill="#040415"/>
<path d="M59.8046 44.5862H57.2682V47.1226H59.8046V44.5862Z" fill="white"/>
<path d="M62.341 44.5862H59.8046V47.1226H62.341V44.5862Z" fill="#040415"/>
<path d="M64.8775 44.5862H62.3411V47.1226H64.8775V44.5862Z" fill="white"/>
<path d="M67.4139 44.5862H64.8774V47.1226H67.4139V44.5862Z" fill="white"/>
<path d="M69.9502 44.5862H67.4138V47.1226H69.9502V44.5862Z" fill="#040415"/>
<path d="M72.4866 44.5862H69.9502V47.1226H72.4866V44.5862Z" fill="white"/>
<path d="M75.0231 44.5862H72.4867V47.1226H75.0231V44.5862Z" fill="#040415"/>
<path d="M77.5595 44.5862H75.0231V47.1226H77.5595V44.5862Z" fill="#040415"/>
<path d="M80.0959 44.5862H77.5594V47.1226H80.0959V44.5862Z" fill="white"/>
<path d="M82.6324 44.5862H80.0959V47.1226H82.6324V44.5862Z" fill="white"/>
<path d="M85.1687 44.5862H82.6323V47.1226H85.1687V44.5862Z" fill="#040415"/>
<path d="M87.7051 44.5862H85.1687V47.1226H87.7051V44.5862Z" fill="#040415"/>
<path d="M90.2416 44.5862H87.7052V47.1226H90.2416V44.5862Z" fill="#040415"/>
<path d="M92.778 44.5862H90.2416V47.1226H92.778V44.5862Z" fill="white"/>
<path d="M21.7585 47.1226H19.222V49.659H21.7585V47.1226Z" fill="white"/>
<path d="M24.2948 47.1226H21.7584V49.659H24.2948V47.1226Z" fill="#040415"/>
<path d="M26.8312 47.1226H24.2948V49.659H26.8312V47.1226Z" fill="#040415"/>
<path d="M29.3677 47.1226H26.8313V49.659H29.3677V47.1226Z" fill="white"/>
<path d="M31.9041 47.1226H29.3677V49.659H31.9041V47.1226Z" fill="white"/>
<path d="M34.4405 47.1226H31.9041V49.659H34.4405V47.1226Z" fill="#040415"/>
<path d="M36.977 47.1226H34.4406V49.659H36.977V47.1226Z" fill="white"/>
<path d="M39.5133 47.1226H36.9769V49.659H39.5133V47.1226Z" fill="white"/>
<path d="M42.0497 47.1226H39.5133V49.659H42.0497V47.1226Z" fill="white"/>
<path d="M44.5861 47.1226H42.0497V49.659H44.5861V47.1226Z" fill="white"/>
<path d="M47.1226 47.1226H44.5862V49.659H47.1226V47.1226Z" fill="white"/>
<path d="M49.659 47.1226H47.1226V49.659H49.659V47.1226Z" fill="white"/>
<path d="M52.1953 47.1226H49.6589V49.659H52.1953V47.1226Z" fill="#040415"/>
<path d="M54.7318 47.1226H52.1954V49.659H54.7318V47.1226Z" fill="#040415"/>
<path d="M57.2682 47.1226H54.7318V49.659H57.2682V47.1226Z" fill="white"/>
<path d="M59.8046 47.1226H57.2682V49.659H59.8046V47.1226Z" fill="white"/>
<path d="M62.341 47.1226H59.8046V49.659H62.341V47.1226Z" fill="white"/>
<path d="M64.8775 47.1226H62.3411V49.659H64.8775V47.1226Z" fill="white"/>
<path d="M67.4139 47.1226H64.8774V49.659H67.4139V47.1226Z" fill="white"/>
<path d="M69.9502 47.1226H67.4138V49.659H69.9502V47.1226Z" fill="white"/>
<path d="M72.4866 47.1226H69.9502V49.659H72.4866V47.1226Z" fill="#040415"/>
<path d="M75.0231 47.1226H72.4867V49.659H75.0231V47.1226Z" fill="#040415"/>
<path d="M77.5595 47.1226H75.0231V49.659H77.5595V47.1226Z" fill="#040415"/>
<path d="M80.0959 47.1226H77.5594V49.659H80.0959V47.1226Z" fill="#040415"/>
<path d="M82.6324 47.1226H80.0959V49.659H82.6324V47.1226Z" fill="#040415"/>
<path d="M85.1687 47.1226H82.6323V49.659H85.1687V47.1226Z" fill="white"/>
<path d="M87.7051 47.1226H85.1687V49.659H87.7051V47.1226Z" fill="#040415"/>
<path d="M90.2416 47.1226H87.7052V49.659H90.2416V47.1226Z" fill="#040415"/>
<path d="M92.778 47.1226H90.2416V49.659H92.778V47.1226Z" fill="white"/>
<path d="M21.7585 49.6589H19.222V52.1953H21.7585V49.6589Z" fill="#040415"/>
<path d="M24.2948 49.6589H21.7584V52.1953H24.2948V49.6589Z" fill="#040415"/>
<path d="M26.8312 49.6589H24.2948V52.1953H26.8312V49.6589Z" fill="white"/>
<path d="M29.3677 49.6589H26.8313V52.1953H29.3677V49.6589Z" fill="white"/>
<path d="M31.9041 49.6589H29.3677V52.1953H31.9041V49.6589Z" fill="white"/>
<path d="M34.4405 49.6589H31.9041V52.1953H34.4405V49.6589Z" fill="#040415"/>
<path d="M36.977 49.6589H34.4406V52.1953H36.977V49.6589Z" fill="#040415"/>
<path d="M39.5133 49.6589H36.9769V52.1953H39.5133V49.6589Z" fill="#040415"/>
<path d="M42.0497 49.6589H39.5133V52.1953H42.0497V49.6589Z" fill="white"/>
<path d="M44.5861 49.6589H42.0497V52.1953H44.5861V49.6589Z" fill="white"/>
<path d="M47.1226 49.6589H44.5862V52.1953H47.1226V49.6589Z" fill="white"/>
<path d="M49.659 49.6589H47.1226V52.1953H49.659V49.6589Z" fill="white"/>
<path d="M52.1953 49.6589H49.6589V52.1953H52.1953V49.6589Z" fill="#040415"/>
<path d="M54.7318 49.6589H52.1954V52.1953H54.7318V49.6589Z" fill="#040415"/>
<path d="M57.2682 49.6589H54.7318V52.1953H57.2682V49.6589Z" fill="white"/>
<path d="M59.8046 49.6589H57.2682V52.1953H59.8046V49.6589Z" fill="white"/>
<path d="M62.341 49.6589H59.8046V52.1953H62.341V49.6589Z" fill="white"/>
<path d="M64.8775 49.6589H62.3411V52.1953H64.8775V49.6589Z" fill="#040415"/>
<path d="M67.4139 49.6589H64.8774V52.1953H67.4139V49.6589Z" fill="#040415"/>
<path d="M69.9502 49.6589H67.4138V52.1953H69.9502V49.6589Z" fill="#040415"/>
<path d="M72.4866 49.6589H69.9502V52.1953H72.4866V49.6589Z" fill="#040415"/>
<path d="M75.0231 49.6589H72.4867V52.1953H75.0231V49.6589Z" fill="#040415"/>
<path d="M77.5595 49.6589H75.0231V52.1953H77.5595V49.6589Z" fill="#040415"/>
<path d="M80.0959 49.6589H77.5594V52.1953H80.0959V49.6589Z" fill="white"/>
<path d="M82.6324 49.6589H80.0959V52.1953H82.6324V49.6589Z" fill="white"/>
<path d="M85.1687 49.6589H82.6323V52.1953H85.1687V49.6589Z" fill="#040415"/>
<path d="M87.7051 49.6589H85.1687V52.1953H87.7051V49.6589Z" fill="white"/>
<path d="M90.2416 49.6589H87.7052V52.1953H90.2416V49.6589Z" fill="#040415"/>
<path d="M92.778 49.6589H90.2416V52.1953H92.778V49.6589Z" fill="#040415"/>
<path d="M21.7585 52.1953H19.222V54.7317H21.7585V52.1953Z" fill="#040415"/>
<path d="M24.2948 52.1953H21.7584V54.7317H24.2948V52.1953Z" fill="white"/>
<path d="M26.8312 52.1953H24.2948V54.7317H26.8312V52.1953Z" fill="#040415"/>
<path d="M29.3677 52.1953H26.8313V54.7317H29.3677V52.1953Z" fill="white"/>
<path d="M31.9041 52.1953H29.3677V54.7317H31.9041V52.1953Z" fill="#040415"/>
<path d="M34.4405 52.1953H31.9041V54.7317H34.4405V52.1953Z" fill="#040415"/>
<path d="M36.977 52.1953H34.4406V54.7317H36.977V52.1953Z" fill="white"/>
<path d="M39.5133 52.1953H36.9769V54.7317H39.5133V52.1953Z" fill="white"/>
<path d="M42.0497 52.1953H39.5133V54.7317H42.0497V52.1953Z" fill="white"/>
<path d="M44.5861 52.1953H42.0497V54.7317H44.5861V52.1953Z" fill="white"/>
<path d="M47.1226 52.1953H44.5862V54.7317H47.1226V52.1953Z" fill="#040415"/>
<path d="M49.659 52.1953H47.1226V54.7317H49.659V52.1953Z" fill="white"/>
<path d="M52.1953 52.1953H49.6589V54.7317H52.1953V52.1953Z" fill="#040415"/>
<path d="M54.7318 52.1953H52.1954V54.7317H54.7318V52.1953Z" fill="white"/>
<path d="M57.2682 52.1953H54.7318V54.7317H57.2682V52.1953Z" fill="white"/>
<path d="M59.8046 52.1953H57.2682V54.7317H59.8046V52.1953Z" fill="white"/>
<path d="M62.341 52.1953H59.8046V54.7317H62.341V52.1953Z" fill="#040415"/>
<path d="M64.8775 52.1953H62.3411V54.7317H64.8775V52.1953Z" fill="#040415"/>
<path d="M67.4139 52.1953H64.8774V54.7317H67.4139V52.1953Z" fill="#040415"/>
<path d="M69.9502 52.1953H67.4138V54.7317H69.9502V52.1953Z" fill="#040415"/>
<path d="M72.4866 52.1953H69.9502V54.7317H72.4866V52.1953Z" fill="#040415"/>
<path d="M75.0231 52.1953H72.4867V54.7317H75.0231V52.1953Z" fill="#040415"/>
<path d="M77.5595 52.1953H75.0231V54.7317H77.5595V52.1953Z" fill="white"/>
<path d="M80.0959 52.1953H77.5594V54.7317H80.0959V52.1953Z" fill="white"/>
<path d="M82.6324 52.1953H80.0959V54.7317H82.6324V52.1953Z" fill="white"/>
<path d="M85.1687 52.1953H82.6323V54.7317H85.1687V52.1953Z" fill="white"/>
<path d="M87.7051 52.1953H85.1687V54.7317H87.7051V52.1953Z" fill="white"/>
<path d="M90.2416 52.1953H87.7052V54.7317H90.2416V52.1953Z" fill="white"/>
<path d="M92.778 52.1953H90.2416V54.7317H92.778V52.1953Z" fill="white"/>
<path d="M21.7585 54.7317H19.222V57.2681H21.7585V54.7317Z" fill="white"/>
<path d="M24.2948 54.7317H21.7584V57.2681H24.2948V54.7317Z" fill="white"/>
<path d="M26.8312 54.7317H24.2948V57.2681H26.8312V54.7317Z" fill="white"/>
<path d="M29.3677 54.7317H26.8313V57.2681H29.3677V54.7317Z" fill="white"/>
<path d="M31.9041 54.7317H29.3677V57.2681H31.9041V54.7317Z" fill="#040415"/>
<path d="M34.4405 54.7317H31.9041V57.2681H34.4405V54.7317Z" fill="white"/>
<path d="M36.977 54.7317H34.4406V57.2681H36.977V54.7317Z" fill="#040415"/>
<path d="M39.5133 54.7317H36.9769V57.2681H39.5133V54.7317Z" fill="white"/>
<path d="M42.0497 54.7317H39.5133V57.2681H42.0497V54.7317Z" fill="#040415"/>
<path d="M44.5861 54.7317H42.0497V57.2681H44.5861V54.7317Z" fill="#040415"/>
<path d="M47.1226 54.7317H44.5862V57.2681H47.1226V54.7317Z" fill="white"/>
<path d="M49.659 54.7317H47.1226V57.2681H49.659V54.7317Z" fill="#040415"/>
<path d="M52.1953 54.7317H49.6589V57.2681H52.1953V54.7317Z" fill="white"/>
<path d="M54.7318 54.7317H52.1954V57.2681H54.7318V54.7317Z" fill="#040415"/>
<path d="M57.2682 54.7317H54.7318V57.2681H57.2682V54.7317Z" fill="#040415"/>
<path d="M59.8046 54.7317H57.2682V57.2681H59.8046V54.7317Z" fill="white"/>
<path d="M62.341 54.7317H59.8046V57.2681H62.341V54.7317Z" fill="#040415"/>
<path d="M64.8775 54.7317H62.3411V57.2681H64.8775V54.7317Z" fill="#040415"/>
<path d="M67.4139 54.7317H64.8774V57.2681H67.4139V54.7317Z" fill="white"/>
<path d="M69.9502 54.7317H67.4138V57.2681H69.9502V54.7317Z" fill="white"/>
<path d="M72.4866 54.7317H69.9502V57.2681H72.4866V54.7317Z" fill="white"/>
<path d="M75.0231 54.7317H72.4867V57.2681H75.0231V54.7317Z" fill="#040415"/>
<path d="M77.5595 54.7317H75.0231V57.2681H77.5595V54.7317Z" fill="white"/>
<path d="M80.0959 54.7317H77.5594V57.2681H80.0959V54.7317Z" fill="white"/>
<path d="M82.6324 54.7317H80.0959V57.2681H82.6324V54.7317Z" fill="#040415"/>
<path d="M85.1687 54.7317H82.6323V57.2681H85.1687V54.7317Z" fill="#040415"/>
<path d="M87.7051 54.7317H85.1687V57.2681H87.7051V54.7317Z" fill="#040415"/>
<path d="M90.2416 54.7317H87.7052V57.2681H90.2416V54.7317Z" fill="#040415"/>
<path d="M92.778 54.7317H90.2416V57.2681H92.778V54.7317Z" fill="#040415"/>
<path d="M21.7585 57.2683H19.222V59.8047H21.7585V57.2683Z" fill="#040415"/>
<path d="M24.2948 57.2683H21.7584V59.8047H24.2948V57.2683Z" fill="white"/>
<path d="M26.8312 57.2683H24.2948V59.8047H26.8312V57.2683Z" fill="#040415"/>
<path d="M29.3677 57.2683H26.8313V59.8047H29.3677V57.2683Z" fill="#040415"/>
<path d="M31.9041 57.2683H29.3677V59.8047H31.9041V57.2683Z" fill="white"/>
<path d="M34.4405 57.2683H31.9041V59.8047H34.4405V57.2683Z" fill="white"/>
<path d="M36.977 57.2683H34.4406V59.8047H36.977V57.2683Z" fill="white"/>
<path d="M39.5133 57.2683H36.9769V59.8047H39.5133V57.2683Z" fill="white"/>
<path d="M42.0497 57.2683H39.5133V59.8047H42.0497V57.2683Z" fill="#040415"/>
<path d="M44.5861 57.2683H42.0497V59.8047H44.5861V57.2683Z" fill="white"/>
<path d="M47.1226 57.2683H44.5862V59.8047H47.1226V57.2683Z" fill="white"/>
<path d="M49.659 57.2683H47.1226V59.8047H49.659V57.2683Z" fill="#040415"/>
<path d="M52.1953 57.2683H49.6589V59.8047H52.1953V57.2683Z" fill="#040415"/>
<path d="M54.7318 57.2683H52.1954V59.8047H54.7318V57.2683Z" fill="#040415"/>
<path d="M57.2682 57.2683H54.7318V59.8047H57.2682V57.2683Z" fill="white"/>
<path d="M59.8046 57.2683H57.2682V59.8047H59.8046V57.2683Z" fill="#040415"/>
<path d="M62.341 57.2683H59.8046V59.8047H62.341V57.2683Z" fill="white"/>
<path d="M64.8775 57.2683H62.3411V59.8047H64.8775V57.2683Z" fill="#040415"/>
<path d="M67.4139 57.2683H64.8774V59.8047H67.4139V57.2683Z" fill="white"/>
<path d="M69.9502 57.2683H67.4138V59.8047H69.9502V57.2683Z" fill="white"/>
<path d="M72.4866 57.2683H69.9502V59.8047H72.4866V57.2683Z" fill="#040415"/>
<path d="M75.0231 57.2683H72.4867V59.8047H75.0231V57.2683Z" fill="white"/>
<path d="M77.5595 57.2683H75.0231V59.8047H77.5595V57.2683Z" fill="#040415"/>
<path d="M80.0959 57.2683H77.5594V59.8047H80.0959V57.2683Z" fill="#040415"/>
<path d="M82.6324 57.2683H80.0959V59.8047H82.6324V57.2683Z" fill="white"/>
<path d="M85.1687 57.2683H82.6323V59.8047H85.1687V57.2683Z" fill="#040415"/>
<path d="M87.7051 57.2683H85.1687V59.8047H87.7051V57.2683Z" fill="white"/>
<path d="M90.2416 57.2683H87.7052V59.8047H90.2416V57.2683Z" fill="#040415"/>
<path d="M92.778 57.2683H90.2416V59.8047H92.778V57.2683Z" fill="white"/>
<path d="M21.7585 59.8047H19.222V62.3411H21.7585V59.8047Z" fill="#040415"/>
<path d="M24.2948 59.8047H21.7584V62.3411H24.2948V59.8047Z" fill="white"/>
<path d="M26.8312 59.8047H24.2948V62.3411H26.8312V59.8047Z" fill="white"/>
<path d="M29.3677 59.8047H26.8313V62.3411H29.3677V59.8047Z" fill="#040415"/>
<path d="M31.9041 59.8047H29.3677V62.3411H31.9041V59.8047Z" fill="#040415"/>
<path d="M34.4405 59.8047H31.9041V62.3411H34.4405V59.8047Z" fill="white"/>
<path d="M36.977 59.8047H34.4406V62.3411H36.977V59.8047Z" fill="#040415"/>
<path d="M39.5133 59.8047H36.9769V62.3411H39.5133V59.8047Z" fill="white"/>
<path d="M42.0497 59.8047H39.5133V62.3411H42.0497V59.8047Z" fill="#040415"/>
<path d="M44.5861 59.8047H42.0497V62.3411H44.5861V59.8047Z" fill="#040415"/>
<path d="M47.1226 59.8047H44.5862V62.3411H47.1226V59.8047Z" fill="#040415"/>
<path d="M49.659 59.8047H47.1226V62.3411H49.659V59.8047Z" fill="white"/>
<path d="M52.1953 59.8047H49.6589V62.3411H52.1953V59.8047Z" fill="white"/>
<path d="M54.7318 59.8047H52.1954V62.3411H54.7318V59.8047Z" fill="#040415"/>
<path d="M57.2682 59.8047H54.7318V62.3411H57.2682V59.8047Z" fill="white"/>
<path d="M59.8046 59.8047H57.2682V62.3411H59.8046V59.8047Z" fill="#040415"/>
<path d="M62.341 59.8047H59.8046V62.3411H62.341V59.8047Z" fill="#040415"/>
<path d="M64.8775 59.8047H62.3411V62.3411H64.8775V59.8047Z" fill="#040415"/>
<path d="M67.4139 59.8047H64.8774V62.3411H67.4139V59.8047Z" fill="#040415"/>
<path d="M69.9502 59.8047H67.4138V62.3411H69.9502V59.8047Z" fill="white"/>
<path d="M72.4866 59.8047H69.9502V62.3411H72.4866V59.8047Z" fill="#040415"/>
<path d="M75.0231 59.8047H72.4867V62.3411H75.0231V59.8047Z" fill="#040415"/>
<path d="M77.5595 59.8047H75.0231V62.3411H77.5595V59.8047Z" fill="white"/>
<path d="M80.0959 59.8047H77.5594V62.3411H80.0959V59.8047Z" fill="white"/>
<path d="M82.6324 59.8047H80.0959V62.3411H82.6324V59.8047Z" fill="white"/>
<path d="M85.1687 59.8047H82.6323V62.3411H85.1687V59.8047Z" fill="white"/>
<path d="M87.7051 59.8047H85.1687V62.3411H87.7051V59.8047Z" fill="white"/>
<path d="M90.2416 59.8047H87.7052V62.3411H90.2416V59.8047Z" fill="#040415"/>
<path d="M92.778 59.8047H90.2416V62.3411H92.778V59.8047Z" fill="white"/>
<path d="M21.7585 62.3411H19.222V64.8775H21.7585V62.3411Z" fill="white"/>
<path d="M24.2948 62.3411H21.7584V64.8775H24.2948V62.3411Z" fill="#040415"/>
<path d="M26.8312 62.3411H24.2948V64.8775H26.8312V62.3411Z" fill="#040415"/>
<path d="M29.3677 62.3411H26.8313V64.8775H29.3677V62.3411Z" fill="#040415"/>
<path d="M31.9041 62.3411H29.3677V64.8775H31.9041V62.3411Z" fill="white"/>
<path d="M34.4405 62.3411H31.9041V64.8775H34.4405V62.3411Z" fill="white"/>
<path d="M36.977 62.3411H34.4406V64.8775H36.977V62.3411Z" fill="white"/>
<path d="M39.5133 62.3411H36.9769V64.8775H39.5133V62.3411Z" fill="white"/>
<path d="M42.0497 62.3411H39.5133V64.8775H42.0497V62.3411Z" fill="#040415"/>
<path d="M44.5861 62.3411H42.0497V64.8775H44.5861V62.3411Z" fill="white"/>
<path d="M47.1226 62.3411H44.5862V64.8775H47.1226V62.3411Z" fill="#040415"/>
<path d="M49.659 62.3411H47.1226V64.8775H49.659V62.3411Z" fill="#040415"/>
<path d="M52.1953 62.3411H49.6589V64.8775H52.1953V62.3411Z" fill="#040415"/>
<path d="M54.7318 62.3411H52.1954V64.8775H54.7318V62.3411Z" fill="white"/>
<path d="M57.2682 62.3411H54.7318V64.8775H57.2682V62.3411Z" fill="white"/>
<path d="M59.8046 62.3411H57.2682V64.8775H59.8046V62.3411Z" fill="white"/>
<path d="M62.341 62.3411H59.8046V64.8775H62.341V62.3411Z" fill="white"/>
<path d="M64.8775 62.3411H62.3411V64.8775H64.8775V62.3411Z" fill="white"/>
<path d="M67.4139 62.3411H64.8774V64.8775H67.4139V62.3411Z" fill="#040415"/>
<path d="M69.9502 62.3411H67.4138V64.8775H69.9502V62.3411Z" fill="white"/>
<path d="M72.4866 62.3411H69.9502V64.8775H72.4866V62.3411Z" fill="white"/>
<path d="M75.0231 62.3411H72.4867V64.8775H75.0231V62.3411Z" fill="#040415"/>
<path d="M77.5595 62.3411H75.0231V64.8775H77.5595V62.3411Z" fill="#040415"/>
<path d="M80.0959 62.3411H77.5594V64.8775H80.0959V62.3411Z" fill="#040415"/>
<path d="M82.6324 62.3411H80.0959V64.8775H82.6324V62.3411Z" fill="white"/>
<path d="M85.1687 62.3411H82.6323V64.8775H85.1687V62.3411Z" fill="#040415"/>
<path d="M87.7051 62.3411H85.1687V64.8775H87.7051V62.3411Z" fill="white"/>
<path d="M90.2416 62.3411H87.7052V64.8775H90.2416V62.3411Z" fill="white"/>
<path d="M92.778 62.3411H90.2416V64.8775H92.778V62.3411Z" fill="#040415"/>
<path d="M21.7585 64.8774H19.222V67.4139H21.7585V64.8774Z" fill="#040415"/>
<path d="M24.2948 64.8774H21.7584V67.4139H24.2948V64.8774Z" fill="white"/>
<path d="M26.8312 64.8774H24.2948V67.4139H26.8312V64.8774Z" fill="#040415"/>
<path d="M29.3677 64.8774H26.8313V67.4139H29.3677V64.8774Z" fill="white"/>
<path d="M31.9041 64.8774H29.3677V67.4139H31.9041V64.8774Z" fill="white"/>
<path d="M34.4405 64.8774H31.9041V67.4139H34.4405V64.8774Z" fill="white"/>
<path d="M36.977 64.8774H34.4406V67.4139H36.977V64.8774Z" fill="#040415"/>
<path d="M39.5133 64.8774H36.9769V67.4139H39.5133V64.8774Z" fill="white"/>
<path d="M42.0497 64.8774H39.5133V67.4139H42.0497V64.8774Z" fill="#040415"/>
<path d="M44.5861 64.8774H42.0497V67.4139H44.5861V64.8774Z" fill="#040415"/>
<path d="M47.1226 64.8774H44.5862V67.4139H47.1226V64.8774Z" fill="white"/>
<path d="M49.659 64.8774H47.1226V67.4139H49.659V64.8774Z" fill="white"/>
<path d="M52.1953 64.8774H49.6589V67.4139H52.1953V64.8774Z" fill="#040415"/>
<path d="M54.7318 64.8774H52.1954V67.4139H54.7318V64.8774Z" fill="#040415"/>
<path d="M57.2682 64.8774H54.7318V67.4139H57.2682V64.8774Z" fill="white"/>
<path d="M59.8046 64.8774H57.2682V67.4139H59.8046V64.8774Z" fill="white"/>
<path d="M62.341 64.8774H59.8046V67.4139H62.341V64.8774Z" fill="#040415"/>
<path d="M64.8775 64.8774H62.3411V67.4139H64.8775V64.8774Z" fill="#040415"/>
<path d="M67.4139 64.8774H64.8774V67.4139H67.4139V64.8774Z" fill="white"/>
<path d="M69.9502 64.8774H67.4138V67.4139H69.9502V64.8774Z" fill="white"/>
<path d="M72.4866 64.8774H69.9502V67.4139H72.4866V64.8774Z" fill="white"/>
<path d="M75.0231 64.8774H72.4867V67.4139H75.0231V64.8774Z" fill="#040415"/>
<path d="M77.5595 64.8774H75.0231V67.4139H77.5595V64.8774Z" fill="white"/>
<path d="M80.0959 64.8774H77.5594V67.4139H80.0959V64.8774Z" fill="#040415"/>
<path d="M82.6324 64.8774H80.0959V67.4139H82.6324V64.8774Z" fill="#040415"/>
<path d="M85.1687 64.8774H82.6323V67.4139H85.1687V64.8774Z" fill="white"/>
<path d="M87.7051 64.8774H85.1687V67.4139H87.7051V64.8774Z" fill="white"/>
<path d="M90.2416 64.8774H87.7052V67.4139H90.2416V64.8774Z" fill="#040415"/>
<path d="M92.778 64.8774H90.2416V67.4139H92.778V64.8774Z" fill="#040415"/>
<path d="M21.7585 67.4138H19.222V69.9502H21.7585V67.4138Z" fill="white"/>
<path d="M24.2948 67.4138H21.7584V69.9502H24.2948V67.4138Z" fill="white"/>
<path d="M26.8312 67.4138H24.2948V69.9502H26.8312V67.4138Z" fill="#040415"/>
<path d="M29.3677 67.4138H26.8313V69.9502H29.3677V67.4138Z" fill="white"/>
<path d="M31.9041 67.4138H29.3677V69.9502H31.9041V67.4138Z" fill="white"/>
<path d="M34.4405 67.4138H31.9041V69.9502H34.4405V67.4138Z" fill="#040415"/>
<path d="M36.977 67.4138H34.4406V69.9502H36.977V67.4138Z" fill="white"/>
<path d="M39.5133 67.4138H36.9769V69.9502H39.5133V67.4138Z" fill="white"/>
<path d="M42.0497 67.4138H39.5133V69.9502H42.0497V67.4138Z" fill="#040415"/>
<path d="M44.5861 67.4138H42.0497V69.9502H44.5861V67.4138Z" fill="#040415"/>
<path d="M47.1226 67.4138H44.5862V69.9502H47.1226V67.4138Z" fill="#040415"/>
<path d="M49.659 67.4138H47.1226V69.9502H49.659V67.4138Z" fill="white"/>
<path d="M52.1953 67.4138H49.6589V69.9502H52.1953V67.4138Z" fill="white"/>
<path d="M54.7318 67.4138H52.1954V69.9502H54.7318V67.4138Z" fill="white"/>
<path d="M57.2682 67.4138H54.7318V69.9502H57.2682V67.4138Z" fill="#040415"/>
<path d="M59.8046 67.4138H57.2682V69.9502H59.8046V67.4138Z" fill="#040415"/>
<path d="M62.341 67.4138H59.8046V69.9502H62.341V67.4138Z" fill="white"/>
<path d="M64.8775 67.4138H62.3411V69.9502H64.8775V67.4138Z" fill="#040415"/>
<path d="M67.4139 67.4138H64.8774V69.9502H67.4139V67.4138Z" fill="white"/>
<path d="M69.9502 67.4138H67.4138V69.9502H69.9502V67.4138Z" fill="white"/>
<path d="M72.4866 67.4138H69.9502V69.9502H72.4866V67.4138Z" fill="white"/>
<path d="M75.0231 67.4138H72.4867V69.9502H75.0231V67.4138Z" fill="#040415"/>
<path d="M77.5595 67.4138H75.0231V69.9502H77.5595V67.4138Z" fill="white"/>
<path d="M80.0959 67.4138H77.5594V69.9502H80.0959V67.4138Z" fill="white"/>
<path d="M82.6324 67.4138H80.0959V69.9502H82.6324V67.4138Z" fill="#040415"/>
<path d="M85.1687 67.4138H82.6323V69.9502H85.1687V67.4138Z" fill="white"/>
<path d="M87.7051 67.4138H85.1687V69.9502H87.7051V67.4138Z" fill="white"/>
<path d="M90.2416 67.4138H87.7052V69.9502H90.2416V67.4138Z" fill="#040415"/>
<path d="M92.778 67.4138H90.2416V69.9502H92.778V67.4138Z" fill="#040415"/>
<path d="M21.7585 69.9502H19.222V72.4866H21.7585V69.9502Z" fill="#040415"/>
<path d="M24.2948 69.9502H21.7584V72.4866H24.2948V69.9502Z" fill="white"/>
<path d="M26.8312 69.9502H24.2948V72.4866H26.8312V69.9502Z" fill="#040415"/>
<path d="M29.3677 69.9502H26.8313V72.4866H29.3677V69.9502Z" fill="#040415"/>
<path d="M31.9041 69.9502H29.3677V72.4866H31.9041V69.9502Z" fill="#040415"/>
<path d="M34.4405 69.9502H31.9041V72.4866H34.4405V69.9502Z" fill="white"/>
<path d="M36.977 69.9502H34.4406V72.4866H36.977V69.9502Z" fill="#040415"/>
<path d="M39.5133 69.9502H36.9769V72.4866H39.5133V69.9502Z" fill="#040415"/>
<path d="M42.0497 69.9502H39.5133V72.4866H42.0497V69.9502Z" fill="#040415"/>
<path d="M44.5861 69.9502H42.0497V72.4866H44.5861V69.9502Z" fill="#040415"/>
<path d="M47.1226 69.9502H44.5862V72.4866H47.1226V69.9502Z" fill="white"/>
<path d="M49.659 69.9502H47.1226V72.4866H49.659V69.9502Z" fill="#040415"/>
<path d="M52.1953 69.9502H49.6589V72.4866H52.1953V69.9502Z" fill="white"/>
<path d="M54.7318 69.9502H52.1954V72.4866H54.7318V69.9502Z" fill="#040415"/>
<path d="M57.2682 69.9502H54.7318V72.4866H57.2682V69.9502Z" fill="#040415"/>
<path d="M59.8046 69.9502H57.2682V72.4866H59.8046V69.9502Z" fill="white"/>
<path d="M62.341 69.9502H59.8046V72.4866H62.341V69.9502Z" fill="#040415"/>
<path d="M64.8775 69.9502H62.3411V72.4866H64.8775V69.9502Z" fill="#040415"/>
<path d="M67.4139 69.9502H64.8774V72.4866H67.4139V69.9502Z" fill="white"/>
<path d="M69.9502 69.9502H67.4138V72.4866H69.9502V69.9502Z" fill="#040415"/>
<path d="M72.4866 69.9502H69.9502V72.4866H72.4866V69.9502Z" fill="#040415"/>
<path d="M75.0231 69.9502H72.4867V72.4866H75.0231V69.9502Z" fill="#040415"/>
<path d="M77.5595 69.9502H75.0231V72.4866H77.5595V69.9502Z" fill="#040415"/>
<path d="M80.0959 69.9502H77.5594V72.4866H80.0959V69.9502Z" fill="#040415"/>
<path d="M82.6324 69.9502H80.0959V72.4866H82.6324V69.9502Z" fill="#040415"/>
<path d="M85.1687 69.9502H82.6323V72.4866H85.1687V69.9502Z" fill="white"/>
<path d="M87.7051 69.9502H85.1687V72.4866H87.7051V69.9502Z" fill="#040415"/>
<path d="M90.2416 69.9502H87.7052V72.4866H90.2416V69.9502Z" fill="white"/>
<path d="M92.778 69.9502H90.2416V72.4866H92.778V69.9502Z" fill="white"/>
<path d="M21.7585 72.4866H19.222V75.023H21.7585V72.4866Z" fill="white"/>
<path d="M24.2948 72.4866H21.7584V75.023H24.2948V72.4866Z" fill="white"/>
<path d="M26.8312 72.4866H24.2948V75.023H26.8312V72.4866Z" fill="white"/>
<path d="M29.3677 72.4866H26.8313V75.023H29.3677V72.4866Z" fill="white"/>
<path d="M31.9041 72.4866H29.3677V75.023H31.9041V72.4866Z" fill="white"/>
<path d="M34.4405 72.4866H31.9041V75.023H34.4405V72.4866Z" fill="white"/>
<path d="M36.977 72.4866H34.4406V75.023H36.977V72.4866Z" fill="white"/>
<path d="M39.5133 72.4866H36.9769V75.023H39.5133V72.4866Z" fill="white"/>
<path d="M42.0497 72.4866H39.5133V75.023H42.0497V72.4866Z" fill="#040415"/>
<path d="M44.5861 72.4866H42.0497V75.023H44.5861V72.4866Z" fill="white"/>
<path d="M47.1226 72.4866H44.5862V75.023H47.1226V72.4866Z" fill="white"/>
<path d="M49.659 72.4866H47.1226V75.023H49.659V72.4866Z" fill="white"/>
<path d="M52.1953 72.4866H49.6589V75.023H52.1953V72.4866Z" fill="#040415"/>
<path d="M54.7318 72.4866H52.1954V75.023H54.7318V72.4866Z" fill="#040415"/>
<path d="M57.2682 72.4866H54.7318V75.023H57.2682V72.4866Z" fill="#040415"/>
<path d="M59.8046 72.4866H57.2682V75.023H59.8046V72.4866Z" fill="white"/>
<path d="M62.341 72.4866H59.8046V75.023H62.341V72.4866Z" fill="#040415"/>
<path d="M64.8775 72.4866H62.3411V75.023H64.8775V72.4866Z" fill="#040415"/>
<path d="M67.4139 72.4866H64.8774V75.023H67.4139V72.4866Z" fill="white"/>
<path d="M69.9502 72.4866H67.4138V75.023H69.9502V72.4866Z" fill="#040415"/>
<path d="M72.4866 72.4866H69.9502V75.023H72.4866V72.4866Z" fill="#040415"/>
<path d="M75.0231 72.4866H72.4867V75.023H75.0231V72.4866Z" fill="white"/>
<path d="M77.5595 72.4866H75.0231V75.023H77.5595V72.4866Z" fill="white"/>
<path d="M80.0959 72.4866H77.5594V75.023H80.0959V72.4866Z" fill="white"/>
<path d="M82.6324 72.4866H80.0959V75.023H82.6324V72.4866Z" fill="#040415"/>
<path d="M85.1687 72.4866H82.6323V75.023H85.1687V72.4866Z" fill="white"/>
<path d="M87.7051 72.4866H85.1687V75.023H87.7051V72.4866Z" fill="#040415"/>
<path d="M90.2416 72.4866H87.7052V75.023H90.2416V72.4866Z" fill="#040415"/>
<path d="M92.778 72.4866H90.2416V75.023H92.778V72.4866Z" fill="#040415"/>
<path d="M21.7585 75.0232H19.222V77.5596H21.7585V75.0232Z" fill="#040415"/>
<path d="M24.2948 75.0232H21.7584V77.5596H24.2948V75.0232Z" fill="#040415"/>
<path d="M26.8312 75.0232H24.2948V77.5596H26.8312V75.0232Z" fill="#040415"/>
<path d="M29.3677 75.0232H26.8313V77.5596H29.3677V75.0232Z" fill="#040415"/>
<path d="M31.9041 75.0232H29.3677V77.5596H31.9041V75.0232Z" fill="#040415"/>
<path d="M34.4405 75.0232H31.9041V77.5596H34.4405V75.0232Z" fill="#040415"/>
<path d="M36.977 75.0232H34.4406V77.5596H36.977V75.0232Z" fill="#040415"/>
<path d="M39.5133 75.0232H36.9769V77.5596H39.5133V75.0232Z" fill="white"/>
<path d="M42.0497 75.0232H39.5133V77.5596H42.0497V75.0232Z" fill="#040415"/>
<path d="M44.5861 75.0232H42.0497V77.5596H44.5861V75.0232Z" fill="#040415"/>
<path d="M47.1226 75.0232H44.5862V77.5596H47.1226V75.0232Z" fill="white"/>
<path d="M49.659 75.0232H47.1226V77.5596H49.659V75.0232Z" fill="white"/>
<path d="M52.1953 75.0232H49.6589V77.5596H52.1953V75.0232Z" fill="#040415"/>
<path d="M54.7318 75.0232H52.1954V77.5596H54.7318V75.0232Z" fill="#040415"/>
<path d="M57.2682 75.0232H54.7318V77.5596H57.2682V75.0232Z" fill="#040415"/>
<path d="M59.8046 75.0232H57.2682V77.5596H59.8046V75.0232Z" fill="white"/>
<path d="M62.341 75.0232H59.8046V77.5596H62.341V75.0232Z" fill="white"/>
<path d="M64.8775 75.0232H62.3411V77.5596H64.8775V75.0232Z" fill="white"/>
<path d="M67.4139 75.0232H64.8774V77.5596H67.4139V75.0232Z" fill="#040415"/>
<path d="M69.9502 75.0232H67.4138V77.5596H69.9502V75.0232Z" fill="white"/>
<path d="M72.4866 75.0232H69.9502V77.5596H72.4866V75.0232Z" fill="#040415"/>
<path d="M75.0231 75.0232H72.4867V77.5596H75.0231V75.0232Z" fill="white"/>
<path d="M77.5595 75.0232H75.0231V77.5596H77.5595V75.0232Z" fill="#040415"/>
<path d="M80.0959 75.0232H77.5594V77.5596H80.0959V75.0232Z" fill="white"/>
<path d="M82.6324 75.0232H80.0959V77.5596H82.6324V75.0232Z" fill="#040415"/>
<path d="M85.1687 75.0232H82.6323V77.5596H85.1687V75.0232Z" fill="white"/>
<path d="M87.7051 75.0232H85.1687V77.5596H87.7051V75.0232Z" fill="white"/>
<path d="M90.2416 75.0232H87.7052V77.5596H90.2416V75.0232Z" fill="#040415"/>
<path d="M92.778 75.0232H90.2416V77.5596H92.778V75.0232Z" fill="white"/>
<path d="M21.7585 77.5596H19.222V80.096H21.7585V77.5596Z" fill="#040415"/>
<path d="M24.2948 77.5596H21.7584V80.096H24.2948V77.5596Z" fill="white"/>
<path d="M26.8312 77.5596H24.2948V80.096H26.8312V77.5596Z" fill="white"/>
<path d="M29.3677 77.5596H26.8313V80.096H29.3677V77.5596Z" fill="white"/>
<path d="M31.9041 77.5596H29.3677V80.096H31.9041V77.5596Z" fill="white"/>
<path d="M34.4405 77.5596H31.9041V80.096H34.4405V77.5596Z" fill="white"/>
<path d="M36.977 77.5596H34.4406V80.096H36.977V77.5596Z" fill="#040415"/>
<path d="M39.5133 77.5596H36.9769V80.096H39.5133V77.5596Z" fill="white"/>
<path d="M42.0497 77.5596H39.5133V80.096H42.0497V77.5596Z" fill="white"/>
<path d="M44.5861 77.5596H42.0497V80.096H44.5861V77.5596Z" fill="#040415"/>
<path d="M47.1226 77.5596H44.5862V80.096H47.1226V77.5596Z" fill="white"/>
<path d="M49.659 77.5596H47.1226V80.096H49.659V77.5596Z" fill="white"/>
<path d="M52.1953 77.5596H49.6589V80.096H52.1953V77.5596Z" fill="#040415"/>
<path d="M54.7318 77.5596H52.1954V80.096H54.7318V77.5596Z" fill="#040415"/>
<path d="M57.2682 77.5596H54.7318V80.096H57.2682V77.5596Z" fill="white"/>
<path d="M59.8046 77.5596H57.2682V80.096H59.8046V77.5596Z" fill="#040415"/>
<path d="M62.341 77.5596H59.8046V80.096H62.341V77.5596Z" fill="white"/>
<path d="M64.8775 77.5596H62.3411V80.096H64.8775V77.5596Z" fill="white"/>
<path d="M67.4139 77.5596H64.8774V80.096H67.4139V77.5596Z" fill="#040415"/>
<path d="M69.9502 77.5596H67.4138V80.096H69.9502V77.5596Z" fill="white"/>
<path d="M72.4866 77.5596H69.9502V80.096H72.4866V77.5596Z" fill="#040415"/>
<path d="M75.0231 77.5596H72.4867V80.096H75.0231V77.5596Z" fill="white"/>
<path d="M77.5595 77.5596H75.0231V80.096H77.5595V77.5596Z" fill="white"/>
<path d="M80.0959 77.5596H77.5594V80.096H80.0959V77.5596Z" fill="white"/>
<path d="M82.6324 77.5596H80.0959V80.096H82.6324V77.5596Z" fill="#040415"/>
<path d="M85.1687 77.5596H82.6323V80.096H85.1687V77.5596Z" fill="#040415"/>
<path d="M87.7051 77.5596H85.1687V80.096H87.7051V77.5596Z" fill="#040415"/>
<path d="M90.2416 77.5596H87.7052V80.096H90.2416V77.5596Z" fill="#040415"/>
<path d="M92.778 77.5596H90.2416V80.096H92.778V77.5596Z" fill="white"/>
<path d="M21.7585 80.0959H19.222V82.6324H21.7585V80.0959Z" fill="#040415"/>
<path d="M24.2948 80.0959H21.7584V82.6324H24.2948V80.0959Z" fill="white"/>
<path d="M26.8312 80.0959H24.2948V82.6324H26.8312V80.0959Z" fill="#040415"/>
<path d="M29.3677 80.0959H26.8313V82.6324H29.3677V80.0959Z" fill="#040415"/>
<path d="M31.9041 80.0959H29.3677V82.6324H31.9041V80.0959Z" fill="#040415"/>
<path d="M34.4405 80.0959H31.9041V82.6324H34.4405V80.0959Z" fill="white"/>
<path d="M36.977 80.0959H34.4406V82.6324H36.977V80.0959Z" fill="#040415"/>
<path d="M39.5133 80.0959H36.9769V82.6324H39.5133V80.0959Z" fill="white"/>
<path d="M42.0497 80.0959H39.5133V82.6324H42.0497V80.0959Z" fill="white"/>
<path d="M44.5861 80.0959H42.0497V82.6324H44.5861V80.0959Z" fill="#040415"/>
<path d="M47.1226 80.0959H44.5862V82.6324H47.1226V80.0959Z" fill="white"/>
<path d="M49.659 80.0959H47.1226V82.6324H49.659V80.0959Z" fill="white"/>
<path d="M52.1953 80.0959H49.6589V82.6324H52.1953V80.0959Z" fill="white"/>
<path d="M54.7318 80.0959H52.1954V82.6324H54.7318V80.0959Z" fill="#040415"/>
<path d="M57.2682 80.0959H54.7318V82.6324H57.2682V80.0959Z" fill="white"/>
<path d="M59.8046 80.0959H57.2682V82.6324H59.8046V80.0959Z" fill="#040415"/>
<path d="M62.341 80.0959H59.8046V82.6324H62.341V80.0959Z" fill="white"/>
<path d="M64.8775 80.0959H62.3411V82.6324H64.8775V80.0959Z" fill="#040415"/>
<path d="M67.4139 80.0959H64.8774V82.6324H67.4139V80.0959Z" fill="#040415"/>
<path d="M69.9502 80.0959H67.4138V82.6324H69.9502V80.0959Z" fill="white"/>
<path d="M72.4866 80.0959H69.9502V82.6324H72.4866V80.0959Z" fill="#040415"/>
<path d="M75.0231 80.0959H72.4867V82.6324H75.0231V80.0959Z" fill="#040415"/>
<path d="M77.5595 80.0959H75.0231V82.6324H77.5595V80.0959Z" fill="#040415"/>
<path d="M80.0959 80.0959H77.5594V82.6324H80.0959V80.0959Z" fill="#040415"/>
<path d="M82.6324 80.0959H80.0959V82.6324H82.6324V80.0959Z" fill="#040415"/>
<path d="M85.1687 80.0959H82.6323V82.6324H85.1687V80.0959Z" fill="white"/>
<path d="M87.7051 80.0959H85.1687V82.6324H87.7051V80.0959Z" fill="white"/>
<path d="M90.2416 80.0959H87.7052V82.6324H90.2416V80.0959Z" fill="white"/>
<path d="M92.778 80.0959H90.2416V82.6324H92.778V80.0959Z" fill="#040415"/>
<path d="M21.7585 82.6323H19.222V85.1687H21.7585V82.6323Z" fill="#040415"/>
<path d="M24.2948 82.6323H21.7584V85.1687H24.2948V82.6323Z" fill="white"/>
<path d="M26.8312 82.6323H24.2948V85.1687H26.8312V82.6323Z" fill="#040415"/>
<path d="M29.3677 82.6323H26.8313V85.1687H29.3677V82.6323Z" fill="#040415"/>
<path d="M31.9041 82.6323H29.3677V85.1687H31.9041V82.6323Z" fill="#040415"/>
<path d="M34.4405 82.6323H31.9041V85.1687H34.4405V82.6323Z" fill="white"/>
<path d="M36.977 82.6323H34.4406V85.1687H36.977V82.6323Z" fill="#040415"/>
<path d="M39.5133 82.6323H36.9769V85.1687H39.5133V82.6323Z" fill="white"/>
<path d="M42.0497 82.6323H39.5133V85.1687H42.0497V82.6323Z" fill="#040415"/>
<path d="M44.5861 82.6323H42.0497V85.1687H44.5861V82.6323Z" fill="white"/>
<path d="M47.1226 82.6323H44.5862V85.1687H47.1226V82.6323Z" fill="white"/>
<path d="M49.659 82.6323H47.1226V85.1687H49.659V82.6323Z" fill="white"/>
<path d="M52.1953 82.6323H49.6589V85.1687H52.1953V82.6323Z" fill="#040415"/>
<path d="M54.7318 82.6323H52.1954V85.1687H54.7318V82.6323Z" fill="white"/>
<path d="M57.2682 82.6323H54.7318V85.1687H57.2682V82.6323Z" fill="#040415"/>
<path d="M59.8046 82.6323H57.2682V85.1687H59.8046V82.6323Z" fill="white"/>
<path d="M62.341 82.6323H59.8046V85.1687H62.341V82.6323Z" fill="#040415"/>
<path d="M64.8775 82.6323H62.3411V85.1687H64.8775V82.6323Z" fill="white"/>
<path d="M67.4139 82.6323H64.8774V85.1687H67.4139V82.6323Z" fill="white"/>
<path d="M69.9502 82.6323H67.4138V85.1687H69.9502V82.6323Z" fill="white"/>
<path d="M72.4866 82.6323H69.9502V85.1687H72.4866V82.6323Z" fill="white"/>
<path d="M75.0231 82.6323H72.4867V85.1687H75.0231V82.6323Z" fill="white"/>
<path d="M77.5595 82.6323H75.0231V85.1687H77.5595V82.6323Z" fill="#040415"/>
<path d="M80.0959 82.6323H77.5594V85.1687H80.0959V82.6323Z" fill="#040415"/>
<path d="M82.6324 82.6323H80.0959V85.1687H82.6324V82.6323Z" fill="#040415"/>
<path d="M85.1687 82.6323H82.6323V85.1687H85.1687V82.6323Z" fill="#040415"/>
<path d="M87.7051 82.6323H85.1687V85.1687H87.7051V82.6323Z" fill="#040415"/>
<path d="M90.2416 82.6323H87.7052V85.1687H90.2416V82.6323Z" fill="white"/>
<path d="M92.778 82.6323H90.2416V85.1687H92.778V82.6323Z" fill="white"/>
<path d="M21.7585 85.1687H19.222V87.7051H21.7585V85.1687Z" fill="#040415"/>
<path d="M24.2948 85.1687H21.7584V87.7051H24.2948V85.1687Z" fill="white"/>
<path d="M26.8312 85.1687H24.2948V87.7051H26.8312V85.1687Z" fill="#040415"/>
<path d="M29.3677 85.1687H26.8313V87.7051H29.3677V85.1687Z" fill="#040415"/>
<path d="M31.9041 85.1687H29.3677V87.7051H31.9041V85.1687Z" fill="#040415"/>
<path d="M34.4405 85.1687H31.9041V87.7051H34.4405V85.1687Z" fill="white"/>
<path d="M36.977 85.1687H34.4406V87.7051H36.977V85.1687Z" fill="#040415"/>
<path d="M39.5133 85.1687H36.9769V87.7051H39.5133V85.1687Z" fill="white"/>
<path d="M42.0497 85.1687H39.5133V87.7051H42.0497V85.1687Z" fill="white"/>
<path d="M44.5861 85.1687H42.0497V87.7051H44.5861V85.1687Z" fill="white"/>
<path d="M47.1226 85.1687H44.5862V87.7051H47.1226V85.1687Z" fill="white"/>
<path d="M49.659 85.1687H47.1226V87.7051H49.659V85.1687Z" fill="#040415"/>
<path d="M52.1953 85.1687H49.6589V87.7051H52.1953V85.1687Z" fill="white"/>
<path d="M54.7318 85.1687H52.1954V87.7051H54.7318V85.1687Z" fill="#040415"/>
<path d="M57.2682 85.1687H54.7318V87.7051H57.2682V85.1687Z" fill="white"/>
<path d="M59.8046 85.1687H57.2682V87.7051H59.8046V85.1687Z" fill="white"/>
<path d="M62.341 85.1687H59.8046V87.7051H62.341V85.1687Z" fill="#040415"/>
<path d="M64.8775 85.1687H62.3411V87.7051H64.8775V85.1687Z" fill="white"/>
<path d="M67.4139 85.1687H64.8774V87.7051H67.4139V85.1687Z" fill="white"/>
<path d="M69.9502 85.1687H67.4138V87.7051H69.9502V85.1687Z" fill="#040415"/>
<path d="M72.4866 85.1687H69.9502V87.7051H72.4866V85.1687Z" fill="#040415"/>
<path d="M75.0231 85.1687H72.4867V87.7051H75.0231V85.1687Z" fill="white"/>
<path d="M77.5595 85.1687H75.0231V87.7051H77.5595V85.1687Z" fill="white"/>
<path d="M80.0959 85.1687H77.5594V87.7051H80.0959V85.1687Z" fill="white"/>
<path d="M82.6324 85.1687H80.0959V87.7051H82.6324V85.1687Z" fill="#040415"/>
<path d="M85.1687 85.1687H82.6323V87.7051H85.1687V85.1687Z" fill="#040415"/>
<path d="M87.7051 85.1687H85.1687V87.7051H87.7051V85.1687Z" fill="#040415"/>
<path d="M90.2416 85.1687H87.7052V87.7051H90.2416V85.1687Z" fill="white"/>
<path d="M92.778 85.1687H90.2416V87.7051H92.778V85.1687Z" fill="#040415"/>
<path d="M21.7585 87.7051H19.222V90.2415H21.7585V87.7051Z" fill="#040415"/>
<path d="M24.2948 87.7051H21.7584V90.2415H24.2948V87.7051Z" fill="white"/>
<path d="M26.8312 87.7051H24.2948V90.2415H26.8312V87.7051Z" fill="white"/>
<path d="M29.3677 87.7051H26.8313V90.2415H29.3677V87.7051Z" fill="white"/>
<path d="M31.9041 87.7051H29.3677V90.2415H31.9041V87.7051Z" fill="white"/>
<path d="M34.4405 87.7051H31.9041V90.2415H34.4405V87.7051Z" fill="white"/>
<path d="M36.977 87.7051H34.4406V90.2415H36.977V87.7051Z" fill="#040415"/>
<path d="M39.5133 87.7051H36.9769V90.2415H39.5133V87.7051Z" fill="white"/>
<path d="M42.0497 87.7051H39.5133V90.2415H42.0497V87.7051Z" fill="#040415"/>
<path d="M44.5861 87.7051H42.0497V90.2415H44.5861V87.7051Z" fill="white"/>
<path d="M47.1226 87.7051H44.5862V90.2415H47.1226V87.7051Z" fill="#040415"/>
<path d="M49.659 87.7051H47.1226V90.2415H49.659V87.7051Z" fill="#040415"/>
<path d="M52.1953 87.7051H49.6589V90.2415H52.1953V87.7051Z" fill="#040415"/>
<path d="M54.7318 87.7051H52.1954V90.2415H54.7318V87.7051Z" fill="#040415"/>
<path d="M57.2682 87.7051H54.7318V90.2415H57.2682V87.7051Z" fill="white"/>
<path d="M59.8046 87.7051H57.2682V90.2415H59.8046V87.7051Z" fill="white"/>
<path d="M62.341 87.7051H59.8046V90.2415H62.341V87.7051Z" fill="#040415"/>
<path d="M64.8775 87.7051H62.3411V90.2415H64.8775V87.7051Z" fill="#040415"/>
<path d="M67.4139 87.7051H64.8774V90.2415H67.4139V87.7051Z" fill="#040415"/>
<path d="M69.9502 87.7051H67.4138V90.2415H69.9502V87.7051Z" fill="#040415"/>
<path d="M72.4866 87.7051H69.9502V90.2415H72.4866V87.7051Z" fill="#040415"/>
<path d="M75.0231 87.7051H72.4867V90.2415H75.0231V87.7051Z" fill="white"/>
<path d="M77.5595 87.7051H75.0231V90.2415H77.5595V87.7051Z" fill="white"/>
<path d="M80.0959 87.7051H77.5594V90.2415H80.0959V87.7051Z" fill="white"/>
<path d="M82.6324 87.7051H80.0959V90.2415H82.6324V87.7051Z" fill="white"/>
<path d="M85.1687 87.7051H82.6323V90.2415H85.1687V87.7051Z" fill="white"/>
<path d="M87.7051 87.7051H85.1687V90.2415H87.7051V87.7051Z" fill="white"/>
<path d="M90.2416 87.7051H87.7052V90.2415H90.2416V87.7051Z" fill="#040415"/>
<path d="M92.778 87.7051H90.2416V90.2415H92.778V87.7051Z" fill="white"/>
<path d="M21.7585 90.2415H19.222V92.7779H21.7585V90.2415Z" fill="#040415"/>
<path d="M24.2948 90.2415H21.7584V92.7779H24.2948V90.2415Z" fill="#040415"/>
<path d="M26.8312 90.2415H24.2948V92.7779H26.8312V90.2415Z" fill="#040415"/>
<path d="M29.3677 90.2415H26.8313V92.7779H29.3677V90.2415Z" fill="#040415"/>
<path d="M31.9041 90.2415H29.3677V92.7779H31.9041V90.2415Z" fill="#040415"/>
<path d="M34.4405 90.2415H31.9041V92.7779H34.4405V90.2415Z" fill="#040415"/>
<path d="M36.977 90.2415H34.4406V92.7779H36.977V90.2415Z" fill="#040415"/>
<path d="M39.5133 90.2415H36.9769V92.7779H39.5133V90.2415Z" fill="white"/>
<path d="M42.0497 90.2415H39.5133V92.7779H42.0497V90.2415Z" fill="#040415"/>
<path d="M44.5861 90.2415H42.0497V92.7779H44.5861V90.2415Z" fill="white"/>
<path d="M47.1226 90.2415H44.5862V92.7779H47.1226V90.2415Z" fill="#040415"/>
<path d="M49.659 90.2415H47.1226V92.7779H49.659V90.2415Z" fill="#040415"/>
<path d="M52.1953 90.2415H49.6589V92.7779H52.1953V90.2415Z" fill="white"/>
<path d="M54.7318 90.2415H52.1954V92.7779H54.7318V90.2415Z" fill="white"/>
<path d="M57.2682 90.2415H54.7318V92.7779H57.2682V90.2415Z" fill="#040415"/>
<path d="M59.8046 90.2415H57.2682V92.7779H59.8046V90.2415Z" fill="white"/>
<path d="M62.341 90.2415H59.8046V92.7779H62.341V90.2415Z" fill="#040415"/>
<path d="M64.8775 90.2415H62.3411V92.7779H64.8775V90.2415Z" fill="#040415"/>
<path d="M67.4139 90.2415H64.8774V92.7779H67.4139V90.2415Z" fill="#040415"/>
<path d="M69.9502 90.2415H67.4138V92.7779H69.9502V90.2415Z" fill="white"/>
<path d="M72.4866 90.2415H69.9502V92.7779H72.4866V90.2415Z" fill="#040415"/>
<path d="M75.0231 90.2415H72.4867V92.7779H75.0231V90.2415Z" fill="#040415"/>
<path d="M77.5595 90.2415H75.0231V92.7779H77.5595V90.2415Z" fill="white"/>
<path d="M80.0959 90.2415H77.5594V92.7779H80.0959V90.2415Z" fill="white"/>
<path d="M82.6324 90.2415H80.0959V92.7779H82.6324V90.2415Z" fill="white"/>
<path d="M85.1687 90.2415H82.6323V92.7779H85.1687V90.2415Z" fill="#040415"/>
<path d="M87.7051 90.2415H85.1687V92.7779H87.7051V90.2415Z" fill="white"/>
<path d="M90.2416 90.2415H87.7052V92.7779H90.2416V90.2415Z" fill="#040415"/>
<path d="M92.778 90.2415H90.2416V92.7779H92.778V90.2415Z" fill="white"/>
<defs>
<linearGradient id="paint0_linear_811_952" x1="112" y1="0" x2="-4.2928" y2="107.35" gradientUnits="userSpaceOnUse">
<stop stop-color="#A99BFF"/>
<stop offset="1" stop-color="#83F5E1"/>
</linearGradient>
</defs>
</svg>
