<svg width="161" height="161" viewBox="0 0 161 161" fill="none" xmlns="http://www.w3.org/2000/svg">
<rect width="161" height="161" rx="20" fill="white"/>
<path d="M114.514 79.615H97.0089C95.9689 79.6145 94.9556 79.9441 94.1148 80.5561C93.274 81.1682 92.649 82.0312 92.3299 83.021C91.494 85.6328 89.8488 87.911 87.6324 89.5259C85.4159 91.1408 82.7432 92.0087 80.0009 92.004C77.2585 92.009 74.5856 91.1412 72.3692 89.5262C70.1527 87.9113 68.5076 85.633 67.6719 83.021C67.3524 82.031 66.7271 81.1679 65.8859 80.5559C65.0448 79.9439 64.0311 79.6144 62.9909 79.615H45.4859C44.8399 79.6149 44.2002 79.742 43.6033 79.9892C43.0065 80.2363 42.4641 80.5986 42.0073 81.0554C41.5505 81.5122 41.1882 82.0546 40.9411 82.6514C40.6939 83.2483 40.5668 83.888 40.5669 84.534V112.588C40.5677 113.892 41.0863 115.143 42.0086 116.065C42.931 116.987 44.1817 117.505 45.4859 117.505H114.514C115.16 117.505 115.799 117.378 116.396 117.131C116.993 116.884 117.535 116.522 117.992 116.065C118.449 115.609 118.811 115.067 119.058 114.47C119.305 113.873 119.433 113.234 119.433 112.588V84.534C119.433 81.815 117.233 79.615 114.514 79.615Z" fill="#01CAB0"/>
<path d="M78.9681 82.237C79.2151 82.583 79.6191 82.79 80.0441 82.79H80.0471C80.4751 82.79 80.8731 82.583 81.1231 82.232L94.7271 63.099C94.8669 62.9005 94.9498 62.6676 94.9668 62.4254C94.9837 62.1832 94.934 61.941 94.8231 61.725C94.7119 61.5088 94.5432 61.3275 94.3355 61.2011C94.1278 61.0748 93.8892 61.0083 93.6461 61.009H87.2471V43.821C87.2471 43.086 86.6541 42.495 85.9241 42.495H74.0781C73.3461 42.495 72.7551 43.086 72.7551 43.821V61.009H66.3511C66.1083 61.0094 65.8704 61.0765 65.6633 61.203C65.4562 61.3295 65.2879 61.5106 65.1768 61.7264C65.0657 61.9422 65.0161 62.1844 65.0334 62.4265C65.0507 62.6686 65.1343 62.9012 65.2751 63.099L78.9681 82.237Z" fill="#01CAB0"/>
</svg>
