<svg width="220" height="220" viewBox="0 0 220 220" fill="none" xmlns="http://www.w3.org/2000/svg">
<g clip-path="url(#clip0_70_959)">
<path d="M220 0.000244141H0V220H220V0.000244141Z" fill="white"/>
<path d="M20.3197 13.677H13.6768V20.32H20.3197V13.677Z" fill="black"/>
<path d="M26.9627 13.677H20.3197V20.32H26.9627V13.677Z" fill="black"/>
<path d="M33.6057 13.677H26.9627V20.32H33.6057V13.677Z" fill="black"/>
<path d="M40.2487 13.677H33.6057V20.32H40.2487V13.677Z" fill="black"/>
<path d="M46.8916 13.677H40.2487V20.32H46.8916V13.677Z" fill="black"/>
<path d="M53.5346 13.677H46.8917V20.32H53.5346V13.677Z" fill="black"/>
<path d="M60.1776 13.677H53.5346V20.32H60.1776V13.677Z" fill="black"/>
<path d="M66.8206 13.677H60.1776V20.32H66.8206V13.677Z" fill="white"/>
<path d="M73.4636 13.677H66.8206V20.32H73.4636V13.677Z" fill="white"/>
<path d="M80.1066 13.677H73.4636V20.32H80.1066V13.677Z" fill="black"/>
<path d="M86.7496 13.677H80.1066V20.32H86.7496V13.677Z" fill="white"/>
<path d="M93.3926 13.677H86.7496V20.32H93.3926V13.677Z" fill="white"/>
<path d="M100.036 13.677H93.3925V20.32H100.036V13.677Z" fill="black"/>
<path d="M106.679 13.677H100.036V20.32H106.679V13.677Z" fill="white"/>
<path d="M113.322 13.677H106.679V20.32H113.322V13.677Z" fill="white"/>
<path d="M119.964 13.677H113.322V20.32H119.964V13.677Z" fill="black"/>
<path d="M126.607 13.677H119.964V20.32H126.607V13.677Z" fill="black"/>
<path d="M133.25 13.677H126.607V20.32H133.25V13.677Z" fill="white"/>
<path d="M139.893 13.677H133.25V20.32H139.893V13.677Z" fill="black"/>
<path d="M146.536 13.677H139.893V20.32H146.536V13.677Z" fill="black"/>
<path d="M153.179 13.677H146.536V20.32H153.179V13.677Z" fill="white"/>
<path d="M159.822 13.677H153.179V20.32H159.822V13.677Z" fill="white"/>
<path d="M166.465 13.677H159.822V20.32H166.465V13.677Z" fill="black"/>
<path d="M173.108 13.677H166.465V20.32H173.108V13.677Z" fill="black"/>
<path d="M179.751 13.677H173.108V20.32H179.751V13.677Z" fill="black"/>
<path d="M186.394 13.677H179.751V20.32H186.394V13.677Z" fill="black"/>
<path d="M193.037 13.677H186.394V20.32H193.037V13.677Z" fill="black"/>
<path d="M199.68 13.677H193.037V20.32H199.68V13.677Z" fill="black"/>
<path d="M206.323 13.677H199.68V20.32H206.323V13.677Z" fill="black"/>
<path d="M20.3197 20.3201H13.6768V26.9631H20.3197V20.3201Z" fill="black"/>
<path d="M26.9627 20.3201H20.3197V26.9631H26.9627V20.3201Z" fill="white"/>
<path d="M33.6057 20.3201H26.9627V26.9631H33.6057V20.3201Z" fill="white"/>
<path d="M40.2487 20.3201H33.6057V26.9631H40.2487V20.3201Z" fill="white"/>
<path d="M46.8916 20.3201H40.2487V26.9631H46.8916V20.3201Z" fill="white"/>
<path d="M53.5346 20.3201H46.8917V26.9631H53.5346V20.3201Z" fill="white"/>
<path d="M60.1776 20.3201H53.5346V26.9631H60.1776V20.3201Z" fill="black"/>
<path d="M66.8206 20.3201H60.1776V26.9631H66.8206V20.3201Z" fill="white"/>
<path d="M73.4636 20.3201H66.8206V26.9631H73.4636V20.3201Z" fill="black"/>
<path d="M80.1066 20.3201H73.4636V26.9631H80.1066V20.3201Z" fill="white"/>
<path d="M86.7496 20.3201H80.1066V26.9631H86.7496V20.3201Z" fill="white"/>
<path d="M93.3926 20.3201H86.7496V26.9631H93.3926V20.3201Z" fill="black"/>
<path d="M100.036 20.3201H93.3925V26.9631H100.036V20.3201Z" fill="black"/>
<path d="M106.679 20.3201H100.036V26.9631H106.679V20.3201Z" fill="black"/>
<path d="M113.322 20.3201H106.679V26.9631H113.322V20.3201Z" fill="black"/>
<path d="M119.964 20.3201H113.322V26.9631H119.964V20.3201Z" fill="black"/>
<path d="M126.607 20.3201H119.964V26.9631H126.607V20.3201Z" fill="black"/>
<path d="M133.25 20.3201H126.607V26.9631H133.25V20.3201Z" fill="black"/>
<path d="M139.893 20.3201H133.25V26.9631H139.893V20.3201Z" fill="black"/>
<path d="M146.536 20.3201H139.893V26.9631H146.536V20.3201Z" fill="white"/>
<path d="M153.179 20.3201H146.536V26.9631H153.179V20.3201Z" fill="black"/>
<path d="M159.822 20.3201H153.179V26.9631H159.822V20.3201Z" fill="white"/>
<path d="M166.465 20.3201H159.822V26.9631H166.465V20.3201Z" fill="black"/>
<path d="M173.108 20.3201H166.465V26.9631H173.108V20.3201Z" fill="white"/>
<path d="M179.751 20.3201H173.108V26.9631H179.751V20.3201Z" fill="white"/>
<path d="M186.394 20.3201H179.751V26.9631H186.394V20.3201Z" fill="white"/>
<path d="M193.037 20.3201H186.394V26.9631H193.037V20.3201Z" fill="white"/>
<path d="M199.68 20.3201H193.037V26.9631H199.68V20.3201Z" fill="white"/>
<path d="M206.323 20.3201H199.68V26.9631H206.323V20.3201Z" fill="black"/>
<path d="M20.3197 26.9629H13.6768V33.6059H20.3197V26.9629Z" fill="black"/>
<path d="M26.9627 26.9629H20.3197V33.6059H26.9627V26.9629Z" fill="white"/>
<path d="M33.6057 26.9629H26.9627V33.6059H33.6057V26.9629Z" fill="black"/>
<path d="M40.2487 26.9629H33.6057V33.6059H40.2487V26.9629Z" fill="black"/>
<path d="M46.8916 26.9629H40.2487V33.6059H46.8916V26.9629Z" fill="black"/>
<path d="M53.5346 26.9629H46.8917V33.6059H53.5346V26.9629Z" fill="white"/>
<path d="M60.1776 26.9629H53.5346V33.6059H60.1776V26.9629Z" fill="black"/>
<path d="M66.8206 26.9629H60.1776V33.6059H66.8206V26.9629Z" fill="white"/>
<path d="M73.4636 26.9629H66.8206V33.6059H73.4636V26.9629Z" fill="black"/>
<path d="M80.1066 26.9629H73.4636V33.6059H80.1066V26.9629Z" fill="black"/>
<path d="M86.7496 26.9629H80.1066V33.6059H86.7496V26.9629Z" fill="black"/>
<path d="M93.3926 26.9629H86.7496V33.6059H93.3926V26.9629Z" fill="black"/>
<path d="M100.036 26.9629H93.3925V33.6059H100.036V26.9629Z" fill="black"/>
<path d="M106.679 26.9629H100.036V33.6059H106.679V26.9629Z" fill="white"/>
<path d="M113.322 26.9629H106.679V33.6059H113.322V26.9629Z" fill="black"/>
<path d="M119.964 26.9629H113.322V33.6059H119.964V26.9629Z" fill="white"/>
<path d="M126.607 26.9629H119.964V33.6059H126.607V26.9629Z" fill="black"/>
<path d="M133.25 26.9629H126.607V33.6059H133.25V26.9629Z" fill="black"/>
<path d="M139.893 26.9629H133.25V33.6059H139.893V26.9629Z" fill="white"/>
<path d="M146.536 26.9629H139.893V33.6059H146.536V26.9629Z" fill="white"/>
<path d="M153.179 26.9629H146.536V33.6059H153.179V26.9629Z" fill="black"/>
<path d="M159.822 26.9629H153.179V33.6059H159.822V26.9629Z" fill="white"/>
<path d="M166.465 26.9629H159.822V33.6059H166.465V26.9629Z" fill="black"/>
<path d="M173.108 26.9629H166.465V33.6059H173.108V26.9629Z" fill="white"/>
<path d="M179.751 26.9629H173.108V33.6059H179.751V26.9629Z" fill="black"/>
<path d="M186.394 26.9629H179.751V33.6059H186.394V26.9629Z" fill="black"/>
<path d="M193.037 26.9629H186.394V33.6059H193.037V26.9629Z" fill="black"/>
<path d="M199.68 26.9629H193.037V33.6059H199.68V26.9629Z" fill="white"/>
<path d="M206.323 26.9629H199.68V33.6059H206.323V26.9629Z" fill="black"/>
<path d="M20.3197 33.606H13.6768V40.2489H20.3197V33.606Z" fill="black"/>
<path d="M26.9627 33.606H20.3197V40.2489H26.9627V33.606Z" fill="white"/>
<path d="M33.6057 33.606H26.9627V40.2489H33.6057V33.606Z" fill="black"/>
<path d="M40.2487 33.606H33.6057V40.2489H40.2487V33.606Z" fill="black"/>
<path d="M46.8916 33.606H40.2487V40.2489H46.8916V33.606Z" fill="black"/>
<path d="M53.5346 33.606H46.8917V40.2489H53.5346V33.606Z" fill="white"/>
<path d="M60.1776 33.606H53.5346V40.2489H60.1776V33.606Z" fill="black"/>
<path d="M66.8206 33.606H60.1776V40.2489H66.8206V33.606Z" fill="white"/>
<path d="M73.4636 33.606H66.8206V40.2489H73.4636V33.606Z" fill="white"/>
<path d="M80.1066 33.606H73.4636V40.2489H80.1066V33.606Z" fill="black"/>
<path d="M86.7496 33.606H80.1066V40.2489H86.7496V33.606Z" fill="black"/>
<path d="M93.3926 33.606H86.7496V40.2489H93.3926V33.606Z" fill="black"/>
<path d="M100.036 33.606H93.3925V40.2489H100.036V33.606Z" fill="white"/>
<path d="M106.679 33.606H100.036V40.2489H106.679V33.606Z" fill="white"/>
<path d="M113.322 33.606H106.679V40.2489H113.322V33.606Z" fill="white"/>
<path d="M119.964 33.606H113.322V40.2489H119.964V33.606Z" fill="white"/>
<path d="M126.607 33.606H119.964V40.2489H126.607V33.606Z" fill="black"/>
<path d="M133.25 33.606H126.607V40.2489H133.25V33.606Z" fill="white"/>
<path d="M139.893 33.606H133.25V40.2489H139.893V33.606Z" fill="white"/>
<path d="M146.536 33.606H139.893V40.2489H146.536V33.606Z" fill="white"/>
<path d="M153.179 33.606H146.536V40.2489H153.179V33.606Z" fill="white"/>
<path d="M159.822 33.606H153.179V40.2489H159.822V33.606Z" fill="white"/>
<path d="M166.465 33.606H159.822V40.2489H166.465V33.606Z" fill="black"/>
<path d="M173.108 33.606H166.465V40.2489H173.108V33.606Z" fill="white"/>
<path d="M179.751 33.606H173.108V40.2489H179.751V33.606Z" fill="black"/>
<path d="M186.394 33.606H179.751V40.2489H186.394V33.606Z" fill="black"/>
<path d="M193.037 33.606H186.394V40.2489H193.037V33.606Z" fill="black"/>
<path d="M199.68 33.606H193.037V40.2489H199.68V33.606Z" fill="white"/>
<path d="M206.323 33.606H199.68V40.2489H206.323V33.606Z" fill="black"/>
<path d="M20.3197 40.249H13.6768V46.892H20.3197V40.249Z" fill="black"/>
<path d="M26.9627 40.249H20.3197V46.892H26.9627V40.249Z" fill="white"/>
<path d="M33.6057 40.249H26.9627V46.892H33.6057V40.249Z" fill="black"/>
<path d="M40.2487 40.249H33.6057V46.892H40.2487V40.249Z" fill="black"/>
<path d="M46.8916 40.249H40.2487V46.892H46.8916V40.249Z" fill="black"/>
<path d="M53.5346 40.249H46.8917V46.892H53.5346V40.249Z" fill="white"/>
<path d="M60.1776 40.249H53.5346V46.892H60.1776V40.249Z" fill="black"/>
<path d="M66.8206 40.249H60.1776V46.892H66.8206V40.249Z" fill="white"/>
<path d="M73.4636 40.249H66.8206V46.892H73.4636V40.249Z" fill="black"/>
<path d="M80.1066 40.249H73.4636V46.892H80.1066V40.249Z" fill="white"/>
<path d="M86.7496 40.249H80.1066V46.892H86.7496V40.249Z" fill="white"/>
<path d="M93.3926 40.249H86.7496V46.892H93.3926V40.249Z" fill="white"/>
<path d="M100.036 40.249H93.3925V46.892H100.036V40.249Z" fill="white"/>
<path d="M106.679 40.249H100.036V46.892H106.679V40.249Z" fill="white"/>
<path d="M113.322 40.249H106.679V46.892H113.322V40.249Z" fill="white"/>
<path d="M119.964 40.249H113.322V46.892H119.964V40.249Z" fill="black"/>
<path d="M126.607 40.249H119.964V46.892H126.607V40.249Z" fill="white"/>
<path d="M133.25 40.249H126.607V46.892H133.25V40.249Z" fill="black"/>
<path d="M139.893 40.249H133.25V46.892H139.893V40.249Z" fill="black"/>
<path d="M146.536 40.249H139.893V46.892H146.536V40.249Z" fill="white"/>
<path d="M153.179 40.249H146.536V46.892H153.179V40.249Z" fill="white"/>
<path d="M159.822 40.249H153.179V46.892H159.822V40.249Z" fill="white"/>
<path d="M166.465 40.249H159.822V46.892H166.465V40.249Z" fill="black"/>
<path d="M173.108 40.249H166.465V46.892H173.108V40.249Z" fill="white"/>
<path d="M179.751 40.249H173.108V46.892H179.751V40.249Z" fill="black"/>
<path d="M186.394 40.249H179.751V46.892H186.394V40.249Z" fill="black"/>
<path d="M193.037 40.249H186.394V46.892H193.037V40.249Z" fill="black"/>
<path d="M199.68 40.249H193.037V46.892H199.68V40.249Z" fill="white"/>
<path d="M206.323 40.249H199.68V46.892H206.323V40.249Z" fill="black"/>
<path d="M20.3197 46.8918H13.6768V53.5348H20.3197V46.8918Z" fill="black"/>
<path d="M26.9627 46.8918H20.3197V53.5348H26.9627V46.8918Z" fill="white"/>
<path d="M33.6057 46.8918H26.9627V53.5348H33.6057V46.8918Z" fill="white"/>
<path d="M40.2487 46.8918H33.6057V53.5348H40.2487V46.8918Z" fill="white"/>
<path d="M46.8916 46.8918H40.2487V53.5348H46.8916V46.8918Z" fill="white"/>
<path d="M53.5346 46.8918H46.8917V53.5348H53.5346V46.8918Z" fill="white"/>
<path d="M60.1776 46.8918H53.5346V53.5348H60.1776V46.8918Z" fill="black"/>
<path d="M66.8206 46.8918H60.1776V53.5348H66.8206V46.8918Z" fill="white"/>
<path d="M73.4636 46.8918H66.8206V53.5348H73.4636V46.8918Z" fill="black"/>
<path d="M80.1066 46.8918H73.4636V53.5348H80.1066V46.8918Z" fill="black"/>
<path d="M86.7496 46.8918H80.1066V53.5348H86.7496V46.8918Z" fill="white"/>
<path d="M93.3926 46.8918H86.7496V53.5348H93.3926V46.8918Z" fill="black"/>
<path d="M100.036 46.8918H93.3925V53.5348H100.036V46.8918Z" fill="white"/>
<path d="M106.679 46.8918H100.036V53.5348H106.679V46.8918Z" fill="white"/>
<path d="M113.322 46.8918H106.679V53.5348H113.322V46.8918Z" fill="white"/>
<path d="M119.964 46.8918H113.322V53.5348H119.964V46.8918Z" fill="black"/>
<path d="M126.607 46.8918H119.964V53.5348H126.607V46.8918Z" fill="white"/>
<path d="M133.25 46.8918H126.607V53.5348H133.25V46.8918Z" fill="black"/>
<path d="M139.893 46.8918H133.25V53.5348H139.893V46.8918Z" fill="black"/>
<path d="M146.536 46.8918H139.893V53.5348H146.536V46.8918Z" fill="black"/>
<path d="M153.179 46.8918H146.536V53.5348H153.179V46.8918Z" fill="black"/>
<path d="M159.822 46.8918H153.179V53.5348H159.822V46.8918Z" fill="white"/>
<path d="M166.465 46.8918H159.822V53.5348H166.465V46.8918Z" fill="black"/>
<path d="M173.108 46.8918H166.465V53.5348H173.108V46.8918Z" fill="white"/>
<path d="M179.751 46.8918H173.108V53.5348H179.751V46.8918Z" fill="white"/>
<path d="M186.394 46.8918H179.751V53.5348H186.394V46.8918Z" fill="white"/>
<path d="M193.037 46.8918H186.394V53.5348H193.037V46.8918Z" fill="white"/>
<path d="M199.68 46.8918H193.037V53.5348H199.68V46.8918Z" fill="white"/>
<path d="M206.323 46.8918H199.68V53.5348H206.323V46.8918Z" fill="black"/>
<path d="M20.3197 53.5349H13.6768V60.1779H20.3197V53.5349Z" fill="black"/>
<path d="M26.9627 53.5349H20.3197V60.1779H26.9627V53.5349Z" fill="black"/>
<path d="M33.6057 53.5349H26.9627V60.1779H33.6057V53.5349Z" fill="black"/>
<path d="M40.2487 53.5349H33.6057V60.1779H40.2487V53.5349Z" fill="black"/>
<path d="M46.8916 53.5349H40.2487V60.1779H46.8916V53.5349Z" fill="black"/>
<path d="M53.5346 53.5349H46.8917V60.1779H53.5346V53.5349Z" fill="black"/>
<path d="M60.1776 53.5349H53.5346V60.1779H60.1776V53.5349Z" fill="black"/>
<path d="M66.8206 53.5349H60.1776V60.1779H66.8206V53.5349Z" fill="white"/>
<path d="M73.4636 53.5349H66.8206V60.1779H73.4636V53.5349Z" fill="black"/>
<path d="M80.1066 53.5349H73.4636V60.1779H80.1066V53.5349Z" fill="white"/>
<path d="M86.7496 53.5349H80.1066V60.1779H86.7496V53.5349Z" fill="black"/>
<path d="M93.3926 53.5349H86.7496V60.1779H93.3926V53.5349Z" fill="white"/>
<path d="M100.036 53.5349H93.3925V60.1779H100.036V53.5349Z" fill="black"/>
<path d="M106.679 53.5349H100.036V60.1779H106.679V53.5349Z" fill="white"/>
<path d="M113.322 53.5349H106.679V60.1779H113.322V53.5349Z" fill="black"/>
<path d="M119.964 53.5349H113.322V60.1779H119.964V53.5349Z" fill="white"/>
<path d="M126.607 53.5349H119.964V60.1779H126.607V53.5349Z" fill="black"/>
<path d="M133.25 53.5349H126.607V60.1779H133.25V53.5349Z" fill="white"/>
<path d="M139.893 53.5349H133.25V60.1779H139.893V53.5349Z" fill="black"/>
<path d="M146.536 53.5349H139.893V60.1779H146.536V53.5349Z" fill="white"/>
<path d="M153.179 53.5349H146.536V60.1779H153.179V53.5349Z" fill="black"/>
<path d="M159.822 53.5349H153.179V60.1779H159.822V53.5349Z" fill="white"/>
<path d="M166.465 53.5349H159.822V60.1779H166.465V53.5349Z" fill="black"/>
<path d="M173.108 53.5349H166.465V60.1779H173.108V53.5349Z" fill="black"/>
<path d="M179.751 53.5349H173.108V60.1779H179.751V53.5349Z" fill="black"/>
<path d="M186.394 53.5349H179.751V60.1779H186.394V53.5349Z" fill="black"/>
<path d="M193.037 53.5349H186.394V60.1779H193.037V53.5349Z" fill="black"/>
<path d="M199.68 53.5349H193.037V60.1779H199.68V53.5349Z" fill="black"/>
<path d="M206.323 53.5349H199.68V60.1779H206.323V53.5349Z" fill="black"/>
<path d="M20.3197 60.1779H13.6768V66.8208H20.3197V60.1779Z" fill="white"/>
<path d="M26.9627 60.1779H20.3197V66.8208H26.9627V60.1779Z" fill="white"/>
<path d="M33.6057 60.1779H26.9627V66.8208H33.6057V60.1779Z" fill="white"/>
<path d="M40.2487 60.1779H33.6057V66.8208H40.2487V60.1779Z" fill="white"/>
<path d="M46.8916 60.1779H40.2487V66.8208H46.8916V60.1779Z" fill="white"/>
<path d="M53.5346 60.1779H46.8917V66.8208H53.5346V60.1779Z" fill="white"/>
<path d="M60.1776 60.1779H53.5346V66.8208H60.1776V60.1779Z" fill="white"/>
<path d="M66.8206 60.1779H60.1776V66.8208H66.8206V60.1779Z" fill="white"/>
<path d="M73.4636 60.1779H66.8206V66.8208H73.4636V60.1779Z" fill="black"/>
<path d="M80.1066 60.1779H73.4636V66.8208H80.1066V60.1779Z" fill="black"/>
<path d="M86.7496 60.1779H80.1066V66.8208H86.7496V60.1779Z" fill="white"/>
<path d="M93.3926 60.1779H86.7496V66.8208H93.3926V60.1779Z" fill="white"/>
<path d="M100.036 60.1779H93.3925V66.8208H100.036V60.1779Z" fill="black"/>
<path d="M106.679 60.1779H100.036V66.8208H106.679V60.1779Z" fill="white"/>
<path d="M113.322 60.1779H106.679V66.8208H113.322V60.1779Z" fill="black"/>
<path d="M119.964 60.1779H113.322V66.8208H119.964V60.1779Z" fill="white"/>
<path d="M126.607 60.1779H119.964V66.8208H126.607V60.1779Z" fill="black"/>
<path d="M133.25 60.1779H126.607V66.8208H133.25V60.1779Z" fill="black"/>
<path d="M139.893 60.1779H133.25V66.8208H139.893V60.1779Z" fill="black"/>
<path d="M146.536 60.1779H139.893V66.8208H146.536V60.1779Z" fill="black"/>
<path d="M153.179 60.1779H146.536V66.8208H153.179V60.1779Z" fill="black"/>
<path d="M159.822 60.1779H153.179V66.8208H159.822V60.1779Z" fill="white"/>
<path d="M166.465 60.1779H159.822V66.8208H166.465V60.1779Z" fill="white"/>
<path d="M173.108 60.1779H166.465V66.8208H173.108V60.1779Z" fill="white"/>
<path d="M179.751 60.1779H173.108V66.8208H179.751V60.1779Z" fill="white"/>
<path d="M186.394 60.1779H179.751V66.8208H186.394V60.1779Z" fill="white"/>
<path d="M193.037 60.1779H186.394V66.8208H193.037V60.1779Z" fill="white"/>
<path d="M199.68 60.1779H193.037V66.8208H199.68V60.1779Z" fill="white"/>
<path d="M206.323 60.1779H199.68V66.8208H206.323V60.1779Z" fill="white"/>
<path d="M20.3197 66.8208H13.6768V73.4638H20.3197V66.8208Z" fill="black"/>
<path d="M26.9627 66.8208H20.3197V73.4638H26.9627V66.8208Z" fill="black"/>
<path d="M33.6057 66.8208H26.9627V73.4638H33.6057V66.8208Z" fill="white"/>
<path d="M40.2487 66.8208H33.6057V73.4638H40.2487V66.8208Z" fill="black"/>
<path d="M46.8916 66.8208H40.2487V73.4638H46.8916V66.8208Z" fill="white"/>
<path d="M53.5346 66.8208H46.8917V73.4638H53.5346V66.8208Z" fill="white"/>
<path d="M60.1776 66.8208H53.5346V73.4638H60.1776V66.8208Z" fill="black"/>
<path d="M66.8206 66.8208H60.1776V73.4638H66.8206V66.8208Z" fill="black"/>
<path d="M73.4636 66.8208H66.8206V73.4638H73.4636V66.8208Z" fill="white"/>
<path d="M80.1066 66.8208H73.4636V73.4638H80.1066V66.8208Z" fill="white"/>
<path d="M86.7496 66.8208H80.1066V73.4638H86.7496V66.8208Z" fill="black"/>
<path d="M93.3926 66.8208H86.7496V73.4638H93.3926V66.8208Z" fill="white"/>
<path d="M100.036 66.8208H93.3925V73.4638H100.036V66.8208Z" fill="black"/>
<path d="M106.679 66.8208H100.036V73.4638H106.679V66.8208Z" fill="black"/>
<path d="M113.322 66.8208H106.679V73.4638H113.322V66.8208Z" fill="black"/>
<path d="M119.964 66.8208H113.322V73.4638H119.964V66.8208Z" fill="white"/>
<path d="M126.607 66.8208H119.964V73.4638H126.607V66.8208Z" fill="white"/>
<path d="M133.25 66.8208H126.607V73.4638H133.25V66.8208Z" fill="black"/>
<path d="M139.893 66.8208H133.25V73.4638H139.893V66.8208Z" fill="white"/>
<path d="M146.536 66.8208H139.893V73.4638H146.536V66.8208Z" fill="black"/>
<path d="M153.179 66.8208H146.536V73.4638H153.179V66.8208Z" fill="white"/>
<path d="M159.822 66.8208H153.179V73.4638H159.822V66.8208Z" fill="white"/>
<path d="M166.465 66.8208H159.822V73.4638H166.465V66.8208Z" fill="black"/>
<path d="M173.108 66.8208H166.465V73.4638H173.108V66.8208Z" fill="black"/>
<path d="M179.751 66.8208H173.108V73.4638H179.751V66.8208Z" fill="black"/>
<path d="M186.394 66.8208H179.751V73.4638H186.394V66.8208Z" fill="white"/>
<path d="M193.037 66.8208H186.394V73.4638H193.037V66.8208Z" fill="black"/>
<path d="M199.68 66.8208H193.037V73.4638H199.68V66.8208Z" fill="black"/>
<path d="M206.323 66.8208H199.68V73.4638H206.323V66.8208Z" fill="white"/>
<path d="M20.3197 73.4639H13.6768V80.1069H20.3197V73.4639Z" fill="black"/>
<path d="M26.9627 73.4639H20.3197V80.1069H26.9627V73.4639Z" fill="black"/>
<path d="M33.6057 73.4639H26.9627V80.1069H33.6057V73.4639Z" fill="black"/>
<path d="M40.2487 73.4639H33.6057V80.1069H40.2487V73.4639Z" fill="white"/>
<path d="M46.8916 73.4639H40.2487V80.1069H46.8916V73.4639Z" fill="black"/>
<path d="M53.5346 73.4639H46.8917V80.1069H53.5346V73.4639Z" fill="black"/>
<path d="M60.1776 73.4639H53.5346V80.1069H60.1776V73.4639Z" fill="white"/>
<path d="M66.8206 73.4639H60.1776V80.1069H66.8206V73.4639Z" fill="black"/>
<path d="M73.4636 73.4639H66.8206V80.1069H73.4636V73.4639Z" fill="black"/>
<path d="M80.1066 73.4639H73.4636V80.1069H80.1066V73.4639Z" fill="white"/>
<path d="M86.7496 73.4639H80.1066V80.1069H86.7496V73.4639Z" fill="black"/>
<path d="M93.3926 73.4639H86.7496V80.1069H93.3926V73.4639Z" fill="black"/>
<path d="M100.036 73.4639H93.3925V80.1069H100.036V73.4639Z" fill="white"/>
<path d="M106.679 73.4639H100.036V80.1069H106.679V73.4639Z" fill="black"/>
<path d="M113.322 73.4639H106.679V80.1069H113.322V73.4639Z" fill="white"/>
<path d="M119.964 73.4639H113.322V80.1069H119.964V73.4639Z" fill="white"/>
<path d="M126.607 73.4639H119.964V80.1069H126.607V73.4639Z" fill="white"/>
<path d="M133.25 73.4639H126.607V80.1069H133.25V73.4639Z" fill="black"/>
<path d="M139.893 73.4639H133.25V80.1069H139.893V73.4639Z" fill="black"/>
<path d="M146.536 73.4639H139.893V80.1069H146.536V73.4639Z" fill="white"/>
<path d="M153.179 73.4639H146.536V80.1069H153.179V73.4639Z" fill="white"/>
<path d="M159.822 73.4639H153.179V80.1069H159.822V73.4639Z" fill="black"/>
<path d="M166.465 73.4639H159.822V80.1069H166.465V73.4639Z" fill="black"/>
<path d="M173.108 73.4639H166.465V80.1069H173.108V73.4639Z" fill="black"/>
<path d="M179.751 73.4639H173.108V80.1069H179.751V73.4639Z" fill="white"/>
<path d="M186.394 73.4639H179.751V80.1069H186.394V73.4639Z" fill="black"/>
<path d="M193.037 73.4639H186.394V80.1069H193.037V73.4639Z" fill="white"/>
<path d="M199.68 73.4639H193.037V80.1069H199.68V73.4639Z" fill="white"/>
<path d="M206.323 73.4639H199.68V80.1069H206.323V73.4639Z" fill="black"/>
<path d="M20.3197 80.1068H13.6768V86.7498H20.3197V80.1068Z" fill="black"/>
<path d="M26.9627 80.1068H20.3197V86.7498H26.9627V80.1068Z" fill="black"/>
<path d="M33.6057 80.1068H26.9627V86.7498H33.6057V80.1068Z" fill="black"/>
<path d="M40.2487 80.1068H33.6057V86.7498H40.2487V80.1068Z" fill="white"/>
<path d="M46.8916 80.1068H40.2487V86.7498H46.8916V80.1068Z" fill="black"/>
<path d="M53.5346 80.1068H46.8917V86.7498H53.5346V80.1068Z" fill="black"/>
<path d="M60.1776 80.1068H53.5346V86.7498H60.1776V80.1068Z" fill="black"/>
<path d="M66.8206 80.1068H60.1776V86.7498H66.8206V80.1068Z" fill="white"/>
<path d="M73.4636 80.1068H66.8206V86.7498H73.4636V80.1068Z" fill="white"/>
<path d="M80.1066 80.1068H73.4636V86.7498H80.1066V80.1068Z" fill="black"/>
<path d="M86.7496 80.1068H80.1066V86.7498H86.7496V80.1068Z" fill="black"/>
<path d="M93.3926 80.1068H86.7496V86.7498H93.3926V80.1068Z" fill="white"/>
<path d="M100.036 80.1068H93.3925V86.7498H100.036V80.1068Z" fill="white"/>
<path d="M106.679 80.1068H100.036V86.7498H106.679V80.1068Z" fill="black"/>
<path d="M113.322 80.1068H106.679V86.7498H113.322V80.1068Z" fill="black"/>
<path d="M119.964 80.1068H113.322V86.7498H119.964V80.1068Z" fill="white"/>
<path d="M126.607 80.1068H119.964V86.7498H126.607V80.1068Z" fill="black"/>
<path d="M133.25 80.1068H126.607V86.7498H133.25V80.1068Z" fill="white"/>
<path d="M139.893 80.1068H133.25V86.7498H139.893V80.1068Z" fill="white"/>
<path d="M146.536 80.1068H139.893V86.7498H146.536V80.1068Z" fill="black"/>
<path d="M153.179 80.1068H146.536V86.7498H153.179V80.1068Z" fill="white"/>
<path d="M159.822 80.1068H153.179V86.7498H159.822V80.1068Z" fill="black"/>
<path d="M166.465 80.1068H159.822V86.7498H166.465V80.1068Z" fill="black"/>
<path d="M173.108 80.1068H166.465V86.7498H173.108V80.1068Z" fill="white"/>
<path d="M179.751 80.1068H173.108V86.7498H179.751V80.1068Z" fill="white"/>
<path d="M186.394 80.1068H179.751V86.7498H186.394V80.1068Z" fill="black"/>
<path d="M193.037 80.1068H186.394V86.7498H193.037V80.1068Z" fill="black"/>
<path d="M199.68 80.1068H193.037V86.7498H199.68V80.1068Z" fill="black"/>
<path d="M206.323 80.1068H199.68V86.7498H206.323V80.1068Z" fill="white"/>
<path d="M20.3197 86.7498H13.6768V93.3927H20.3197V86.7498Z" fill="white"/>
<path d="M26.9627 86.7498H20.3197V93.3927H26.9627V86.7498Z" fill="black"/>
<path d="M33.6057 86.7498H26.9627V93.3927H33.6057V86.7498Z" fill="black"/>
<path d="M40.2487 86.7498H33.6057V93.3927H40.2487V86.7498Z" fill="white"/>
<path d="M46.8916 86.7498H40.2487V93.3927H46.8916V86.7498Z" fill="white"/>
<path d="M53.5346 86.7498H46.8917V93.3927H53.5346V86.7498Z" fill="black"/>
<path d="M60.1776 86.7498H53.5346V93.3927H60.1776V86.7498Z" fill="white"/>
<path d="M66.8206 86.7498H60.1776V93.3927H66.8206V86.7498Z" fill="white"/>
<path d="M73.4636 86.7498H66.8206V93.3927H73.4636V86.7498Z" fill="white"/>
<path d="M80.1066 86.7498H73.4636V93.3927H80.1066V86.7498Z" fill="white"/>
<path d="M86.7496 86.7498H80.1066V93.3927H86.7496V86.7498Z" fill="white"/>
<path d="M93.3926 86.7498H86.7496V93.3927H93.3926V86.7498Z" fill="white"/>
<path d="M100.036 86.7498H93.3925V93.3927H100.036V86.7498Z" fill="black"/>
<path d="M106.679 86.7498H100.036V93.3927H106.679V86.7498Z" fill="black"/>
<path d="M113.322 86.7498H106.679V93.3927H113.322V86.7498Z" fill="white"/>
<path d="M119.964 86.7498H113.322V93.3927H119.964V86.7498Z" fill="white"/>
<path d="M126.607 86.7498H119.964V93.3927H126.607V86.7498Z" fill="white"/>
<path d="M133.25 86.7498H126.607V93.3927H133.25V86.7498Z" fill="white"/>
<path d="M139.893 86.7498H133.25V93.3927H139.893V86.7498Z" fill="white"/>
<path d="M146.536 86.7498H139.893V93.3927H146.536V86.7498Z" fill="white"/>
<path d="M153.179 86.7498H146.536V93.3927H153.179V86.7498Z" fill="black"/>
<path d="M159.822 86.7498H153.179V93.3927H159.822V86.7498Z" fill="black"/>
<path d="M166.465 86.7498H159.822V93.3927H166.465V86.7498Z" fill="black"/>
<path d="M173.108 86.7498H166.465V93.3927H173.108V86.7498Z" fill="black"/>
<path d="M179.751 86.7498H173.108V93.3927H179.751V86.7498Z" fill="black"/>
<path d="M186.394 86.7498H179.751V93.3927H186.394V86.7498Z" fill="white"/>
<path d="M193.037 86.7498H186.394V93.3927H193.037V86.7498Z" fill="black"/>
<path d="M199.68 86.7498H193.037V93.3927H199.68V86.7498Z" fill="black"/>
<path d="M206.323 86.7498H199.68V93.3927H206.323V86.7498Z" fill="white"/>
<path d="M20.3197 93.3928H13.6768V100.036H20.3197V93.3928Z" fill="black"/>
<path d="M26.9627 93.3928H20.3197V100.036H26.9627V93.3928Z" fill="black"/>
<path d="M33.6057 93.3928H26.9627V100.036H33.6057V93.3928Z" fill="white"/>
<path d="M40.2487 93.3928H33.6057V100.036H40.2487V93.3928Z" fill="white"/>
<path d="M46.8916 93.3928H40.2487V100.036H46.8916V93.3928Z" fill="white"/>
<path d="M53.5346 93.3928H46.8917V100.036H53.5346V93.3928Z" fill="black"/>
<path d="M60.1776 93.3928H53.5346V100.036H60.1776V93.3928Z" fill="black"/>
<path d="M66.8206 93.3928H60.1776V100.036H66.8206V93.3928Z" fill="black"/>
<path d="M73.4636 93.3928H66.8206V100.036H73.4636V93.3928Z" fill="white"/>
<path d="M80.1066 93.3928H73.4636V100.036H80.1066V93.3928Z" fill="white"/>
<path d="M86.7496 93.3928H80.1066V100.036H86.7496V93.3928Z" fill="white"/>
<path d="M93.3926 93.3928H86.7496V100.036H93.3926V93.3928Z" fill="white"/>
<path d="M100.036 93.3928H93.3925V100.036H100.036V93.3928Z" fill="black"/>
<path d="M106.679 93.3928H100.036V100.036H106.679V93.3928Z" fill="black"/>
<path d="M113.322 93.3928H106.679V100.036H113.322V93.3928Z" fill="white"/>
<path d="M119.964 93.3928H113.322V100.036H119.964V93.3928Z" fill="white"/>
<path d="M126.607 93.3928H119.964V100.036H126.607V93.3928Z" fill="white"/>
<path d="M133.25 93.3928H126.607V100.036H133.25V93.3928Z" fill="black"/>
<path d="M139.893 93.3928H133.25V100.036H139.893V93.3928Z" fill="black"/>
<path d="M146.536 93.3928H139.893V100.036H146.536V93.3928Z" fill="black"/>
<path d="M153.179 93.3928H146.536V100.036H153.179V93.3928Z" fill="black"/>
<path d="M159.822 93.3928H153.179V100.036H159.822V93.3928Z" fill="black"/>
<path d="M166.465 93.3928H159.822V100.036H166.465V93.3928Z" fill="black"/>
<path d="M173.108 93.3928H166.465V100.036H173.108V93.3928Z" fill="white"/>
<path d="M179.751 93.3928H173.108V100.036H179.751V93.3928Z" fill="white"/>
<path d="M186.394 93.3928H179.751V100.036H186.394V93.3928Z" fill="black"/>
<path d="M193.037 93.3928H186.394V100.036H193.037V93.3928Z" fill="white"/>
<path d="M199.68 93.3928H193.037V100.036H199.68V93.3928Z" fill="black"/>
<path d="M206.323 93.3928H199.68V100.036H206.323V93.3928Z" fill="black"/>
<path d="M20.3197 100.036H13.6768V106.679H20.3197V100.036Z" fill="black"/>
<path d="M26.9627 100.036H20.3197V106.679H26.9627V100.036Z" fill="white"/>
<path d="M33.6057 100.036H26.9627V106.679H33.6057V100.036Z" fill="black"/>
<path d="M40.2487 100.036H33.6057V106.679H40.2487V100.036Z" fill="white"/>
<path d="M46.8916 100.036H40.2487V106.679H46.8916V100.036Z" fill="black"/>
<path d="M53.5346 100.036H46.8917V106.679H53.5346V100.036Z" fill="black"/>
<path d="M60.1776 100.036H53.5346V106.679H60.1776V100.036Z" fill="white"/>
<path d="M66.8206 100.036H60.1776V106.679H66.8206V100.036Z" fill="white"/>
<path d="M73.4636 100.036H66.8206V106.679H73.4636V100.036Z" fill="white"/>
<path d="M80.1066 100.036H73.4636V106.679H80.1066V100.036Z" fill="white"/>
<path d="M86.7496 100.036H80.1066V106.679H86.7496V100.036Z" fill="black"/>
<path d="M93.3926 100.036H86.7496V106.679H93.3926V100.036Z" fill="white"/>
<path d="M100.036 100.036H93.3925V106.679H100.036V100.036Z" fill="black"/>
<path d="M106.679 100.036H100.036V106.679H106.679V100.036Z" fill="white"/>
<path d="M113.322 100.036H106.679V106.679H113.322V100.036Z" fill="white"/>
<path d="M119.964 100.036H113.322V106.679H119.964V100.036Z" fill="white"/>
<path d="M126.607 100.036H119.964V106.679H126.607V100.036Z" fill="black"/>
<path d="M133.25 100.036H126.607V106.679H133.25V100.036Z" fill="black"/>
<path d="M139.893 100.036H133.25V106.679H139.893V100.036Z" fill="black"/>
<path d="M146.536 100.036H139.893V106.679H146.536V100.036Z" fill="black"/>
<path d="M153.179 100.036H146.536V106.679H153.179V100.036Z" fill="black"/>
<path d="M159.822 100.036H153.179V106.679H159.822V100.036Z" fill="black"/>
<path d="M166.465 100.036H159.822V106.679H166.465V100.036Z" fill="white"/>
<path d="M173.108 100.036H166.465V106.679H173.108V100.036Z" fill="white"/>
<path d="M179.751 100.036H173.108V106.679H179.751V100.036Z" fill="white"/>
<path d="M186.394 100.036H179.751V106.679H186.394V100.036Z" fill="white"/>
<path d="M193.037 100.036H186.394V106.679H193.037V100.036Z" fill="white"/>
<path d="M199.68 100.036H193.037V106.679H199.68V100.036Z" fill="white"/>
<path d="M206.323 100.036H199.68V106.679H206.323V100.036Z" fill="white"/>
<path d="M20.3197 106.679H13.6768V113.322H20.3197V106.679Z" fill="white"/>
<path d="M26.9627 106.679H20.3197V113.322H26.9627V106.679Z" fill="white"/>
<path d="M33.6057 106.679H26.9627V113.322H33.6057V106.679Z" fill="white"/>
<path d="M40.2487 106.679H33.6057V113.322H40.2487V106.679Z" fill="white"/>
<path d="M46.8916 106.679H40.2487V113.322H46.8916V106.679Z" fill="black"/>
<path d="M53.5346 106.679H46.8917V113.322H53.5346V106.679Z" fill="white"/>
<path d="M60.1776 106.679H53.5346V113.322H60.1776V106.679Z" fill="black"/>
<path d="M66.8206 106.679H60.1776V113.322H66.8206V106.679Z" fill="white"/>
<path d="M73.4636 106.679H66.8206V113.322H73.4636V106.679Z" fill="black"/>
<path d="M80.1066 106.679H73.4636V113.322H80.1066V106.679Z" fill="black"/>
<path d="M86.7496 106.679H80.1066V113.322H86.7496V106.679Z" fill="white"/>
<path d="M93.3926 106.679H86.7496V113.322H93.3926V106.679Z" fill="black"/>
<path d="M100.036 106.679H93.3925V113.322H100.036V106.679Z" fill="white"/>
<path d="M106.679 106.679H100.036V113.322H106.679V106.679Z" fill="black"/>
<path d="M113.322 106.679H106.679V113.322H113.322V106.679Z" fill="black"/>
<path d="M119.964 106.679H113.322V113.322H119.964V106.679Z" fill="white"/>
<path d="M126.607 106.679H119.964V113.322H126.607V106.679Z" fill="black"/>
<path d="M133.25 106.679H126.607V113.322H133.25V106.679Z" fill="black"/>
<path d="M139.893 106.679H133.25V113.322H139.893V106.679Z" fill="white"/>
<path d="M146.536 106.679H139.893V113.322H146.536V106.679Z" fill="white"/>
<path d="M153.179 106.679H146.536V113.322H153.179V106.679Z" fill="white"/>
<path d="M159.822 106.679H153.179V113.322H159.822V106.679Z" fill="black"/>
<path d="M166.465 106.679H159.822V113.322H166.465V106.679Z" fill="white"/>
<path d="M173.108 106.679H166.465V113.322H173.108V106.679Z" fill="white"/>
<path d="M179.751 106.679H173.108V113.322H179.751V106.679Z" fill="black"/>
<path d="M186.394 106.679H179.751V113.322H186.394V106.679Z" fill="black"/>
<path d="M193.037 106.679H186.394V113.322H193.037V106.679Z" fill="black"/>
<path d="M199.68 106.679H193.037V113.322H199.68V106.679Z" fill="black"/>
<path d="M206.323 106.679H199.68V113.322H206.323V106.679Z" fill="black"/>
<path d="M20.3197 113.322H13.6768V119.965H20.3197V113.322Z" fill="black"/>
<path d="M26.9627 113.322H20.3197V119.965H26.9627V113.322Z" fill="white"/>
<path d="M33.6057 113.322H26.9627V119.965H33.6057V113.322Z" fill="black"/>
<path d="M40.2487 113.322H33.6057V119.965H40.2487V113.322Z" fill="black"/>
<path d="M46.8916 113.322H40.2487V119.965H46.8916V113.322Z" fill="white"/>
<path d="M53.5346 113.322H46.8917V119.965H53.5346V113.322Z" fill="white"/>
<path d="M60.1776 113.322H53.5346V119.965H60.1776V113.322Z" fill="white"/>
<path d="M66.8206 113.322H60.1776V119.965H66.8206V113.322Z" fill="white"/>
<path d="M73.4636 113.322H66.8206V119.965H73.4636V113.322Z" fill="black"/>
<path d="M80.1066 113.322H73.4636V119.965H80.1066V113.322Z" fill="white"/>
<path d="M86.7496 113.322H80.1066V119.965H86.7496V113.322Z" fill="white"/>
<path d="M93.3926 113.322H86.7496V119.965H93.3926V113.322Z" fill="black"/>
<path d="M100.036 113.322H93.3925V119.965H100.036V113.322Z" fill="black"/>
<path d="M106.679 113.322H100.036V119.965H106.679V113.322Z" fill="black"/>
<path d="M113.322 113.322H106.679V119.965H113.322V113.322Z" fill="white"/>
<path d="M119.964 113.322H113.322V119.965H119.964V113.322Z" fill="black"/>
<path d="M126.607 113.322H119.964V119.965H126.607V113.322Z" fill="white"/>
<path d="M133.25 113.322H126.607V119.965H133.25V113.322Z" fill="black"/>
<path d="M139.893 113.322H133.25V119.965H139.893V113.322Z" fill="white"/>
<path d="M146.536 113.322H139.893V119.965H146.536V113.322Z" fill="white"/>
<path d="M153.179 113.322H146.536V119.965H153.179V113.322Z" fill="black"/>
<path d="M159.822 113.322H153.179V119.965H159.822V113.322Z" fill="white"/>
<path d="M166.465 113.322H159.822V119.965H166.465V113.322Z" fill="black"/>
<path d="M173.108 113.322H166.465V119.965H173.108V113.322Z" fill="black"/>
<path d="M179.751 113.322H173.108V119.965H179.751V113.322Z" fill="white"/>
<path d="M186.394 113.322H179.751V119.965H186.394V113.322Z" fill="black"/>
<path d="M193.037 113.322H186.394V119.965H193.037V113.322Z" fill="white"/>
<path d="M199.68 113.322H193.037V119.965H199.68V113.322Z" fill="black"/>
<path d="M206.323 113.322H199.68V119.965H206.323V113.322Z" fill="white"/>
<path d="M20.3197 119.965H13.6768V126.608H20.3197V119.965Z" fill="black"/>
<path d="M26.9627 119.965H20.3197V126.608H26.9627V119.965Z" fill="white"/>
<path d="M33.6057 119.965H26.9627V126.608H33.6057V119.965Z" fill="white"/>
<path d="M40.2487 119.965H33.6057V126.608H40.2487V119.965Z" fill="black"/>
<path d="M46.8916 119.965H40.2487V126.608H46.8916V119.965Z" fill="black"/>
<path d="M53.5346 119.965H46.8917V126.608H53.5346V119.965Z" fill="white"/>
<path d="M60.1776 119.965H53.5346V126.608H60.1776V119.965Z" fill="black"/>
<path d="M66.8206 119.965H60.1776V126.608H66.8206V119.965Z" fill="white"/>
<path d="M73.4636 119.965H66.8206V126.608H73.4636V119.965Z" fill="black"/>
<path d="M80.1066 119.965H73.4636V126.608H80.1066V119.965Z" fill="black"/>
<path d="M86.7496 119.965H80.1066V126.608H86.7496V119.965Z" fill="black"/>
<path d="M93.3926 119.965H86.7496V126.608H93.3926V119.965Z" fill="white"/>
<path d="M100.036 119.965H93.3925V126.608H100.036V119.965Z" fill="white"/>
<path d="M106.679 119.965H100.036V126.608H106.679V119.965Z" fill="black"/>
<path d="M113.322 119.965H106.679V126.608H113.322V119.965Z" fill="white"/>
<path d="M119.964 119.965H113.322V126.608H119.964V119.965Z" fill="black"/>
<path d="M126.607 119.965H119.964V126.608H126.607V119.965Z" fill="black"/>
<path d="M133.25 119.965H126.607V126.608H133.25V119.965Z" fill="black"/>
<path d="M139.893 119.965H133.25V126.608H139.893V119.965Z" fill="black"/>
<path d="M146.536 119.965H139.893V126.608H146.536V119.965Z" fill="white"/>
<path d="M153.179 119.965H146.536V126.608H153.179V119.965Z" fill="black"/>
<path d="M159.822 119.965H153.179V126.608H159.822V119.965Z" fill="black"/>
<path d="M166.465 119.965H159.822V126.608H166.465V119.965Z" fill="white"/>
<path d="M173.108 119.965H166.465V126.608H173.108V119.965Z" fill="white"/>
<path d="M179.751 119.965H173.108V126.608H179.751V119.965Z" fill="white"/>
<path d="M186.394 119.965H179.751V126.608H186.394V119.965Z" fill="white"/>
<path d="M193.037 119.965H186.394V126.608H193.037V119.965Z" fill="white"/>
<path d="M199.68 119.965H193.037V126.608H199.68V119.965Z" fill="black"/>
<path d="M206.323 119.965H199.68V126.608H206.323V119.965Z" fill="white"/>
<path d="M20.3197 126.608H13.6768V133.251H20.3197V126.608Z" fill="white"/>
<path d="M26.9627 126.608H20.3197V133.251H26.9627V126.608Z" fill="black"/>
<path d="M33.6057 126.608H26.9627V133.251H33.6057V126.608Z" fill="black"/>
<path d="M40.2487 126.608H33.6057V133.251H40.2487V126.608Z" fill="black"/>
<path d="M46.8916 126.608H40.2487V133.251H46.8916V126.608Z" fill="white"/>
<path d="M53.5346 126.608H46.8917V133.251H53.5346V126.608Z" fill="white"/>
<path d="M60.1776 126.608H53.5346V133.251H60.1776V126.608Z" fill="white"/>
<path d="M66.8206 126.608H60.1776V133.251H66.8206V126.608Z" fill="white"/>
<path d="M73.4636 126.608H66.8206V133.251H73.4636V126.608Z" fill="black"/>
<path d="M80.1066 126.608H73.4636V133.251H80.1066V126.608Z" fill="white"/>
<path d="M86.7496 126.608H80.1066V133.251H86.7496V126.608Z" fill="black"/>
<path d="M93.3926 126.608H86.7496V133.251H93.3926V126.608Z" fill="black"/>
<path d="M100.036 126.608H93.3925V133.251H100.036V126.608Z" fill="black"/>
<path d="M106.679 126.608H100.036V133.251H106.679V126.608Z" fill="white"/>
<path d="M113.322 126.608H106.679V133.251H113.322V126.608Z" fill="white"/>
<path d="M119.964 126.608H113.322V133.251H119.964V126.608Z" fill="white"/>
<path d="M126.607 126.608H119.964V133.251H126.607V126.608Z" fill="white"/>
<path d="M133.25 126.608H126.607V133.251H133.25V126.608Z" fill="white"/>
<path d="M139.893 126.608H133.25V133.251H139.893V126.608Z" fill="black"/>
<path d="M146.536 126.608H139.893V133.251H146.536V126.608Z" fill="white"/>
<path d="M153.179 126.608H146.536V133.251H153.179V126.608Z" fill="white"/>
<path d="M159.822 126.608H153.179V133.251H159.822V126.608Z" fill="black"/>
<path d="M166.465 126.608H159.822V133.251H166.465V126.608Z" fill="black"/>
<path d="M173.108 126.608H166.465V133.251H173.108V126.608Z" fill="black"/>
<path d="M179.751 126.608H173.108V133.251H179.751V126.608Z" fill="white"/>
<path d="M186.394 126.608H179.751V133.251H186.394V126.608Z" fill="black"/>
<path d="M193.037 126.608H186.394V133.251H193.037V126.608Z" fill="white"/>
<path d="M199.68 126.608H193.037V133.251H199.68V126.608Z" fill="white"/>
<path d="M206.323 126.608H199.68V133.251H206.323V126.608Z" fill="black"/>
<path d="M20.3197 133.251H13.6768V139.894H20.3197V133.251Z" fill="black"/>
<path d="M26.9627 133.251H20.3197V139.894H26.9627V133.251Z" fill="white"/>
<path d="M33.6057 133.251H26.9627V139.894H33.6057V133.251Z" fill="black"/>
<path d="M40.2487 133.251H33.6057V139.894H40.2487V133.251Z" fill="white"/>
<path d="M46.8916 133.251H40.2487V139.894H46.8916V133.251Z" fill="white"/>
<path d="M53.5346 133.251H46.8917V139.894H53.5346V133.251Z" fill="white"/>
<path d="M60.1776 133.251H53.5346V139.894H60.1776V133.251Z" fill="black"/>
<path d="M66.8206 133.251H60.1776V139.894H66.8206V133.251Z" fill="white"/>
<path d="M73.4636 133.251H66.8206V139.894H73.4636V133.251Z" fill="black"/>
<path d="M80.1066 133.251H73.4636V139.894H80.1066V133.251Z" fill="black"/>
<path d="M86.7496 133.251H80.1066V139.894H86.7496V133.251Z" fill="white"/>
<path d="M93.3926 133.251H86.7496V139.894H93.3926V133.251Z" fill="white"/>
<path d="M100.036 133.251H93.3925V139.894H100.036V133.251Z" fill="black"/>
<path d="M106.679 133.251H100.036V139.894H106.679V133.251Z" fill="black"/>
<path d="M113.322 133.251H106.679V139.894H113.322V133.251Z" fill="white"/>
<path d="M119.964 133.251H113.322V139.894H119.964V133.251Z" fill="white"/>
<path d="M126.607 133.251H119.964V139.894H126.607V133.251Z" fill="black"/>
<path d="M133.25 133.251H126.607V139.894H133.25V133.251Z" fill="black"/>
<path d="M139.893 133.251H133.25V139.894H139.893V133.251Z" fill="white"/>
<path d="M146.536 133.251H139.893V139.894H146.536V133.251Z" fill="white"/>
<path d="M153.179 133.251H146.536V139.894H153.179V133.251Z" fill="white"/>
<path d="M159.822 133.251H153.179V139.894H159.822V133.251Z" fill="black"/>
<path d="M166.465 133.251H159.822V139.894H166.465V133.251Z" fill="white"/>
<path d="M173.108 133.251H166.465V139.894H173.108V133.251Z" fill="black"/>
<path d="M179.751 133.251H173.108V139.894H179.751V133.251Z" fill="black"/>
<path d="M186.394 133.251H179.751V139.894H186.394V133.251Z" fill="white"/>
<path d="M193.037 133.251H186.394V139.894H193.037V133.251Z" fill="white"/>
<path d="M199.68 133.251H193.037V139.894H199.68V133.251Z" fill="black"/>
<path d="M206.323 133.251H199.68V139.894H206.323V133.251Z" fill="black"/>
<path d="M20.3197 139.894H13.6768V146.537H20.3197V139.894Z" fill="white"/>
<path d="M26.9627 139.894H20.3197V146.537H26.9627V139.894Z" fill="white"/>
<path d="M33.6057 139.894H26.9627V146.537H33.6057V139.894Z" fill="black"/>
<path d="M40.2487 139.894H33.6057V146.537H40.2487V139.894Z" fill="white"/>
<path d="M46.8916 139.894H40.2487V146.537H46.8916V139.894Z" fill="white"/>
<path d="M53.5346 139.894H46.8917V146.537H53.5346V139.894Z" fill="black"/>
<path d="M60.1776 139.894H53.5346V146.537H60.1776V139.894Z" fill="white"/>
<path d="M66.8206 139.894H60.1776V146.537H66.8206V139.894Z" fill="white"/>
<path d="M73.4636 139.894H66.8206V146.537H73.4636V139.894Z" fill="black"/>
<path d="M80.1066 139.894H73.4636V146.537H80.1066V139.894Z" fill="black"/>
<path d="M86.7496 139.894H80.1066V146.537H86.7496V139.894Z" fill="black"/>
<path d="M93.3926 139.894H86.7496V146.537H93.3926V139.894Z" fill="white"/>
<path d="M100.036 139.894H93.3925V146.537H100.036V139.894Z" fill="white"/>
<path d="M106.679 139.894H100.036V146.537H106.679V139.894Z" fill="white"/>
<path d="M113.322 139.894H106.679V146.537H113.322V139.894Z" fill="black"/>
<path d="M119.964 139.894H113.322V146.537H119.964V139.894Z" fill="black"/>
<path d="M126.607 139.894H119.964V146.537H126.607V139.894Z" fill="white"/>
<path d="M133.25 139.894H126.607V146.537H133.25V139.894Z" fill="black"/>
<path d="M139.893 139.894H133.25V146.537H139.893V139.894Z" fill="white"/>
<path d="M146.536 139.894H139.893V146.537H146.536V139.894Z" fill="white"/>
<path d="M153.179 139.894H146.536V146.537H153.179V139.894Z" fill="white"/>
<path d="M159.822 139.894H153.179V146.537H159.822V139.894Z" fill="black"/>
<path d="M166.465 139.894H159.822V146.537H166.465V139.894Z" fill="white"/>
<path d="M173.108 139.894H166.465V146.537H173.108V139.894Z" fill="white"/>
<path d="M179.751 139.894H173.108V146.537H179.751V139.894Z" fill="black"/>
<path d="M186.394 139.894H179.751V146.537H186.394V139.894Z" fill="white"/>
<path d="M193.037 139.894H186.394V146.537H193.037V139.894Z" fill="white"/>
<path d="M199.68 139.894H193.037V146.537H199.68V139.894Z" fill="black"/>
<path d="M206.323 139.894H199.68V146.537H206.323V139.894Z" fill="black"/>
<path d="M20.3197 146.537H13.6768V153.18H20.3197V146.537Z" fill="black"/>
<path d="M26.9627 146.537H20.3197V153.18H26.9627V146.537Z" fill="white"/>
<path d="M33.6057 146.537H26.9627V153.18H33.6057V146.537Z" fill="black"/>
<path d="M40.2487 146.537H33.6057V153.18H40.2487V146.537Z" fill="black"/>
<path d="M46.8916 146.537H40.2487V153.18H46.8916V146.537Z" fill="black"/>
<path d="M53.5346 146.537H46.8917V153.18H53.5346V146.537Z" fill="white"/>
<path d="M60.1776 146.537H53.5346V153.18H60.1776V146.537Z" fill="black"/>
<path d="M66.8206 146.537H60.1776V153.18H66.8206V146.537Z" fill="black"/>
<path d="M73.4636 146.537H66.8206V153.18H73.4636V146.537Z" fill="black"/>
<path d="M80.1066 146.537H73.4636V153.18H80.1066V146.537Z" fill="black"/>
<path d="M86.7496 146.537H80.1066V153.18H86.7496V146.537Z" fill="white"/>
<path d="M93.3926 146.537H86.7496V153.18H93.3926V146.537Z" fill="black"/>
<path d="M100.036 146.537H93.3925V153.18H100.036V146.537Z" fill="white"/>
<path d="M106.679 146.537H100.036V153.18H106.679V146.537Z" fill="black"/>
<path d="M113.322 146.537H106.679V153.18H113.322V146.537Z" fill="black"/>
<path d="M119.964 146.537H113.322V153.18H119.964V146.537Z" fill="white"/>
<path d="M126.607 146.537H119.964V153.18H126.607V146.537Z" fill="black"/>
<path d="M133.25 146.537H126.607V153.18H133.25V146.537Z" fill="black"/>
<path d="M139.893 146.537H133.25V153.18H139.893V146.537Z" fill="white"/>
<path d="M146.536 146.537H139.893V153.18H146.536V146.537Z" fill="black"/>
<path d="M153.179 146.537H146.536V153.18H153.179V146.537Z" fill="black"/>
<path d="M159.822 146.537H153.179V153.18H159.822V146.537Z" fill="black"/>
<path d="M166.465 146.537H159.822V153.18H166.465V146.537Z" fill="black"/>
<path d="M173.108 146.537H166.465V153.18H173.108V146.537Z" fill="black"/>
<path d="M179.751 146.537H173.108V153.18H179.751V146.537Z" fill="black"/>
<path d="M186.394 146.537H179.751V153.18H186.394V146.537Z" fill="white"/>
<path d="M193.037 146.537H186.394V153.18H193.037V146.537Z" fill="black"/>
<path d="M199.68 146.537H193.037V153.18H199.68V146.537Z" fill="white"/>
<path d="M206.323 146.537H199.68V153.18H206.323V146.537Z" fill="white"/>
<path d="M20.3197 153.18H13.6768V159.823H20.3197V153.18Z" fill="white"/>
<path d="M26.9627 153.18H20.3197V159.823H26.9627V153.18Z" fill="white"/>
<path d="M33.6057 153.18H26.9627V159.823H33.6057V153.18Z" fill="white"/>
<path d="M40.2487 153.18H33.6057V159.823H40.2487V153.18Z" fill="white"/>
<path d="M46.8916 153.18H40.2487V159.823H46.8916V153.18Z" fill="white"/>
<path d="M53.5346 153.18H46.8917V159.823H53.5346V153.18Z" fill="white"/>
<path d="M60.1776 153.18H53.5346V159.823H60.1776V153.18Z" fill="white"/>
<path d="M66.8206 153.18H60.1776V159.823H66.8206V153.18Z" fill="white"/>
<path d="M73.4636 153.18H66.8206V159.823H73.4636V153.18Z" fill="black"/>
<path d="M80.1066 153.18H73.4636V159.823H80.1066V153.18Z" fill="white"/>
<path d="M86.7496 153.18H80.1066V159.823H86.7496V153.18Z" fill="white"/>
<path d="M93.3926 153.18H86.7496V159.823H93.3926V153.18Z" fill="white"/>
<path d="M100.036 153.18H93.3925V159.823H100.036V153.18Z" fill="black"/>
<path d="M106.679 153.18H100.036V159.823H106.679V153.18Z" fill="black"/>
<path d="M113.322 153.18H106.679V159.823H113.322V153.18Z" fill="black"/>
<path d="M119.964 153.18H113.322V159.823H119.964V153.18Z" fill="white"/>
<path d="M126.607 153.18H119.964V159.823H126.607V153.18Z" fill="black"/>
<path d="M133.25 153.18H126.607V159.823H133.25V153.18Z" fill="black"/>
<path d="M139.893 153.18H133.25V159.823H139.893V153.18Z" fill="white"/>
<path d="M146.536 153.18H139.893V159.823H146.536V153.18Z" fill="black"/>
<path d="M153.179 153.18H146.536V159.823H153.179V153.18Z" fill="black"/>
<path d="M159.822 153.18H153.179V159.823H159.822V153.18Z" fill="white"/>
<path d="M166.465 153.18H159.822V159.823H166.465V153.18Z" fill="white"/>
<path d="M173.108 153.18H166.465V159.823H173.108V153.18Z" fill="white"/>
<path d="M179.751 153.18H173.108V159.823H179.751V153.18Z" fill="black"/>
<path d="M186.394 153.18H179.751V159.823H186.394V153.18Z" fill="white"/>
<path d="M193.037 153.18H186.394V159.823H193.037V153.18Z" fill="black"/>
<path d="M199.68 153.18H193.037V159.823H199.68V153.18Z" fill="black"/>
<path d="M206.323 153.18H199.68V159.823H206.323V153.18Z" fill="black"/>
<path d="M20.3197 159.823H13.6768V166.466H20.3197V159.823Z" fill="black"/>
<path d="M26.9627 159.823H20.3197V166.466H26.9627V159.823Z" fill="black"/>
<path d="M33.6057 159.823H26.9627V166.466H33.6057V159.823Z" fill="black"/>
<path d="M40.2487 159.823H33.6057V166.466H40.2487V159.823Z" fill="black"/>
<path d="M46.8916 159.823H40.2487V166.466H46.8916V159.823Z" fill="black"/>
<path d="M53.5346 159.823H46.8917V166.466H53.5346V159.823Z" fill="black"/>
<path d="M60.1776 159.823H53.5346V166.466H60.1776V159.823Z" fill="black"/>
<path d="M66.8206 159.823H60.1776V166.466H66.8206V159.823Z" fill="white"/>
<path d="M73.4636 159.823H66.8206V166.466H73.4636V159.823Z" fill="black"/>
<path d="M80.1066 159.823H73.4636V166.466H80.1066V159.823Z" fill="black"/>
<path d="M86.7496 159.823H80.1066V166.466H86.7496V159.823Z" fill="white"/>
<path d="M93.3926 159.823H86.7496V166.466H93.3926V159.823Z" fill="white"/>
<path d="M100.036 159.823H93.3925V166.466H100.036V159.823Z" fill="black"/>
<path d="M106.679 159.823H100.036V166.466H106.679V159.823Z" fill="black"/>
<path d="M113.322 159.823H106.679V166.466H113.322V159.823Z" fill="black"/>
<path d="M119.964 159.823H113.322V166.466H119.964V159.823Z" fill="white"/>
<path d="M126.607 159.823H119.964V166.466H126.607V159.823Z" fill="white"/>
<path d="M133.25 159.823H126.607V166.466H133.25V159.823Z" fill="white"/>
<path d="M139.893 159.823H133.25V166.466H139.893V159.823Z" fill="black"/>
<path d="M146.536 159.823H139.893V166.466H146.536V159.823Z" fill="white"/>
<path d="M153.179 159.823H146.536V166.466H153.179V159.823Z" fill="black"/>
<path d="M159.822 159.823H153.179V166.466H159.822V159.823Z" fill="white"/>
<path d="M166.465 159.823H159.822V166.466H166.465V159.823Z" fill="black"/>
<path d="M173.108 159.823H166.465V166.466H173.108V159.823Z" fill="white"/>
<path d="M179.751 159.823H173.108V166.466H179.751V159.823Z" fill="black"/>
<path d="M186.394 159.823H179.751V166.466H186.394V159.823Z" fill="white"/>
<path d="M193.037 159.823H186.394V166.466H193.037V159.823Z" fill="white"/>
<path d="M199.68 159.823H193.037V166.466H199.68V159.823Z" fill="black"/>
<path d="M206.323 159.823H199.68V166.466H206.323V159.823Z" fill="white"/>
<path d="M20.3197 166.466H13.6768V173.109H20.3197V166.466Z" fill="black"/>
<path d="M26.9627 166.466H20.3197V173.109H26.9627V166.466Z" fill="white"/>
<path d="M33.6057 166.466H26.9627V173.109H33.6057V166.466Z" fill="white"/>
<path d="M40.2487 166.466H33.6057V173.109H40.2487V166.466Z" fill="white"/>
<path d="M46.8916 166.466H40.2487V173.109H46.8916V166.466Z" fill="white"/>
<path d="M53.5346 166.466H46.8917V173.109H53.5346V166.466Z" fill="white"/>
<path d="M60.1776 166.466H53.5346V173.109H60.1776V166.466Z" fill="black"/>
<path d="M66.8206 166.466H60.1776V173.109H66.8206V166.466Z" fill="white"/>
<path d="M73.4636 166.466H66.8206V173.109H73.4636V166.466Z" fill="white"/>
<path d="M80.1066 166.466H73.4636V173.109H80.1066V166.466Z" fill="black"/>
<path d="M86.7496 166.466H80.1066V173.109H86.7496V166.466Z" fill="white"/>
<path d="M93.3926 166.466H86.7496V173.109H93.3926V166.466Z" fill="white"/>
<path d="M100.036 166.466H93.3925V173.109H100.036V166.466Z" fill="black"/>
<path d="M106.679 166.466H100.036V173.109H106.679V166.466Z" fill="black"/>
<path d="M113.322 166.466H106.679V173.109H113.322V166.466Z" fill="white"/>
<path d="M119.964 166.466H113.322V173.109H119.964V166.466Z" fill="black"/>
<path d="M126.607 166.466H119.964V173.109H126.607V166.466Z" fill="white"/>
<path d="M133.25 166.466H126.607V173.109H133.25V166.466Z" fill="white"/>
<path d="M139.893 166.466H133.25V173.109H139.893V166.466Z" fill="black"/>
<path d="M146.536 166.466H139.893V173.109H146.536V166.466Z" fill="white"/>
<path d="M153.179 166.466H146.536V173.109H153.179V166.466Z" fill="black"/>
<path d="M159.822 166.466H153.179V173.109H159.822V166.466Z" fill="white"/>
<path d="M166.465 166.466H159.822V173.109H166.465V166.466Z" fill="white"/>
<path d="M173.108 166.466H166.465V173.109H173.108V166.466Z" fill="white"/>
<path d="M179.751 166.466H173.108V173.109H179.751V166.466Z" fill="black"/>
<path d="M186.394 166.466H179.751V173.109H186.394V166.466Z" fill="black"/>
<path d="M193.037 166.466H186.394V173.109H193.037V166.466Z" fill="black"/>
<path d="M199.68 166.466H193.037V173.109H199.68V166.466Z" fill="black"/>
<path d="M206.323 166.466H199.68V173.109H206.323V166.466Z" fill="white"/>
<path d="M20.3197 173.109H13.6768V179.752H20.3197V173.109Z" fill="black"/>
<path d="M26.9627 173.109H20.3197V179.752H26.9627V173.109Z" fill="white"/>
<path d="M33.6057 173.109H26.9627V179.752H33.6057V173.109Z" fill="black"/>
<path d="M40.2487 173.109H33.6057V179.752H40.2487V173.109Z" fill="black"/>
<path d="M46.8916 173.109H40.2487V179.752H46.8916V173.109Z" fill="black"/>
<path d="M53.5346 173.109H46.8917V179.752H53.5346V173.109Z" fill="white"/>
<path d="M60.1776 173.109H53.5346V179.752H60.1776V173.109Z" fill="black"/>
<path d="M66.8206 173.109H60.1776V179.752H66.8206V173.109Z" fill="white"/>
<path d="M73.4636 173.109H66.8206V179.752H73.4636V173.109Z" fill="white"/>
<path d="M80.1066 173.109H73.4636V179.752H80.1066V173.109Z" fill="black"/>
<path d="M86.7496 173.109H80.1066V179.752H86.7496V173.109Z" fill="white"/>
<path d="M93.3926 173.109H86.7496V179.752H93.3926V173.109Z" fill="white"/>
<path d="M100.036 173.109H93.3925V179.752H100.036V173.109Z" fill="white"/>
<path d="M106.679 173.109H100.036V179.752H106.679V173.109Z" fill="black"/>
<path d="M113.322 173.109H106.679V179.752H113.322V173.109Z" fill="white"/>
<path d="M119.964 173.109H113.322V179.752H119.964V173.109Z" fill="black"/>
<path d="M126.607 173.109H119.964V179.752H126.607V173.109Z" fill="white"/>
<path d="M133.25 173.109H126.607V179.752H133.25V173.109Z" fill="black"/>
<path d="M139.893 173.109H133.25V179.752H139.893V173.109Z" fill="black"/>
<path d="M146.536 173.109H139.893V179.752H146.536V173.109Z" fill="white"/>
<path d="M153.179 173.109H146.536V179.752H153.179V173.109Z" fill="black"/>
<path d="M159.822 173.109H153.179V179.752H159.822V173.109Z" fill="black"/>
<path d="M166.465 173.109H159.822V179.752H166.465V173.109Z" fill="black"/>
<path d="M173.108 173.109H166.465V179.752H173.108V173.109Z" fill="black"/>
<path d="M179.751 173.109H173.108V179.752H179.751V173.109Z" fill="black"/>
<path d="M186.394 173.109H179.751V179.752H186.394V173.109Z" fill="white"/>
<path d="M193.037 173.109H186.394V179.752H193.037V173.109Z" fill="white"/>
<path d="M199.68 173.109H193.037V179.752H199.68V173.109Z" fill="white"/>
<path d="M206.323 173.109H199.68V179.752H206.323V173.109Z" fill="black"/>
<path d="M20.3197 179.752H13.6768V186.395H20.3197V179.752Z" fill="black"/>
<path d="M26.9627 179.752H20.3197V186.395H26.9627V179.752Z" fill="white"/>
<path d="M33.6057 179.752H26.9627V186.395H33.6057V179.752Z" fill="black"/>
<path d="M40.2487 179.752H33.6057V186.395H40.2487V179.752Z" fill="black"/>
<path d="M46.8916 179.752H40.2487V186.395H46.8916V179.752Z" fill="black"/>
<path d="M53.5346 179.752H46.8917V186.395H53.5346V179.752Z" fill="white"/>
<path d="M60.1776 179.752H53.5346V186.395H60.1776V179.752Z" fill="black"/>
<path d="M66.8206 179.752H60.1776V186.395H66.8206V179.752Z" fill="white"/>
<path d="M73.4636 179.752H66.8206V186.395H73.4636V179.752Z" fill="black"/>
<path d="M80.1066 179.752H73.4636V186.395H80.1066V179.752Z" fill="white"/>
<path d="M86.7496 179.752H80.1066V186.395H86.7496V179.752Z" fill="white"/>
<path d="M93.3926 179.752H86.7496V186.395H93.3926V179.752Z" fill="white"/>
<path d="M100.036 179.752H93.3925V186.395H100.036V179.752Z" fill="black"/>
<path d="M106.679 179.752H100.036V186.395H106.679V179.752Z" fill="white"/>
<path d="M113.322 179.752H106.679V186.395H113.322V179.752Z" fill="black"/>
<path d="M119.964 179.752H113.322V186.395H119.964V179.752Z" fill="white"/>
<path d="M126.607 179.752H119.964V186.395H126.607V179.752Z" fill="black"/>
<path d="M133.25 179.752H126.607V186.395H133.25V179.752Z" fill="white"/>
<path d="M139.893 179.752H133.25V186.395H139.893V179.752Z" fill="white"/>
<path d="M146.536 179.752H139.893V186.395H146.536V179.752Z" fill="white"/>
<path d="M153.179 179.752H146.536V186.395H153.179V179.752Z" fill="white"/>
<path d="M159.822 179.752H153.179V186.395H159.822V179.752Z" fill="white"/>
<path d="M166.465 179.752H159.822V186.395H166.465V179.752Z" fill="black"/>
<path d="M173.108 179.752H166.465V186.395H173.108V179.752Z" fill="black"/>
<path d="M179.751 179.752H173.108V186.395H179.751V179.752Z" fill="black"/>
<path d="M186.394 179.752H179.751V186.395H186.394V179.752Z" fill="black"/>
<path d="M193.037 179.752H186.394V186.395H193.037V179.752Z" fill="black"/>
<path d="M199.68 179.752H193.037V186.395H199.68V179.752Z" fill="white"/>
<path d="M206.323 179.752H199.68V186.395H206.323V179.752Z" fill="white"/>
<path d="M20.3197 186.395H13.6768V193.038H20.3197V186.395Z" fill="black"/>
<path d="M26.9627 186.395H20.3197V193.038H26.9627V186.395Z" fill="white"/>
<path d="M33.6057 186.395H26.9627V193.038H33.6057V186.395Z" fill="black"/>
<path d="M40.2487 186.395H33.6057V193.038H40.2487V186.395Z" fill="black"/>
<path d="M46.8916 186.395H40.2487V193.038H46.8916V186.395Z" fill="black"/>
<path d="M53.5346 186.395H46.8917V193.038H53.5346V186.395Z" fill="white"/>
<path d="M60.1776 186.395H53.5346V193.038H60.1776V186.395Z" fill="black"/>
<path d="M66.8206 186.395H60.1776V193.038H66.8206V186.395Z" fill="white"/>
<path d="M73.4636 186.395H66.8206V193.038H73.4636V186.395Z" fill="white"/>
<path d="M80.1066 186.395H73.4636V193.038H80.1066V186.395Z" fill="white"/>
<path d="M86.7496 186.395H80.1066V193.038H86.7496V186.395Z" fill="white"/>
<path d="M93.3926 186.395H86.7496V193.038H93.3926V186.395Z" fill="black"/>
<path d="M100.036 186.395H93.3925V193.038H100.036V186.395Z" fill="white"/>
<path d="M106.679 186.395H100.036V193.038H106.679V186.395Z" fill="black"/>
<path d="M113.322 186.395H106.679V193.038H113.322V186.395Z" fill="white"/>
<path d="M119.964 186.395H113.322V193.038H119.964V186.395Z" fill="white"/>
<path d="M126.607 186.395H119.964V193.038H126.607V186.395Z" fill="black"/>
<path d="M133.25 186.395H126.607V193.038H133.25V186.395Z" fill="white"/>
<path d="M139.893 186.395H133.25V193.038H139.893V186.395Z" fill="white"/>
<path d="M146.536 186.395H139.893V193.038H146.536V186.395Z" fill="black"/>
<path d="M153.179 186.395H146.536V193.038H153.179V186.395Z" fill="black"/>
<path d="M159.822 186.395H153.179V193.038H159.822V186.395Z" fill="white"/>
<path d="M166.465 186.395H159.822V193.038H166.465V186.395Z" fill="white"/>
<path d="M173.108 186.395H166.465V193.038H173.108V186.395Z" fill="white"/>
<path d="M179.751 186.395H173.108V193.038H179.751V186.395Z" fill="black"/>
<path d="M186.394 186.395H179.751V193.038H186.394V186.395Z" fill="black"/>
<path d="M193.037 186.395H186.394V193.038H193.037V186.395Z" fill="black"/>
<path d="M199.68 186.395H193.037V193.038H199.68V186.395Z" fill="white"/>
<path d="M206.323 186.395H199.68V193.038H206.323V186.395Z" fill="black"/>
<path d="M20.3197 193.038H13.6768V199.681H20.3197V193.038Z" fill="black"/>
<path d="M26.9627 193.038H20.3197V199.681H26.9627V193.038Z" fill="white"/>
<path d="M33.6057 193.038H26.9627V199.681H33.6057V193.038Z" fill="white"/>
<path d="M40.2487 193.038H33.6057V199.681H40.2487V193.038Z" fill="white"/>
<path d="M46.8916 193.038H40.2487V199.681H46.8916V193.038Z" fill="white"/>
<path d="M53.5346 193.038H46.8917V199.681H53.5346V193.038Z" fill="white"/>
<path d="M60.1776 193.038H53.5346V199.681H60.1776V193.038Z" fill="black"/>
<path d="M66.8206 193.038H60.1776V199.681H66.8206V193.038Z" fill="white"/>
<path d="M73.4636 193.038H66.8206V199.681H73.4636V193.038Z" fill="black"/>
<path d="M80.1066 193.038H73.4636V199.681H80.1066V193.038Z" fill="white"/>
<path d="M86.7496 193.038H80.1066V199.681H86.7496V193.038Z" fill="black"/>
<path d="M93.3926 193.038H86.7496V199.681H93.3926V193.038Z" fill="black"/>
<path d="M100.036 193.038H93.3925V199.681H100.036V193.038Z" fill="black"/>
<path d="M106.679 193.038H100.036V199.681H106.679V193.038Z" fill="black"/>
<path d="M113.322 193.038H106.679V199.681H113.322V193.038Z" fill="white"/>
<path d="M119.964 193.038H113.322V199.681H119.964V193.038Z" fill="white"/>
<path d="M126.607 193.038H119.964V199.681H126.607V193.038Z" fill="black"/>
<path d="M133.25 193.038H126.607V199.681H133.25V193.038Z" fill="black"/>
<path d="M139.893 193.038H133.25V199.681H139.893V193.038Z" fill="black"/>
<path d="M146.536 193.038H139.893V199.681H146.536V193.038Z" fill="black"/>
<path d="M153.179 193.038H146.536V199.681H153.179V193.038Z" fill="black"/>
<path d="M159.822 193.038H153.179V199.681H159.822V193.038Z" fill="white"/>
<path d="M166.465 193.038H159.822V199.681H166.465V193.038Z" fill="white"/>
<path d="M173.108 193.038H166.465V199.681H173.108V193.038Z" fill="white"/>
<path d="M179.751 193.038H173.108V199.681H179.751V193.038Z" fill="white"/>
<path d="M186.394 193.038H179.751V199.681H186.394V193.038Z" fill="white"/>
<path d="M193.037 193.038H186.394V199.681H193.037V193.038Z" fill="white"/>
<path d="M199.68 193.038H193.037V199.681H199.68V193.038Z" fill="black"/>
<path d="M206.323 193.038H199.68V199.681H206.323V193.038Z" fill="white"/>
<path d="M20.3197 199.681H13.6768V206.324H20.3197V199.681Z" fill="black"/>
<path d="M26.9627 199.681H20.3197V206.324H26.9627V199.681Z" fill="black"/>
<path d="M33.6057 199.681H26.9627V206.324H33.6057V199.681Z" fill="black"/>
<path d="M40.2487 199.681H33.6057V206.324H40.2487V199.681Z" fill="black"/>
<path d="M46.8916 199.681H40.2487V206.324H46.8916V199.681Z" fill="black"/>
<path d="M53.5346 199.681H46.8917V206.324H53.5346V199.681Z" fill="black"/>
<path d="M60.1776 199.681H53.5346V206.324H60.1776V199.681Z" fill="black"/>
<path d="M66.8206 199.681H60.1776V206.324H66.8206V199.681Z" fill="white"/>
<path d="M73.4636 199.681H66.8206V206.324H73.4636V199.681Z" fill="black"/>
<path d="M80.1066 199.681H73.4636V206.324H80.1066V199.681Z" fill="white"/>
<path d="M86.7496 199.681H80.1066V206.324H86.7496V199.681Z" fill="black"/>
<path d="M93.3926 199.681H86.7496V206.324H93.3926V199.681Z" fill="black"/>
<path d="M100.036 199.681H93.3925V206.324H100.036V199.681Z" fill="white"/>
<path d="M106.679 199.681H100.036V206.324H106.679V199.681Z" fill="white"/>
<path d="M113.322 199.681H106.679V206.324H113.322V199.681Z" fill="black"/>
<path d="M119.964 199.681H113.322V206.324H119.964V199.681Z" fill="white"/>
<path d="M126.607 199.681H119.964V206.324H126.607V199.681Z" fill="black"/>
<path d="M133.25 199.681H126.607V206.324H133.25V199.681Z" fill="black"/>
<path d="M139.893 199.681H133.25V206.324H139.893V199.681Z" fill="black"/>
<path d="M146.536 199.681H139.893V206.324H146.536V199.681Z" fill="white"/>
<path d="M153.179 199.681H146.536V206.324H153.179V199.681Z" fill="black"/>
<path d="M159.822 199.681H153.179V206.324H159.822V199.681Z" fill="black"/>
<path d="M166.465 199.681H159.822V206.324H166.465V199.681Z" fill="white"/>
<path d="M173.108 199.681H166.465V206.324H173.108V199.681Z" fill="white"/>
<path d="M179.751 199.681H173.108V206.324H179.751V199.681Z" fill="white"/>
<path d="M186.394 199.681H179.751V206.324H186.394V199.681Z" fill="black"/>
<path d="M193.037 199.681H186.394V206.324H193.037V199.681Z" fill="white"/>
<path d="M199.68 199.681H193.037V206.324H199.68V199.681Z" fill="black"/>
<path d="M206.323 199.681H199.68V206.324H206.323V199.681Z" fill="white"/>
</g>
<defs>
<clipPath id="clip0_70_959">
<rect y="0.000244141" width="220" height="220" rx="30" fill="white"/>
</clipPath>
</defs>
</svg>
