<svg width="240" height="240" viewBox="0 0 240 240" fill="none" xmlns="http://www.w3.org/2000/svg">
<rect width="240" height="240" rx="30" fill="white"/>
<g clip-path="url(#clip0_70_957)">
<path d="M230 10.0002H10V230H230V10.0002Z" fill="white"/>
<path d="M30.3197 23.677H23.6768V30.32H30.3197V23.677Z" fill="black"/>
<path d="M36.9627 23.677H30.3197V30.32H36.9627V23.677Z" fill="black"/>
<path d="M43.6057 23.677H36.9627V30.32H43.6057V23.677Z" fill="black"/>
<path d="M50.2487 23.677H43.6057V30.32H50.2487V23.677Z" fill="black"/>
<path d="M56.8916 23.677H50.2487V30.32H56.8916V23.677Z" fill="black"/>
<path d="M63.5346 23.677H56.8917V30.32H63.5346V23.677Z" fill="black"/>
<path d="M70.1776 23.677H63.5346V30.32H70.1776V23.677Z" fill="black"/>
<path d="M76.8206 23.677H70.1776V30.32H76.8206V23.677Z" fill="white"/>
<path d="M83.4636 23.677H76.8206V30.32H83.4636V23.677Z" fill="white"/>
<path d="M90.1066 23.677H83.4636V30.32H90.1066V23.677Z" fill="black"/>
<path d="M96.7496 23.677H90.1066V30.32H96.7496V23.677Z" fill="white"/>
<path d="M103.393 23.677H96.7496V30.32H103.393V23.677Z" fill="white"/>
<path d="M110.036 23.677H103.393V30.32H110.036V23.677Z" fill="black"/>
<path d="M116.679 23.677H110.036V30.32H116.679V23.677Z" fill="white"/>
<path d="M123.322 23.677H116.679V30.32H123.322V23.677Z" fill="white"/>
<path d="M129.964 23.677H123.322V30.32H129.964V23.677Z" fill="black"/>
<path d="M136.607 23.677H129.964V30.32H136.607V23.677Z" fill="black"/>
<path d="M143.25 23.677H136.607V30.32H143.25V23.677Z" fill="white"/>
<path d="M149.893 23.677H143.25V30.32H149.893V23.677Z" fill="black"/>
<path d="M156.536 23.677H149.893V30.32H156.536V23.677Z" fill="black"/>
<path d="M163.179 23.677H156.536V30.32H163.179V23.677Z" fill="white"/>
<path d="M169.822 23.677H163.179V30.32H169.822V23.677Z" fill="white"/>
<path d="M176.465 23.677H169.822V30.32H176.465V23.677Z" fill="black"/>
<path d="M183.108 23.677H176.465V30.32H183.108V23.677Z" fill="black"/>
<path d="M189.751 23.677H183.108V30.32H189.751V23.677Z" fill="black"/>
<path d="M196.394 23.677H189.751V30.32H196.394V23.677Z" fill="black"/>
<path d="M203.037 23.677H196.394V30.32H203.037V23.677Z" fill="black"/>
<path d="M209.68 23.677H203.037V30.32H209.68V23.677Z" fill="black"/>
<path d="M216.323 23.677H209.68V30.32H216.323V23.677Z" fill="black"/>
<path d="M30.3197 30.3201H23.6768V36.9631H30.3197V30.3201Z" fill="black"/>
<path d="M36.9627 30.3201H30.3197V36.9631H36.9627V30.3201Z" fill="white"/>
<path d="M43.6057 30.3201H36.9627V36.9631H43.6057V30.3201Z" fill="white"/>
<path d="M50.2487 30.3201H43.6057V36.9631H50.2487V30.3201Z" fill="white"/>
<path d="M56.8916 30.3201H50.2487V36.9631H56.8916V30.3201Z" fill="white"/>
<path d="M63.5346 30.3201H56.8917V36.9631H63.5346V30.3201Z" fill="white"/>
<path d="M70.1776 30.3201H63.5346V36.9631H70.1776V30.3201Z" fill="black"/>
<path d="M76.8206 30.3201H70.1776V36.9631H76.8206V30.3201Z" fill="white"/>
<path d="M83.4636 30.3201H76.8206V36.9631H83.4636V30.3201Z" fill="black"/>
<path d="M90.1066 30.3201H83.4636V36.9631H90.1066V30.3201Z" fill="white"/>
<path d="M96.7496 30.3201H90.1066V36.9631H96.7496V30.3201Z" fill="white"/>
<path d="M103.393 30.3201H96.7496V36.9631H103.393V30.3201Z" fill="black"/>
<path d="M110.036 30.3201H103.393V36.9631H110.036V30.3201Z" fill="black"/>
<path d="M116.679 30.3201H110.036V36.9631H116.679V30.3201Z" fill="black"/>
<path d="M123.322 30.3201H116.679V36.9631H123.322V30.3201Z" fill="black"/>
<path d="M129.964 30.3201H123.322V36.9631H129.964V30.3201Z" fill="black"/>
<path d="M136.607 30.3201H129.964V36.9631H136.607V30.3201Z" fill="black"/>
<path d="M143.25 30.3201H136.607V36.9631H143.25V30.3201Z" fill="black"/>
<path d="M149.893 30.3201H143.25V36.9631H149.893V30.3201Z" fill="black"/>
<path d="M156.536 30.3201H149.893V36.9631H156.536V30.3201Z" fill="white"/>
<path d="M163.179 30.3201H156.536V36.9631H163.179V30.3201Z" fill="black"/>
<path d="M169.822 30.3201H163.179V36.9631H169.822V30.3201Z" fill="white"/>
<path d="M176.465 30.3201H169.822V36.9631H176.465V30.3201Z" fill="black"/>
<path d="M183.108 30.3201H176.465V36.9631H183.108V30.3201Z" fill="white"/>
<path d="M189.751 30.3201H183.108V36.9631H189.751V30.3201Z" fill="white"/>
<path d="M196.394 30.3201H189.751V36.9631H196.394V30.3201Z" fill="white"/>
<path d="M203.037 30.3201H196.394V36.9631H203.037V30.3201Z" fill="white"/>
<path d="M209.68 30.3201H203.037V36.9631H209.68V30.3201Z" fill="white"/>
<path d="M216.323 30.3201H209.68V36.9631H216.323V30.3201Z" fill="black"/>
<path d="M30.3197 36.9629H23.6768V43.6059H30.3197V36.9629Z" fill="black"/>
<path d="M36.9627 36.9629H30.3197V43.6059H36.9627V36.9629Z" fill="white"/>
<path d="M43.6057 36.9629H36.9627V43.6059H43.6057V36.9629Z" fill="black"/>
<path d="M50.2487 36.9629H43.6057V43.6059H50.2487V36.9629Z" fill="black"/>
<path d="M56.8916 36.9629H50.2487V43.6059H56.8916V36.9629Z" fill="black"/>
<path d="M63.5346 36.9629H56.8917V43.6059H63.5346V36.9629Z" fill="white"/>
<path d="M70.1776 36.9629H63.5346V43.6059H70.1776V36.9629Z" fill="black"/>
<path d="M76.8206 36.9629H70.1776V43.6059H76.8206V36.9629Z" fill="white"/>
<path d="M83.4636 36.9629H76.8206V43.6059H83.4636V36.9629Z" fill="black"/>
<path d="M90.1066 36.9629H83.4636V43.6059H90.1066V36.9629Z" fill="black"/>
<path d="M96.7496 36.9629H90.1066V43.6059H96.7496V36.9629Z" fill="black"/>
<path d="M103.393 36.9629H96.7496V43.6059H103.393V36.9629Z" fill="black"/>
<path d="M110.036 36.9629H103.393V43.6059H110.036V36.9629Z" fill="black"/>
<path d="M116.679 36.9629H110.036V43.6059H116.679V36.9629Z" fill="white"/>
<path d="M123.322 36.9629H116.679V43.6059H123.322V36.9629Z" fill="black"/>
<path d="M129.964 36.9629H123.322V43.6059H129.964V36.9629Z" fill="white"/>
<path d="M136.607 36.9629H129.964V43.6059H136.607V36.9629Z" fill="black"/>
<path d="M143.25 36.9629H136.607V43.6059H143.25V36.9629Z" fill="black"/>
<path d="M149.893 36.9629H143.25V43.6059H149.893V36.9629Z" fill="white"/>
<path d="M156.536 36.9629H149.893V43.6059H156.536V36.9629Z" fill="white"/>
<path d="M163.179 36.9629H156.536V43.6059H163.179V36.9629Z" fill="black"/>
<path d="M169.822 36.9629H163.179V43.6059H169.822V36.9629Z" fill="white"/>
<path d="M176.465 36.9629H169.822V43.6059H176.465V36.9629Z" fill="black"/>
<path d="M183.108 36.9629H176.465V43.6059H183.108V36.9629Z" fill="white"/>
<path d="M189.751 36.9629H183.108V43.6059H189.751V36.9629Z" fill="black"/>
<path d="M196.394 36.9629H189.751V43.6059H196.394V36.9629Z" fill="black"/>
<path d="M203.037 36.9629H196.394V43.6059H203.037V36.9629Z" fill="black"/>
<path d="M209.68 36.9629H203.037V43.6059H209.68V36.9629Z" fill="white"/>
<path d="M216.323 36.9629H209.68V43.6059H216.323V36.9629Z" fill="black"/>
<path d="M30.3197 43.606H23.6768V50.2489H30.3197V43.606Z" fill="black"/>
<path d="M36.9627 43.606H30.3197V50.2489H36.9627V43.606Z" fill="white"/>
<path d="M43.6057 43.606H36.9627V50.2489H43.6057V43.606Z" fill="black"/>
<path d="M50.2487 43.606H43.6057V50.2489H50.2487V43.606Z" fill="black"/>
<path d="M56.8916 43.606H50.2487V50.2489H56.8916V43.606Z" fill="black"/>
<path d="M63.5346 43.606H56.8917V50.2489H63.5346V43.606Z" fill="white"/>
<path d="M70.1776 43.606H63.5346V50.2489H70.1776V43.606Z" fill="black"/>
<path d="M76.8206 43.606H70.1776V50.2489H76.8206V43.606Z" fill="white"/>
<path d="M83.4636 43.606H76.8206V50.2489H83.4636V43.606Z" fill="white"/>
<path d="M90.1066 43.606H83.4636V50.2489H90.1066V43.606Z" fill="black"/>
<path d="M96.7496 43.606H90.1066V50.2489H96.7496V43.606Z" fill="black"/>
<path d="M103.393 43.606H96.7496V50.2489H103.393V43.606Z" fill="black"/>
<path d="M110.036 43.606H103.393V50.2489H110.036V43.606Z" fill="white"/>
<path d="M116.679 43.606H110.036V50.2489H116.679V43.606Z" fill="white"/>
<path d="M123.322 43.606H116.679V50.2489H123.322V43.606Z" fill="white"/>
<path d="M129.964 43.606H123.322V50.2489H129.964V43.606Z" fill="white"/>
<path d="M136.607 43.606H129.964V50.2489H136.607V43.606Z" fill="black"/>
<path d="M143.25 43.606H136.607V50.2489H143.25V43.606Z" fill="white"/>
<path d="M149.893 43.606H143.25V50.2489H149.893V43.606Z" fill="white"/>
<path d="M156.536 43.606H149.893V50.2489H156.536V43.606Z" fill="white"/>
<path d="M163.179 43.606H156.536V50.2489H163.179V43.606Z" fill="white"/>
<path d="M169.822 43.606H163.179V50.2489H169.822V43.606Z" fill="white"/>
<path d="M176.465 43.606H169.822V50.2489H176.465V43.606Z" fill="black"/>
<path d="M183.108 43.606H176.465V50.2489H183.108V43.606Z" fill="white"/>
<path d="M189.751 43.606H183.108V50.2489H189.751V43.606Z" fill="black"/>
<path d="M196.394 43.606H189.751V50.2489H196.394V43.606Z" fill="black"/>
<path d="M203.037 43.606H196.394V50.2489H203.037V43.606Z" fill="black"/>
<path d="M209.68 43.606H203.037V50.2489H209.68V43.606Z" fill="white"/>
<path d="M216.323 43.606H209.68V50.2489H216.323V43.606Z" fill="black"/>
<path d="M30.3197 50.249H23.6768V56.892H30.3197V50.249Z" fill="black"/>
<path d="M36.9627 50.249H30.3197V56.892H36.9627V50.249Z" fill="white"/>
<path d="M43.6057 50.249H36.9627V56.892H43.6057V50.249Z" fill="black"/>
<path d="M50.2487 50.249H43.6057V56.892H50.2487V50.249Z" fill="black"/>
<path d="M56.8916 50.249H50.2487V56.892H56.8916V50.249Z" fill="black"/>
<path d="M63.5346 50.249H56.8917V56.892H63.5346V50.249Z" fill="white"/>
<path d="M70.1776 50.249H63.5346V56.892H70.1776V50.249Z" fill="black"/>
<path d="M76.8206 50.249H70.1776V56.892H76.8206V50.249Z" fill="white"/>
<path d="M83.4636 50.249H76.8206V56.892H83.4636V50.249Z" fill="black"/>
<path d="M90.1066 50.249H83.4636V56.892H90.1066V50.249Z" fill="white"/>
<path d="M96.7496 50.249H90.1066V56.892H96.7496V50.249Z" fill="white"/>
<path d="M103.393 50.249H96.7496V56.892H103.393V50.249Z" fill="white"/>
<path d="M110.036 50.249H103.393V56.892H110.036V50.249Z" fill="white"/>
<path d="M116.679 50.249H110.036V56.892H116.679V50.249Z" fill="white"/>
<path d="M123.322 50.249H116.679V56.892H123.322V50.249Z" fill="white"/>
<path d="M129.964 50.249H123.322V56.892H129.964V50.249Z" fill="black"/>
<path d="M136.607 50.249H129.964V56.892H136.607V50.249Z" fill="white"/>
<path d="M143.25 50.249H136.607V56.892H143.25V50.249Z" fill="black"/>
<path d="M149.893 50.249H143.25V56.892H149.893V50.249Z" fill="black"/>
<path d="M156.536 50.249H149.893V56.892H156.536V50.249Z" fill="white"/>
<path d="M163.179 50.249H156.536V56.892H163.179V50.249Z" fill="white"/>
<path d="M169.822 50.249H163.179V56.892H169.822V50.249Z" fill="white"/>
<path d="M176.465 50.249H169.822V56.892H176.465V50.249Z" fill="black"/>
<path d="M183.108 50.249H176.465V56.892H183.108V50.249Z" fill="white"/>
<path d="M189.751 50.249H183.108V56.892H189.751V50.249Z" fill="black"/>
<path d="M196.394 50.249H189.751V56.892H196.394V50.249Z" fill="black"/>
<path d="M203.037 50.249H196.394V56.892H203.037V50.249Z" fill="black"/>
<path d="M209.68 50.249H203.037V56.892H209.68V50.249Z" fill="white"/>
<path d="M216.323 50.249H209.68V56.892H216.323V50.249Z" fill="black"/>
<path d="M30.3197 56.8918H23.6768V63.5348H30.3197V56.8918Z" fill="black"/>
<path d="M36.9627 56.8918H30.3197V63.5348H36.9627V56.8918Z" fill="white"/>
<path d="M43.6057 56.8918H36.9627V63.5348H43.6057V56.8918Z" fill="white"/>
<path d="M50.2487 56.8918H43.6057V63.5348H50.2487V56.8918Z" fill="white"/>
<path d="M56.8916 56.8918H50.2487V63.5348H56.8916V56.8918Z" fill="white"/>
<path d="M63.5346 56.8918H56.8917V63.5348H63.5346V56.8918Z" fill="white"/>
<path d="M70.1776 56.8918H63.5346V63.5348H70.1776V56.8918Z" fill="black"/>
<path d="M76.8206 56.8918H70.1776V63.5348H76.8206V56.8918Z" fill="white"/>
<path d="M83.4636 56.8918H76.8206V63.5348H83.4636V56.8918Z" fill="black"/>
<path d="M90.1066 56.8918H83.4636V63.5348H90.1066V56.8918Z" fill="black"/>
<path d="M96.7496 56.8918H90.1066V63.5348H96.7496V56.8918Z" fill="white"/>
<path d="M103.393 56.8918H96.7496V63.5348H103.393V56.8918Z" fill="black"/>
<path d="M110.036 56.8918H103.393V63.5348H110.036V56.8918Z" fill="white"/>
<path d="M116.679 56.8918H110.036V63.5348H116.679V56.8918Z" fill="white"/>
<path d="M123.322 56.8918H116.679V63.5348H123.322V56.8918Z" fill="white"/>
<path d="M129.964 56.8918H123.322V63.5348H129.964V56.8918Z" fill="black"/>
<path d="M136.607 56.8918H129.964V63.5348H136.607V56.8918Z" fill="white"/>
<path d="M143.25 56.8918H136.607V63.5348H143.25V56.8918Z" fill="black"/>
<path d="M149.893 56.8918H143.25V63.5348H149.893V56.8918Z" fill="black"/>
<path d="M156.536 56.8918H149.893V63.5348H156.536V56.8918Z" fill="black"/>
<path d="M163.179 56.8918H156.536V63.5348H163.179V56.8918Z" fill="black"/>
<path d="M169.822 56.8918H163.179V63.5348H169.822V56.8918Z" fill="white"/>
<path d="M176.465 56.8918H169.822V63.5348H176.465V56.8918Z" fill="black"/>
<path d="M183.108 56.8918H176.465V63.5348H183.108V56.8918Z" fill="white"/>
<path d="M189.751 56.8918H183.108V63.5348H189.751V56.8918Z" fill="white"/>
<path d="M196.394 56.8918H189.751V63.5348H196.394V56.8918Z" fill="white"/>
<path d="M203.037 56.8918H196.394V63.5348H203.037V56.8918Z" fill="white"/>
<path d="M209.68 56.8918H203.037V63.5348H209.68V56.8918Z" fill="white"/>
<path d="M216.323 56.8918H209.68V63.5348H216.323V56.8918Z" fill="black"/>
<path d="M30.3197 63.5349H23.6768V70.1779H30.3197V63.5349Z" fill="black"/>
<path d="M36.9627 63.5349H30.3197V70.1779H36.9627V63.5349Z" fill="black"/>
<path d="M43.6057 63.5349H36.9627V70.1779H43.6057V63.5349Z" fill="black"/>
<path d="M50.2487 63.5349H43.6057V70.1779H50.2487V63.5349Z" fill="black"/>
<path d="M56.8916 63.5349H50.2487V70.1779H56.8916V63.5349Z" fill="black"/>
<path d="M63.5346 63.5349H56.8917V70.1779H63.5346V63.5349Z" fill="black"/>
<path d="M70.1776 63.5349H63.5346V70.1779H70.1776V63.5349Z" fill="black"/>
<path d="M76.8206 63.5349H70.1776V70.1779H76.8206V63.5349Z" fill="white"/>
<path d="M83.4636 63.5349H76.8206V70.1779H83.4636V63.5349Z" fill="black"/>
<path d="M90.1066 63.5349H83.4636V70.1779H90.1066V63.5349Z" fill="white"/>
<path d="M96.7496 63.5349H90.1066V70.1779H96.7496V63.5349Z" fill="black"/>
<path d="M103.393 63.5349H96.7496V70.1779H103.393V63.5349Z" fill="white"/>
<path d="M110.036 63.5349H103.393V70.1779H110.036V63.5349Z" fill="black"/>
<path d="M116.679 63.5349H110.036V70.1779H116.679V63.5349Z" fill="white"/>
<path d="M123.322 63.5349H116.679V70.1779H123.322V63.5349Z" fill="black"/>
<path d="M129.964 63.5349H123.322V70.1779H129.964V63.5349Z" fill="white"/>
<path d="M136.607 63.5349H129.964V70.1779H136.607V63.5349Z" fill="black"/>
<path d="M143.25 63.5349H136.607V70.1779H143.25V63.5349Z" fill="white"/>
<path d="M149.893 63.5349H143.25V70.1779H149.893V63.5349Z" fill="black"/>
<path d="M156.536 63.5349H149.893V70.1779H156.536V63.5349Z" fill="white"/>
<path d="M163.179 63.5349H156.536V70.1779H163.179V63.5349Z" fill="black"/>
<path d="M169.822 63.5349H163.179V70.1779H169.822V63.5349Z" fill="white"/>
<path d="M176.465 63.5349H169.822V70.1779H176.465V63.5349Z" fill="black"/>
<path d="M183.108 63.5349H176.465V70.1779H183.108V63.5349Z" fill="black"/>
<path d="M189.751 63.5349H183.108V70.1779H189.751V63.5349Z" fill="black"/>
<path d="M196.394 63.5349H189.751V70.1779H196.394V63.5349Z" fill="black"/>
<path d="M203.037 63.5349H196.394V70.1779H203.037V63.5349Z" fill="black"/>
<path d="M209.68 63.5349H203.037V70.1779H209.68V63.5349Z" fill="black"/>
<path d="M216.323 63.5349H209.68V70.1779H216.323V63.5349Z" fill="black"/>
<path d="M30.3197 70.1779H23.6768V76.8208H30.3197V70.1779Z" fill="white"/>
<path d="M36.9627 70.1779H30.3197V76.8208H36.9627V70.1779Z" fill="white"/>
<path d="M43.6057 70.1779H36.9627V76.8208H43.6057V70.1779Z" fill="white"/>
<path d="M50.2487 70.1779H43.6057V76.8208H50.2487V70.1779Z" fill="white"/>
<path d="M56.8916 70.1779H50.2487V76.8208H56.8916V70.1779Z" fill="white"/>
<path d="M63.5346 70.1779H56.8917V76.8208H63.5346V70.1779Z" fill="white"/>
<path d="M70.1776 70.1779H63.5346V76.8208H70.1776V70.1779Z" fill="white"/>
<path d="M76.8206 70.1779H70.1776V76.8208H76.8206V70.1779Z" fill="white"/>
<path d="M83.4636 70.1779H76.8206V76.8208H83.4636V70.1779Z" fill="black"/>
<path d="M90.1066 70.1779H83.4636V76.8208H90.1066V70.1779Z" fill="black"/>
<path d="M96.7496 70.1779H90.1066V76.8208H96.7496V70.1779Z" fill="white"/>
<path d="M103.393 70.1779H96.7496V76.8208H103.393V70.1779Z" fill="white"/>
<path d="M110.036 70.1779H103.393V76.8208H110.036V70.1779Z" fill="black"/>
<path d="M116.679 70.1779H110.036V76.8208H116.679V70.1779Z" fill="white"/>
<path d="M123.322 70.1779H116.679V76.8208H123.322V70.1779Z" fill="black"/>
<path d="M129.964 70.1779H123.322V76.8208H129.964V70.1779Z" fill="white"/>
<path d="M136.607 70.1779H129.964V76.8208H136.607V70.1779Z" fill="black"/>
<path d="M143.25 70.1779H136.607V76.8208H143.25V70.1779Z" fill="black"/>
<path d="M149.893 70.1779H143.25V76.8208H149.893V70.1779Z" fill="black"/>
<path d="M156.536 70.1779H149.893V76.8208H156.536V70.1779Z" fill="black"/>
<path d="M163.179 70.1779H156.536V76.8208H163.179V70.1779Z" fill="black"/>
<path d="M169.822 70.1779H163.179V76.8208H169.822V70.1779Z" fill="white"/>
<path d="M176.465 70.1779H169.822V76.8208H176.465V70.1779Z" fill="white"/>
<path d="M183.108 70.1779H176.465V76.8208H183.108V70.1779Z" fill="white"/>
<path d="M189.751 70.1779H183.108V76.8208H189.751V70.1779Z" fill="white"/>
<path d="M196.394 70.1779H189.751V76.8208H196.394V70.1779Z" fill="white"/>
<path d="M203.037 70.1779H196.394V76.8208H203.037V70.1779Z" fill="white"/>
<path d="M209.68 70.1779H203.037V76.8208H209.68V70.1779Z" fill="white"/>
<path d="M216.323 70.1779H209.68V76.8208H216.323V70.1779Z" fill="white"/>
<path d="M30.3197 76.8208H23.6768V83.4638H30.3197V76.8208Z" fill="black"/>
<path d="M36.9627 76.8208H30.3197V83.4638H36.9627V76.8208Z" fill="black"/>
<path d="M43.6057 76.8208H36.9627V83.4638H43.6057V76.8208Z" fill="white"/>
<path d="M50.2487 76.8208H43.6057V83.4638H50.2487V76.8208Z" fill="black"/>
<path d="M56.8916 76.8208H50.2487V83.4638H56.8916V76.8208Z" fill="white"/>
<path d="M63.5346 76.8208H56.8917V83.4638H63.5346V76.8208Z" fill="white"/>
<path d="M70.1776 76.8208H63.5346V83.4638H70.1776V76.8208Z" fill="black"/>
<path d="M76.8206 76.8208H70.1776V83.4638H76.8206V76.8208Z" fill="black"/>
<path d="M83.4636 76.8208H76.8206V83.4638H83.4636V76.8208Z" fill="white"/>
<path d="M90.1066 76.8208H83.4636V83.4638H90.1066V76.8208Z" fill="white"/>
<path d="M96.7496 76.8208H90.1066V83.4638H96.7496V76.8208Z" fill="black"/>
<path d="M103.393 76.8208H96.7496V83.4638H103.393V76.8208Z" fill="white"/>
<path d="M110.036 76.8208H103.393V83.4638H110.036V76.8208Z" fill="black"/>
<path d="M116.679 76.8208H110.036V83.4638H116.679V76.8208Z" fill="black"/>
<path d="M123.322 76.8208H116.679V83.4638H123.322V76.8208Z" fill="black"/>
<path d="M129.964 76.8208H123.322V83.4638H129.964V76.8208Z" fill="white"/>
<path d="M136.607 76.8208H129.964V83.4638H136.607V76.8208Z" fill="white"/>
<path d="M143.25 76.8208H136.607V83.4638H143.25V76.8208Z" fill="black"/>
<path d="M149.893 76.8208H143.25V83.4638H149.893V76.8208Z" fill="white"/>
<path d="M156.536 76.8208H149.893V83.4638H156.536V76.8208Z" fill="black"/>
<path d="M163.179 76.8208H156.536V83.4638H163.179V76.8208Z" fill="white"/>
<path d="M169.822 76.8208H163.179V83.4638H169.822V76.8208Z" fill="white"/>
<path d="M176.465 76.8208H169.822V83.4638H176.465V76.8208Z" fill="black"/>
<path d="M183.108 76.8208H176.465V83.4638H183.108V76.8208Z" fill="black"/>
<path d="M189.751 76.8208H183.108V83.4638H189.751V76.8208Z" fill="black"/>
<path d="M196.394 76.8208H189.751V83.4638H196.394V76.8208Z" fill="white"/>
<path d="M203.037 76.8208H196.394V83.4638H203.037V76.8208Z" fill="black"/>
<path d="M209.68 76.8208H203.037V83.4638H209.68V76.8208Z" fill="black"/>
<path d="M216.323 76.8208H209.68V83.4638H216.323V76.8208Z" fill="white"/>
<path d="M30.3197 83.4639H23.6768V90.1069H30.3197V83.4639Z" fill="black"/>
<path d="M36.9627 83.4639H30.3197V90.1069H36.9627V83.4639Z" fill="black"/>
<path d="M43.6057 83.4639H36.9627V90.1069H43.6057V83.4639Z" fill="black"/>
<path d="M50.2487 83.4639H43.6057V90.1069H50.2487V83.4639Z" fill="white"/>
<path d="M56.8916 83.4639H50.2487V90.1069H56.8916V83.4639Z" fill="black"/>
<path d="M63.5346 83.4639H56.8917V90.1069H63.5346V83.4639Z" fill="black"/>
<path d="M70.1776 83.4639H63.5346V90.1069H70.1776V83.4639Z" fill="white"/>
<path d="M76.8206 83.4639H70.1776V90.1069H76.8206V83.4639Z" fill="black"/>
<path d="M83.4636 83.4639H76.8206V90.1069H83.4636V83.4639Z" fill="black"/>
<path d="M90.1066 83.4639H83.4636V90.1069H90.1066V83.4639Z" fill="white"/>
<path d="M96.7496 83.4639H90.1066V90.1069H96.7496V83.4639Z" fill="black"/>
<path d="M103.393 83.4639H96.7496V90.1069H103.393V83.4639Z" fill="black"/>
<path d="M110.036 83.4639H103.393V90.1069H110.036V83.4639Z" fill="white"/>
<path d="M116.679 83.4639H110.036V90.1069H116.679V83.4639Z" fill="black"/>
<path d="M123.322 83.4639H116.679V90.1069H123.322V83.4639Z" fill="white"/>
<path d="M129.964 83.4639H123.322V90.1069H129.964V83.4639Z" fill="white"/>
<path d="M136.607 83.4639H129.964V90.1069H136.607V83.4639Z" fill="white"/>
<path d="M143.25 83.4639H136.607V90.1069H143.25V83.4639Z" fill="black"/>
<path d="M149.893 83.4639H143.25V90.1069H149.893V83.4639Z" fill="black"/>
<path d="M156.536 83.4639H149.893V90.1069H156.536V83.4639Z" fill="white"/>
<path d="M163.179 83.4639H156.536V90.1069H163.179V83.4639Z" fill="white"/>
<path d="M169.822 83.4639H163.179V90.1069H169.822V83.4639Z" fill="black"/>
<path d="M176.465 83.4639H169.822V90.1069H176.465V83.4639Z" fill="black"/>
<path d="M183.108 83.4639H176.465V90.1069H183.108V83.4639Z" fill="black"/>
<path d="M189.751 83.4639H183.108V90.1069H189.751V83.4639Z" fill="white"/>
<path d="M196.394 83.4639H189.751V90.1069H196.394V83.4639Z" fill="black"/>
<path d="M203.037 83.4639H196.394V90.1069H203.037V83.4639Z" fill="white"/>
<path d="M209.68 83.4639H203.037V90.1069H209.68V83.4639Z" fill="white"/>
<path d="M216.323 83.4639H209.68V90.1069H216.323V83.4639Z" fill="black"/>
<path d="M30.3197 90.1068H23.6768V96.7498H30.3197V90.1068Z" fill="black"/>
<path d="M36.9627 90.1068H30.3197V96.7498H36.9627V90.1068Z" fill="black"/>
<path d="M43.6057 90.1068H36.9627V96.7498H43.6057V90.1068Z" fill="black"/>
<path d="M50.2487 90.1068H43.6057V96.7498H50.2487V90.1068Z" fill="white"/>
<path d="M56.8916 90.1068H50.2487V96.7498H56.8916V90.1068Z" fill="black"/>
<path d="M63.5346 90.1068H56.8917V96.7498H63.5346V90.1068Z" fill="black"/>
<path d="M70.1776 90.1068H63.5346V96.7498H70.1776V90.1068Z" fill="black"/>
<path d="M76.8206 90.1068H70.1776V96.7498H76.8206V90.1068Z" fill="white"/>
<path d="M83.4636 90.1068H76.8206V96.7498H83.4636V90.1068Z" fill="white"/>
<path d="M90.1066 90.1068H83.4636V96.7498H90.1066V90.1068Z" fill="black"/>
<path d="M96.7496 90.1068H90.1066V96.7498H96.7496V90.1068Z" fill="black"/>
<path d="M103.393 90.1068H96.7496V96.7498H103.393V90.1068Z" fill="white"/>
<path d="M110.036 90.1068H103.393V96.7498H110.036V90.1068Z" fill="white"/>
<path d="M116.679 90.1068H110.036V96.7498H116.679V90.1068Z" fill="black"/>
<path d="M123.322 90.1068H116.679V96.7498H123.322V90.1068Z" fill="black"/>
<path d="M129.964 90.1068H123.322V96.7498H129.964V90.1068Z" fill="white"/>
<path d="M136.607 90.1068H129.964V96.7498H136.607V90.1068Z" fill="black"/>
<path d="M143.25 90.1068H136.607V96.7498H143.25V90.1068Z" fill="white"/>
<path d="M149.893 90.1068H143.25V96.7498H149.893V90.1068Z" fill="white"/>
<path d="M156.536 90.1068H149.893V96.7498H156.536V90.1068Z" fill="black"/>
<path d="M163.179 90.1068H156.536V96.7498H163.179V90.1068Z" fill="white"/>
<path d="M169.822 90.1068H163.179V96.7498H169.822V90.1068Z" fill="black"/>
<path d="M176.465 90.1068H169.822V96.7498H176.465V90.1068Z" fill="black"/>
<path d="M183.108 90.1068H176.465V96.7498H183.108V90.1068Z" fill="white"/>
<path d="M189.751 90.1068H183.108V96.7498H189.751V90.1068Z" fill="white"/>
<path d="M196.394 90.1068H189.751V96.7498H196.394V90.1068Z" fill="black"/>
<path d="M203.037 90.1068H196.394V96.7498H203.037V90.1068Z" fill="black"/>
<path d="M209.68 90.1068H203.037V96.7498H209.68V90.1068Z" fill="black"/>
<path d="M216.323 90.1068H209.68V96.7498H216.323V90.1068Z" fill="white"/>
<path d="M30.3197 96.7498H23.6768V103.393H30.3197V96.7498Z" fill="white"/>
<path d="M36.9627 96.7498H30.3197V103.393H36.9627V96.7498Z" fill="black"/>
<path d="M43.6057 96.7498H36.9627V103.393H43.6057V96.7498Z" fill="black"/>
<path d="M50.2487 96.7498H43.6057V103.393H50.2487V96.7498Z" fill="white"/>
<path d="M56.8916 96.7498H50.2487V103.393H56.8916V96.7498Z" fill="white"/>
<path d="M63.5346 96.7498H56.8917V103.393H63.5346V96.7498Z" fill="black"/>
<path d="M70.1776 96.7498H63.5346V103.393H70.1776V96.7498Z" fill="white"/>
<path d="M76.8206 96.7498H70.1776V103.393H76.8206V96.7498Z" fill="white"/>
<path d="M83.4636 96.7498H76.8206V103.393H83.4636V96.7498Z" fill="white"/>
<path d="M90.1066 96.7498H83.4636V103.393H90.1066V96.7498Z" fill="white"/>
<path d="M96.7496 96.7498H90.1066V103.393H96.7496V96.7498Z" fill="white"/>
<path d="M103.393 96.7498H96.7496V103.393H103.393V96.7498Z" fill="white"/>
<path d="M110.036 96.7498H103.393V103.393H110.036V96.7498Z" fill="black"/>
<path d="M116.679 96.7498H110.036V103.393H116.679V96.7498Z" fill="black"/>
<path d="M123.322 96.7498H116.679V103.393H123.322V96.7498Z" fill="white"/>
<path d="M129.964 96.7498H123.322V103.393H129.964V96.7498Z" fill="white"/>
<path d="M136.607 96.7498H129.964V103.393H136.607V96.7498Z" fill="white"/>
<path d="M143.25 96.7498H136.607V103.393H143.25V96.7498Z" fill="white"/>
<path d="M149.893 96.7498H143.25V103.393H149.893V96.7498Z" fill="white"/>
<path d="M156.536 96.7498H149.893V103.393H156.536V96.7498Z" fill="white"/>
<path d="M163.179 96.7498H156.536V103.393H163.179V96.7498Z" fill="black"/>
<path d="M169.822 96.7498H163.179V103.393H169.822V96.7498Z" fill="black"/>
<path d="M176.465 96.7498H169.822V103.393H176.465V96.7498Z" fill="black"/>
<path d="M183.108 96.7498H176.465V103.393H183.108V96.7498Z" fill="black"/>
<path d="M189.751 96.7498H183.108V103.393H189.751V96.7498Z" fill="black"/>
<path d="M196.394 96.7498H189.751V103.393H196.394V96.7498Z" fill="white"/>
<path d="M203.037 96.7498H196.394V103.393H203.037V96.7498Z" fill="black"/>
<path d="M209.68 96.7498H203.037V103.393H209.68V96.7498Z" fill="black"/>
<path d="M216.323 96.7498H209.68V103.393H216.323V96.7498Z" fill="white"/>
<path d="M30.3197 103.393H23.6768V110.036H30.3197V103.393Z" fill="black"/>
<path d="M36.9627 103.393H30.3197V110.036H36.9627V103.393Z" fill="black"/>
<path d="M43.6057 103.393H36.9627V110.036H43.6057V103.393Z" fill="white"/>
<path d="M50.2487 103.393H43.6057V110.036H50.2487V103.393Z" fill="white"/>
<path d="M56.8916 103.393H50.2487V110.036H56.8916V103.393Z" fill="white"/>
<path d="M63.5346 103.393H56.8917V110.036H63.5346V103.393Z" fill="black"/>
<path d="M70.1776 103.393H63.5346V110.036H70.1776V103.393Z" fill="black"/>
<path d="M76.8206 103.393H70.1776V110.036H76.8206V103.393Z" fill="black"/>
<path d="M83.4636 103.393H76.8206V110.036H83.4636V103.393Z" fill="white"/>
<path d="M90.1066 103.393H83.4636V110.036H90.1066V103.393Z" fill="white"/>
<path d="M96.7496 103.393H90.1066V110.036H96.7496V103.393Z" fill="white"/>
<path d="M103.393 103.393H96.7496V110.036H103.393V103.393Z" fill="white"/>
<path d="M110.036 103.393H103.393V110.036H110.036V103.393Z" fill="black"/>
<path d="M116.679 103.393H110.036V110.036H116.679V103.393Z" fill="black"/>
<path d="M123.322 103.393H116.679V110.036H123.322V103.393Z" fill="white"/>
<path d="M129.964 103.393H123.322V110.036H129.964V103.393Z" fill="white"/>
<path d="M136.607 103.393H129.964V110.036H136.607V103.393Z" fill="white"/>
<path d="M143.25 103.393H136.607V110.036H143.25V103.393Z" fill="black"/>
<path d="M149.893 103.393H143.25V110.036H149.893V103.393Z" fill="black"/>
<path d="M156.536 103.393H149.893V110.036H156.536V103.393Z" fill="black"/>
<path d="M163.179 103.393H156.536V110.036H163.179V103.393Z" fill="black"/>
<path d="M169.822 103.393H163.179V110.036H169.822V103.393Z" fill="black"/>
<path d="M176.465 103.393H169.822V110.036H176.465V103.393Z" fill="black"/>
<path d="M183.108 103.393H176.465V110.036H183.108V103.393Z" fill="white"/>
<path d="M189.751 103.393H183.108V110.036H189.751V103.393Z" fill="white"/>
<path d="M196.394 103.393H189.751V110.036H196.394V103.393Z" fill="black"/>
<path d="M203.037 103.393H196.394V110.036H203.037V103.393Z" fill="white"/>
<path d="M209.68 103.393H203.037V110.036H209.68V103.393Z" fill="black"/>
<path d="M216.323 103.393H209.68V110.036H216.323V103.393Z" fill="black"/>
<path d="M30.3197 110.036H23.6768V116.679H30.3197V110.036Z" fill="black"/>
<path d="M36.9627 110.036H30.3197V116.679H36.9627V110.036Z" fill="white"/>
<path d="M43.6057 110.036H36.9627V116.679H43.6057V110.036Z" fill="black"/>
<path d="M50.2487 110.036H43.6057V116.679H50.2487V110.036Z" fill="white"/>
<path d="M56.8916 110.036H50.2487V116.679H56.8916V110.036Z" fill="black"/>
<path d="M63.5346 110.036H56.8917V116.679H63.5346V110.036Z" fill="black"/>
<path d="M70.1776 110.036H63.5346V116.679H70.1776V110.036Z" fill="white"/>
<path d="M76.8206 110.036H70.1776V116.679H76.8206V110.036Z" fill="white"/>
<path d="M83.4636 110.036H76.8206V116.679H83.4636V110.036Z" fill="white"/>
<path d="M90.1066 110.036H83.4636V116.679H90.1066V110.036Z" fill="white"/>
<path d="M96.7496 110.036H90.1066V116.679H96.7496V110.036Z" fill="black"/>
<path d="M103.393 110.036H96.7496V116.679H103.393V110.036Z" fill="white"/>
<path d="M110.036 110.036H103.393V116.679H110.036V110.036Z" fill="black"/>
<path d="M116.679 110.036H110.036V116.679H116.679V110.036Z" fill="white"/>
<path d="M123.322 110.036H116.679V116.679H123.322V110.036Z" fill="white"/>
<path d="M129.964 110.036H123.322V116.679H129.964V110.036Z" fill="white"/>
<path d="M136.607 110.036H129.964V116.679H136.607V110.036Z" fill="black"/>
<path d="M143.25 110.036H136.607V116.679H143.25V110.036Z" fill="black"/>
<path d="M149.893 110.036H143.25V116.679H149.893V110.036Z" fill="black"/>
<path d="M156.536 110.036H149.893V116.679H156.536V110.036Z" fill="black"/>
<path d="M163.179 110.036H156.536V116.679H163.179V110.036Z" fill="black"/>
<path d="M169.822 110.036H163.179V116.679H169.822V110.036Z" fill="black"/>
<path d="M176.465 110.036H169.822V116.679H176.465V110.036Z" fill="white"/>
<path d="M183.108 110.036H176.465V116.679H183.108V110.036Z" fill="white"/>
<path d="M189.751 110.036H183.108V116.679H189.751V110.036Z" fill="white"/>
<path d="M196.394 110.036H189.751V116.679H196.394V110.036Z" fill="white"/>
<path d="M203.037 110.036H196.394V116.679H203.037V110.036Z" fill="white"/>
<path d="M209.68 110.036H203.037V116.679H209.68V110.036Z" fill="white"/>
<path d="M216.323 110.036H209.68V116.679H216.323V110.036Z" fill="white"/>
<path d="M30.3197 116.679H23.6768V123.322H30.3197V116.679Z" fill="white"/>
<path d="M36.9627 116.679H30.3197V123.322H36.9627V116.679Z" fill="white"/>
<path d="M43.6057 116.679H36.9627V123.322H43.6057V116.679Z" fill="white"/>
<path d="M50.2487 116.679H43.6057V123.322H50.2487V116.679Z" fill="white"/>
<path d="M56.8916 116.679H50.2487V123.322H56.8916V116.679Z" fill="black"/>
<path d="M63.5346 116.679H56.8917V123.322H63.5346V116.679Z" fill="white"/>
<path d="M70.1776 116.679H63.5346V123.322H70.1776V116.679Z" fill="black"/>
<path d="M76.8206 116.679H70.1776V123.322H76.8206V116.679Z" fill="white"/>
<path d="M83.4636 116.679H76.8206V123.322H83.4636V116.679Z" fill="black"/>
<path d="M90.1066 116.679H83.4636V123.322H90.1066V116.679Z" fill="black"/>
<path d="M96.7496 116.679H90.1066V123.322H96.7496V116.679Z" fill="white"/>
<path d="M103.393 116.679H96.7496V123.322H103.393V116.679Z" fill="black"/>
<path d="M110.036 116.679H103.393V123.322H110.036V116.679Z" fill="white"/>
<path d="M116.679 116.679H110.036V123.322H116.679V116.679Z" fill="black"/>
<path d="M123.322 116.679H116.679V123.322H123.322V116.679Z" fill="black"/>
<path d="M129.964 116.679H123.322V123.322H129.964V116.679Z" fill="white"/>
<path d="M136.607 116.679H129.964V123.322H136.607V116.679Z" fill="black"/>
<path d="M143.25 116.679H136.607V123.322H143.25V116.679Z" fill="black"/>
<path d="M149.893 116.679H143.25V123.322H149.893V116.679Z" fill="white"/>
<path d="M156.536 116.679H149.893V123.322H156.536V116.679Z" fill="white"/>
<path d="M163.179 116.679H156.536V123.322H163.179V116.679Z" fill="white"/>
<path d="M169.822 116.679H163.179V123.322H169.822V116.679Z" fill="black"/>
<path d="M176.465 116.679H169.822V123.322H176.465V116.679Z" fill="white"/>
<path d="M183.108 116.679H176.465V123.322H183.108V116.679Z" fill="white"/>
<path d="M189.751 116.679H183.108V123.322H189.751V116.679Z" fill="black"/>
<path d="M196.394 116.679H189.751V123.322H196.394V116.679Z" fill="black"/>
<path d="M203.037 116.679H196.394V123.322H203.037V116.679Z" fill="black"/>
<path d="M209.68 116.679H203.037V123.322H209.68V116.679Z" fill="black"/>
<path d="M216.323 116.679H209.68V123.322H216.323V116.679Z" fill="black"/>
<path d="M30.3197 123.322H23.6768V129.965H30.3197V123.322Z" fill="black"/>
<path d="M36.9627 123.322H30.3197V129.965H36.9627V123.322Z" fill="white"/>
<path d="M43.6057 123.322H36.9627V129.965H43.6057V123.322Z" fill="black"/>
<path d="M50.2487 123.322H43.6057V129.965H50.2487V123.322Z" fill="black"/>
<path d="M56.8916 123.322H50.2487V129.965H56.8916V123.322Z" fill="white"/>
<path d="M63.5346 123.322H56.8917V129.965H63.5346V123.322Z" fill="white"/>
<path d="M70.1776 123.322H63.5346V129.965H70.1776V123.322Z" fill="white"/>
<path d="M76.8206 123.322H70.1776V129.965H76.8206V123.322Z" fill="white"/>
<path d="M83.4636 123.322H76.8206V129.965H83.4636V123.322Z" fill="black"/>
<path d="M90.1066 123.322H83.4636V129.965H90.1066V123.322Z" fill="white"/>
<path d="M96.7496 123.322H90.1066V129.965H96.7496V123.322Z" fill="white"/>
<path d="M103.393 123.322H96.7496V129.965H103.393V123.322Z" fill="black"/>
<path d="M110.036 123.322H103.393V129.965H110.036V123.322Z" fill="black"/>
<path d="M116.679 123.322H110.036V129.965H116.679V123.322Z" fill="black"/>
<path d="M123.322 123.322H116.679V129.965H123.322V123.322Z" fill="white"/>
<path d="M129.964 123.322H123.322V129.965H129.964V123.322Z" fill="black"/>
<path d="M136.607 123.322H129.964V129.965H136.607V123.322Z" fill="white"/>
<path d="M143.25 123.322H136.607V129.965H143.25V123.322Z" fill="black"/>
<path d="M149.893 123.322H143.25V129.965H149.893V123.322Z" fill="white"/>
<path d="M156.536 123.322H149.893V129.965H156.536V123.322Z" fill="white"/>
<path d="M163.179 123.322H156.536V129.965H163.179V123.322Z" fill="black"/>
<path d="M169.822 123.322H163.179V129.965H169.822V123.322Z" fill="white"/>
<path d="M176.465 123.322H169.822V129.965H176.465V123.322Z" fill="black"/>
<path d="M183.108 123.322H176.465V129.965H183.108V123.322Z" fill="black"/>
<path d="M189.751 123.322H183.108V129.965H189.751V123.322Z" fill="white"/>
<path d="M196.394 123.322H189.751V129.965H196.394V123.322Z" fill="black"/>
<path d="M203.037 123.322H196.394V129.965H203.037V123.322Z" fill="white"/>
<path d="M209.68 123.322H203.037V129.965H209.68V123.322Z" fill="black"/>
<path d="M216.323 123.322H209.68V129.965H216.323V123.322Z" fill="white"/>
<path d="M30.3197 129.965H23.6768V136.608H30.3197V129.965Z" fill="black"/>
<path d="M36.9627 129.965H30.3197V136.608H36.9627V129.965Z" fill="white"/>
<path d="M43.6057 129.965H36.9627V136.608H43.6057V129.965Z" fill="white"/>
<path d="M50.2487 129.965H43.6057V136.608H50.2487V129.965Z" fill="black"/>
<path d="M56.8916 129.965H50.2487V136.608H56.8916V129.965Z" fill="black"/>
<path d="M63.5346 129.965H56.8917V136.608H63.5346V129.965Z" fill="white"/>
<path d="M70.1776 129.965H63.5346V136.608H70.1776V129.965Z" fill="black"/>
<path d="M76.8206 129.965H70.1776V136.608H76.8206V129.965Z" fill="white"/>
<path d="M83.4636 129.965H76.8206V136.608H83.4636V129.965Z" fill="black"/>
<path d="M90.1066 129.965H83.4636V136.608H90.1066V129.965Z" fill="black"/>
<path d="M96.7496 129.965H90.1066V136.608H96.7496V129.965Z" fill="black"/>
<path d="M103.393 129.965H96.7496V136.608H103.393V129.965Z" fill="white"/>
<path d="M110.036 129.965H103.393V136.608H110.036V129.965Z" fill="white"/>
<path d="M116.679 129.965H110.036V136.608H116.679V129.965Z" fill="black"/>
<path d="M123.322 129.965H116.679V136.608H123.322V129.965Z" fill="white"/>
<path d="M129.964 129.965H123.322V136.608H129.964V129.965Z" fill="black"/>
<path d="M136.607 129.965H129.964V136.608H136.607V129.965Z" fill="black"/>
<path d="M143.25 129.965H136.607V136.608H143.25V129.965Z" fill="black"/>
<path d="M149.893 129.965H143.25V136.608H149.893V129.965Z" fill="black"/>
<path d="M156.536 129.965H149.893V136.608H156.536V129.965Z" fill="white"/>
<path d="M163.179 129.965H156.536V136.608H163.179V129.965Z" fill="black"/>
<path d="M169.822 129.965H163.179V136.608H169.822V129.965Z" fill="black"/>
<path d="M176.465 129.965H169.822V136.608H176.465V129.965Z" fill="white"/>
<path d="M183.108 129.965H176.465V136.608H183.108V129.965Z" fill="white"/>
<path d="M189.751 129.965H183.108V136.608H189.751V129.965Z" fill="white"/>
<path d="M196.394 129.965H189.751V136.608H196.394V129.965Z" fill="white"/>
<path d="M203.037 129.965H196.394V136.608H203.037V129.965Z" fill="white"/>
<path d="M209.68 129.965H203.037V136.608H209.68V129.965Z" fill="black"/>
<path d="M216.323 129.965H209.68V136.608H216.323V129.965Z" fill="white"/>
<path d="M30.3197 136.608H23.6768V143.251H30.3197V136.608Z" fill="white"/>
<path d="M36.9627 136.608H30.3197V143.251H36.9627V136.608Z" fill="black"/>
<path d="M43.6057 136.608H36.9627V143.251H43.6057V136.608Z" fill="black"/>
<path d="M50.2487 136.608H43.6057V143.251H50.2487V136.608Z" fill="black"/>
<path d="M56.8916 136.608H50.2487V143.251H56.8916V136.608Z" fill="white"/>
<path d="M63.5346 136.608H56.8917V143.251H63.5346V136.608Z" fill="white"/>
<path d="M70.1776 136.608H63.5346V143.251H70.1776V136.608Z" fill="white"/>
<path d="M76.8206 136.608H70.1776V143.251H76.8206V136.608Z" fill="white"/>
<path d="M83.4636 136.608H76.8206V143.251H83.4636V136.608Z" fill="black"/>
<path d="M90.1066 136.608H83.4636V143.251H90.1066V136.608Z" fill="white"/>
<path d="M96.7496 136.608H90.1066V143.251H96.7496V136.608Z" fill="black"/>
<path d="M103.393 136.608H96.7496V143.251H103.393V136.608Z" fill="black"/>
<path d="M110.036 136.608H103.393V143.251H110.036V136.608Z" fill="black"/>
<path d="M116.679 136.608H110.036V143.251H116.679V136.608Z" fill="white"/>
<path d="M123.322 136.608H116.679V143.251H123.322V136.608Z" fill="white"/>
<path d="M129.964 136.608H123.322V143.251H129.964V136.608Z" fill="white"/>
<path d="M136.607 136.608H129.964V143.251H136.607V136.608Z" fill="white"/>
<path d="M143.25 136.608H136.607V143.251H143.25V136.608Z" fill="white"/>
<path d="M149.893 136.608H143.25V143.251H149.893V136.608Z" fill="black"/>
<path d="M156.536 136.608H149.893V143.251H156.536V136.608Z" fill="white"/>
<path d="M163.179 136.608H156.536V143.251H163.179V136.608Z" fill="white"/>
<path d="M169.822 136.608H163.179V143.251H169.822V136.608Z" fill="black"/>
<path d="M176.465 136.608H169.822V143.251H176.465V136.608Z" fill="black"/>
<path d="M183.108 136.608H176.465V143.251H183.108V136.608Z" fill="black"/>
<path d="M189.751 136.608H183.108V143.251H189.751V136.608Z" fill="white"/>
<path d="M196.394 136.608H189.751V143.251H196.394V136.608Z" fill="black"/>
<path d="M203.037 136.608H196.394V143.251H203.037V136.608Z" fill="white"/>
<path d="M209.68 136.608H203.037V143.251H209.68V136.608Z" fill="white"/>
<path d="M216.323 136.608H209.68V143.251H216.323V136.608Z" fill="black"/>
<path d="M30.3197 143.251H23.6768V149.894H30.3197V143.251Z" fill="black"/>
<path d="M36.9627 143.251H30.3197V149.894H36.9627V143.251Z" fill="white"/>
<path d="M43.6057 143.251H36.9627V149.894H43.6057V143.251Z" fill="black"/>
<path d="M50.2487 143.251H43.6057V149.894H50.2487V143.251Z" fill="white"/>
<path d="M56.8916 143.251H50.2487V149.894H56.8916V143.251Z" fill="white"/>
<path d="M63.5346 143.251H56.8917V149.894H63.5346V143.251Z" fill="white"/>
<path d="M70.1776 143.251H63.5346V149.894H70.1776V143.251Z" fill="black"/>
<path d="M76.8206 143.251H70.1776V149.894H76.8206V143.251Z" fill="white"/>
<path d="M83.4636 143.251H76.8206V149.894H83.4636V143.251Z" fill="black"/>
<path d="M90.1066 143.251H83.4636V149.894H90.1066V143.251Z" fill="black"/>
<path d="M96.7496 143.251H90.1066V149.894H96.7496V143.251Z" fill="white"/>
<path d="M103.393 143.251H96.7496V149.894H103.393V143.251Z" fill="white"/>
<path d="M110.036 143.251H103.393V149.894H110.036V143.251Z" fill="black"/>
<path d="M116.679 143.251H110.036V149.894H116.679V143.251Z" fill="black"/>
<path d="M123.322 143.251H116.679V149.894H123.322V143.251Z" fill="white"/>
<path d="M129.964 143.251H123.322V149.894H129.964V143.251Z" fill="white"/>
<path d="M136.607 143.251H129.964V149.894H136.607V143.251Z" fill="black"/>
<path d="M143.25 143.251H136.607V149.894H143.25V143.251Z" fill="black"/>
<path d="M149.893 143.251H143.25V149.894H149.893V143.251Z" fill="white"/>
<path d="M156.536 143.251H149.893V149.894H156.536V143.251Z" fill="white"/>
<path d="M163.179 143.251H156.536V149.894H163.179V143.251Z" fill="white"/>
<path d="M169.822 143.251H163.179V149.894H169.822V143.251Z" fill="black"/>
<path d="M176.465 143.251H169.822V149.894H176.465V143.251Z" fill="white"/>
<path d="M183.108 143.251H176.465V149.894H183.108V143.251Z" fill="black"/>
<path d="M189.751 143.251H183.108V149.894H189.751V143.251Z" fill="black"/>
<path d="M196.394 143.251H189.751V149.894H196.394V143.251Z" fill="white"/>
<path d="M203.037 143.251H196.394V149.894H203.037V143.251Z" fill="white"/>
<path d="M209.68 143.251H203.037V149.894H209.68V143.251Z" fill="black"/>
<path d="M216.323 143.251H209.68V149.894H216.323V143.251Z" fill="black"/>
<path d="M30.3197 149.894H23.6768V156.537H30.3197V149.894Z" fill="white"/>
<path d="M36.9627 149.894H30.3197V156.537H36.9627V149.894Z" fill="white"/>
<path d="M43.6057 149.894H36.9627V156.537H43.6057V149.894Z" fill="black"/>
<path d="M50.2487 149.894H43.6057V156.537H50.2487V149.894Z" fill="white"/>
<path d="M56.8916 149.894H50.2487V156.537H56.8916V149.894Z" fill="white"/>
<path d="M63.5346 149.894H56.8917V156.537H63.5346V149.894Z" fill="black"/>
<path d="M70.1776 149.894H63.5346V156.537H70.1776V149.894Z" fill="white"/>
<path d="M76.8206 149.894H70.1776V156.537H76.8206V149.894Z" fill="white"/>
<path d="M83.4636 149.894H76.8206V156.537H83.4636V149.894Z" fill="black"/>
<path d="M90.1066 149.894H83.4636V156.537H90.1066V149.894Z" fill="black"/>
<path d="M96.7496 149.894H90.1066V156.537H96.7496V149.894Z" fill="black"/>
<path d="M103.393 149.894H96.7496V156.537H103.393V149.894Z" fill="white"/>
<path d="M110.036 149.894H103.393V156.537H110.036V149.894Z" fill="white"/>
<path d="M116.679 149.894H110.036V156.537H116.679V149.894Z" fill="white"/>
<path d="M123.322 149.894H116.679V156.537H123.322V149.894Z" fill="black"/>
<path d="M129.964 149.894H123.322V156.537H129.964V149.894Z" fill="black"/>
<path d="M136.607 149.894H129.964V156.537H136.607V149.894Z" fill="white"/>
<path d="M143.25 149.894H136.607V156.537H143.25V149.894Z" fill="black"/>
<path d="M149.893 149.894H143.25V156.537H149.893V149.894Z" fill="white"/>
<path d="M156.536 149.894H149.893V156.537H156.536V149.894Z" fill="white"/>
<path d="M163.179 149.894H156.536V156.537H163.179V149.894Z" fill="white"/>
<path d="M169.822 149.894H163.179V156.537H169.822V149.894Z" fill="black"/>
<path d="M176.465 149.894H169.822V156.537H176.465V149.894Z" fill="white"/>
<path d="M183.108 149.894H176.465V156.537H183.108V149.894Z" fill="white"/>
<path d="M189.751 149.894H183.108V156.537H189.751V149.894Z" fill="black"/>
<path d="M196.394 149.894H189.751V156.537H196.394V149.894Z" fill="white"/>
<path d="M203.037 149.894H196.394V156.537H203.037V149.894Z" fill="white"/>
<path d="M209.68 149.894H203.037V156.537H209.68V149.894Z" fill="black"/>
<path d="M216.323 149.894H209.68V156.537H216.323V149.894Z" fill="black"/>
<path d="M30.3197 156.537H23.6768V163.18H30.3197V156.537Z" fill="black"/>
<path d="M36.9627 156.537H30.3197V163.18H36.9627V156.537Z" fill="white"/>
<path d="M43.6057 156.537H36.9627V163.18H43.6057V156.537Z" fill="black"/>
<path d="M50.2487 156.537H43.6057V163.18H50.2487V156.537Z" fill="black"/>
<path d="M56.8916 156.537H50.2487V163.18H56.8916V156.537Z" fill="black"/>
<path d="M63.5346 156.537H56.8917V163.18H63.5346V156.537Z" fill="white"/>
<path d="M70.1776 156.537H63.5346V163.18H70.1776V156.537Z" fill="black"/>
<path d="M76.8206 156.537H70.1776V163.18H76.8206V156.537Z" fill="black"/>
<path d="M83.4636 156.537H76.8206V163.18H83.4636V156.537Z" fill="black"/>
<path d="M90.1066 156.537H83.4636V163.18H90.1066V156.537Z" fill="black"/>
<path d="M96.7496 156.537H90.1066V163.18H96.7496V156.537Z" fill="white"/>
<path d="M103.393 156.537H96.7496V163.18H103.393V156.537Z" fill="black"/>
<path d="M110.036 156.537H103.393V163.18H110.036V156.537Z" fill="white"/>
<path d="M116.679 156.537H110.036V163.18H116.679V156.537Z" fill="black"/>
<path d="M123.322 156.537H116.679V163.18H123.322V156.537Z" fill="black"/>
<path d="M129.964 156.537H123.322V163.18H129.964V156.537Z" fill="white"/>
<path d="M136.607 156.537H129.964V163.18H136.607V156.537Z" fill="black"/>
<path d="M143.25 156.537H136.607V163.18H143.25V156.537Z" fill="black"/>
<path d="M149.893 156.537H143.25V163.18H149.893V156.537Z" fill="white"/>
<path d="M156.536 156.537H149.893V163.18H156.536V156.537Z" fill="black"/>
<path d="M163.179 156.537H156.536V163.18H163.179V156.537Z" fill="black"/>
<path d="M169.822 156.537H163.179V163.18H169.822V156.537Z" fill="black"/>
<path d="M176.465 156.537H169.822V163.18H176.465V156.537Z" fill="black"/>
<path d="M183.108 156.537H176.465V163.18H183.108V156.537Z" fill="black"/>
<path d="M189.751 156.537H183.108V163.18H189.751V156.537Z" fill="black"/>
<path d="M196.394 156.537H189.751V163.18H196.394V156.537Z" fill="white"/>
<path d="M203.037 156.537H196.394V163.18H203.037V156.537Z" fill="black"/>
<path d="M209.68 156.537H203.037V163.18H209.68V156.537Z" fill="white"/>
<path d="M216.323 156.537H209.68V163.18H216.323V156.537Z" fill="white"/>
<path d="M30.3197 163.18H23.6768V169.823H30.3197V163.18Z" fill="white"/>
<path d="M36.9627 163.18H30.3197V169.823H36.9627V163.18Z" fill="white"/>
<path d="M43.6057 163.18H36.9627V169.823H43.6057V163.18Z" fill="white"/>
<path d="M50.2487 163.18H43.6057V169.823H50.2487V163.18Z" fill="white"/>
<path d="M56.8916 163.18H50.2487V169.823H56.8916V163.18Z" fill="white"/>
<path d="M63.5346 163.18H56.8917V169.823H63.5346V163.18Z" fill="white"/>
<path d="M70.1776 163.18H63.5346V169.823H70.1776V163.18Z" fill="white"/>
<path d="M76.8206 163.18H70.1776V169.823H76.8206V163.18Z" fill="white"/>
<path d="M83.4636 163.18H76.8206V169.823H83.4636V163.18Z" fill="black"/>
<path d="M90.1066 163.18H83.4636V169.823H90.1066V163.18Z" fill="white"/>
<path d="M96.7496 163.18H90.1066V169.823H96.7496V163.18Z" fill="white"/>
<path d="M103.393 163.18H96.7496V169.823H103.393V163.18Z" fill="white"/>
<path d="M110.036 163.18H103.393V169.823H110.036V163.18Z" fill="black"/>
<path d="M116.679 163.18H110.036V169.823H116.679V163.18Z" fill="black"/>
<path d="M123.322 163.18H116.679V169.823H123.322V163.18Z" fill="black"/>
<path d="M129.964 163.18H123.322V169.823H129.964V163.18Z" fill="white"/>
<path d="M136.607 163.18H129.964V169.823H136.607V163.18Z" fill="black"/>
<path d="M143.25 163.18H136.607V169.823H143.25V163.18Z" fill="black"/>
<path d="M149.893 163.18H143.25V169.823H149.893V163.18Z" fill="white"/>
<path d="M156.536 163.18H149.893V169.823H156.536V163.18Z" fill="black"/>
<path d="M163.179 163.18H156.536V169.823H163.179V163.18Z" fill="black"/>
<path d="M169.822 163.18H163.179V169.823H169.822V163.18Z" fill="white"/>
<path d="M176.465 163.18H169.822V169.823H176.465V163.18Z" fill="white"/>
<path d="M183.108 163.18H176.465V169.823H183.108V163.18Z" fill="white"/>
<path d="M189.751 163.18H183.108V169.823H189.751V163.18Z" fill="black"/>
<path d="M196.394 163.18H189.751V169.823H196.394V163.18Z" fill="white"/>
<path d="M203.037 163.18H196.394V169.823H203.037V163.18Z" fill="black"/>
<path d="M209.68 163.18H203.037V169.823H209.68V163.18Z" fill="black"/>
<path d="M216.323 163.18H209.68V169.823H216.323V163.18Z" fill="black"/>
<path d="M30.3197 169.823H23.6768V176.466H30.3197V169.823Z" fill="black"/>
<path d="M36.9627 169.823H30.3197V176.466H36.9627V169.823Z" fill="black"/>
<path d="M43.6057 169.823H36.9627V176.466H43.6057V169.823Z" fill="black"/>
<path d="M50.2487 169.823H43.6057V176.466H50.2487V169.823Z" fill="black"/>
<path d="M56.8916 169.823H50.2487V176.466H56.8916V169.823Z" fill="black"/>
<path d="M63.5346 169.823H56.8917V176.466H63.5346V169.823Z" fill="black"/>
<path d="M70.1776 169.823H63.5346V176.466H70.1776V169.823Z" fill="black"/>
<path d="M76.8206 169.823H70.1776V176.466H76.8206V169.823Z" fill="white"/>
<path d="M83.4636 169.823H76.8206V176.466H83.4636V169.823Z" fill="black"/>
<path d="M90.1066 169.823H83.4636V176.466H90.1066V169.823Z" fill="black"/>
<path d="M96.7496 169.823H90.1066V176.466H96.7496V169.823Z" fill="white"/>
<path d="M103.393 169.823H96.7496V176.466H103.393V169.823Z" fill="white"/>
<path d="M110.036 169.823H103.393V176.466H110.036V169.823Z" fill="black"/>
<path d="M116.679 169.823H110.036V176.466H116.679V169.823Z" fill="black"/>
<path d="M123.322 169.823H116.679V176.466H123.322V169.823Z" fill="black"/>
<path d="M129.964 169.823H123.322V176.466H129.964V169.823Z" fill="white"/>
<path d="M136.607 169.823H129.964V176.466H136.607V169.823Z" fill="white"/>
<path d="M143.25 169.823H136.607V176.466H143.25V169.823Z" fill="white"/>
<path d="M149.893 169.823H143.25V176.466H149.893V169.823Z" fill="black"/>
<path d="M156.536 169.823H149.893V176.466H156.536V169.823Z" fill="white"/>
<path d="M163.179 169.823H156.536V176.466H163.179V169.823Z" fill="black"/>
<path d="M169.822 169.823H163.179V176.466H169.822V169.823Z" fill="white"/>
<path d="M176.465 169.823H169.822V176.466H176.465V169.823Z" fill="black"/>
<path d="M183.108 169.823H176.465V176.466H183.108V169.823Z" fill="white"/>
<path d="M189.751 169.823H183.108V176.466H189.751V169.823Z" fill="black"/>
<path d="M196.394 169.823H189.751V176.466H196.394V169.823Z" fill="white"/>
<path d="M203.037 169.823H196.394V176.466H203.037V169.823Z" fill="white"/>
<path d="M209.68 169.823H203.037V176.466H209.68V169.823Z" fill="black"/>
<path d="M216.323 169.823H209.68V176.466H216.323V169.823Z" fill="white"/>
<path d="M30.3197 176.466H23.6768V183.109H30.3197V176.466Z" fill="black"/>
<path d="M36.9627 176.466H30.3197V183.109H36.9627V176.466Z" fill="white"/>
<path d="M43.6057 176.466H36.9627V183.109H43.6057V176.466Z" fill="white"/>
<path d="M50.2487 176.466H43.6057V183.109H50.2487V176.466Z" fill="white"/>
<path d="M56.8916 176.466H50.2487V183.109H56.8916V176.466Z" fill="white"/>
<path d="M63.5346 176.466H56.8917V183.109H63.5346V176.466Z" fill="white"/>
<path d="M70.1776 176.466H63.5346V183.109H70.1776V176.466Z" fill="black"/>
<path d="M76.8206 176.466H70.1776V183.109H76.8206V176.466Z" fill="white"/>
<path d="M83.4636 176.466H76.8206V183.109H83.4636V176.466Z" fill="white"/>
<path d="M90.1066 176.466H83.4636V183.109H90.1066V176.466Z" fill="black"/>
<path d="M96.7496 176.466H90.1066V183.109H96.7496V176.466Z" fill="white"/>
<path d="M103.393 176.466H96.7496V183.109H103.393V176.466Z" fill="white"/>
<path d="M110.036 176.466H103.393V183.109H110.036V176.466Z" fill="black"/>
<path d="M116.679 176.466H110.036V183.109H116.679V176.466Z" fill="black"/>
<path d="M123.322 176.466H116.679V183.109H123.322V176.466Z" fill="white"/>
<path d="M129.964 176.466H123.322V183.109H129.964V176.466Z" fill="black"/>
<path d="M136.607 176.466H129.964V183.109H136.607V176.466Z" fill="white"/>
<path d="M143.25 176.466H136.607V183.109H143.25V176.466Z" fill="white"/>
<path d="M149.893 176.466H143.25V183.109H149.893V176.466Z" fill="black"/>
<path d="M156.536 176.466H149.893V183.109H156.536V176.466Z" fill="white"/>
<path d="M163.179 176.466H156.536V183.109H163.179V176.466Z" fill="black"/>
<path d="M169.822 176.466H163.179V183.109H169.822V176.466Z" fill="white"/>
<path d="M176.465 176.466H169.822V183.109H176.465V176.466Z" fill="white"/>
<path d="M183.108 176.466H176.465V183.109H183.108V176.466Z" fill="white"/>
<path d="M189.751 176.466H183.108V183.109H189.751V176.466Z" fill="black"/>
<path d="M196.394 176.466H189.751V183.109H196.394V176.466Z" fill="black"/>
<path d="M203.037 176.466H196.394V183.109H203.037V176.466Z" fill="black"/>
<path d="M209.68 176.466H203.037V183.109H209.68V176.466Z" fill="black"/>
<path d="M216.323 176.466H209.68V183.109H216.323V176.466Z" fill="white"/>
<path d="M30.3197 183.109H23.6768V189.752H30.3197V183.109Z" fill="black"/>
<path d="M36.9627 183.109H30.3197V189.752H36.9627V183.109Z" fill="white"/>
<path d="M43.6057 183.109H36.9627V189.752H43.6057V183.109Z" fill="black"/>
<path d="M50.2487 183.109H43.6057V189.752H50.2487V183.109Z" fill="black"/>
<path d="M56.8916 183.109H50.2487V189.752H56.8916V183.109Z" fill="black"/>
<path d="M63.5346 183.109H56.8917V189.752H63.5346V183.109Z" fill="white"/>
<path d="M70.1776 183.109H63.5346V189.752H70.1776V183.109Z" fill="black"/>
<path d="M76.8206 183.109H70.1776V189.752H76.8206V183.109Z" fill="white"/>
<path d="M83.4636 183.109H76.8206V189.752H83.4636V183.109Z" fill="white"/>
<path d="M90.1066 183.109H83.4636V189.752H90.1066V183.109Z" fill="black"/>
<path d="M96.7496 183.109H90.1066V189.752H96.7496V183.109Z" fill="white"/>
<path d="M103.393 183.109H96.7496V189.752H103.393V183.109Z" fill="white"/>
<path d="M110.036 183.109H103.393V189.752H110.036V183.109Z" fill="white"/>
<path d="M116.679 183.109H110.036V189.752H116.679V183.109Z" fill="black"/>
<path d="M123.322 183.109H116.679V189.752H123.322V183.109Z" fill="white"/>
<path d="M129.964 183.109H123.322V189.752H129.964V183.109Z" fill="black"/>
<path d="M136.607 183.109H129.964V189.752H136.607V183.109Z" fill="white"/>
<path d="M143.25 183.109H136.607V189.752H143.25V183.109Z" fill="black"/>
<path d="M149.893 183.109H143.25V189.752H149.893V183.109Z" fill="black"/>
<path d="M156.536 183.109H149.893V189.752H156.536V183.109Z" fill="white"/>
<path d="M163.179 183.109H156.536V189.752H163.179V183.109Z" fill="black"/>
<path d="M169.822 183.109H163.179V189.752H169.822V183.109Z" fill="black"/>
<path d="M176.465 183.109H169.822V189.752H176.465V183.109Z" fill="black"/>
<path d="M183.108 183.109H176.465V189.752H183.108V183.109Z" fill="black"/>
<path d="M189.751 183.109H183.108V189.752H189.751V183.109Z" fill="black"/>
<path d="M196.394 183.109H189.751V189.752H196.394V183.109Z" fill="white"/>
<path d="M203.037 183.109H196.394V189.752H203.037V183.109Z" fill="white"/>
<path d="M209.68 183.109H203.037V189.752H209.68V183.109Z" fill="white"/>
<path d="M216.323 183.109H209.68V189.752H216.323V183.109Z" fill="black"/>
<path d="M30.3197 189.752H23.6768V196.395H30.3197V189.752Z" fill="black"/>
<path d="M36.9627 189.752H30.3197V196.395H36.9627V189.752Z" fill="white"/>
<path d="M43.6057 189.752H36.9627V196.395H43.6057V189.752Z" fill="black"/>
<path d="M50.2487 189.752H43.6057V196.395H50.2487V189.752Z" fill="black"/>
<path d="M56.8916 189.752H50.2487V196.395H56.8916V189.752Z" fill="black"/>
<path d="M63.5346 189.752H56.8917V196.395H63.5346V189.752Z" fill="white"/>
<path d="M70.1776 189.752H63.5346V196.395H70.1776V189.752Z" fill="black"/>
<path d="M76.8206 189.752H70.1776V196.395H76.8206V189.752Z" fill="white"/>
<path d="M83.4636 189.752H76.8206V196.395H83.4636V189.752Z" fill="black"/>
<path d="M90.1066 189.752H83.4636V196.395H90.1066V189.752Z" fill="white"/>
<path d="M96.7496 189.752H90.1066V196.395H96.7496V189.752Z" fill="white"/>
<path d="M103.393 189.752H96.7496V196.395H103.393V189.752Z" fill="white"/>
<path d="M110.036 189.752H103.393V196.395H110.036V189.752Z" fill="black"/>
<path d="M116.679 189.752H110.036V196.395H116.679V189.752Z" fill="white"/>
<path d="M123.322 189.752H116.679V196.395H123.322V189.752Z" fill="black"/>
<path d="M129.964 189.752H123.322V196.395H129.964V189.752Z" fill="white"/>
<path d="M136.607 189.752H129.964V196.395H136.607V189.752Z" fill="black"/>
<path d="M143.25 189.752H136.607V196.395H143.25V189.752Z" fill="white"/>
<path d="M149.893 189.752H143.25V196.395H149.893V189.752Z" fill="white"/>
<path d="M156.536 189.752H149.893V196.395H156.536V189.752Z" fill="white"/>
<path d="M163.179 189.752H156.536V196.395H163.179V189.752Z" fill="white"/>
<path d="M169.822 189.752H163.179V196.395H169.822V189.752Z" fill="white"/>
<path d="M176.465 189.752H169.822V196.395H176.465V189.752Z" fill="black"/>
<path d="M183.108 189.752H176.465V196.395H183.108V189.752Z" fill="black"/>
<path d="M189.751 189.752H183.108V196.395H189.751V189.752Z" fill="black"/>
<path d="M196.394 189.752H189.751V196.395H196.394V189.752Z" fill="black"/>
<path d="M203.037 189.752H196.394V196.395H203.037V189.752Z" fill="black"/>
<path d="M209.68 189.752H203.037V196.395H209.68V189.752Z" fill="white"/>
<path d="M216.323 189.752H209.68V196.395H216.323V189.752Z" fill="white"/>
<path d="M30.3197 196.395H23.6768V203.038H30.3197V196.395Z" fill="black"/>
<path d="M36.9627 196.395H30.3197V203.038H36.9627V196.395Z" fill="white"/>
<path d="M43.6057 196.395H36.9627V203.038H43.6057V196.395Z" fill="black"/>
<path d="M50.2487 196.395H43.6057V203.038H50.2487V196.395Z" fill="black"/>
<path d="M56.8916 196.395H50.2487V203.038H56.8916V196.395Z" fill="black"/>
<path d="M63.5346 196.395H56.8917V203.038H63.5346V196.395Z" fill="white"/>
<path d="M70.1776 196.395H63.5346V203.038H70.1776V196.395Z" fill="black"/>
<path d="M76.8206 196.395H70.1776V203.038H76.8206V196.395Z" fill="white"/>
<path d="M83.4636 196.395H76.8206V203.038H83.4636V196.395Z" fill="white"/>
<path d="M90.1066 196.395H83.4636V203.038H90.1066V196.395Z" fill="white"/>
<path d="M96.7496 196.395H90.1066V203.038H96.7496V196.395Z" fill="white"/>
<path d="M103.393 196.395H96.7496V203.038H103.393V196.395Z" fill="black"/>
<path d="M110.036 196.395H103.393V203.038H110.036V196.395Z" fill="white"/>
<path d="M116.679 196.395H110.036V203.038H116.679V196.395Z" fill="black"/>
<path d="M123.322 196.395H116.679V203.038H123.322V196.395Z" fill="white"/>
<path d="M129.964 196.395H123.322V203.038H129.964V196.395Z" fill="white"/>
<path d="M136.607 196.395H129.964V203.038H136.607V196.395Z" fill="black"/>
<path d="M143.25 196.395H136.607V203.038H143.25V196.395Z" fill="white"/>
<path d="M149.893 196.395H143.25V203.038H149.893V196.395Z" fill="white"/>
<path d="M156.536 196.395H149.893V203.038H156.536V196.395Z" fill="black"/>
<path d="M163.179 196.395H156.536V203.038H163.179V196.395Z" fill="black"/>
<path d="M169.822 196.395H163.179V203.038H169.822V196.395Z" fill="white"/>
<path d="M176.465 196.395H169.822V203.038H176.465V196.395Z" fill="white"/>
<path d="M183.108 196.395H176.465V203.038H183.108V196.395Z" fill="white"/>
<path d="M189.751 196.395H183.108V203.038H189.751V196.395Z" fill="black"/>
<path d="M196.394 196.395H189.751V203.038H196.394V196.395Z" fill="black"/>
<path d="M203.037 196.395H196.394V203.038H203.037V196.395Z" fill="black"/>
<path d="M209.68 196.395H203.037V203.038H209.68V196.395Z" fill="white"/>
<path d="M216.323 196.395H209.68V203.038H216.323V196.395Z" fill="black"/>
<path d="M30.3197 203.038H23.6768V209.681H30.3197V203.038Z" fill="black"/>
<path d="M36.9627 203.038H30.3197V209.681H36.9627V203.038Z" fill="white"/>
<path d="M43.6057 203.038H36.9627V209.681H43.6057V203.038Z" fill="white"/>
<path d="M50.2487 203.038H43.6057V209.681H50.2487V203.038Z" fill="white"/>
<path d="M56.8916 203.038H50.2487V209.681H56.8916V203.038Z" fill="white"/>
<path d="M63.5346 203.038H56.8917V209.681H63.5346V203.038Z" fill="white"/>
<path d="M70.1776 203.038H63.5346V209.681H70.1776V203.038Z" fill="black"/>
<path d="M76.8206 203.038H70.1776V209.681H76.8206V203.038Z" fill="white"/>
<path d="M83.4636 203.038H76.8206V209.681H83.4636V203.038Z" fill="black"/>
<path d="M90.1066 203.038H83.4636V209.681H90.1066V203.038Z" fill="white"/>
<path d="M96.7496 203.038H90.1066V209.681H96.7496V203.038Z" fill="black"/>
<path d="M103.393 203.038H96.7496V209.681H103.393V203.038Z" fill="black"/>
<path d="M110.036 203.038H103.393V209.681H110.036V203.038Z" fill="black"/>
<path d="M116.679 203.038H110.036V209.681H116.679V203.038Z" fill="black"/>
<path d="M123.322 203.038H116.679V209.681H123.322V203.038Z" fill="white"/>
<path d="M129.964 203.038H123.322V209.681H129.964V203.038Z" fill="white"/>
<path d="M136.607 203.038H129.964V209.681H136.607V203.038Z" fill="black"/>
<path d="M143.25 203.038H136.607V209.681H143.25V203.038Z" fill="black"/>
<path d="M149.893 203.038H143.25V209.681H149.893V203.038Z" fill="black"/>
<path d="M156.536 203.038H149.893V209.681H156.536V203.038Z" fill="black"/>
<path d="M163.179 203.038H156.536V209.681H163.179V203.038Z" fill="black"/>
<path d="M169.822 203.038H163.179V209.681H169.822V203.038Z" fill="white"/>
<path d="M176.465 203.038H169.822V209.681H176.465V203.038Z" fill="white"/>
<path d="M183.108 203.038H176.465V209.681H183.108V203.038Z" fill="white"/>
<path d="M189.751 203.038H183.108V209.681H189.751V203.038Z" fill="white"/>
<path d="M196.394 203.038H189.751V209.681H196.394V203.038Z" fill="white"/>
<path d="M203.037 203.038H196.394V209.681H203.037V203.038Z" fill="white"/>
<path d="M209.68 203.038H203.037V209.681H209.68V203.038Z" fill="black"/>
<path d="M216.323 203.038H209.68V209.681H216.323V203.038Z" fill="white"/>
<path d="M30.3197 209.681H23.6768V216.324H30.3197V209.681Z" fill="black"/>
<path d="M36.9627 209.681H30.3197V216.324H36.9627V209.681Z" fill="black"/>
<path d="M43.6057 209.681H36.9627V216.324H43.6057V209.681Z" fill="black"/>
<path d="M50.2487 209.681H43.6057V216.324H50.2487V209.681Z" fill="black"/>
<path d="M56.8916 209.681H50.2487V216.324H56.8916V209.681Z" fill="black"/>
<path d="M63.5346 209.681H56.8917V216.324H63.5346V209.681Z" fill="black"/>
<path d="M70.1776 209.681H63.5346V216.324H70.1776V209.681Z" fill="black"/>
<path d="M76.8206 209.681H70.1776V216.324H76.8206V209.681Z" fill="white"/>
<path d="M83.4636 209.681H76.8206V216.324H83.4636V209.681Z" fill="black"/>
<path d="M90.1066 209.681H83.4636V216.324H90.1066V209.681Z" fill="white"/>
<path d="M96.7496 209.681H90.1066V216.324H96.7496V209.681Z" fill="black"/>
<path d="M103.393 209.681H96.7496V216.324H103.393V209.681Z" fill="black"/>
<path d="M110.036 209.681H103.393V216.324H110.036V209.681Z" fill="white"/>
<path d="M116.679 209.681H110.036V216.324H116.679V209.681Z" fill="white"/>
<path d="M123.322 209.681H116.679V216.324H123.322V209.681Z" fill="black"/>
<path d="M129.964 209.681H123.322V216.324H129.964V209.681Z" fill="white"/>
<path d="M136.607 209.681H129.964V216.324H136.607V209.681Z" fill="black"/>
<path d="M143.25 209.681H136.607V216.324H143.25V209.681Z" fill="black"/>
<path d="M149.893 209.681H143.25V216.324H149.893V209.681Z" fill="black"/>
<path d="M156.536 209.681H149.893V216.324H156.536V209.681Z" fill="white"/>
<path d="M163.179 209.681H156.536V216.324H163.179V209.681Z" fill="black"/>
<path d="M169.822 209.681H163.179V216.324H169.822V209.681Z" fill="black"/>
<path d="M176.465 209.681H169.822V216.324H176.465V209.681Z" fill="white"/>
<path d="M183.108 209.681H176.465V216.324H183.108V209.681Z" fill="white"/>
<path d="M189.751 209.681H183.108V216.324H189.751V209.681Z" fill="white"/>
<path d="M196.394 209.681H189.751V216.324H196.394V209.681Z" fill="black"/>
<path d="M203.037 209.681H196.394V216.324H203.037V209.681Z" fill="white"/>
<path d="M209.68 209.681H203.037V216.324H209.68V209.681Z" fill="black"/>
<path d="M216.323 209.681H209.68V216.324H216.323V209.681Z" fill="white"/>
</g>
<defs>
<clipPath id="clip0_70_957">
<rect x="10" y="10.0002" width="220" height="220" rx="30" fill="white"/>
</clipPath>
</defs>
</svg>
