<svg width="34" height="34" viewBox="0 0 34 34" fill="none" xmlns="http://www.w3.org/2000/svg">
<path d="M25.3337 18.8832V25.0448H21.762V19.2948C21.762 17.8515 21.2453 16.8665 19.952 16.8665C18.9653 16.8665 18.377 17.5298 18.1187 18.1732C18.0253 18.4032 18.0003 18.7232 18.0003 19.0432V25.0448H14.427C14.427 25.0448 14.4753 15.3082 14.427 14.2998H18.0003V15.8215L17.977 15.8565H18.0003V15.8232C18.4753 15.0898 19.322 14.0465 21.2203 14.0465C23.5703 14.0465 25.3337 15.5832 25.3337 18.8832ZM10.6887 9.11816C9.46699 9.11816 8.66699 9.9215 8.66699 10.9748C8.66699 12.0082 9.44366 12.8332 10.642 12.8332H10.6653C11.912 12.8332 12.687 12.0065 12.687 10.9748C12.6637 9.9215 11.912 9.11816 10.6887 9.11816ZM8.87866 25.0448H12.452V14.2998H8.87866V25.0448Z" fill="#040415"/>
<path d="M7.00016 3.66659C6.11611 3.66659 5.26826 4.01777 4.64314 4.6429C4.01802 5.26802 3.66683 6.11586 3.66683 6.99992V26.9999C3.66683 27.884 4.01802 28.7318 4.64314 29.3569C5.26826 29.9821 6.11611 30.3333 7.00016 30.3333H27.0002C27.8842 30.3333 28.7321 29.9821 29.3572 29.3569C29.9823 28.7318 30.3335 27.884 30.3335 26.9999V6.99992C30.3335 6.11586 29.9823 5.26802 29.3572 4.6429C28.7321 4.01777 27.8842 3.66659 27.0002 3.66659H7.00016ZM7.00016 0.333252H27.0002C28.7683 0.333252 30.464 1.03563 31.7142 2.28587C32.9644 3.53612 33.6668 5.23181 33.6668 6.99992V26.9999C33.6668 28.768 32.9644 30.4637 31.7142 31.714C30.464 32.9642 28.7683 33.6666 27.0002 33.6666H7.00016C5.23205 33.6666 3.53636 32.9642 2.28612 31.714C1.03588 30.4637 0.333496 28.768 0.333496 26.9999V6.99992C0.333496 5.23181 1.03588 3.53612 2.28612 2.28587C3.53636 1.03563 5.23205 0.333252 7.00016 0.333252V0.333252Z" fill="#040415"/>
</svg>
