<svg width="118" height="32" viewBox="0 0 118 32" fill="none" xmlns="http://www.w3.org/2000/svg">
<path d="M20.4375 12.25H20.437C19.7119 12.25 19.1245 12.8373 19.1245 13.5625V19.5625C19.1245 20.2871 19.7119 20.8745 20.437 20.8745C21.1617 20.874 21.7491 20.2867 21.7491 19.5615V13.5615C21.7491 12.8364 21.1613 12.249 20.4366 12.249L20.4375 12.25Z" fill="#040415"/>
<path d="M3.56251 12.2502H3.56204C2.83689 12.2502 2.24954 12.8375 2.24954 13.5627V19.5627C2.24954 20.2874 2.83689 20.8747 3.56204 20.8747C4.28673 20.8743 4.87407 20.2869 4.87407 19.5618V13.5618C4.87407 12.8366 4.28626 12.2493 3.56157 12.2493L3.56251 12.2502Z" fill="#040415"/>
<path d="M5.81253 12.2499V21.2499C5.81253 22.0782 6.48378 22.7495 7.31253 22.7495H8.25003V25.937C8.25003 26.6617 8.83737 27.249 9.56253 27.249C10.2872 27.2485 10.8746 26.6612 10.8746 25.936V22.7485H13.1246V25.936C13.1246 26.6607 13.7119 27.2481 14.4371 27.2481C15.1617 27.2476 15.7491 26.6603 15.7491 25.9351V22.7476H16.6866L16.6861 22.7476C17.5144 22.7476 18.1861 22.0758 18.1861 21.2476V12.2476L5.81253 12.2499Z" fill="#040415"/>
<path d="M18.0103 10.375C17.625 9.00202 16.7072 7.82921 15.4688 7.05765C15.3994 7.01452 15.3291 6.97234 15.2578 6.93202C15.1866 6.89124 15.1149 6.8514 15.0431 6.81249L15.2813 6.38687L16.0261 5.04343V5.04296C16.0786 4.94734 16.0444 4.82734 15.9492 4.77437C15.9488 4.7739 15.9488 4.7739 15.9483 4.7739C15.9192 4.75749 15.8874 4.74905 15.8545 4.74859L15.8541 4.74854C15.7819 4.74807 15.7158 4.78698 15.6811 4.85026L14.9264 6.21198L14.6883 6.64088C14.6133 6.6076 14.5374 6.5762 14.4605 6.54713C14.3836 6.51807 14.3067 6.4876 14.2284 6.45995L14.228 6.45948C12.7866 5.95229 11.2158 5.95229 9.77485 6.45948C9.69657 6.48713 9.61923 6.5162 9.54282 6.54666C9.46595 6.5776 9.39001 6.60901 9.31501 6.64041L9.07688 6.21151L8.3222 4.85213L8.32173 4.85166C8.26641 4.75698 8.14501 4.72557 8.05079 4.78088C7.95938 4.83385 7.92657 4.94963 7.97532 5.04291L8.71641 6.38354L8.95454 6.80916C8.88141 6.84713 8.8097 6.88651 8.73891 6.92682C8.66766 6.96713 8.59782 7.00932 8.52891 7.05432C7.29141 7.82588 6.37266 8.99869 5.98829 10.3703H5.98782C5.88141 10.7359 5.82282 11.1142 5.81345 11.4953H18.1819L18.1814 11.4948C18.1716 11.1142 18.113 10.7364 18.0066 10.3707L18.0103 10.375ZM9.18751 9.62499L9.18704 9.62494C8.87626 9.62448 8.62454 9.37276 8.62454 9.06245C8.62454 8.75166 8.87626 8.49994 9.18704 8.49994C9.49735 8.49994 9.74954 8.75166 9.74954 9.06245V9.06198C9.74954 9.37229 9.49735 9.62448 9.18704 9.62448L9.18751 9.62499ZM14.8125 9.62499L14.812 9.62494C14.5013 9.62448 14.2495 9.37276 14.2495 9.06245C14.2495 8.75166 14.5013 8.49994 14.812 8.49994C15.1224 8.49994 15.3745 8.75166 15.3745 9.06245V9.06198C15.3745 9.37229 15.1224 9.62448 14.812 9.62448L14.8125 9.62499Z" fill="#040415"/>
<path d="M42.624 24L41.448 20.616H34.296L33.12 24H30.12L36.216 7.2H39.528L45.6 24H42.624ZM35.208 18.024H40.536L37.872 10.44L35.208 18.024ZM53.5506 11.688C54.9266 11.688 56.0386 12.128 56.8866 13.008C57.7346 13.888 58.1586 15.096 58.1586 16.632V24H55.5666V16.896C55.5666 16 55.3266 15.312 54.8466 14.832C54.3666 14.352 53.7106 14.112 52.8786 14.112C51.9666 14.112 51.2306 14.4 50.6706 14.976C50.1106 15.536 49.8306 16.4 49.8306 17.568V24H47.2386V12H49.8306V13.536C50.6146 12.304 51.8546 11.688 53.5506 11.688ZM70.4535 7.2H73.0455V24H70.4535V22.272C69.4775 23.632 68.0775 24.312 66.2535 24.312C64.6055 24.312 63.1975 23.704 62.0295 22.488C60.8615 21.256 60.2775 19.76 60.2775 18C60.2775 16.224 60.8615 14.728 62.0295 13.512C63.1975 12.296 64.6055 11.688 66.2535 11.688C68.0775 11.688 69.4775 12.36 70.4535 13.704V7.2ZM63.9495 20.76C64.6695 21.48 65.5735 21.84 66.6615 21.84C67.7495 21.84 68.6535 21.48 69.3735 20.76C70.0935 20.024 70.4535 19.104 70.4535 18C70.4535 16.896 70.0935 15.984 69.3735 15.264C68.6535 14.528 67.7495 14.16 66.6615 14.16C65.5735 14.16 64.6695 14.528 63.9495 15.264C63.2295 15.984 62.8695 16.896 62.8695 18C62.8695 19.104 63.2295 20.024 63.9495 20.76ZM78.6587 14.016C79.3147 12.528 80.5467 11.784 82.3547 11.784V14.592C81.3627 14.528 80.4987 14.768 79.7627 15.312C79.0267 15.84 78.6587 16.72 78.6587 17.952V24H76.0667V12H78.6587V14.016ZM89.3713 24.312C87.6113 24.312 86.1153 23.704 84.8833 22.488C83.6513 21.272 83.0353 19.776 83.0353 18C83.0353 16.224 83.6513 14.728 84.8833 13.512C86.1153 12.296 87.6113 11.688 89.3713 11.688C91.1473 11.688 92.6433 12.296 93.8593 13.512C95.0913 14.728 95.7073 16.224 95.7073 18C95.7073 19.776 95.0913 21.272 93.8593 22.488C92.6433 23.704 91.1473 24.312 89.3713 24.312ZM86.7073 20.712C87.4273 21.432 88.3153 21.792 89.3713 21.792C90.4273 21.792 91.3153 21.432 92.0353 20.712C92.7553 19.992 93.1153 19.088 93.1153 18C93.1153 16.912 92.7553 16.008 92.0353 15.288C91.3153 14.568 90.4273 14.208 89.3713 14.208C88.3153 14.208 87.4273 14.568 86.7073 15.288C85.9873 16.008 85.6273 16.912 85.6273 18C85.6273 19.088 85.9873 19.992 86.7073 20.712ZM100.499 9.72C100.179 10.04 99.7951 10.2 99.3471 10.2C98.8991 10.2 98.5071 10.04 98.1711 9.72C97.8511 9.384 97.6911 8.992 97.6911 8.544C97.6911 8.096 97.8511 7.712 98.1711 7.392C98.4911 7.056 98.8831 6.888 99.3471 6.888C99.8111 6.888 100.203 7.056 100.523 7.392C100.843 7.712 101.003 8.096 101.003 8.544C101.003 8.992 100.835 9.384 100.499 9.72ZM98.0511 24V12H100.643V24H98.0511ZM113.157 7.2H115.749V24H113.157V22.272C112.181 23.632 110.781 24.312 108.957 24.312C107.309 24.312 105.901 23.704 104.733 22.488C103.565 21.256 102.981 19.76 102.981 18C102.981 16.224 103.565 14.728 104.733 13.512C105.901 12.296 107.309 11.688 108.957 11.688C110.781 11.688 112.181 12.36 113.157 13.704V7.2ZM106.653 20.76C107.373 21.48 108.277 21.84 109.365 21.84C110.453 21.84 111.357 21.48 112.077 20.76C112.797 20.024 113.157 19.104 113.157 18C113.157 16.896 112.797 15.984 112.077 15.264C111.357 14.528 110.453 14.16 109.365 14.16C108.277 14.16 107.373 14.528 106.653 15.264C105.933 15.984 105.573 16.896 105.573 18C105.573 19.104 105.933 20.024 106.653 20.76Z" fill="#040415"/>
</svg>
