<svg width="32" height="32" viewBox="0 0 32 32" fill="none" xmlns="http://www.w3.org/2000/svg">
<g clip-path="url(#clip0)">
<path d="M23.1631 10.4491C23.0159 10.0552 22.781 9.69863 22.4758 9.40595C22.1794 9.1046 21.8186 8.87268 21.4194 8.7273C21.0957 8.60314 20.6094 8.45536 19.7136 8.4151C18.7446 8.37146 18.4541 8.36206 16.001 8.36206C13.5476 8.36206 13.2571 8.37122 12.2883 8.41486C11.3926 8.45536 10.906 8.60314 10.5825 8.7273C10.1833 8.87268 9.82227 9.1046 9.52612 9.40595C9.22095 9.69863 8.98608 10.055 8.83862 10.4491C8.71289 10.7688 8.56323 11.2493 8.52246 12.1338C8.47827 13.0904 8.46875 13.3773 8.46875 15.8C8.46875 18.2224 8.47827 18.5093 8.52246 19.4661C8.56323 20.3507 8.71289 20.8309 8.83862 21.1506C8.98608 21.5448 9.2207 21.9011 9.52588 22.1938C9.82227 22.4951 10.1831 22.727 10.5823 22.8724C10.906 22.9968 11.3926 23.1446 12.2883 23.1849C13.2571 23.2285 13.5474 23.2377 16.0007 23.2377C18.4543 23.2377 18.7449 23.2285 19.7134 23.1849C20.6091 23.1446 21.0957 22.9968 21.4194 22.8724C22.2207 22.5672 22.854 21.9418 23.1631 21.1506C23.2888 20.8309 23.4385 20.3507 23.4795 19.4661C23.5237 18.5093 23.533 18.2224 23.533 15.8C23.533 13.3773 23.5237 13.0904 23.4795 12.1338C23.4387 11.2493 23.2891 10.7688 23.1631 10.4491ZM16.001 20.4584C13.3953 20.4584 11.283 18.3728 11.283 15.7997C11.283 13.2266 13.3953 11.141 16.001 11.141C18.6064 11.141 20.7187 13.2266 20.7187 15.7997C20.7187 18.3728 18.6064 20.4584 16.001 20.4584ZM20.9053 12.0456C20.2964 12.0456 19.8027 11.5581 19.8027 10.9568C19.8027 10.3556 20.2964 9.86811 20.9053 9.86811C21.5142 9.86811 22.0078 10.3556 22.0078 10.9568C22.0076 11.5581 21.5142 12.0456 20.9053 12.0456Z" fill="#01CAB0"/>
<path d="M19.0625 15.7998C19.0625 17.47 17.6914 18.8239 16 18.8239C14.3086 18.8239 12.9375 17.47 12.9375 15.7998C12.9375 14.1296 14.3086 12.7756 16 12.7756C17.6914 12.7756 19.0625 14.1296 19.0625 15.7998Z" fill="#01CAB0"/>
<path d="M29.6921 0H2.30786C1.0332 0 0 1.02027 0 2.27896V29.3204C0 30.5791 1.0332 31.5993 2.30786 31.5993H29.6921C30.9668 31.5993 32 30.5791 32 29.3204V2.27896C32 1.02027 30.9668 0 29.6921 0V0ZM25.1321 19.5401C25.0876 20.5059 24.9321 21.1652 24.7051 21.7424C24.2278 22.9611 23.2522 23.9244 22.0181 24.3957C21.4338 24.62 20.7659 24.7733 19.7881 24.8174C18.8083 24.8615 18.4954 24.8721 16.0002 24.8721C13.5049 24.8721 13.1921 24.8615 12.2122 24.8174C11.2344 24.7733 10.5664 24.62 9.98218 24.3957C9.3689 24.1679 8.81372 23.8109 8.35474 23.3492C7.88745 22.8962 7.52588 22.3477 7.29517 21.7424C7.06812 21.1655 6.9126 20.5059 6.86816 19.5403C6.823 18.5726 6.8125 18.2635 6.8125 15.7997C6.8125 13.3358 6.823 13.0267 6.86792 12.0593C6.91235 11.0935 7.06763 10.4341 7.29468 9.85695C7.52539 9.25159 7.88721 8.70312 8.35474 8.25013C8.81348 7.78845 9.3689 7.43141 9.98193 7.20358C10.5664 6.97937 11.2341 6.82605 12.2122 6.78193C13.1919 6.73781 13.5049 6.7272 16 6.7272C18.4951 6.7272 18.8081 6.73781 19.7878 6.78217C20.7659 6.82605 21.4336 6.97937 22.0181 7.20334C22.6311 7.43117 23.1865 7.78845 23.6455 8.25013C24.1128 8.70337 24.4746 9.25159 24.7051 9.85695C24.9324 10.4341 25.0876 11.0935 25.1323 12.0593C25.177 13.0267 25.1875 13.3358 25.1875 15.7997C25.1875 18.2635 25.177 18.5726 25.1321 19.5401Z" fill="#01CAB0"/>
</g>
<defs>
<clipPath id="clip0">
<rect width="32" height="31.5993" rx="4" fill="white"/>
</clipPath>
</defs>
</svg>
