<svg width="69" height="32" viewBox="0 0 69 32" fill="none" xmlns="http://www.w3.org/2000/svg">
<path fill-rule="evenodd" clip-rule="evenodd" d="M16.8881 4C16.9901 5.30087 16.5688 6.58934 15.7137 7.59178C15.3043 8.0891 14.7846 8.48922 14.1939 8.76199C13.6031 9.03475 12.9567 9.17306 12.3033 9.16649C12.2616 8.54092 12.3466 7.91346 12.5533 7.31997C12.7601 6.72649 13.0846 6.17863 13.5084 5.7077C14.375 4.74372 15.5817 4.13399 16.8881 4ZM19.2704 13.2301C18.8363 13.9771 18.6027 14.8192 18.5914 15.678C18.5924 16.6441 18.8847 17.5885 19.4317 18.3935C19.9786 19.1984 20.7562 19.8284 21.6673 20.2047C21.309 21.3411 20.7691 22.4151 20.0674 23.3868C19.125 24.7635 18.1369 26.1084 16.5687 26.1333C15.8228 26.1501 15.3193 25.9406 14.7947 25.7224C14.2475 25.4947 13.6773 25.2575 12.7849 25.2575C11.8386 25.2575 11.2428 25.5024 10.6683 25.7385C10.1717 25.9426 9.69097 26.1402 9.01347 26.1676C7.51994 26.2216 6.37854 24.6983 5.4019 23.3345C3.44989 20.5495 1.92992 15.4858 3.96765 12.0404C4.43808 11.2149 5.11946 10.5224 5.9454 10.0305C6.77134 9.53858 7.71368 9.26399 8.6806 9.23349C9.52766 9.21647 10.3405 9.5353 11.0531 9.81483C11.5981 10.0286 12.0845 10.2194 12.4827 10.2194C12.8329 10.2194 13.3057 10.0361 13.8567 9.82257C14.7247 9.48615 15.7868 9.0745 16.8691 9.18545C17.6985 9.21079 18.5105 9.42466 19.2405 9.81006C19.9705 10.1955 20.5984 10.7418 21.0744 11.4056C20.3251 11.8555 19.7046 12.4831 19.2704 13.2301Z" fill="#040415"/>
<path d="M33.96 9.72C33.64 10.04 33.256 10.2 32.808 10.2C32.36 10.2 31.968 10.04 31.632 9.72C31.312 9.384 31.152 8.992 31.152 8.544C31.152 8.096 31.312 7.712 31.632 7.392C31.952 7.056 32.344 6.888 32.808 6.888C33.272 6.888 33.664 7.056 33.984 7.392C34.304 7.712 34.464 8.096 34.464 8.544C34.464 8.992 34.296 9.384 33.96 9.72ZM31.512 24V12H34.104V24H31.512ZM51.3216 21.792C49.6416 23.472 47.5856 24.312 45.1536 24.312C42.7216 24.312 40.6576 23.472 38.9616 21.792C37.2816 20.096 36.4416 18.032 36.4416 15.6C36.4416 13.168 37.2816 11.112 38.9616 9.432C40.6576 7.736 42.7216 6.888 45.1536 6.888C47.5856 6.888 49.6416 7.736 51.3216 9.432C53.0176 11.112 53.8656 13.168 53.8656 15.6C53.8656 18.032 53.0176 20.096 51.3216 21.792ZM40.9056 19.92C42.0576 21.056 43.4736 21.624 45.1536 21.624C46.8336 21.624 48.2416 21.056 49.3776 19.92C50.5296 18.768 51.1056 17.328 51.1056 15.6C51.1056 13.872 50.5296 12.44 49.3776 11.304C48.2416 10.152 46.8336 9.576 45.1536 9.576C43.4736 9.576 42.0576 10.152 40.9056 11.304C39.7696 12.44 39.2016 13.872 39.2016 15.6C39.2016 17.328 39.7696 18.768 40.9056 19.92ZM61.3423 24.312C59.7263 24.312 58.3503 23.944 57.2143 23.208C56.0943 22.472 55.3103 21.464 54.8623 20.184L57.2383 18.792C57.9103 20.68 59.3023 21.624 61.4143 21.624C62.4543 21.624 63.2303 21.424 63.7423 21.024C64.2703 20.608 64.5343 20.072 64.5343 19.416C64.5343 18.728 64.2543 18.208 63.6943 17.856C63.1343 17.488 62.1423 17.088 60.7183 16.656C59.9183 16.416 59.2703 16.192 58.7743 15.984C58.2783 15.776 57.7503 15.488 57.1903 15.12C56.6463 14.736 56.2383 14.264 55.9663 13.704C55.6943 13.144 55.5583 12.488 55.5583 11.736C55.5583 10.248 56.0863 9.072 57.1423 8.208C58.1983 7.328 59.4703 6.888 60.9583 6.888C62.3023 6.888 63.4783 7.216 64.4863 7.872C65.4943 8.528 66.2703 9.432 66.8143 10.584L64.4863 11.928C63.7823 10.36 62.6063 9.576 60.9583 9.576C60.1583 9.576 59.5183 9.768 59.0383 10.152C58.5583 10.52 58.3183 11.024 58.3183 11.664C58.3183 12.288 58.5583 12.784 59.0383 13.152C59.5343 13.504 60.4223 13.88 61.7023 14.28C62.3423 14.488 62.8063 14.648 63.0943 14.76C63.3983 14.856 63.8143 15.016 64.3423 15.24C64.8863 15.464 65.2943 15.688 65.5663 15.912C65.8383 16.136 66.1263 16.416 66.4303 16.752C66.7503 17.088 66.9743 17.472 67.1023 17.904C67.2303 18.336 67.2943 18.824 67.2943 19.368C67.2943 20.888 66.7423 22.096 65.6383 22.992C64.5503 23.872 63.1183 24.312 61.3423 24.312Z" fill="#040415"/>
</svg>
