<svg width="58" height="70" viewBox="0 0 58 70" fill="none" xmlns="http://www.w3.org/2000/svg">
<path d="M29.1232 26.4936C25.1988 23.4355 23.531 19.1404 22.5499 14.4674C21.9939 11.856 21.7323 9.21027 22.0593 6.53016C22.1901 5.39627 22.3863 4.29673 22.8442 3.26592C23.1385 2.64743 23.4656 2.06331 23.9234 1.5479C24.7737 0.585809 25.951 0.414006 27.0956 0.963773C27.8151 1.30738 28.4037 1.8915 28.8943 2.50999C29.7445 3.60953 30.3659 4.8465 30.8564 6.1522C32.1646 9.58824 32.5897 13.1961 32.5243 16.907C32.4589 19.381 32.1973 21.8549 31.7067 24.2601C31.674 24.4319 31.674 24.5694 31.6413 24.7755C32.557 25.2566 33.5381 25.3597 34.5519 25.394C38.7706 25.6002 42.8912 24.9473 46.881 23.5042C48.1891 23.0232 49.4645 22.4734 50.7072 21.8205C53.1272 20.6179 55.1875 18.8656 56.8227 16.6665C57.117 16.2885 57.4113 15.9106 57.7384 15.5326C57.7711 15.4982 57.8365 15.4982 58 15.4982C57.9346 15.7388 57.9019 15.9106 57.8365 16.0824C56.5611 18.9343 54.697 21.2364 52.2116 23.0232C49.1048 25.2222 45.6709 26.5966 42.0409 27.3526C39.0649 27.9711 36.0889 28.2459 33.0802 27.868C32.4262 27.7993 31.7394 27.6275 31.02 27.49C30.9546 27.6618 30.8891 27.868 30.8237 28.0741C29.9408 31.2009 28.8943 34.2247 27.3899 37.0766C26.1799 39.3787 24.7737 41.5091 22.975 43.3645C21.9939 44.361 20.9147 45.2544 19.7047 45.9072C16.5979 47.5565 13.7527 47.0411 11.3981 44.361C11.2673 44.2235 11.1365 44.0861 10.9403 43.8799C10.8095 44.2579 10.7113 44.5328 10.5805 44.842C9.73026 47.316 8.78187 49.7556 7.57186 52.0921C6.52536 54.085 5.31534 55.9748 3.7456 57.5898C2.99342 58.38 2.17585 59.0329 1.22746 59.5483C-1.06176 60.7509 -3.25286 60.5791 -5.34586 58.9985C-5.7383 58.7236 -6.06533 58.38 -6.49047 58.0364C-6.62128 58.4144 -6.71939 58.6893 -6.8175 58.9985C-7.70048 61.7474 -8.77968 64.4618 -10.1205 67.0045C-10.4475 67.6574 -10.84 68.2758 -11.2651 68.86C-11.4613 69.1692 -11.7884 69.3754 -12.0827 69.6159C-12.3443 69.7877 -12.6386 69.7877 -12.8676 69.5128C-13.0965 69.2379 -12.9984 68.9631 -12.8022 68.6882C-12.4097 68.104 -12.05 67.4856 -11.723 66.8671C-10.0878 63.7403 -8.84509 60.4417 -7.83129 57.0743C-7.73319 56.7651 -7.66778 56.4559 -7.8967 56.1466C-10.0224 52.9855 -11.1343 49.412 -11.8211 45.6323C-12.8022 40.3752 -12.9984 35.0493 -12.4097 29.7234C-12.2135 27.9023 -11.8865 26.15 -11.167 24.4663C-10.9054 23.8478 -10.5784 23.2293 -10.1859 22.7139C-9.20482 21.4426 -7.864 21.3739 -6.68669 22.4734C-5.96722 23.1606 -5.47667 23.9853 -5.08424 24.913C-4.26666 26.6997 -3.80882 28.6239 -3.51449 30.5825C-2.92583 34.3277 -2.92583 38.073 -3.28557 41.8527C-3.71071 46.457 -4.56099 50.9925 -5.7383 55.425C-5.86911 55.9405 -5.86911 56.3184 -5.44397 56.662C-4.92072 57.1087 -4.43017 57.6241 -3.87422 58.0021C-2.63151 58.8267 -1.32338 58.8954 0.0174437 58.277C0.93313 57.8646 1.6853 57.2462 2.37207 56.5246C3.58208 55.322 4.53047 53.9132 5.41345 52.4357C7.24482 49.2745 8.58565 45.8728 9.69756 42.3681C9.79567 42.0588 9.82837 41.8183 9.66485 41.5091C8.19321 38.3823 7.53915 35.015 7.21212 31.5789C6.85239 27.868 6.88509 24.1571 7.47375 20.4805C7.70267 19.0717 7.997 17.6629 8.55295 16.3572C8.78187 15.8075 9.0762 15.2577 9.43593 14.811C10.3189 13.7115 11.5616 13.7459 12.3792 14.8797C12.7716 15.4295 13.066 16.048 13.2949 16.7008C13.9163 18.5219 14.1125 20.4461 14.2433 22.3703C14.5703 28.5208 13.5892 34.5339 11.9541 40.4095C11.8887 40.6157 11.856 40.8219 11.7578 41.028C11.627 41.3716 11.6924 41.6809 11.8887 41.9558C12.3465 42.5742 12.7716 43.2615 13.3276 43.7769C14.603 45.0482 16.1401 45.3574 17.7752 44.6702C18.6255 44.3266 19.4431 43.7769 20.1952 43.1927C21.5034 42.1619 22.5499 40.8562 23.4983 39.4818C25.4931 36.5955 26.8994 33.3657 28.0113 29.9983C28.4037 28.9332 28.7307 27.7305 29.1232 26.4936ZM-7.11183 54.3599C-7.01372 54.1537 -6.98102 54.085 -6.94831 53.9819C-6.88291 53.8101 -6.8502 53.6039 -6.7848 53.4321C-5.57478 48.9309 -4.75721 44.3266 -4.49558 39.6536C-4.29936 36.2519 -4.36477 32.8502 -5.08424 29.4829C-5.41127 27.9711 -5.771 26.4936 -6.49047 25.1192C-6.8175 24.535 -7.20994 23.9853 -7.66778 23.5042C-8.09292 23.0575 -8.58347 23.0919 -8.9432 23.6417C-9.27023 24.1227 -9.56456 24.6725 -9.76078 25.2222C-10.4802 27.1121 -10.7419 29.105 -10.9054 31.1322C-11.2324 35.5647 -11.0035 39.9629 -10.284 44.361C-9.76078 47.4878 -9.00861 50.5459 -7.63508 53.3978C-7.47156 53.6383 -7.34075 53.9475 -7.11183 54.3599ZM29.7118 23.5729C29.8099 23.1606 29.8754 22.8857 29.9081 22.6452C30.0389 21.6831 30.2024 20.7554 30.3005 19.7933C30.6602 16.3229 30.5621 12.8868 29.7445 9.48516C29.3194 7.73278 28.7307 6.08348 27.7824 4.57162C27.4226 4.02185 26.9975 3.54081 26.5396 3.09412C25.9183 2.54435 25.4931 2.68179 25.068 3.40336C24.9045 3.67825 24.7737 3.98749 24.7083 4.29673C24.5448 5.08702 24.3485 5.91167 24.2831 6.73632C24.0542 9.72568 24.4466 12.6463 25.2315 15.5326C25.9183 18.0065 26.9321 20.3087 28.5345 22.3016C28.8616 22.7139 29.254 23.0919 29.7118 23.5729ZM11.0384 15.9449C10.973 15.9449 10.8749 15.9449 10.8095 15.9793C10.6459 16.2885 10.417 16.5634 10.2862 16.8726C10.0573 17.5255 9.79566 18.2127 9.63215 18.8999C8.84727 22.1985 8.71646 25.5658 8.87998 28.9675C9.01079 32.06 9.40323 35.1524 10.2535 38.1418C10.3189 38.3823 10.417 38.6228 10.5151 38.8633C10.7114 38.5884 10.8422 38.3136 10.8749 38.0387C11.2673 36.0114 11.7578 34.0185 12.0522 31.9912C12.6408 28.3147 12.837 24.6037 12.4119 20.9272C12.2811 19.6902 11.9541 18.4532 11.627 17.2506C11.5616 16.7696 11.2673 16.3572 11.0384 15.9449Z" fill="#E91688"/>
<path d="M29.1232 26.4936C25.1988 23.4355 23.531 19.1404 22.5499 14.4674C21.9939 11.856 21.7323 9.21027 22.0593 6.53016C22.1901 5.39627 22.3863 4.29673 22.8442 3.26592C23.1385 2.64743 23.4656 2.06331 23.9234 1.5479C24.7737 0.585809 25.951 0.414006 27.0956 0.963773C27.8151 1.30738 28.4037 1.8915 28.8943 2.50999C29.7445 3.60953 30.3659 4.8465 30.8564 6.1522C32.1646 9.58824 32.5897 13.1961 32.5243 16.907C32.4589 19.381 32.1973 21.8549 31.7067 24.2601C31.674 24.4319 31.674 24.5694 31.6413 24.7755C32.557 25.2566 33.5381 25.3597 34.5519 25.394C38.7706 25.6002 42.8912 24.9473 46.881 23.5042C48.1891 23.0232 49.4645 22.4734 50.7072 21.8205C53.1272 20.6179 55.1875 18.8656 56.8227 16.6665C57.117 16.2885 57.4113 15.9106 57.7384 15.5326C57.7711 15.4982 57.8365 15.4982 58 15.4982C57.9346 15.7388 57.9019 15.9106 57.8365 16.0824C56.5611 18.9343 54.697 21.2364 52.2116 23.0232C49.1048 25.2222 45.6709 26.5966 42.0409 27.3526C39.0649 27.9711 36.0889 28.2459 33.0802 27.868C32.4262 27.7993 31.7394 27.6275 31.02 27.49C30.9546 27.6618 30.8891 27.868 30.8237 28.0741C29.9408 31.2009 28.8943 34.2247 27.3899 37.0766C26.1799 39.3787 24.7737 41.5091 22.975 43.3645C21.9939 44.361 20.9147 45.2544 19.7047 45.9072C16.5979 47.5565 13.7527 47.0411 11.3981 44.361C11.2673 44.2235 11.1365 44.0861 10.9403 43.8799C10.8095 44.2579 10.7113 44.5328 10.5805 44.842C9.73026 47.316 8.78187 49.7556 7.57186 52.0921C6.52536 54.085 5.31534 55.9748 3.7456 57.5898C2.99342 58.38 2.17585 59.0329 1.22746 59.5483C-1.06176 60.7509 -3.25286 60.5791 -5.34586 58.9985C-5.7383 58.7236 -6.06533 58.38 -6.49047 58.0364C-6.62128 58.4144 -6.71939 58.6893 -6.8175 58.9985C-7.70048 61.7474 -8.77968 64.4618 -10.1205 67.0045C-10.4475 67.6574 -10.84 68.2758 -11.2651 68.86C-11.4613 69.1692 -11.7884 69.3754 -12.0827 69.6159C-12.3443 69.7877 -12.6386 69.7877 -12.8676 69.5128C-13.0965 69.2379 -12.9984 68.9631 -12.8022 68.6882C-12.4097 68.104 -12.05 67.4856 -11.723 66.8671C-10.0878 63.7403 -8.84509 60.4417 -7.83129 57.0743C-7.73319 56.7651 -7.66778 56.4559 -7.8967 56.1466C-10.0224 52.9855 -11.1343 49.412 -11.8211 45.6323C-12.8022 40.3752 -12.9984 35.0493 -12.4097 29.7234C-12.2135 27.9023 -11.8865 26.15 -11.167 24.4663C-10.9054 23.8478 -10.5784 23.2293 -10.1859 22.7139C-9.20482 21.4426 -7.864 21.3739 -6.68669 22.4734C-5.96722 23.1606 -5.47667 23.9853 -5.08424 24.913C-4.26666 26.6997 -3.80882 28.6239 -3.51449 30.5825C-2.92583 34.3277 -2.92583 38.073 -3.28557 41.8527C-3.71071 46.457 -4.56099 50.9925 -5.7383 55.425C-5.86911 55.9405 -5.86911 56.3184 -5.44397 56.662C-4.92072 57.1087 -4.43017 57.6241 -3.87422 58.0021C-2.63151 58.8267 -1.32338 58.8954 0.0174437 58.277C0.93313 57.8646 1.6853 57.2462 2.37207 56.5246C3.58208 55.322 4.53047 53.9132 5.41345 52.4357C7.24482 49.2745 8.58565 45.8728 9.69756 42.3681C9.79567 42.0588 9.82837 41.8183 9.66485 41.5091C8.19321 38.3823 7.53915 35.015 7.21212 31.5789C6.85239 27.868 6.88509 24.1571 7.47375 20.4805C7.70267 19.0717 7.997 17.6629 8.55295 16.3572C8.78187 15.8075 9.0762 15.2577 9.43593 14.811C10.3189 13.7115 11.5616 13.7459 12.3792 14.8797C12.7716 15.4295 13.066 16.048 13.2949 16.7008C13.9163 18.5219 14.1125 20.4461 14.2433 22.3703C14.5703 28.5208 13.5892 34.5339 11.9541 40.4095C11.8887 40.6157 11.856 40.8219 11.7578 41.028C11.627 41.3716 11.6924 41.6809 11.8887 41.9558C12.3465 42.5742 12.7716 43.2615 13.3276 43.7769C14.603 45.0482 16.1401 45.3574 17.7752 44.6702C18.6255 44.3266 19.4431 43.7769 20.1952 43.1927C21.5034 42.1619 22.5499 40.8562 23.4983 39.4818C25.4931 36.5955 26.8994 33.3657 28.0113 29.9983C28.4037 28.9332 28.7307 27.7305 29.1232 26.4936ZM-7.11183 54.3599C-7.01372 54.1537 -6.98102 54.085 -6.94831 53.9819C-6.88291 53.8101 -6.8502 53.6039 -6.7848 53.4321C-5.57478 48.9309 -4.75721 44.3266 -4.49558 39.6536C-4.29936 36.2519 -4.36477 32.8502 -5.08424 29.4829C-5.41127 27.9711 -5.771 26.4936 -6.49047 25.1192C-6.8175 24.535 -7.20994 23.9853 -7.66778 23.5042C-8.09292 23.0575 -8.58347 23.0919 -8.9432 23.6417C-9.27023 24.1227 -9.56456 24.6725 -9.76078 25.2222C-10.4802 27.1121 -10.7419 29.105 -10.9054 31.1322C-11.2324 35.5647 -11.0035 39.9629 -10.284 44.361C-9.76078 47.4878 -9.00861 50.5459 -7.63508 53.3978C-7.47156 53.6383 -7.34075 53.9475 -7.11183 54.3599ZM29.7118 23.5729C29.8099 23.1606 29.8754 22.8857 29.9081 22.6452C30.0389 21.6831 30.2024 20.7554 30.3005 19.7933C30.6602 16.3229 30.5621 12.8868 29.7445 9.48516C29.3194 7.73278 28.7307 6.08348 27.7824 4.57162C27.4226 4.02185 26.9975 3.54081 26.5396 3.09412C25.9183 2.54435 25.4931 2.68179 25.068 3.40336C24.9045 3.67825 24.7737 3.98749 24.7083 4.29673C24.5448 5.08702 24.3485 5.91167 24.2831 6.73632C24.0542 9.72568 24.4466 12.6463 25.2315 15.5326C25.9183 18.0065 26.9321 20.3087 28.5345 22.3016C28.8616 22.7139 29.254 23.0919 29.7118 23.5729ZM11.0384 15.9449C10.973 15.9449 10.8749 15.9449 10.8095 15.9793C10.6459 16.2885 10.417 16.5634 10.2862 16.8726C10.0573 17.5255 9.79566 18.2127 9.63215 18.8999C8.84727 22.1985 8.71646 25.5658 8.87998 28.9675C9.01079 32.06 9.40323 35.1524 10.2535 38.1418C10.3189 38.3823 10.417 38.6228 10.5151 38.8633C10.7114 38.5884 10.8422 38.3136 10.8749 38.0387C11.2673 36.0114 11.7578 34.0185 12.0522 31.9912C12.6408 28.3147 12.837 24.6037 12.4119 20.9272C12.2811 19.6902 11.9541 18.4532 11.627 17.2506C11.5616 16.7696 11.2673 16.3572 11.0384 15.9449Z" fill="#01CAB0"/>
</svg>
