<svg width="16" height="24" viewBox="0 0 16 24" fill="none" xmlns="http://www.w3.org/2000/svg">
<g clip-path="url(#clip0)">
<path d="M15.9968 20V19.9993H16.0008V14.1313C16.0008 11.2606 15.3828 9.04932 12.0268 9.04932C10.4135 9.04932 9.33082 9.93465 8.88882 10.774H8.84216V9.31732H5.66016V19.9993H8.97349V14.71C8.97349 13.3173 9.23749 11.9707 10.9622 11.9707C12.6615 11.9707 12.6868 13.56 12.6868 14.7993V20H15.9968Z" fill="white"/>
<path d="M0.261719 9.31836H3.57905V20.0004H0.261719V9.31836Z" fill="white"/>
<path d="M1.92133 4C0.860667 4 0 4.86067 0 5.92133C0 6.982 0.860667 7.86067 1.92133 7.86067C2.982 7.86067 3.84267 6.982 3.84267 5.92133C3.842 4.86067 2.98133 4 1.92133 4V4Z" fill="white"/>
</g>
<defs>
<clipPath id="clip0">
<rect width="16" height="24" fill="white"/>
</clipPath>
</defs>
</svg>
