<svg width="337" height="223" viewBox="0 0 337 223" fill="none" xmlns="http://www.w3.org/2000/svg">
<g opacity="0.45">
<path d="M309.404 151.614L309.485 151.882L309.033 153.531L308.843 153.849L308.539 153.909L308.037 153.757L307.661 153.572L307.24 153.263L307.05 152.893L307.367 152.505L307.856 152.505L308.195 152.335L308.906 151.79L309.404 151.614ZM313.846 144.552L313.977 144.635L314.086 144.843L313.959 145.125L313.683 145.194L313.375 145.143L313.139 145.042L312.99 145.009L312.877 145.009L312.65 145.083L311.881 145.014L311.111 144.825L310.4 144.866L309.793 145.485L309.427 146.312L309.218 146.663L308.901 146.972L307.878 147.591L307.606 147.67L307.213 147.494L307.09 147.102L307.09 146.035L306.954 145.508L306.678 144.922L306.334 144.612L305.977 144.94L305.859 145.434L305.814 145.896L305.641 146.192L305.162 146.243L304.256 146.053L303.803 145.878L303.387 145.614L303.034 145.268L302.875 144.885L302.689 144.571L301.816 144.293L301.204 143.707L300.81 143.679L300.195 143.744L299.873 143.716L299.606 143.596L299.402 143.356L299.23 143.083L299.031 142.922L298.75 143.005L298.447 143.467L298.275 144.044L297.999 144.483L297.383 144.543L295.119 144.21L293.983 144.409L293.276 145.143L292.873 145.102L291.148 145.263L288.346 146.159L287.513 146.229L286.689 146.173L285.901 145.596L285.552 144.497L285.294 143.291L284.773 142.428L284.343 142.243L283.972 142.284L283.605 142.4L283.18 142.437L282.768 142.317L281.794 141.855L282.061 140.931L282.007 140.82L281.839 140.612L281.794 140.575L281.536 140.192L281.504 140.123L281.473 139.998L281.441 139.448L281.749 138.945L282.328 138.562L283.687 138.243L283.872 138.165L284.067 137.901L284.52 137.088L284.782 136.816L285.059 136.691L285.344 136.613L285.638 136.469L285.887 136.252L286.575 135.384L287.757 134.396L288.051 134.119L288.332 133.897L288.495 133.814L288.817 133.74L288.88 133.638L288.916 133.514L288.984 133.407L289.287 133.213L289.79 132.895L289.998 132.654L290.179 132.387L290.392 132.146L290.723 131.985L290.985 131.962L291.529 132.022L291.787 131.985L292.692 131.144L293.086 131.144L293.39 131.278L293.548 131.389L293.675 131.5L294.3 131.592L296.505 131.467L295.264 133.195L295.373 133.306L296.138 133.393L296.283 133.463L296.835 134.054L296.98 134.137L297.179 134.206L297.537 134.276L297.754 134.359L298.153 134.687L299.058 135.181L299.339 135.269L299.792 135.181L301.064 133.952L301.68 132.992L302.06 132.664L303.794 131.703L305.406 131.158L305.99 132.049L306.416 132.89L306.61 133.172L306.692 133.223L306.724 132.761L306.841 132.682L307.05 132.682L307.575 132.959L307.833 133.052L308.028 133.075L308.123 133.001L308.335 132.973L308.652 132.996L309.671 133.352L309.888 133.477L310.051 133.671L310.228 133.975L311.011 135.07L311.17 135.153L311.351 135.213L311.804 135.292L312.193 135.218L312.75 135.181L313.655 135.495L314.833 135.749L315.163 135.717L315.376 135.444L315.566 135.269L315.842 135.472L316.223 136.04L316.363 136.155L316.589 136.155L317.599 136.469L317.875 136.719L317.875 136.848L317.875 136.996L317.875 137.305L317.807 137.79L317.753 138.252L317.798 138.613L317.966 139.213L317.993 139.333L317.087 139.379L316.757 139.467L315.512 140.275L315.335 140.548L315.218 141.033L314.932 141.758L314.416 142.28L312.732 143.157L312.623 143.527L312.759 143.915L313.126 144.187L313.692 144.455L313.846 144.552ZM294.232 147.259L294.684 147.54L295.01 148.173L295.278 148.88L295.613 149.309L296.142 149.665L297.234 150.127L297.301 150.187L297.378 150.233L297.528 150.233L297.623 150.201L297.854 150.067L297.953 150.007L298.451 149.868L298.7 149.919L298.85 150.159L298.719 150.566L297.813 151.208L297.496 151.522L297.541 152.191L298.402 153.115L298.361 153.914L298.153 154.224L297.886 154.33L297.229 154.33L296.323 154.584L296.034 154.556L295.807 154.339L295.762 154.057L295.667 153.836L295.296 153.836L295.078 153.993L294.811 154.26L294.535 154.436L294.286 154.311L294.254 153.651L295.087 152.316L295.001 151.559L294.775 151.378L294.254 151.263L294.001 151.124L293.779 150.801L293.294 149.72L293.19 149.305L293.19 148.875L293.303 148.413L293.643 147.605L294.232 147.259Z" fill="#85AF9A" stroke="#808080" stroke-width="0.5" stroke-linecap="round" stroke-linejoin="round"/>
<path d="M298.954 93.4976L299.017 93.4976L298.727 94.4953L297.998 95.0125L296.391 95.4744L293.634 97.5759L292.828 97.7745L291.868 97.7283L291.062 97.9454L290.722 98.9245L290.668 100.453L290.451 100.915L289.772 101.178L287.829 101.409L287.227 101.774L285.298 103.46L284.451 104.481L283.881 105.737L283.428 106.434L282.84 106.836L282.201 107.155L281.038 108.079L277.868 109.972L277.456 110.656L277.814 111.51L278.534 111.898L281.282 112.208L282.011 112.67L282.337 112.974L282.622 113.349L283.102 114.272L283.397 114.549L283.741 114.549L283.519 115.173L283.338 115.51L282.387 116.808L282.332 116.956L282.305 117.15L282.351 117.45L282.351 117.856L282.414 118L282.482 118.092L283.021 118.17L283.093 118.383L282.998 118.748L282.944 118.914L282.572 119.718L282.536 119.879L282.536 120.05L282.577 120.23L282.704 120.443L283.098 120.979L283.492 121.662L283.582 122.244L283.618 124.193L283.478 124.798L283.238 124.53L282.369 124.161L281.635 124.359L281.092 127.131L280.01 128.424L278.597 129.292L276.573 130.11L274.762 131.62L271.14 132.77L270.714 132.987L270.325 133.32L269.524 134.363L269.071 134.788L268.546 134.95L267.943 134.724L267.699 134.497L267.5 134.22L267.142 133.601L266.925 133.338L266.431 133.006L266.205 132.798L265.435 131.592L264.982 131.172L264.362 131.112L264.054 130.918L263.81 130.655L263.552 130.438L263.198 130.401L262.565 130.613L262.252 130.789L261.976 131.024L261.478 131.68L261.179 132.359L261.043 133.144L261.043 134.105L261.179 135.49L261.098 135.846L260.817 136.017L259.631 136.119L258.915 136.622L258.915 137.162L259.703 138.516L260.12 139.984L260.31 140.446L260.817 141.37L261.03 141.864L261.152 142.441L261.012 143.716L260.382 143.827L259.631 143.531L259.119 143.601L259.201 144.367L260.618 145.67L260.618 146.284L259.884 146.626L258.915 146.603L257.159 146.067L256.488 145.721L256.588 145.379L256.869 144.349L256.833 143.966L256.706 143.749L256.425 143.033L256.837 140.649L256.887 140.469L257 140.206L257.109 140.012L257.385 139.643L257.466 139.416L257.435 139.185L257.367 138.954L257.326 138.747L257.204 138.576L257 138.377L256.959 138.169L257.326 137.961L257.149 137.823L256.955 137.758L256.747 137.758L256.525 137.786L256.747 136.862L256.932 136.502L257.426 136.276L257.426 136.091L257.303 135.906L257.127 135.823L256.941 135.934L256.733 136.146L256.543 136.289L256.389 136.192L256.389 136.003L256.706 135.689L256.783 135.463L256.683 135.218L256.33 134.913L256.099 134.262L255.737 134.234L254.917 134.396L255.23 133.865L255.302 133.597L255.117 133.486L254.818 133.587L254.546 133.772L254.27 133.865L253.971 133.68L254.229 133.338L254.184 132.987L253.966 132.664L253.704 132.414L253.564 132.368L253.428 132.368L253.292 132.368L253.161 132.239L253.161 132.123L253.197 131.819L253.197 131.703L252.993 131.278L252.889 131.144L252.676 130.973L252.124 130.669L251.988 130.567L251.848 130.364L251.621 129.902L251.445 129.671L251.15 129.449L250.725 129.255L250.299 129.181L249.978 129.311L249.914 128.849L249.86 128.673L249.774 128.673L249.602 128.803L249.498 128.733L249.448 128.544L249.421 127.92L249.357 127.657L249.203 127.426L248.216 126.502L248.393 126.424L248.991 126.156L249.19 125.907L249.384 125.662L249.742 124.609L250.104 123.56L250.367 123.251L250.639 122.942L251.309 122.641L251.979 122.341L252.223 121.912L252.463 121.487L252.586 121.316L252.717 121.145L252.916 121.076L253.12 121.011L253.536 120.955L253.957 120.9L254.306 120.72L254.659 120.549L254.994 120.313L255.329 120.078L255.492 119.912L255.66 119.741L255.737 119.593L255.818 119.441L255.968 118.184L256.122 116.928L256.122 116.711L256.122 116.494L256.095 116.337L256.067 116.184L256.04 116.138L256.013 116.087L255.968 116.055L255.918 116.018L255.827 115.903L255.741 115.787L255.714 115.676L255.687 115.566L255.732 115.473L255.778 115.381L255.859 115.311L255.936 115.247L256.389 115.021L256.842 114.794L257.023 114.734L257.208 114.679L257.389 114.748L257.571 114.822L257.67 114.549L257.765 114.272L258.005 114.037L258.245 113.797L258.775 113.45L259.309 113.108L259.468 113.071L259.622 113.039L259.911 113.145L260.201 113.252L260.346 113.252L260.486 113.228L260.862 112.984L261.238 112.734L261.383 112.693L261.532 112.651L262.112 112.762L262.691 112.868L262.805 112.799L262.922 112.734L262.922 112.596L262.922 112.462L262.759 112.157L262.601 111.852L262.537 111.732L262.501 111.589L262.628 111.242L262.755 110.896L263.013 110.702L263.271 110.508L263.828 110.328L264.385 110.148L265.376 109.353L266.368 108.554L266.644 108.222L266.925 107.889L267.088 107.76L267.255 107.626L268.573 107.252L269.886 106.878L270.977 106.836L272.064 106.795L272.471 106.619L272.874 106.444L273.168 106.083L273.467 105.728L273.599 105.525L273.734 105.317L273.884 105.192L274.038 105.067L274.581 104.864L275.129 104.661L275.935 104.047L276.75 103.437L276.994 103.141L277.243 102.846L277.904 101.677L278.565 100.509L278.706 100.361L278.846 100.213L279.014 100.116L279.181 100.019L279.358 99.9545L279.534 99.8898L279.697 99.8021L279.856 99.7189L279.978 99.5758L280.1 99.4326L280.177 99.197L280.245 98.9661L280.485 98.4211L280.73 97.8761L281.142 97.5066L281.563 97.1371L282.518 96.7168L283.469 96.2965L283.609 96.3242L283.754 96.3519L283.935 96.4813L284.112 96.6106L284.27 96.7907L284.424 96.9708L284.497 97.1417L284.569 97.3172L284.637 97.5713L284.705 97.8207L284.854 97.9777L285.004 98.1301L285.212 98.2133L285.416 98.301L285.647 98.3287L285.878 98.3657L286.181 98.2133L286.489 98.0655L286.693 97.6729L286.901 97.2803L287.082 96.7907L287.259 96.3058L287.485 95.8716L287.716 95.4328L287.988 95.1003L288.259 94.7678L288.363 94.5876L288.468 94.4075L288.549 94.1581L288.626 93.9133L288.766 93.7193L288.907 93.5253L289.142 93.5253L289.373 93.5253L289.826 93.6547L290.279 93.7794L290.645 93.7286L291.017 93.6731L291.383 93.4792L291.75 93.2852L292.411 92.7355L293.072 92.1813L293.498 91.7703L294.367 91.1236L294.983 91.0359L295.608 91.2991L298.324 93.3036L298.954 93.4976ZM259.821 119.505L260.441 118.706L261.428 117.782L262.166 117.408L261.967 117.196L262.107 116.951L261.908 116.646L261.636 116.471L261.935 115.944L261.863 115.515L261.143 115.053L260.545 114.974L260.092 114.642L259.436 114.642L258.399 115.704L258.245 116.54L257.734 117.824L257.792 117.879L258.123 117.681L258.155 118.009L258.295 118.3L258.779 118.863L259.096 118.535L259.096 118.642L258.983 118.9L259.228 119.362L259.821 119.505Z" fill="#DAF5E9" stroke="#808080" stroke-width="0.5" stroke-linecap="round" stroke-linejoin="round"/>
<path d="M283.755 114.605L283.882 114.605L284.543 114.346L286.934 112.96L287.599 112.859L287.966 113.094L288.296 113.556L289.392 115.487L289.578 116.027L289.614 116.581L289.324 118.203L289.36 118.664L289.6 119.025L289.913 118.974L290.293 118.789L290.746 118.743L291.122 118.905L291.475 119.163L291.792 119.5L292.064 119.879L292.421 120.221L292.806 120.263L293.648 120.133L294.576 120.309L295.029 120.512L295.428 120.835L295.785 121.038L296.514 121.14L296.827 121.399L297.32 122.244L297.624 122.456L297.818 121.948L297.777 121.394L297.682 120.932L297.732 120.567L298.14 120.346L298.592 120.383L298.814 120.701L299.054 121.694L299.24 122.064L299.489 122.336L299.752 122.313L299.96 121.81L300.449 121.172L301.807 122.346L302.26 121.962L302.364 121.038L302.192 116.484L302.314 116.152L302.581 116.217L303.519 117.117L304.361 117.491L305.026 117.357L305.565 116.78L306.217 115.348L306.493 114.461L306.579 113.935L306.507 113.45L305.959 112.729L305.764 112.268L306.154 111.256L306.389 110.961L306.819 110.785L307.245 110.85L307.494 111.205L307.598 111.718L307.598 112.268L307.24 113.755L307.24 114.078L307.426 114.147L307.539 113.93L307.621 113.644L307.711 113.496L307.92 113.584L308.024 114.009L308.209 114.097L308.368 113.953L308.368 113.399L308.49 113.284L308.653 113.353L308.811 113.501L310.623 116.272L310.935 117.057L311.048 117.925L310.998 119.052L311.102 120.161L311.61 120.41L313.158 120.142L313.611 120.54L313.91 120.974L314.245 121.159L314.829 120.798L315.25 120.415L315.703 120.11L316.178 120.032L316.676 120.336L316.898 120.84L316.993 121.56L317.025 122.309L317.206 123.694L317.206 124.202L317.075 124.664L316.807 125.288L317.401 125.107L317.287 125.532L316.835 127.717L316.685 127.86L316.599 127.911L316.481 127.962L316.187 128.017L315.014 128.068L314.693 128.133L314.353 128.091L311.795 127.463L311.261 127.514L310.808 127.477L310.383 127.477L310.156 127.546L309.341 127.943L308.694 127.611L306.674 128.16L306.421 128.544L306.176 128.724L305.542 129.324L305.461 129.477L305.461 129.657L305.692 129.971L306.004 130.631L305.438 131.195L303.826 131.74L302.092 132.701L301.712 133.028L301.096 133.989L299.824 135.218L299.371 135.305L299.091 135.218L298.185 134.723L297.787 134.396L297.569 134.312L297.212 134.243L297.012 134.174L296.867 134.091L296.315 133.5L296.17 133.43L295.405 133.343L295.296 133.232L296.537 131.504L294.332 131.629L293.707 131.537L293.58 131.426L293.422 131.315L293.118 131.181L292.725 131.181L291.819 132.022L291.561 132.059L291.018 131.998L290.755 132.022L290.425 132.183L290.212 132.423L290.031 132.691L289.822 132.931L289.32 133.25L289.365 133.033L289.533 132.151L288.785 131.712L287.002 131.287L286.694 130.885L286.648 130.424L286.83 130.096L287.219 130.049L287.894 130.668L288.278 130.811L288.319 130.327L288.156 130.1L284.597 125.999L283.982 125.449L283.918 125.371L283.873 125.283L283.497 124.863L283.637 124.258L283.601 122.309L283.511 121.727L283.117 121.043L282.732 120.507L282.605 120.295L282.564 120.115L282.564 119.944L282.601 119.782L282.972 118.979L283.026 118.812L283.121 118.447L283.049 118.235L282.51 118.156L282.442 118.064L282.379 117.921L282.379 117.514L282.333 117.214L282.361 117.02L282.415 116.872L283.366 115.575L283.547 115.237L283.755 114.605ZM285.612 124.766L285.295 124.849L285.521 125.389L285.521 125.412L285.847 125.754L286.417 126.539L286.743 126.858L287.133 126.95L287.101 126.488L286.848 125.856L286.576 125.394L286.123 124.974L285.612 124.766Z" fill="#C7DCDD" stroke="#808080" stroke-width="0.5" stroke-linecap="round" stroke-linejoin="round"/>
<path d="M335.733 129.592L335.896 129.634L336 130.16L335.402 130.964L334.497 131.5L332.686 132.193L331.015 133.264L329.607 133.629L328.923 133.929L328.471 134.659L328.244 136.4L327.678 136.668L326.958 136.331L326.605 136.331L326.451 136.765L326.379 137.135L326.288 137.504L326.103 137.827L325.804 138.072L325.029 138.118L323.671 137.153L322.92 137.051L322.354 136.765L321.711 135.998L321.063 135.416L320.484 135.684L320.416 136.114L320.832 136.83L320.832 137.292L320.701 137.717L320.701 138.058L320.869 138.294L321.715 138.922L321.801 139.134L321.919 139.435L321.919 140.044L321.711 140.705L321.312 141.259L320.859 141.356L320.33 141.153L319.134 140.446L318.849 140.335L317.944 140.377L317.695 140.298L317.785 140.063L318.012 139.994L318.347 139.966L318.627 139.869L318.704 139.606L318.528 139.458L318.17 139.416L318.021 139.416L317.993 139.296L317.826 138.696L317.781 138.335L317.835 137.874L317.903 137.389L317.903 137.079L317.903 136.931L317.903 136.802L317.627 136.553L316.617 136.239L316.391 136.239L316.25 136.123L315.87 135.555L315.594 135.352L315.404 135.527L315.191 135.8L314.86 135.832L313.683 135.578L312.778 135.264L312.221 135.301L311.831 135.375L311.378 135.296L311.197 135.236L311.039 135.153L310.256 134.059L310.079 133.754L309.916 133.56L309.699 133.435L308.68 133.079L308.363 133.056L308.15 133.084L308.055 133.158L307.86 133.135L307.602 133.042L307.077 132.765L306.869 132.765L306.751 132.844L306.719 133.306L306.638 133.255L306.443 132.973L306.018 132.133L305.434 131.241L306 130.678L305.687 130.017L305.456 129.703L305.456 129.523L305.538 129.371L306.172 128.77L306.416 128.59L306.67 128.207L308.689 127.657L309.336 127.99L310.151 127.592L310.378 127.523L310.803 127.523L311.256 127.56L311.79 127.509L314.349 128.137L314.688 128.179L315.01 128.114L316.182 128.064L316.477 128.008L316.594 127.957L316.68 127.907L316.83 127.763L317.283 125.579L317.396 125.154L318.514 124.803L319.234 124.701L319.383 124.581L319.605 123.888L319.709 123.699L320.067 123.403L320.325 123.583L320.882 124.479L321.29 124.738L321.842 124.904L322.883 125.011L322.983 125.089L323.037 125.195L323.037 125.329L323.006 125.491L323.006 126.05L323.359 126.235L323.843 126.272L324.219 126.419L325.057 127.749L325.663 128.424L326.419 128.761L327.257 128.867L329.77 128.636L330.526 128.844L330.608 129.611L330.558 130.045L330.807 130.008L331.712 129.366L333.157 128.682L333.469 128.9L333.741 129.287L334.135 129.574L335.285 129.495L335.733 129.592Z" fill="#85AF9A" stroke="#808080" stroke-width="0.5" stroke-linecap="round" stroke-linejoin="round"/>
<path d="M256.493 145.721L255.877 145.407L255.425 145.328L252.255 145.831L251.866 145.993L251.187 146.39L250.734 146.455L249.606 146.252L249.154 146.293L248.067 146.584L247.836 146.122L247.9 145.905L247.981 145.721L248.253 144.728L248.33 144.543L248.411 144.404L248.502 144.275L248.606 144.095L248.606 144.039L248.502 144.039L242.656 145.513L238.224 145.416L237.685 145.328L237.613 145.226L237.499 145.028L237.418 144.82L237.336 144.109L237.391 143.698L237.472 143.342L239.777 137.957L239.723 137.624L239.537 137.624L239.193 137.735L238.862 137.777L238.758 137.68L238.717 137.541L238.844 136.571L238.867 135.952L238.912 135.818L239.003 135.74L239.116 135.694L239.369 135.629L240.442 135.444L240.701 135.162L240.746 134.109L242.258 134.922L244.558 136.151L244.59 136.082L244.621 136.017L244.739 135.892L244.88 135.749L245.024 135.749L245.174 135.749L245.246 135.657L245.319 135.564L245.373 135.453L245.427 135.338L245.518 135.273L245.609 135.213L245.722 135.213L245.835 135.236L246.224 135.43L246.614 135.629L246.876 135.67L247.134 135.707L247.343 135.583L247.551 135.458L247.61 135.282L247.669 135.112L247.478 135.01L247.293 134.908L247.528 134.516L247.768 134.114L247.768 134.026L247.768 133.938L247.687 133.795L247.601 133.647L247.537 133.486L247.474 133.329L247.438 133.158L247.401 132.992L247.401 132.83L247.401 132.668L247.157 132.608L246.908 132.548L246.813 132.493L246.722 132.437L246.641 132.336L246.559 132.23L246.496 131.985L246.433 131.74L246.333 130.641L246.238 129.546L246.27 129.343L246.31 129.144L246.36 129.075L246.419 129.01L246.478 128.96L246.541 128.913L246.605 128.766L246.668 128.618L246.668 128.488L246.668 128.364L246.641 128.068L246.614 127.777L246.614 127.486L246.654 127.514L246.7 127.514L246.79 127.551L246.881 127.588L246.926 127.616L246.971 127.648L247.143 127.435L247.252 127.126L247.524 126.937L247.795 126.747L248.216 126.558L249.204 127.482L249.357 127.713L249.421 127.976L249.448 128.599L249.498 128.789L249.602 128.858L249.774 128.729L249.86 128.729L249.914 128.904L249.978 129.366L250.299 129.237L250.725 129.311L251.15 129.505L251.445 129.726L251.621 129.957L251.848 130.419L251.988 130.622L252.124 130.724L252.645 130.996L252.857 131.167L252.961 131.301L253.165 131.726L253.165 131.842L253.129 132.146L253.129 132.262L253.26 132.391L253.396 132.391L253.532 132.391L253.672 132.437L253.935 132.687L254.152 133.01L254.198 133.361L253.939 133.703L254.238 133.888L254.515 133.795L254.786 133.611L255.085 133.509L255.271 133.62L255.198 133.888L254.886 134.419L255.705 134.257L256.068 134.285L256.298 134.936L256.652 135.241L256.751 135.486L256.674 135.712L256.357 136.026L256.357 136.215L256.511 136.312L256.701 136.169L256.91 135.957L257.095 135.846L257.272 135.929L257.394 136.114L257.394 136.299L256.901 136.525L256.715 136.885L256.493 137.809L256.715 137.781L256.923 137.781L257.118 137.846L257.294 137.984L256.928 138.192L256.969 138.4L257.172 138.599L257.294 138.77L257.335 138.977L257.403 139.208L257.435 139.439L257.353 139.666L257.077 140.035L256.969 140.229L256.855 140.492L256.806 140.672L256.393 143.056L256.674 143.772L256.801 143.989L256.837 144.372L256.556 145.402L256.457 145.744L256.493 145.721ZM248.049 155.272L248.099 155.004L248.099 154.607L248.203 154.381L248.262 154.196L248.289 154.048L248.235 153.951L248.135 153.868L247.786 153.642L247.696 153.554L247.66 153.452L247.66 153.346L247.818 153.249L247.936 153.249L248.04 153.314L248.117 153.415L248.185 153.517L248.253 153.517L248.321 153.378L248.384 152.524L248.384 152.284L248.357 152.141L248.293 151.891L248.135 151.429L248.09 151.337L248.09 151.309L248.026 151.166L247.954 150.926L247.927 150.783L247.927 150.612L247.927 150.418L248.008 150.131L248.312 149.573L249.145 148.446L253.713 147.522L254.619 148.192L254.745 148.556L254.809 148.954L254.777 149.328L254.619 149.646L254.166 149.72L252.744 149.494L252.35 149.623L251.671 150.256L251.422 150.339L250.969 149.526L250.661 149.277L250.408 149.739L250.449 149.974L250.797 150.256L250.865 150.455L250.82 150.986L250.852 151.226L250.947 151.485L252.667 153.905L252.731 154.478L251.902 154.829L251.449 154.127L251.155 153.009L250.756 152.122L250.349 151.836L250.213 152.034L250.286 152.496L250.471 153.055L250.924 154.002L250.924 154.367L250.684 154.861L250.612 154.916L250.408 154.949L250.34 154.99L250.2 155.378L250.2 155.544L250.154 155.803L250.028 155.969L249.765 155.831L249.244 154.967L248.923 154.722L248.257 155.323L248.049 155.272Z" fill="#85AF9A" stroke="#808080" stroke-width="0.5" stroke-linecap="round" stroke-linejoin="round"/>
<path d="M248.086 146.584L247.293 146.801L246.886 147.092L247.388 147.66L248.262 148.219L248.95 148.487L249.136 148.45L248.303 149.577L248 150.136L247.918 150.422L247.918 150.616L247.918 150.787L247.945 150.93L248.018 151.171L248.081 151.314L248.081 151.341L248.126 151.434L248.285 151.896L248.348 152.145L248.375 152.288L248.375 152.528L248.312 153.383L248.244 153.521L248.176 153.521L248.108 153.42L248.031 153.318L247.927 153.254L247.809 153.254L247.651 153.351L247.651 153.457L247.687 153.558L247.778 153.646L248.126 153.872L248.226 153.956L248.28 154.053L248.253 154.2L248.194 154.385L248.09 154.611L248.09 155.009L248.04 155.277L247.991 155.277L247.764 155.277L247.565 155.831L247.366 159.988L247.262 160.606L246.999 161.11L246.546 161.618L245.713 162.158L245.446 162.542L245.514 162.699L245.654 163.027L245.265 163.207L244.07 163.53L243.101 163.622L242.141 163.553L240.547 162.971L237.627 162.879L230.962 161.119L230.056 161.096L229.332 161.336L227.521 162.657L225.959 162.911L225.574 163.295L225.71 164.431L225.642 164.523L225.56 164.602L225.47 164.648L225.375 164.671L224.872 164.602L224.578 164.639L223.102 163.304L222.287 162.569L222.011 162.237L221.811 161.812L221.852 160.029L221.92 159.826L222.029 159.581L222.296 159.521L222.889 159.521L223.052 159.498L223.224 159.424L223.31 159.309L223.351 159.152L223.351 158.842L223.351 158.699L223.301 158.431L223.269 158.302L223.242 158.126L223.242 157.895L223.265 157.517L223.306 157.336L223.342 157.23L223.5 157.069L223.804 156.842L224.41 156.514L224.831 156.357L225.357 156.237L225.506 156.237L225.809 156.154L225.882 155.951L225.357 153.545L225.031 153.009L221.648 152.362L221.196 152.307L221.005 152.376L220.824 152.353L220.689 152.284L220.372 152.076L220.24 152.076L220.1 152.113L219.788 152.113L219.566 152.085L218.026 151.651L217.795 151.254L217.705 151.291L217.619 151.291L217.356 151.392L216.677 150.626L216.645 150.487L216.645 150.275L216.704 150.104L216.704 149.753L216.609 149.591L216.473 149.489L216.319 149.466L216.197 149.466L216.097 149.494L215.726 149.683L215.604 149.725L215.45 149.753L215.287 149.753L215.061 149.697L214.97 149.586L214.907 149.452L214.821 148.289L214.821 148.15L214.87 148.03L214.975 147.97L215.341 147.845L215.441 147.762L215.5 147.679L215.581 147.443L215.581 146.843L215.047 146.173L214.984 145.965L214.984 145.776L215.029 145.628L215.029 145.443L214.966 145.333L214.866 145.24L214.467 145.042L214.314 144.931L214.246 144.797L214.2 144.663L213.924 143.319L213.879 142.88L213.847 141.656L213.847 141.481L213.87 141.319L213.911 141.162L214.078 140.765L214.191 140.386L214.191 140.03L214.151 139.781L214.074 139.532L213.924 139.204L213.825 139.037L213.72 138.959L213.603 138.959L213.087 139.07L212.634 139.093L212.321 139.042L212.004 138.954L211.194 138.714L208.735 138.622L208.581 138.506L211.565 132.581L212.113 131.195L211.687 130.419L211.506 129.957L211.475 129.837L211.475 129.375L211.524 128.913L211.524 128.659L211.524 128.465L211.484 128.345L211.416 128.248L211.312 128.16L209.546 127.666L209.274 127.514L209.156 127.431L208.993 127.228L208.885 127.001L208.835 126.881L208.803 126.738L208.468 123.075L208.717 122.747L208.88 122.336L211.266 121.348L211.266 121.26L211.583 121.343L212.389 121.556L214.653 121.417L216.555 121.302L219.403 121.126L221.49 121.002L223.976 120.849L225.56 120.752L228.091 120.595L230.586 120.443L230.812 120.507L231.034 120.572L231.446 120.789L231.854 121.006L232.067 121.085L232.279 121.159L232.47 121.136L232.655 121.103L233.221 120.724L233.787 120.341L234.032 120.179L234.281 120.013L234.398 120.392L234.516 120.766L234.543 120.766L234.566 120.766L234.634 120.914L234.702 121.062L235.155 121.639L235.585 122.212L235.684 122.447L235.784 122.683L235.861 123.191L235.938 123.699L236.065 123.916L236.196 124.133L236.314 124.036L236.431 123.934L236.554 123.874L236.676 123.814L236.798 123.814L236.916 123.814L237.024 123.958L237.129 124.096L237.264 123.8L237.396 123.505L237.604 123.505L237.817 123.482L237.853 123.764L237.889 124.041L237.889 124.096L237.889 124.221L237.862 124.341L237.957 124.373L238.048 124.406L238.079 124.433L238.107 124.456L237.88 124.627L237.654 124.793L237.572 124.835L237.486 124.877L237.568 124.923L237.649 124.964L237.695 125.029L237.74 125.089L237.821 125.246L237.903 125.399L237.903 126.147L237.808 126.609L237.713 127.047L237.568 127.477L237.423 127.906L237.273 128.248L237.124 128.59L237.02 128.761L236.907 128.932L236.766 129.098L236.621 129.264L236.458 129.394L236.295 129.528L235.956 129.685L235.612 129.842L235.526 129.92L235.435 130.003L235.408 130.105L235.376 130.211L235.44 130.257L235.503 130.304L235.888 130.387L236.277 130.47L236.572 130.645L236.871 130.816L237.776 131.717L238.682 132.617L239.334 133.144L239.99 133.671L240.778 134.091L240.733 135.144L240.475 135.426L239.402 135.61L239.148 135.675L239.035 135.721L238.944 135.8L238.899 135.934L238.876 136.553L238.75 137.522L238.79 137.661L238.894 137.758L239.225 137.716L239.569 137.606L239.755 137.606L239.809 137.938L237.504 143.323L237.423 143.679L237.369 144.09L237.45 144.801L237.532 145.009L237.645 145.208L237.717 145.31L238.256 145.397L242.689 145.494L248.502 144.021L248.588 144.021L248.588 144.076L248.484 144.256L248.394 144.386L248.312 144.524L248.235 144.709L247.963 145.702L247.882 145.887L247.818 146.104L248.049 146.566L248.086 146.584Z" fill="#D6E2DE" stroke="#808080" stroke-width="0.5" stroke-linecap="round" stroke-linejoin="round"/>
<path d="M224.556 164.606L224.375 164.837L224.13 165.826L223.999 166.86L223.999 167.784L223.75 168.648L223.605 169.497L223.474 169.544L223.297 169.488L223.094 169.562L223.053 169.594L218.389 168.398L217.352 168.347L217.352 168.477L217.38 168.731L217.38 168.86L217.38 168.989L217.334 169.119L217.262 169.23L217.167 169.317L217.063 169.373L216.809 169.465L214.654 169.548L214.373 169.493L214.233 169.437L214.106 169.364L213.997 169.276L213.92 169.123L213.893 168.916L213.925 168.528L214.052 167.812L213.979 167.456L213.59 166.699L213.169 166.634L211.512 166.297L209.977 166.043L209.719 166.043L209.366 166.144L209.062 166.32L208.904 166.454L208.781 166.592L208.148 167.576L207.962 167.756L206.504 168.357L206.346 168.357L206.092 168.292L205.78 168.126L204.625 167.202L204.127 166.883L203.756 166.906L200.939 167.567L200.844 167.567L198.984 168.491L198.576 168.763L198.268 168.869L197.571 168.869L196.267 168.509L196.14 168.412L196.05 168.255L196.009 167.964L196.009 167.77L196.009 167.618L196.031 167.216L196.031 166.819L195.973 166.662L195.914 166.542L195.42 166.158L194.841 165.747L193.822 164.736L193.609 164.435L193.505 164.251L193.46 164.117L193.27 163.281L193.224 163.17L193.156 163.068L193.07 162.981L192.971 162.916L192.844 162.87L192.658 162.837L192.043 162.814L191.83 162.851L191.667 162.967L191.626 163.096L191.626 163.235L191.626 163.623L191.626 163.752L191.599 163.881L191.531 163.997L191.445 164.094L191.037 164.398L190.616 164.625L190.39 164.703L182.059 164.486L181.018 162.371L180.778 161.609L180.778 161.452L181.353 160.126L181.402 159.923L181.448 159.683L181.448 159.304L181.425 159.106L180.837 156.935L180.664 156.695L180.524 156.528L180.135 156.177L179.555 155.503L179.406 155.18L179.437 155.05L179.528 154.958L179.65 154.889L179.827 154.843L180.791 154.704L181.964 154.39L182.113 154.284L182.276 154.131L182.349 153.669L182.399 153.512L182.498 153.332L182.62 153.277L182.761 153.277L183.422 153.66L184.001 153.923L184.545 154.007L185.102 154.007L185.36 153.928L185.527 153.808L185.654 153.498L185.989 152.159L186.043 152.007L186.351 151.328L186.424 151.115L186.424 150.972L186.401 150.852L186.32 150.755L186.211 150.69L186.08 150.649L185.948 150.649L185.88 150.556L185.88 150.386L186.383 149.628L186.446 149.503L186.483 149.416L186.519 149.296L186.546 149.162L186.582 148.635L186.582 148.321L186.582 148.187L186.636 148.021L186.754 147.776L186.872 147.647L186.999 147.582L187.284 147.582L189.063 148.395L189.448 148.469L189.516 148.501L189.711 148.543L190.213 149.259L190.517 149.586L191.309 149.877L191.68 150.173L192.061 150.376L192.468 150.238L193.315 150.787L194.139 150.963L198.35 150.039L198.567 149.919L199.826 148.727L200.002 148.51L200.102 148.298L200.102 148.095L200.048 147.928L199.934 147.776L199.789 147.702L199.608 147.67L199.436 147.67L199.065 147.739L198.92 147.739L198.839 147.693L198.802 147.55L198.839 147.351L199.346 146.141L199.5 145.55L199.617 145.213L199.789 144.885L200.274 144.169L200.374 143.989L200.396 143.739L200.097 143.481L200.025 143.351L199.98 143.162L200.002 142.991L200.265 142.409L200.405 141.841L200.333 140.917L200.12 140.303L200.12 140.109L200.215 139.952L200.595 139.767L200.736 139.633L200.89 139.328L200.89 139.13L200.799 138.917L200.663 138.691L200.491 138.229L200.491 137.804L200.546 137.393L200.799 136.682L200.958 136.354L201.139 136.054L201.365 135.791L201.605 135.61L201.859 135.523L202.135 135.56L202.425 135.698L202.828 136.008L203.185 136.211L203.529 136.354L203.846 136.4L204.236 136.345L204.688 136.132L206.097 135.153L206.278 135.075L206.45 135.102L206.672 135.227L207.219 135.721L207.885 136.502L207.939 136.608L207.971 136.724L207.971 136.968L207.858 137.384L207.858 137.499L207.88 137.596L207.921 137.707L207.989 137.827L208.211 138.128L208.591 138.511L208.745 138.626L211.204 138.719L212.014 138.959L212.331 139.047L212.644 139.098L213.096 139.074L213.613 138.964L213.73 138.964L213.834 139.042L213.934 139.208L214.083 139.536L214.16 139.786L214.201 140.035L214.201 140.391L214.088 140.769L213.92 141.167L213.88 141.324L213.857 141.485L213.857 141.661L213.889 142.885L213.934 143.324L214.21 144.668L214.255 144.802L214.323 144.936L214.477 145.046L214.876 145.245L214.975 145.337L215.039 145.448L215.039 145.633L214.993 145.781L214.993 145.97L215.057 146.178L215.591 146.848L215.591 147.448L215.51 147.684L215.451 147.767L215.351 147.85L214.984 147.975L214.88 148.035L214.83 148.155L214.83 148.293L214.916 149.457L214.98 149.591L215.07 149.702L215.297 149.757L215.46 149.757L215.614 149.73L215.736 149.688L216.107 149.499L216.207 149.471L216.329 149.471L216.483 149.494L216.619 149.596L216.714 149.757L216.714 150.108L216.655 150.279L216.655 150.492L216.687 150.63L217.366 151.397L217.629 151.295L217.715 151.295L217.805 151.258L218.036 151.656L219.575 152.09L219.797 152.118L220.11 152.118L220.25 152.081L220.381 152.081L220.698 152.288L220.834 152.358L221.015 152.381L221.205 152.311L221.658 152.367L225.04 153.014L225.366 153.549L225.864 155.886L225.792 156.09L225.489 156.173L225.339 156.173L224.814 156.293L224.393 156.45L223.786 156.778L223.483 157.004L223.324 157.166L223.288 157.272L223.247 157.452L223.225 157.831L223.225 158.062L223.252 158.237L223.284 158.367L223.333 158.634L223.333 158.778L223.333 159.087L223.293 159.244L223.207 159.36L223.035 159.433L222.872 159.457L222.279 159.457L222.011 159.517L221.903 159.761L221.835 159.965L221.794 161.747L221.993 162.172L222.269 162.505L223.084 163.239L224.556 164.606Z" fill="#C7DCDD" stroke="#808080" stroke-width="0.5" stroke-linecap="round" stroke-linejoin="round"/>
<path d="M223.034 169.613L222.889 169.747L222.799 169.858L222.758 170.038L222.722 170.403L222.867 171.414L223.415 171.936L225.774 172.791L227.358 172.855L228.128 173.16L228.209 173.257L228.368 173.543L228.477 173.663L228.608 173.687L228.934 173.617L229.056 173.659L229.233 173.964L229.269 174.315L229.047 176.291L229.142 176.915L229.165 176.938L228.875 177.16L228.522 177.308L227.105 177.372L226.86 177.437L226.629 177.534L226.516 177.603L226.398 177.705L226.253 177.857L226.14 178.037L226.09 178.227L226.09 178.439L226.235 179.035L226.349 179.959L226.824 180.841L226.865 180.947L226.892 181.076L226.892 181.224L226.892 181.386L226.851 181.529L226.828 181.686L226.828 181.82L226.828 181.935L226.828 182.069L226.856 182.199L226.892 182.319L226.955 182.582L226.955 182.721L226.955 182.868L226.901 183.058L226.801 183.261L226.598 183.575L226.507 183.783L226.457 183.972L226.457 184.434L226.421 184.554L226.353 184.642L226.217 184.642L226.113 184.577L225.76 184.189L225.678 184.125L225.574 184.06L225.448 184.005L225.162 183.917L224.854 183.88L224.569 183.88L224.325 183.945L224.044 184.074L223.858 184.217L223.736 184.342L223.627 184.471L222.464 186.78L222.265 187.048L221.92 187.409L221.735 187.561L221.436 187.723L220.666 187.912L220.503 188.281L220.295 188.646L219.946 189.034L219.217 189.649L219.104 189.806L218.977 190.129L218.873 190.563L218.66 191.861L218.511 192.461L218.457 192.6L218.208 192.877L216.043 194.641L214.93 195.274L214.703 195.343L213.997 195.463L213.839 195.579L213.639 195.791L213.336 196.304L213.128 196.808L213.055 197.098L212.951 197.408L212.824 197.713L212.679 197.981L210.298 200.244L210.135 200.461L210.017 200.877L209.918 201.865L209.813 202.202L209.505 202.816L208.926 203.2L208.691 202.512L208.034 202.05L207.323 201.703L206.581 201.495L205.086 201.495L204.48 201.306L202.501 200.382L201.596 199.214L201.021 198.66L200.387 198.359L199.119 197.99L197.91 197.001L197.362 196.706L196.072 196.493L194.107 195.528L193.446 195.468L192.893 195.699L191.947 196.47L191.454 196.715L190.118 196.826L188.8 196.364L185.59 194.152L183.648 192.817L181.04 191.02L179.179 189.325L176.58 186.914L175.272 186.078L172.401 185.044L169.893 183.57L165.786 180.037L164.677 178.573L164.976 178.25L166.76 176.264L167.665 175.622L170.35 174.523L171.396 174.139L174.642 172.938L174.755 172.874L174.846 172.767L174.891 172.555L174.891 172.407L174.837 172.278L174.774 172.176L174.149 171.396L174.013 171.192L173.918 170.971L173.886 170.855L173.886 170.731L173.886 170.597L173.886 170.458L174.004 170.241L174.194 169.982L175.679 168.329L175.797 168.237L175.942 168.167L176.177 168.14L176.358 168.14L176.589 168.052L176.834 167.862L178.776 165.863L179.682 165.156L181.61 164.694L181.982 164.454L190.313 164.671L190.539 164.592L191.001 164.385L191.408 164.08L191.494 163.983L191.562 163.867L191.589 163.738L191.589 163.609L191.589 163.221L191.589 163.082L191.63 162.953L191.793 162.837L192.006 162.8L192.622 162.824L192.807 162.856L192.934 162.902L193.034 162.967L193.12 163.054L193.188 163.156L193.233 163.267L193.423 164.103L193.468 164.237L193.573 164.422L193.785 164.722L194.804 165.733L195.384 166.144L195.877 166.528L195.936 166.648L195.995 166.805L195.995 167.202L195.981 167.618L195.981 167.789L195.981 167.983L196.022 168.274L196.113 168.431L196.239 168.528L197.543 168.888L198.245 168.888L198.553 168.782L198.96 168.509L200.821 167.585L200.916 167.585L203.733 166.925L204.104 166.902L204.602 167.22L205.757 168.144L206.069 168.31L206.323 168.375L206.481 168.375L207.939 167.775L208.125 167.595L208.758 166.611L208.881 166.472L209.039 166.338L209.342 166.163L209.696 166.061L209.954 166.061L211.489 166.315L213.146 166.652L213.567 166.717L213.956 167.474L214.029 167.83L213.902 168.546L213.87 168.934L213.897 169.142L213.974 169.294L214.083 169.382L214.21 169.456L214.35 169.511L214.631 169.567L216.809 169.465L217.044 169.414L217.148 169.359L217.243 169.271L217.316 169.16L217.361 169.031L217.361 168.902L217.361 168.772L217.334 168.518L217.334 168.389L218.371 168.44L223.034 169.613Z" fill="#85AF9A" stroke="#808080" stroke-width="0.5" stroke-linecap="round" stroke-linejoin="round"/>
<path d="M229.173 176.961L229.508 177.303L232.003 177.714L232.528 177.714L234.009 177.206L234.267 177.072L234.543 176.998L234.824 176.998L235.15 177.113L235.304 177.206L235.602 177.501L235.924 177.561L236.25 177.441L236.576 177.201L236.725 177.16L236.888 177.16L237.047 177.16L237.196 177.201L237.495 177.571L238.152 179.053L238.518 179.603L238.717 179.908L238.912 180.42L238.912 180.984L238.74 181.404L238.5 181.75L238.201 182.018L237.871 182.217L237.418 182.314L237.069 182.314L236.852 182.453L236.789 183.007L236.848 183.261L236.961 183.487L237.047 183.723L237.047 184.009L236.947 184.161L236.454 184.517L236.3 184.9L236.354 185.362L236.612 186.309L236.657 186.822L236.589 188.281L236.639 188.835L236.789 189.173L237.241 189.907L237.355 190.295L237.395 191.099L237.459 191.468L237.644 191.824L238.41 192.572L239.13 193.921L239.465 194.267L240.479 194.849L242.027 196.235L242.48 197.001L242.566 197.976L242.249 199.454L241.765 200.839L241.004 202.022L240.769 202.484L240.619 202.913L240.533 203.296L240.388 203.615L240.175 203.772L240.08 203.841L239.781 203.938L238.876 204.063L238.269 204.276L237.921 204.636L237.092 207.195L236.517 208.345L235.095 210.368L234.045 211.393L233.04 212.695L232.202 214.196L231.654 215.734L231.582 216.783L231.967 218.755L232.035 219.803L231.93 220.7L231.709 221.54L231.342 222.284L231.251 222.653L231.165 222.191L230.934 221.859L230.59 221.646L230.187 221.545L229.49 221.577L229.241 221.545L229.024 221.434L228.598 221.106L228.376 221.032L228.154 221.06L227.783 221.18L227.579 221.203L227.457 221.318L227.339 221.568L227.185 221.803L226.977 221.882L226.656 221.596L226.289 220.566L225.836 220.339L225.429 220.455L225.071 220.727L224.428 221.388L224.043 221.683L223.649 221.891L223.228 222.016L222.753 222.053L222.255 222.168L221.508 222.662L221.055 222.75L220.602 222.57L220.376 222.187L220.235 221.725L220.041 221.295L219.647 220.93L218.782 220.589L218.388 220.339L218.207 219.961L217.881 218.88L217.641 218.653L217.234 218.529L216.509 217.961L216.151 217.79L215.21 217.79L213.399 218.219L210.85 218.335L210.641 218.413L210.256 218.755L210.048 218.829L209.523 218.829L209.283 218.783L207.993 218.224L207.54 218.169L207.042 218.21L206.661 218.33L206.181 217.951L206.222 217.49L206.517 217.065L206.883 216.681L207.191 216.164L207.114 215.767L206.806 215.425L206.421 215.092L206.154 214.381L206.227 213.49L206.652 211.804L206.729 210.811L206.575 208.843L206.648 207.86L207.327 206.626L208.409 205.19L209.124 203.763L208.943 203.246L209.523 202.862L209.831 202.248L209.935 201.911L210.016 200.872L210.134 200.456L210.297 200.239L212.679 197.976L212.824 197.708L212.95 197.403L213.055 197.094L213.127 196.803L213.335 196.299L213.639 195.791L213.815 195.574L213.974 195.459L214.68 195.339L214.906 195.269L216.02 194.636L218.184 192.872L218.433 192.595L218.488 192.456L218.637 191.856L218.85 190.558L218.954 190.124L219.081 189.801L219.194 189.644L219.923 189.029L220.272 188.641L220.48 188.277L220.643 187.907L221.413 187.718L221.711 187.556L221.897 187.404L222.241 187.043L222.44 186.776L223.604 184.466L223.713 184.337L223.835 184.212L224.021 184.069L224.301 183.94L224.546 183.875L224.831 183.875L225.139 183.912L225.424 184L225.551 184.055L225.655 184.12L225.737 184.184L226.09 184.572L226.194 184.637L226.33 184.637L226.398 184.549L226.434 184.429L226.434 183.967L226.484 183.778L226.574 183.57L226.778 183.256L226.878 183.053L226.932 182.864L226.932 182.716L226.932 182.577L226.869 182.314L226.832 182.194L226.805 182.065L226.805 181.931L226.805 181.801L226.805 181.667L226.828 181.51L226.869 181.367L226.869 181.205L226.869 181.058L226.841 180.928L226.801 180.822L226.325 179.94L226.212 179.016L226.067 178.42L226.067 178.24L226.117 178.051L226.23 177.871L226.375 177.718L226.493 177.617L226.606 177.548L226.837 177.451L227.081 177.386L228.498 177.321L228.852 177.173L229.173 176.961Z" stroke="#808080" stroke-width="0.5" stroke-linecap="round" stroke-linejoin="round"/>
<path d="M61.0282 7.637L62.3005 8.50992L65.66 10.8192L69.3048 13.3179L73.1398 15.9367L77.0563 18.6109L80.9772 21.2712L84.7669 23.8484L88.3212 26.2871L91.5811 28.4994L94.4245 30.43L96.7563 32.005L98.4677 33.1643L99.6812 33.9864L100.188 34.5637L100.541 35.2981L100.664 35.9724L100.79 37.4042L100.981 38.0508L102.126 39.9306L104.367 42.3969L105.427 43.5608L106.504 44.7617L107.863 46.3644L108.981 47.6853L110.108 49.0016L111.227 50.3225L112.35 51.6388L113.445 52.9228L114.541 54.2114L115.637 55.4954L116.746 56.7702L118.209 58.4791L118.607 58.6546L118.996 58.8255L119.042 58.8255L121.129 62.4603L122.107 63.3841L127.382 64.8759L127.68 65.0514L127.68 65.3239L127.572 65.638L122.261 75.8452L117.258 85.6321L116.176 88.177L115.723 93.7193L115.723 94.0519L115.782 94.3059L118.005 98.4627L118.39 99.2941L118.308 99.4372L118.104 99.7236L113.912 102.135L113.486 102.499L113.486 102.85L113.64 103.211L122.003 114.933L127.549 122.784L127.549 123.145L123.144 125.302L122.116 125.643L121.822 125.546L121.545 125.385L121.464 125.302L119.137 121.519L115.841 117.782L114.69 116.882L113.785 116.337L112.843 115.926L109.117 115.002L108.057 115.002L107.673 115.09L107.319 115.27L107.021 115.515L106.708 115.898L105.934 117.418L105.59 117.686L105.096 117.732L104.644 117.547L104.521 117.468L104.222 117.321L103.992 116.549L103.743 116.166L102.71 114.997L102.343 114.776L101.216 114.554L100.763 114.374L100.161 113.815L99.4638 113.011L99.2329 112.859L98.9884 112.753L98.4949 112.647L93.8721 108.388L93.2382 107.658L92.7357 106.735L92.4052 105.7L92.1833 105.238L91.8754 105.063L90.9427 105.03L90.5307 104.924L90.1956 104.698L89.9194 104.342L89.3716 103.335L89.1588 102.656L88.629 101.83L88.4751 101.409L88.4751 100.209L88.4072 99.6543L88.131 99.4234L87.1666 99.3171L86.1886 99.0585L85.9803 98.9477L85.5638 98.6151L85.2469 98.6751L85.1337 98.7444L84.7579 99.077L83.7618 99.7929L83.3633 99.9638L82.8291 99.9638L82.5257 100.024L82.3944 100.13L82.3355 100.255L82.3672 100.375L82.4035 100.495L82.6298 100.957L82.6706 101.248L82.4397 101.844L82.2088 102.107L81.756 101.405L81.181 100.901L79.1662 100.158L78.1565 100.195L77.8758 100.065L77.663 99.6913L77.6901 99.3356L77.912 99.0724L78.2561 98.9707L79.4152 98.5089L79.3518 97.4558L78.9715 96.1441L79.1481 94.9063L79.4695 94.6662L79.868 94.4999L80.1894 94.2597L80.2573 93.7979L80.0174 93.4468L79.5646 93.1743L78.6998 92.828L78.0161 92.1952L77.4773 91.3315L76.8616 90.6433L75.956 90.5417L75.0867 90.648L73.3933 90.4955L69.2686 91.1421L68.2589 91.1098L67.7745 90.9204L66.9957 90.066L66.5429 89.9043L65.5468 89.7935L64.9854 89.4794L64.7273 89.0176L64.4964 86.9669L64.3108 86.4496L64.0346 85.9877L62.794 84.6714L62.3412 84.3666L61.8432 84.422L61.2772 84.7037L60.7158 84.8608L60.1408 84.8931L59.2715 84.7361L57.9131 84.1033L56.6046 82.8655L52.4075 77.8173L51.9547 77.5402L51.5925 78.1545L51.3254 80.4638L50.9133 81.249L50.1074 81.4938L49.1023 81.4291L48.1016 81.1889L45.9555 80.3253L45.4801 80.3253L45.1179 80.4453L44.081 81.092L43.3475 81.4199L42.9899 81.6924L42.8088 82.085L42.9219 82.6069L43.2842 82.9394L45.7291 84.1126L46.4173 84.6622L47.0195 85.5859L47.5402 86.8422L48.9845 89.2393L49.7724 90.1907L49.9942 90.3985L50.0848 90.6341L50.0169 90.8558L49.7724 91.0036L48.5182 91.1976L48.2012 91.1144L47.9703 90.7542L47.9703 90.3385L48.0745 89.8766L48.1424 89.3871L47.9432 88.431L47.4451 87.7151L46.7841 87.2532L44.8462 86.3295L44.4206 86.251L44.0675 86.311L43.3566 86.6251L43.0397 86.6528L42.7273 86.4681L42.2745 85.7891L41.9938 85.5028L41.6225 85.3688L41.1697 85.3688L40.717 85.452L40.3638 85.6229L40.1555 85.8907L39.9835 86.2048L39.4854 86.7868L38.9557 87.0269L38.6252 87.3179L38.7338 88.0292L39.1504 88.9529L39.1866 89.3686L39.0191 89.9967L38.2222 91.8442L37.9415 92.1675L37.1944 92.4123L37.0359 92.7633L37.1763 93.1836L37.4298 93.4699L37.4887 93.724L37.0359 94.0426L36.6601 94.1258L35.329 94.0657L34.9532 94.1535L33.9299 94.6431L33.0244 94.8278L30.267 94.3475L28.3926 94.426L26.5589 95.3497L24.9923 96.9247L23.9283 98.9661L23.1993 100.07L22.3979 100.694L20.5234 101.59L19.971 102.365L19.971 103.419L20.4238 105.52L20.3785 106.518L20.2246 107.372L20.2246 108.208L20.5732 109.155L21.026 109.885L21.2479 110.577L21.3203 111.344L21.3203 112.268L21.4109 113.002L21.6735 113.737L22.0447 114.388L22.4749 114.877L22.7511 115.081L23.0499 115.233L24.0279 115.478L24.1773 115.593L24.132 115.773L23.9147 116.041L23.4981 116.341L22.5926 116.803L22.2077 117.265L21.6055 118.383L21.2297 118.609L18.8437 118.101L17.0009 117.704L12.6407 117.464L11.9344 117.422L7.89568 117.201L4.27353 116.997L1.10414 116.822L1.10414 16.939L1 16.939L2.81108 16.3431L4.62216 15.7427L6.43324 15.1469L8.24432 14.5465L10.0554 13.9507L11.8665 13.3503L13.6776 12.7545L15.1038 12.2926L15.5067 12.1633L17.3178 11.5628L19.1289 10.967L20.94 10.3666L22.7511 9.76619L24.5621 9.16577L26.3732 8.56534L28.1843 7.96492L29.9954 7.3645L32.4358 6.60242L34.8717 5.84034L37.3121 5.07827L39.7526 4.31157L41.1335 3.87742L42.2609 3.53564L43.3974 3.19386L44.5293 2.85208L45.702 2.50568L46.8746 2.15928L48.0518 1.80826L49.2245 1.46186L50.8047 1L51.2574 1.04619L51.7872 1.28174L53.2858 2.31631L53.7114 2.61191L54.9294 3.44788L56.8265 4.75496L59.3122 6.46386L61.0282 7.637Z" stroke="#808080" stroke-width="0.5" stroke-linecap="round" stroke-linejoin="round"/>
<path d="M196.781 88.819L196.722 93.2344L196.65 98.4396L196.65 98.5828L196.673 98.726L196.754 98.7953L196.84 98.8599L199.19 98.8599L201.327 98.8599L203.46 98.8599L205.818 98.8599L205.891 98.8599L205.963 98.8599L206.108 98.8599L206.176 98.8599L206.244 98.8599L206.289 98.8876L206.339 98.9153L206.674 102.287L207.018 105.645L207.639 108.924L208.259 112.194L209.097 116.092L209.93 119.976L210.382 120.517L210.835 121.062L211.32 121.191L211.32 121.279L208.934 122.267L208.771 122.678L208.522 123.006L208.857 126.669L208.888 126.812L208.938 126.932L209.047 127.158L209.21 127.362L209.327 127.445L209.599 127.597L211.365 128.091L211.469 128.179L211.537 128.276L211.578 128.396L211.578 128.59L211.578 128.844L211.528 129.306L211.528 129.768L211.56 129.888L211.741 130.35L212.166 131.126L211.618 132.511L208.635 138.437L208.254 138.054L208.033 137.754L207.965 137.633L207.924 137.523L207.901 137.426L207.901 137.31L208.014 136.894L208.014 136.65L207.983 136.534L207.928 136.428L207.299 135.698L206.751 135.204L206.529 135.079L206.357 135.052L206.176 135.13L204.768 136.109L204.315 136.322L203.926 136.377L203.609 136.331L203.224 136.211L202.866 136.008L202.463 135.698L202.174 135.56L201.897 135.523L201.644 135.611L201.413 135.749L201.187 136.012L201.006 136.313L200.847 136.64L200.594 137.352L200.539 137.763L200.539 138.188L200.711 138.65L200.847 138.876L200.938 139.088L200.938 139.287L200.784 139.592L200.643 139.726L200.263 139.91L200.168 140.067L200.168 140.261L200.381 140.876L200.453 141.799L200.313 142.368L200.05 142.95L200.028 143.12L200.073 143.31L200.145 143.439L200.444 143.698L200.421 143.947L200.322 144.127L199.837 144.843L199.665 145.171L199.548 145.508L199.394 146.099L198.887 147.31L198.85 147.508L198.887 147.651L198.968 147.697L199.113 147.697L199.484 147.628L199.656 147.628L199.837 147.661L199.982 147.734L200.095 147.887L200.15 148.053L200.15 148.256L200.05 148.469L199.874 148.686L198.615 149.878L198.398 149.998L194.187 150.921L193.363 150.746L192.516 150.196L192.109 150.335L191.728 150.132L191.357 149.836L190.565 149.545L190.261 149.217L189.759 148.501L189.564 148.46L189.496 148.427L189.111 148.353L187.332 147.54L187.047 147.54L186.92 147.605L186.802 147.734L186.684 147.979L186.63 148.146L186.63 148.279L186.63 148.594L186.594 149.12L186.567 149.254L186.53 149.374L186.494 149.462L186.431 149.587L185.928 150.344L185.928 150.515L185.996 150.607L186.128 150.607L186.259 150.649L186.367 150.713L186.449 150.81L186.472 150.931L186.472 151.074L186.399 151.286L186.091 151.965L186.037 152.118L185.702 153.457L185.575 153.766L185.408 153.886L185.15 153.965L184.593 153.965L184.049 153.882L183.47 153.619L182.809 153.235L182.668 153.235L182.546 153.291L182.447 153.471L182.397 153.628L182.324 154.09L182.161 154.242L182.012 154.348L180.839 154.662L179.875 154.801L179.698 154.847L179.576 154.916L179.485 155.009L179.454 155.138L179.603 155.461L180.183 156.136L180.572 156.487L180.712 156.653L180.884 156.893L181.473 159.064L181.496 159.263L181.496 159.641L181.45 159.882L181.401 160.085L180.826 161.41L180.826 161.567L181.066 162.329L182.107 164.445L181.736 164.685L179.807 165.147L179.762 164.431L179.725 164.251L179.531 163.567L179.408 163.285L179.331 163.138L179.019 162.703L178.67 162.343L178.376 162.177L177.923 162.006L177.548 161.784L177.389 161.249L177.326 160.69L177.326 160.269L177.167 159.697L176.81 159.087L174.482 157.969L174.306 157.678L174.011 157.618L173.165 158.016L172.784 157.992L172.513 157.854L172.445 157.637L172.345 157.401L172.318 157.249L171.413 156.736L170.869 156.353L169.457 154.358L169.153 153.72L169.429 153.06L169.746 152.344L170.38 151.531L170.448 151.42L170.598 151.254L170.751 150.917L171.947 150.362L172.295 150.108L172.64 149.771L172.911 149.383L173.817 147.462L174.116 147.213L174.288 147.213L174.437 147.097L174.555 147.009L174.691 146.977L175.275 146.903L175.297 146.815L175.216 146.649L174.917 146.261L174.247 145.67L174.025 145.3L173.998 145.199L173.998 145.139L174.088 145.106L174.265 144.936L174.586 143.956L174.102 143.453L173.998 142.95L173.998 142.723L174.025 142.478L174.079 142.234L174.26 142.012L174.582 141.827L175.261 141.712L175.714 141.712L176.094 141.818L176.488 142.169L176.905 142.455L177.357 142.603L179.653 142.631L179.861 142.192L180.314 140.76L180.676 140.419L181.102 139.91L181.622 138.252L181.654 137.929L181.876 137.592L182.025 137.458L182.211 137.403L182.406 137.403L183.424 137.629L183.687 137.629L183.687 137.329L183.615 137.015L183.574 136.493L183.574 135.846L183.619 135.158L183.71 134.493L184.163 132.867L183.225 133.144L177.312 132.728L175.388 132.267L174.713 131.869L174.039 131.297L173.762 130.53L173.586 129.833L173.169 127.195L173.002 126.572L172.762 126.539L172.137 127.463L171.512 127.736L170.625 127.897L168.044 128.017L167.387 128.271L167.016 128.475L166.423 130.816L165.97 131.232L160.686 130.59L159.858 130.285L159.591 129.722L159.559 127.994L159.455 127.103L159.056 126.498L158.676 126.17L158.309 126.068L157.915 126.207L157.531 126.526L157.182 127.043L156.023 129.509L154.628 131.625L152.306 132.456L152.333 131.943L151.617 131.204L151.165 130.41L145.279 126.715L142.272 124.992L139.71 123.976L137.985 123.574L137.532 123.302L134.901 118.563L131.687 114.633L131.202 113.76L130.586 112.305L128.938 112.263L122.024 114.937L113.662 103.215L113.508 102.855L113.508 102.504L113.933 102.139L118.103 99.7236L118.334 99.4696L118.416 99.3264L118.031 98.495L115.808 94.3383L115.749 94.0842L115.749 93.7194L116.202 88.177L117.275 85.6136L122.278 75.8267L127.589 65.6195L127.698 65.3054L127.698 65.0329L127.399 64.8574L122.124 63.3656L121.146 62.4419L119.059 58.807L120.671 58.5022L121.354 58.3728L122.047 58.2435L122.735 58.1142L123.419 57.9849L124.524 57.7817L125.624 57.5738L126.724 57.366L127.824 57.1581L129.608 56.8625L131.388 56.567L133.167 56.2714L134.951 55.9758L136.73 55.6802L138.478 55.3846L140.262 55.089L142.041 54.7888L145.016 55.0659L147.986 55.343L150.961 55.6155L153.931 55.8926L156.648 56.142L159.364 56.3914L162.081 56.6455L164.798 56.8949L165.871 56.9919L166.21 56.8903L166.55 56.7933L168.515 55.6848L170.389 54.6225L172.327 53.5233L174.229 52.4471L174.577 52.3132L174.931 52.1746L175.243 52.2254L175.551 52.2762L175.877 52.5718L176.207 52.872L178.308 55.6432L180.409 58.4144L181.383 59.4628L182.351 60.5113L184.362 61.7953L186.367 63.0793L186.757 63.4256L187.142 63.7767L188.799 67.2684L189.858 69.4899L191.321 72.5521L192.57 75.1801L192.743 75.1801L192.91 75.1801L195.726 73.6282L198.542 72.0764L198.121 78.7965L197.7 85.4889L197.651 86.1956L197.605 86.9069L197.506 87.1378L197.411 87.3687L197.18 87.4611L196.949 87.5535L196.894 87.7382L196.836 87.923L196.781 88.819Z" fill="#DAF5E9" stroke="#808080" stroke-width="0.5" stroke-linecap="round" stroke-linejoin="round"/>
<path d="M82.2177 102.153L82.4486 101.89L82.6795 101.294L82.6388 101.003L82.4124 100.541L82.3762 100.421L82.3445 100.301L82.4033 100.176L82.5346 100.07L82.838 100.01L83.3722 100.01L83.7707 99.8391L84.7668 99.1232L85.1426 98.7907L85.2558 98.7214L85.5727 98.6614L85.9893 98.9939L86.1975 99.1048L87.1755 99.3634L88.1399 99.4696L88.4161 99.7006L88.484 100.255L88.484 101.456L88.638 101.876L89.1677 102.703L89.3805 103.382L89.9284 104.389L90.2045 104.744L90.5396 104.97L90.9516 105.077L91.8843 105.109L92.1922 105.285L92.4141 105.746L92.7446 106.781L93.2472 107.705L93.881 108.434L98.4948 112.656L98.9883 112.762L99.2328 112.868L99.4637 113.021L100.161 113.824L100.763 114.383L101.216 114.563L102.343 114.785L102.71 115.007L103.747 116.18L103.996 116.563L104.227 117.335L104.526 117.482L104.648 117.561L105.101 117.746L105.594 117.699L105.938 117.432L106.713 115.912L107.025 115.529L107.324 115.284L107.677 115.104L108.062 115.016L109.121 115.016L112.848 115.94L113.789 116.351L114.695 116.896L115.84 117.783L119.164 121.519L121.491 125.302L121.572 125.385L121.849 125.547L122.143 125.644L123.171 125.302L126.34 128.95L126.974 129.948L127.209 130.826L126.204 133.066L122.129 138.211L122.098 138.146L121.939 137.555L121.821 137.31L121.097 136.322L120.834 135.772L120.431 134.165L120.21 133.8L119.567 133.084L119.354 132.738L119.2 132.179L118.974 130.987L118.362 128.789L118.14 128.267L118.29 128.073L118.195 127.685L118.14 125.838L118.077 125.302L117.91 124.868L116.479 122.41L116.098 121.986L111.765 118.706L110.068 117.958L108.166 117.45L107.446 117.367L106.993 117.584L106.726 118.138L106.54 119.062L106.061 119.344L105.689 120.17L105.141 120.785L104.467 121.131L103.724 121.159L102.932 120.826L100.899 119.376L100.555 119.376L99.4003 119.575L99.2916 119.334L99.2282 119.099L99.1558 119.039L99.0381 119.242L98.7845 119.704L98.6578 119.852L98.5264 119.958L97.5937 118.974L96.2354 118.637L92.3054 118.882L89.951 119.685L88.7783 119.713L88.0992 119.515L87.5377 119.104L86.4782 118.023L85.301 117.136L83.422 116.152L81.2895 115.034L80.7417 114.48L80.6058 113.852L80.8503 111.732L81.0043 111.27L81.2578 110.901L81.5883 110.601L82.3943 110.19L82.6659 109.857L82.4848 109.367L81.1899 107.488L80.5877 106.31L80.4111 105.386L80.9092 104.652L81.448 104.273L82.0592 104.222L82.7927 104.458L83.4673 104.892L83.8477 105.067L84.1555 105.026L84.3819 104.679L84.3412 104.301L84.1555 103.936L83.9156 103.626L83.6439 103.391L82.7384 102.832L82.4441 102.523L82.2177 102.153Z" stroke="#808080" stroke-width="0.5" stroke-linecap="round" stroke-linejoin="round"/>
<path d="M122.134 138.215L126.209 133.07L127.214 130.83L126.979 129.953L126.345 128.955L123.176 125.306L127.581 123.149L127.581 122.789L122.035 114.938L128.948 112.263L130.597 112.305L131.212 113.76L131.697 114.633L134.979 118.572L137.574 123.311L138.026 123.584L139.752 123.985L142.314 125.002L145.321 126.724L151.207 130.419L151.659 131.214L152.375 131.953L152.348 132.465L154.67 131.634L156.065 129.519L157.224 127.052L157.573 126.535L157.957 126.216L158.351 126.078L158.718 126.179L159.098 126.507L159.497 127.112L159.601 128.004L159.633 129.731L159.9 130.295L160.728 130.599L166.012 131.241L166.465 130.826L167.058 128.484L167.429 128.281L168.086 128.027L170.626 127.897L171.477 127.717L172.102 127.445L172.727 126.521L172.967 126.553L173.134 127.177L173.551 129.814L173.727 130.512L174.004 131.278L174.678 131.851L175.353 132.248L177.277 132.71L183.19 133.126L184.128 132.849L183.675 134.474L183.584 135.139L183.539 135.828L183.539 136.474L183.58 136.996L183.652 137.31L183.652 137.61L183.389 137.61L182.371 137.384L182.176 137.384L181.99 137.44L181.841 137.574L181.619 137.911L181.587 138.234L181.071 139.906L180.646 140.414L180.283 140.756L179.831 142.188L179.622 142.626L177.327 142.599L176.874 142.451L176.458 142.164L176.064 141.813L175.683 141.707L175.231 141.707L174.551 141.823L174.23 142.007L174.049 142.229L173.995 142.474L173.967 142.719L173.967 142.945L174.071 143.448L174.556 143.952L174.234 144.931L174.058 145.102L173.967 145.134L173.967 145.194L173.995 145.296L174.216 145.665L174.791 146.261L175.09 146.649L175.172 146.815L175.149 146.903L174.565 146.977L174.429 147.009L174.311 147.097L174.162 147.213L173.99 147.213L173.691 147.462L172.786 149.383L172.514 149.771L172.17 150.109L171.821 150.363L170.626 150.917L170.472 151.254L170.323 151.42L170.255 151.531L169.621 152.344L169.304 153.06L169.028 153.72L169.331 154.358L170.744 156.353L171.287 156.736L172.192 157.249L172.22 157.401L172.319 157.637L172.387 157.854L172.659 157.993L173.039 158.016L173.886 157.618L174.18 157.678L174.357 157.969L176.684 159.087L177.042 159.697L177.2 160.27L177.2 160.69L177.264 161.249L177.422 161.784L177.798 162.006L178.251 162.177L178.545 162.343L178.893 162.704L179.206 163.138L179.283 163.286L179.405 163.567L179.6 164.251L179.636 164.431L179.681 165.147L178.776 165.853L176.82 167.849L176.575 168.038L176.344 168.126L176.163 168.126L175.928 168.154L175.783 168.223L175.665 168.315L174.18 169.969L173.99 170.227L173.872 170.444L173.872 170.583L173.872 170.717L173.872 170.842L173.904 170.957L173.999 171.179L174.135 171.382L174.76 172.163L174.823 172.264L174.877 172.393L174.877 172.541L174.832 172.754L174.742 172.86L174.628 172.925L171.382 174.125L170.336 174.509L167.651 175.608L166.746 176.25L164.962 178.236L164.663 178.559L164.074 177.783L163.622 177.488L163.033 177.557L161.525 178.328L161.023 178.439L160.443 178.328L159.859 178.019L156.721 175.71L154.005 173.724L151.84 172.149L150.659 170.902L148.558 167.918L147.322 166.717L144.605 164.75L138.176 160.08L135.007 157.771L132.344 155.831L130.08 154.164L128.953 153.009L128.74 152.884L127.341 151.088L127.128 150.395L126.789 148.94L126.734 148.349L126.816 147.785L126.979 147.323L127.088 146.862L127.011 146.307L126.386 144.986L126.309 144.46L126.309 143.772L126.241 143.254L126.078 142.793L125.557 141.753L125.44 141.292L125.376 140.192L125.19 139.957L123.574 138.982L122.669 138.7L122.247 138.373L122.134 138.215Z" fill="#E5F3F5" stroke="#808080" stroke-width="0.5" stroke-linecap="round" stroke-linejoin="round"/>
<path d="M259.821 119.505L259.232 119.353L258.987 118.891L259.101 118.632L259.101 118.526L258.784 118.854L258.299 118.29L258.159 117.999L258.127 117.672L257.797 117.87L257.738 117.815L258.249 116.531L258.403 115.695L259.44 114.632L260.097 114.632L260.549 114.965L261.147 115.044L261.867 115.505L261.939 115.935L261.641 116.461L261.912 116.637L262.112 116.942L261.971 117.187L262.17 117.399L261.432 117.773L260.445 118.697L259.821 119.505Z" fill="#85AF9A" stroke="#808080" stroke-width="0.5" stroke-linecap="round" stroke-linejoin="round"/>
</g>
</svg>
