<svg width="197" height="56" viewBox="0 0 197 56" fill="none" xmlns="http://www.w3.org/2000/svg">
<rect width="197" height="56" rx="16" fill="#040415"/>
<path fill-rule="evenodd" clip-rule="evenodd" d="M36.8881 16C36.9901 17.3009 36.5688 18.5893 35.7137 19.5918C35.3043 20.0891 34.7846 20.4892 34.1939 20.762C33.6031 21.0348 32.9567 21.1731 32.3033 21.1665C32.2616 20.5409 32.3466 19.9135 32.5533 19.32C32.7601 18.7265 33.0846 18.1786 33.5084 17.7077C34.375 16.7437 35.5817 16.134 36.8881 16ZM39.2704 25.2301C38.8363 25.9771 38.6027 26.8192 38.5914 27.678C38.5924 28.6441 38.8847 29.5885 39.4317 30.3935C39.9786 31.1984 40.7562 31.8284 41.6673 32.2047C41.309 33.3411 40.7691 34.4151 40.0674 35.3868C39.125 36.7635 38.1369 38.1084 36.5687 38.1333C35.8228 38.1501 35.3193 37.9406 34.7947 37.7224C34.2475 37.4947 33.6773 37.2575 32.7849 37.2575C31.8386 37.2575 31.2428 37.5024 30.6683 37.7385C30.1717 37.9426 29.691 38.1402 29.0135 38.1676C27.5199 38.2216 26.3785 36.6983 25.4019 35.3345C23.4499 32.5495 21.9299 27.4858 23.9677 24.0404C24.4381 23.2149 25.1195 22.5224 25.9454 22.0305C26.7713 21.5386 27.7137 21.264 28.6806 21.2335C29.5277 21.2165 30.3405 21.5353 31.0531 21.8148C31.5981 22.0286 32.0845 22.2194 32.4827 22.2194C32.8329 22.2194 33.3057 22.0361 33.8567 21.8226C34.7247 21.4861 35.7868 21.0745 36.8691 21.1854C37.6985 21.2108 38.5105 21.4247 39.2405 21.8101C39.9705 22.1955 40.5984 22.7418 41.0744 23.4056C40.3251 23.8555 39.7046 24.4831 39.2704 25.2301Z" fill="white"/>
<path d="M60.416 33.208C58.7307 33.208 57.3333 32.6533 56.224 31.544C55.1147 30.424 54.56 29.0427 54.56 27.4C54.56 25.7573 55.1147 24.3813 56.224 23.272C57.3333 22.152 58.7307 21.592 60.416 21.592C61.4293 21.592 62.3627 21.832 63.216 22.312C64.08 22.792 64.752 23.4427 65.232 24.264L63.632 25.192C63.3333 24.6373 62.896 24.2 62.32 23.88C61.7547 23.5493 61.12 23.384 60.416 23.384C59.2213 23.384 58.2507 23.7627 57.504 24.52C56.768 25.2773 56.4 26.2373 56.4 27.4C56.4 28.5627 56.768 29.5227 57.504 30.28C58.2507 31.0373 59.2213 31.416 60.416 31.416C61.12 31.416 61.76 31.256 62.336 30.936C62.912 30.6053 63.344 30.1627 63.632 29.608L65.232 30.52C64.7627 31.3413 64.096 31.9973 63.232 32.488C62.3787 32.968 61.44 33.208 60.416 33.208ZM73.7987 33H71.7348L68.4548 29.304V33H66.7268V25H68.4548V28.536L71.5588 25H73.6708L70.1508 28.92L73.7987 33ZM80.6565 25H82.3845V33H80.6565V31.848C80.0058 32.7547 79.0725 33.208 77.8565 33.208C76.7578 33.208 75.8192 32.8027 75.0405 31.992C74.2618 31.1707 73.8725 30.1733 73.8725 29C73.8725 27.816 74.2618 26.8187 75.0405 26.008C75.8192 25.1973 76.7578 24.792 77.8565 24.792C79.0725 24.792 80.0058 25.24 80.6565 26.136V25ZM76.3205 30.84C76.8005 31.32 77.4032 31.56 78.1285 31.56C78.8538 31.56 79.4565 31.32 79.9365 30.84C80.4165 30.3493 80.6565 29.736 80.6565 29C80.6565 28.264 80.4165 27.656 79.9365 27.176C79.4565 26.6853 78.8538 26.44 78.1285 26.44C77.4032 26.44 76.8005 26.6853 76.3205 27.176C75.8405 27.656 75.6005 28.264 75.6005 29C75.6005 29.736 75.8405 30.3493 76.3205 30.84ZM89.2626 25H90.9906V33H89.2626V30.296C88.6226 30.5307 87.9506 30.648 87.2466 30.648C86.2546 30.648 85.4706 30.4027 84.8946 29.912C84.3186 29.4213 84.0306 28.7013 84.0306 27.752V25H85.7586V27.592C85.7586 28.552 86.3293 29.032 87.4706 29.032C88.1426 29.032 88.74 28.9093 89.2626 28.664V25ZM99.344 25H101.072V33H99.344V31.848C98.6933 32.7547 97.76 33.208 96.544 33.208C95.4453 33.208 94.5067 32.8027 93.728 31.992C92.9493 31.1707 92.56 30.1733 92.56 29C92.56 27.816 92.9493 26.8187 93.728 26.008C94.5067 25.1973 95.4453 24.792 96.544 24.792C97.76 24.792 98.6933 25.24 99.344 26.136V25ZM95.008 30.84C95.488 31.32 96.0907 31.56 96.816 31.56C97.5413 31.56 98.144 31.32 98.624 30.84C99.104 30.3493 99.344 29.736 99.344 29C99.344 28.264 99.104 27.656 98.624 27.176C98.144 26.6853 97.5413 26.44 96.816 26.44C96.0907 26.44 95.488 26.6853 95.008 27.176C94.528 27.656 94.288 28.264 94.288 29C94.288 29.736 94.528 30.3493 95.008 30.84ZM109.198 25V26.664H106.59V33H104.862V26.664H102.238V25H109.198ZM113.855 27.72C114.709 27.72 115.407 27.9653 115.951 28.456C116.495 28.936 116.767 29.5707 116.767 30.36C116.767 31.1387 116.495 31.7733 115.951 32.264C115.407 32.7547 114.709 33 113.855 33H110.367V25H112.095V27.72H113.855ZM113.871 31.448C114.213 31.448 114.495 31.3467 114.719 31.144C114.954 30.9413 115.071 30.68 115.071 30.36C115.071 30.0293 114.954 29.768 114.719 29.576C114.495 29.3733 114.213 29.272 113.871 29.272H112.095V31.448H113.871ZM129.22 31.368H130.292V35.144H128.596V33H123.108V35.144H121.412V31.368H122.388C122.879 30.6747 123.124 29.7093 123.124 28.472V25H129.22V31.368ZM124.292 31.368H127.524V26.584H124.82V28.472C124.82 29.6133 124.644 30.5787 124.292 31.368ZM138.448 25V33H136.72V26.664H134.048V29.64C134.048 30.9093 133.77 31.8107 133.216 32.344C132.661 32.8773 131.872 33.096 130.848 33V31.384C131.338 31.4693 131.706 31.368 131.952 31.08C132.197 30.792 132.32 30.2853 132.32 29.56V25H138.448ZM146.653 25V33H144.957V30.312H143.997L141.965 33H139.933L142.093 30.152C141.538 29.9707 141.09 29.6507 140.749 29.192C140.418 28.7333 140.253 28.2213 140.253 27.656C140.253 26.92 140.514 26.296 141.037 25.784C141.57 25.2613 142.253 25 143.085 25H146.653ZM143.181 28.824H144.957V26.568H143.181C142.829 26.568 142.536 26.6693 142.301 26.872C142.066 27.0747 141.949 27.352 141.949 27.704C141.949 28.0453 142.066 28.3173 142.301 28.52C142.536 28.7227 142.829 28.824 143.181 28.824ZM154.296 23.48C154.083 23.6933 153.827 23.8 153.528 23.8C153.23 23.8 152.968 23.6933 152.744 23.48C152.531 23.256 152.424 22.9947 152.424 22.696C152.424 22.3973 152.531 22.1413 152.744 21.928C152.958 21.704 153.219 21.592 153.528 21.592C153.838 21.592 154.099 21.704 154.312 21.928C154.526 22.1413 154.632 22.3973 154.632 22.696C154.632 22.9947 154.52 23.256 154.296 23.48ZM152.664 33V25H154.392V33H152.664ZM165.871 31.528C164.751 32.648 163.38 33.208 161.759 33.208C160.137 33.208 158.761 32.648 157.631 31.528C156.511 30.3973 155.951 29.0213 155.951 27.4C155.951 25.7787 156.511 24.408 157.631 23.288C158.761 22.1573 160.137 21.592 161.759 21.592C163.38 21.592 164.751 22.1573 165.871 23.288C167.001 24.408 167.567 25.7787 167.567 27.4C167.567 29.0213 167.001 30.3973 165.871 31.528ZM158.927 30.28C159.695 31.0373 160.639 31.416 161.759 31.416C162.879 31.416 163.817 31.0373 164.575 30.28C165.343 29.512 165.727 28.552 165.727 27.4C165.727 26.248 165.343 25.2933 164.575 24.536C163.817 23.768 162.879 23.384 161.759 23.384C160.639 23.384 159.695 23.768 158.927 24.536C158.169 25.2933 157.791 26.248 157.791 27.4C157.791 28.552 158.169 29.512 158.927 30.28ZM172.551 33.208C171.474 33.208 170.556 32.9627 169.799 32.472C169.052 31.9813 168.53 31.3093 168.231 30.456L169.815 29.528C170.263 30.7867 171.191 31.416 172.599 31.416C173.292 31.416 173.81 31.2827 174.151 31.016C174.503 30.7387 174.679 30.3813 174.679 29.944C174.679 29.4853 174.492 29.1387 174.119 28.904C173.746 28.6587 173.084 28.392 172.135 28.104C171.602 27.944 171.17 27.7947 170.839 27.656C170.508 27.5173 170.156 27.3253 169.783 27.08C169.42 26.824 169.148 26.5093 168.967 26.136C168.786 25.7627 168.695 25.3253 168.695 24.824C168.695 23.832 169.047 23.048 169.751 22.472C170.455 21.8853 171.303 21.592 172.295 21.592C173.191 21.592 173.975 21.8107 174.647 22.248C175.319 22.6853 175.836 23.288 176.199 24.056L174.647 24.952C174.178 23.9067 173.394 23.384 172.295 23.384C171.762 23.384 171.335 23.512 171.015 23.768C170.695 24.0133 170.535 24.3493 170.535 24.776C170.535 25.192 170.695 25.5227 171.015 25.768C171.346 26.0027 171.938 26.2533 172.791 26.52C173.218 26.6587 173.527 26.7653 173.719 26.84C173.922 26.904 174.199 27.0107 174.551 27.16C174.914 27.3093 175.186 27.4587 175.367 27.608C175.548 27.7573 175.74 27.944 175.943 28.168C176.156 28.392 176.306 28.648 176.391 28.936C176.476 29.224 176.519 29.5493 176.519 29.912C176.519 30.9253 176.151 31.7307 175.415 32.328C174.69 32.9147 173.735 33.208 172.551 33.208Z" fill="white"/>
</svg>
