<svg width="638" height="419" viewBox="0 0 638 419" fill="none" xmlns="http://www.w3.org/2000/svg">
<g opacity="0.2">
<path fill-rule="evenodd" clip-rule="evenodd" d="M561.426 277.061C561.239 277.061 560.615 275.218 559.616 275C559.366 275 558.586 274.594 558.586 275C558.586 276.249 558.93 277.53 558.93 278.779C558.83 279.773 558.958 280.777 559.304 281.715C559.741 282.558 561.083 282.215 561.488 282.808C561.894 283.401 561.488 283.807 561.738 284.245C561.907 284.411 562.039 284.612 562.124 284.833C562.209 285.055 562.245 285.293 562.23 285.53C562.216 285.767 562.15 285.998 562.038 286.207C561.926 286.416 561.771 286.599 561.582 286.743C561.332 286.962 560.583 288.711 560.989 288.711C561.395 288.711 562.237 287.899 562.705 288.367C563.173 288.836 562.705 289.211 563.423 289.179C564.273 289.03 565.082 288.699 565.794 288.211C566.325 287.93 566.2 286.681 566.2 286.119C565.139 286.119 563.08 286.681 563.829 284.838C564.297 283.682 565.545 283.557 565.545 281.965C564.702 281.965 562.674 283.745 561.988 282.402C561.675 281.777 561.988 281.028 561.988 280.341C561.833 279.775 561.708 279.202 561.613 278.623V277.092L561.426 277.061ZM586.14 284.807C586.764 284.807 586.982 283.901 587.232 283.433C587.949 282.058 588.074 283.62 588.729 284.12C589.097 284.319 589.5 284.446 589.915 284.494C590.165 284.494 590.446 284.494 590.259 284.901C590.071 285.307 589.697 286.025 589.135 285.837C588.074 285.463 587.856 285.65 586.92 286.056C586.53 286.237 586.099 286.312 585.672 286.275C585.297 286.275 584.548 285.962 584.86 285.494L586.14 284.807ZM438.325 418.168L439.979 414.67C441.727 412.391 439.823 408.424 439.823 405.863C439.823 401.74 443.256 398.086 445.533 394.869C447.5 392.978 449.024 390.674 449.996 388.123C450.515 386.851 450.81 385.498 450.869 384.125C451.181 381.502 453.99 382.657 455.737 383.594C456.673 384.125 457.703 383.594 456.923 382.657C456.143 381.72 456.923 380.284 457.516 379.128C458.603 378.311 459.578 377.356 460.418 376.286C460.724 375.95 460.96 375.555 461.11 375.126C461.26 374.697 461.322 374.241 461.292 373.787C461.292 372.819 461.76 371.32 461.073 370.664C460.387 370.008 460.387 370.289 460.418 369.571C460.465 369.041 460.465 368.508 460.418 367.978C460.418 367.978 460.106 368.322 459.731 368.384C457.609 368.697 457.079 367.041 457.079 365.261C457.079 365.511 457.079 364.574 456.673 364.511C455.706 364.262 454.832 364.824 454.115 363.543C453.397 362.263 453.085 360.42 451.213 361.013C450.277 361.232 448.467 360.701 449.902 359.639C451.337 358.577 451.306 356.204 450.152 355.392C447.718 353.643 449.372 352.268 449.964 349.988C449.395 348.662 448.926 347.294 448.56 345.897C449.471 345.827 450.366 345.616 451.213 345.272C451.837 344.898 449.715 342.711 449.434 342.149C448.56 340.712 449.434 340.681 450.589 340.619C451.743 340.556 456.08 338.901 453.709 337.496C452.648 336.84 453.99 336.902 454.021 335.996C454.052 335.091 452.398 334.747 451.774 334.279C451.15 333.81 450.526 329.313 448.654 331.155C447.78 332.03 447.531 331.905 446.875 331.155C446.22 330.406 444.098 331.155 443.287 331.374C441.29 332.311 439.386 330.781 438.044 331.374C437.171 331.78 436.266 332.78 435.205 331.78C434.144 330.781 434.394 327.345 434.456 326.096C434.518 324.847 433.988 325.596 433.301 325.596C432.147 325.596 432.334 323.066 430.68 323.066C429.026 323.066 428.746 323.753 427.56 323.066C426.351 322.283 425.023 321.703 423.628 321.349C421.163 321.349 423.004 319.881 422.536 318.475C422.536 316.82 424.283 317.663 425.656 317.351C427.029 317.038 426.436 316.695 427.092 315.758C427.747 314.821 427.934 315.133 427.653 314.103C427.653 313.634 427.653 312.479 427.248 312.322C426.031 311.885 426.436 310.48 426.436 309.199C426.436 307.919 423.316 306.638 426.124 306.076C426.998 305.857 426.124 304.264 427.653 304.264C429.203 304.258 430.73 303.895 432.116 303.203C433.239 303.421 435.049 300.079 436.453 300.798C437.857 301.516 438.294 300.079 439.573 300.798C440.853 301.516 441.82 302.64 442.975 302.765C444.129 302.89 444.722 302.359 445.721 302.765C446.919 303.399 448.076 304.109 449.184 304.889C450.859 305.438 452.654 305.503 454.364 305.077C455.332 305.295 456.392 305.077 457.266 305.077C458.14 305.077 459.107 306.888 460.387 306.42C461.942 305.817 463.652 305.74 465.255 306.201C465.568 306.311 465.903 306.34 466.231 306.286C466.558 306.231 466.866 306.095 467.127 305.889C467.47 305.358 466.534 304.671 466.534 304.077C468 303.14 470.341 300.954 469.654 298.986C469.061 297.643 467.969 298.018 469.654 296.581C470.778 295.676 470.216 294.176 470.06 292.99C470.497 291.897 470.06 291.303 471.308 291.74C472.556 292.178 473.898 289.929 474.99 289.991C475.427 289.991 477.767 291.147 477.331 289.429C477.331 288.805 477.487 286.525 477.767 287.149C478.641 289.117 477.955 290.991 480.888 289.211C482.011 288.492 480.638 286.087 480.014 285.275C479.39 284.463 478.641 279.716 479.296 280.497C479.952 281.278 481.262 280.497 482.167 280.903C483.072 281.309 482.698 280.559 482.822 280.153C482.947 279.747 484.008 279.591 484.476 279.029C484.944 278.467 485.288 276.78 485.038 276.249C484.788 275.718 483.509 276.249 483.166 276.249C482.397 276.191 481.625 276.276 480.888 276.499C478.564 277.986 475.901 278.856 473.149 279.029C472.275 279.029 471.776 279.497 470.965 279.029C469.807 278.635 468.616 278.342 467.408 278.154C466.253 277.936 466.846 277.155 466.846 276.28C468.474 276.135 470.051 275.634 471.464 274.812C472.477 274.231 473.587 273.839 474.741 273.657C475.521 273.657 475.427 274.188 475.645 274.781C475.864 275.375 476.894 275.125 477.268 275.031C478.454 274.656 478.267 273.751 479.265 273.407C480.545 273.009 481.863 272.747 483.197 272.626L490.28 273.251C490.936 273.251 495.179 274.781 495.179 274.063C495.179 273.345 495.179 272.657 495.179 272.033C495.179 271.408 494.586 271.127 494.867 270.627C495.148 270.128 496.053 269.347 496.396 268.347C496.989 266.755 496.396 266.755 495.647 265.443C495.352 264.589 495.133 263.711 494.992 262.819C495.166 261.431 494.904 260.023 494.243 258.79C494.056 258.478 492.09 257.135 492.402 256.823C493.008 256.289 493.667 255.818 494.368 255.417C495.148 255.074 496.771 255.917 496.958 254.761C497.098 253.401 497.098 252.03 496.958 250.67C496.863 249.955 496.863 249.23 496.958 248.515C497.176 248.078 497.801 247.953 497.676 247.328C497.052 244.205 500.983 244.611 502.949 245.579C504.915 246.547 504.884 248.702 506.6 249.452C508.316 250.201 509.377 254.574 512.248 251.857C513.278 250.857 513.527 249.171 515.368 249.015C516.024 249.015 516.461 248.296 517.178 248.296C518.078 248.289 518.976 248.206 519.862 248.046C522.111 247.69 524.176 246.59 525.728 244.923C526.914 242.799 526.633 243.362 528.661 243.299C529.348 243.299 530.69 241.925 531.251 241.425C531.813 240.925 535.246 239.77 535.308 238.614C535.37 237.459 535.838 237.49 535.932 236.865C536.026 236.241 535.246 235.397 535.495 234.429C536.275 234.117 536.463 233.149 537.461 232.899C539.24 232.493 539.333 232.43 539.957 234.211C540.332 235.272 540.363 234.773 541.33 234.898C541.94 234.919 542.542 235.046 543.109 235.272C543.265 235.272 542.828 236.085 542.766 236.178C542.422 236.897 544.888 240.207 545.293 240.894C545.833 241.464 546.429 241.976 547.072 242.425C547.415 242.675 548.195 243.018 548.195 243.487C548.195 243.955 546.073 243.299 546.073 243.487C546.073 243.674 546.073 244.111 546.073 244.267C546.073 244.424 545.668 245.204 545.855 245.454C546.042 245.704 547.758 246.048 548.258 246.266C548.949 246.535 549.553 246.989 550.005 247.578L550.442 248.484C550.174 248.734 549.952 249.03 549.787 249.358C549.506 249.858 548.632 249.952 548.195 250.514C547.758 251.076 547.509 251.919 546.354 252.138C545.286 252.489 544.386 253.224 543.827 254.199C543.359 254.98 543.483 255.261 542.766 255.979C541.33 257.385 539.645 255.448 539.645 258.384C539.645 259.384 537.804 260.04 536.993 260.196C535.685 260.348 534.415 260.74 533.248 261.351L534.247 263.912C535.183 264.818 535.651 266.005 537.055 266.286L540.987 267.098C541.486 267.098 541.705 270.471 542.142 271.346C542.578 272.22 542.703 274 543.889 274.469C546.573 275.749 549.194 274.063 551.659 273.095C553.524 272.629 555.457 272.491 557.369 272.689L556.496 270.627C556.496 270.409 556.496 270.065 556.496 269.847C558.867 269.847 560.396 270.221 561.988 268.129C562.549 267.442 566.668 266.598 566.762 267.223C566.855 267.848 567.667 267.223 568.353 267.41C569.04 267.598 568.946 267.941 569.196 268.285C569.445 268.629 570.912 268.285 571.536 268.285C572.16 268.285 572.691 268.941 573.283 269.378L576.029 269.753C577.122 269.753 576.435 271.19 577.465 272.126C578.42 272.71 579.48 273.103 580.585 273.282C581.24 273.282 580.991 271.283 581.084 270.752C581.178 270.221 582.551 270.471 582.988 270.471C583.955 270.471 583.768 270.659 583.768 271.502C583.662 272.446 583.662 273.4 583.768 274.344C584.299 274.563 585.328 275.906 585.578 275.874C585.828 275.843 586.108 274.625 586.826 274.438C588.105 274.125 588.449 274.157 589.229 273.126C589.572 272.72 590.414 270.003 591.351 271.314C593.192 272.345 592.911 271.939 594.752 271.314C595.22 271.127 597.279 270.659 597.279 270.096C596.531 270.096 594.346 268.878 594.159 268.098C593.972 267.317 597.061 266.13 597.498 265.599C598.159 264.696 598.49 263.594 598.434 262.476C598.434 261.289 599.869 262.07 600.618 261.476C601.367 260.883 600.618 260.289 601.991 260.289C602.801 260.212 603.616 260.212 604.425 260.289C604.675 260.446 604.644 261.351 604.893 261.726C605.143 262.101 606.766 262.07 607.608 263.225C607.951 263.663 611.134 265.38 610.728 263.881C610.323 262.382 612.538 261.258 610.51 259.415C610.26 259.415 609.137 258.322 609.449 258.166C610.292 257.728 611.696 257.791 610.728 256.479C610.175 255.857 609.581 255.273 608.95 254.73C609.469 254.478 610.013 254.279 610.572 254.137C611.883 253.606 611.633 255.199 612.32 255.823C613.006 256.448 613.225 255.823 614.13 256.323C615.035 256.823 614.598 257.135 616.033 257.135C617 257.135 616.907 257.572 617.531 258.01C618.155 258.447 620.651 259.071 620.651 257.51C620.651 257.104 619.871 254.793 621.119 255.199C623.553 256.011 623.397 254.855 624.396 253.262C624.833 252.544 624.396 252.2 623.99 251.732C623.585 251.263 624.926 250.826 625.426 250.951C625.925 251.076 626.705 250.951 626.986 250.607C627.579 249.639 626.986 249.108 628.671 249.046C630.356 248.983 630.886 246.579 632.603 246.297C633.632 246.141 634.756 246.579 635.723 246.297C636.518 246.006 637.241 245.548 637.845 244.954C638.219 244.642 637.845 241.488 637.47 241.363C636.154 241.224 634.824 241.417 633.601 241.925C632.571 243.237 630.481 245.517 628.827 243.611C627.86 242.518 628.359 242.05 626.549 242.268C624.569 242.481 622.567 242.375 620.62 241.956C619.428 241.709 618.267 241.332 617.156 240.832C616.72 240.363 617.156 239.52 617.156 238.989C616.969 237.521 616.595 236.459 614.972 236.459C613.35 236.459 614.411 235.835 614.13 234.804C613.849 233.773 612.133 233.43 611.29 233.43C610.875 233.501 610.447 233.451 610.06 233.285C609.672 233.118 609.341 232.843 609.106 232.493C608.326 231.493 607.889 232.774 607.046 233.024C606.304 233.686 605.422 234.171 604.465 234.442C603.508 234.713 602.502 234.762 601.523 234.585C601.523 234.023 602.335 233.929 602.522 233.367C602.73 232.716 602.876 232.047 602.959 231.368C603.146 230.275 603.333 227.371 602.085 227.152C601.571 227.008 601.028 226.998 600.509 227.124C599.99 227.25 599.512 227.507 599.12 227.87C596.905 229.37 597.03 227.339 595.158 227.433C594.19 227.433 592.661 228.464 592.037 228.214C591.413 227.964 592.037 226.465 591.382 225.872C590.727 225.278 591.85 223.904 591.756 222.748C591.954 222.247 592.043 221.709 592.016 221.17C591.989 220.631 591.847 220.104 591.6 219.625C590.945 218.626 591.226 217.907 591.226 216.845C589.51 216.845 589.79 217.22 588.979 215.752C588.439 214.754 587.99 213.708 587.637 212.629C586.732 212.629 587.232 214.503 586.015 213.941C584.798 213.379 585.141 214.347 584.392 214.284C584.392 214.284 584.018 213.41 583.893 213.222C583.768 213.035 584.486 212.036 584.642 211.755C585.185 210.661 585.318 209.409 585.016 208.225C584.767 206.351 583.05 209.631 582.489 210.162C581.927 210.693 584.486 213.504 583.238 214.191C581.989 214.878 583.612 216.283 582.395 217.127C581.178 217.97 579.275 220.031 576.966 219.812C575.405 219.812 573.845 218.876 574.625 221.28C574.906 221.968 574.344 222.655 574.625 223.467C575.468 224.997 574.251 224.591 574.032 225.747C573.814 226.902 574.968 226.652 574.781 227.058C574.594 227.464 573.471 228.433 573.471 228.901C573.471 229.37 572.41 227.152 572.316 226.746C572.222 226.34 571.099 226.371 570.319 226.371C570.336 227.094 570.153 227.808 569.789 228.433C569.196 229.057 568.447 227.121 568.509 226.746C568.509 224.497 567.105 226.028 566.231 225.559C565.919 225.559 565.857 225.216 565.482 225.216C563.673 225.216 564.172 228.339 561.925 227.152C561.12 226.598 560.396 225.936 559.772 225.184C558.805 225.184 557.9 226.684 556.995 226.559C556.09 226.434 555.31 225.153 554.779 224.654C552.876 222.717 552.533 221.343 550.317 224.091C550.317 224.091 550.161 224.091 550.005 224.091C550.005 222.998 549.568 221.811 549.599 220.687C550.052 218.809 550.052 216.85 549.599 214.972C549.164 213.873 548.609 212.826 547.946 211.848C547.446 210.974 546.323 211.411 545.48 211.536C542.36 212.067 542.828 211.911 541.486 214.659C538.366 215.284 539.146 213.66 537.149 212.317L532.156 209.131C530.502 208.038 530.346 210.755 528.349 209.849C528.076 209.713 527.834 209.521 527.64 209.286C527.445 209.05 527.302 208.776 527.22 208.482C527.138 208.188 527.118 207.879 527.162 207.577C527.206 207.275 527.313 206.985 527.476 206.726C528.537 206.508 528.1 205.071 528.911 204.852L532.031 203.978C534.59 203.291 535.495 199.918 537.929 199.23C540.363 198.543 539.552 196.888 541.049 195.233C542.142 194.702 543.171 194.577 543.952 193.546C544.428 192.797 544.776 191.974 544.981 191.11C545.435 190.451 546.028 189.899 546.718 189.494C547.408 189.09 548.179 188.841 548.975 188.768C550.036 188.955 551.503 189.642 552.096 188.143C552.423 186.767 552.423 185.334 552.096 183.958C552.252 181.615 555.216 183.427 556.121 183.771C557.931 184.426 558.305 183.021 559.054 181.928C559.803 180.835 560.771 181.366 561.301 180.304C562.096 179.214 563.281 178.476 564.609 178.242C565.451 178.242 566.231 178.617 566.731 177.711C567.292 177.524 567.105 176.65 567.105 176.181C567.163 175.694 567.3 175.219 567.511 174.776C567.76 173.964 566.075 174.057 565.451 173.558C565.02 173.053 564.653 172.497 564.359 171.902C563.579 170.778 561.925 171.527 560.864 170.934C560.458 170.684 560.022 170.122 559.585 170.309C559.148 170.497 558.43 171.496 557.744 171.996C557.057 172.496 556.402 171.996 555.559 171.996L554.998 173.526L552.501 175.275C551.472 175.65 551.16 174.807 550.224 174.932C549.287 175.057 549.069 176.119 548.601 176.774C547.384 178.461 546.167 179.023 545.48 181.303C545.282 182.503 544.689 183.602 543.795 184.426C543.047 185.238 541.018 183.614 540.862 182.802C540.83 182.122 540.59 181.468 540.176 180.928C538.304 179.054 536.899 181.116 534.653 181.772C534.1 181.917 533.618 182.255 533.292 182.724C532.966 183.194 532.818 183.764 532.874 184.333C532.874 185.769 533.404 186.456 531.782 187.175C530.159 187.893 529.91 187.425 529.254 188.705C528.911 189.361 528.131 189.392 527.881 190.017C527.632 190.642 527.881 191.391 527.195 192.234C526.134 193.671 524.73 193.078 523.606 194.233C522.483 195.389 522.421 196.544 521.235 195.608C520.049 194.671 520.112 197.2 519.799 197.638C519.487 198.075 518.364 198.387 517.927 198.981C517.085 200.136 515.774 199.761 514.807 199.23C513.839 198.7 511.031 200.324 510.313 200.761C509.596 201.198 508.379 201.229 507.505 201.667C506.631 202.104 506.07 203.353 505.009 203.853C504.073 205.04 503.448 206.508 502.45 207.601C501.451 208.694 501.108 206.476 500.515 206.664C499.922 206.851 499.579 207.913 498.955 208.288C497.613 209.069 498.674 209.849 499.766 210.505C501.607 211.598 499.173 212.036 498.206 211.848C496.49 211.536 494.555 213.629 493.526 212.567C492.496 211.505 492.09 212.161 491.154 212.567C490.218 212.973 488.845 213.16 489.251 214.253C489.843 215.908 488.158 215.253 487.347 215.877C486.536 216.502 486.848 217.22 486.161 217.064C485.475 216.908 485.007 216.377 485.007 217.751C485.007 219.125 485.007 218.938 484.414 219.906C483.821 220.874 484.414 221.031 484.414 221.936C484.664 223.592 483.759 224.466 482.011 225.06C478.578 226.753 475.602 229.249 473.336 232.337C472.026 233.867 476.238 234.554 473.336 236.584L470.466 237.615C470.211 237.326 470.047 236.967 469.998 236.584C469.998 235.96 470.372 235.491 470.341 234.929C470.31 234.367 468.968 234.929 468.749 234.335C468.531 233.742 468.749 233.805 468.749 233.648L467.564 234.086C467.32 234.164 467.058 234.164 466.815 234.086C466.66 234.055 466.501 234.055 466.347 234.086C466.165 234.1 465.992 234.166 465.848 234.277C465.704 234.388 465.595 234.539 465.535 234.71C465.223 235.397 465.317 235.678 464.662 236.178C464.006 236.678 464.162 236.74 464.662 236.959C465.33 237.202 466.019 237.38 466.721 237.49C467.751 237.802 468.5 241.175 468.063 241.987C467.626 242.799 466.503 243.643 467.564 244.923C468.751 247.107 469.733 249.397 470.497 251.763C469.467 253.512 471.339 253.512 471.308 254.886C471.277 256.261 469.966 255.573 469.249 255.667C468.728 255.809 468.195 255.903 467.657 255.948C467.064 255.948 466.721 255.417 466.159 255.292C464.443 254.918 463.32 255.573 461.978 254.043C461.385 253.356 460.636 253.481 459.825 253.262C459.014 253.044 458.951 252.7 458.358 252.419C456.473 251.139 454.67 249.741 452.96 248.234C451.541 246.74 449.924 245.448 448.155 244.392C447.218 243.924 445.034 243.924 444.379 243.393C444.379 242.956 445.845 241.8 446.251 241.519C446.657 241.238 450.589 240.863 449.372 239.083C448.623 238.021 450.557 237.521 449.621 236.334C448.685 235.148 450.245 235.429 449.309 234.492C449.091 234.273 448.467 233.711 448.935 233.461C450.62 232.618 451.681 233.461 449.933 231.587C449.372 230.962 449.153 230.494 448.841 231.587C448.529 232.68 448.061 232.149 447.156 232.805C446.969 232.805 446.719 233.68 446.532 233.648C446.345 233.617 446.002 231.806 445.939 231.368C445.574 230.078 445.385 228.743 445.377 227.402H442.257L441.508 228.183L436.609 225.497L423.285 228.401L398.322 227.714L394.764 210.911L391.644 191.11L371.985 188.174L371.704 166.78L375.106 167.405L375.48 137.547L365.776 141.326L354.573 118.558L341.686 109.188L335.258 98.2879L332.137 97.0386L317.315 105.253L298.593 104.441L270.852 101.13L242.145 107.376L223.422 108.907L191.219 71.7092L189.94 64.7757L148.22 30.7638C148.358 33.1855 147.818 35.5977 146.66 37.7285C145.037 40.2896 147.596 40.2896 147.159 42.6008C146.722 44.912 146.597 50.565 145.412 52.3765C144.351 56.624 145.599 65.9313 138.671 65.2754C137.298 65.2754 136.3 66.0562 134.865 65.494C133.451 64.5489 132.106 63.5052 130.839 62.3708C128.747 60.7534 126.925 58.8136 125.441 56.6241C124.161 53.5008 121.603 51.5332 120.635 48.3787C119.668 45.2243 121.01 44.1936 121.946 41.8512C122.789 38.4167 124.057 35.1012 125.722 31.9818C125.909 31.6383 126.159 30.1079 126.658 30.3577L128 32.8875C128.967 32.8875 129.778 29.1084 129.747 28.3276C129.747 26.5474 129.965 22.7371 129.997 19.6451L103.379 3.90403C101.368 5.85086 99.7941 8.20374 98.7613 10.8064C98.7613 13.586 97.2323 16.8342 99.6038 19.0829C100.183 19.848 100.517 20.771 100.562 21.7301C100.606 22.6891 100.359 23.6392 99.8534 24.4548C98.9173 25.954 99.3541 26.7973 99.0733 28.3901L97.5755 32.4815C97.3883 33.0125 96.2649 34.1368 96.9202 34.6053C98.1996 35.5111 99.479 33.1686 99.479 35.636C99.4552 36.8181 99.3509 37.9973 99.1669 39.1652C98.9173 40.8205 100.446 44.0375 97.9188 44.4435C97.1699 44.4435 96.421 42.9131 95.5784 44.0375C94.7359 45.1618 95.2352 46.5048 95.2664 47.5355C95.4629 51.7844 94.0599 55.9526 91.3347 59.2163C89.244 61.6212 88.6199 62.4957 85.3747 62.3396C85.0314 61.8711 84.2825 61.4963 83.8769 60.9341C83.4712 60.3719 83.5024 59.5286 83.3152 58.8415C83.0353 57.311 83.3003 55.7306 84.0641 54.3753C84.8197 53.6248 85.3123 52.6496 85.4683 51.5957C85.6117 50.2448 85.4518 48.879 85.0002 47.5979C84.4925 46.6677 84.0645 45.696 83.7208 44.6933C83.0322 42.5675 82.7258 40.3363 82.8159 38.1033C82.8159 36.6354 83.5648 35.2924 83.7208 33.8557C84.7194 31.8257 84.657 29.5145 85.5931 27.6093C86.5292 25.7041 87.559 25.2044 87.871 23.3617C88.3627 20.4782 89.1792 17.6597 90.3049 14.9602C92.0006 12.8788 93.4265 10.5911 94.5487 8.15162C94.8995 6.04737 95.3578 3.96248 95.9217 1.90517C96.1401 1.37422 96.5458 0.687109 96.9202 0L0 31.1073V219.157L29.3631 220.749L38.7244 223.279C41.0023 222.78 37.133 220.156 39.5045 219.344C41.2207 218.844 43.1242 218.501 43.1242 216.502C42.5001 216.502 41.5328 217.814 40.5967 216.689C39.5624 215.501 38.9005 214.035 38.6932 212.473C38.6685 211.426 38.7522 210.379 38.9428 209.35C38.9054 208.121 38.7061 206.903 38.35 205.727C37.7272 204.75 37.2243 203.701 36.8522 202.604C36.46 200.925 36.2715 199.205 36.2905 197.481C36.1365 195.396 36.2307 193.299 36.5713 191.235C37.6635 190.579 38.0067 189.611 39.4733 189.299C44.1227 188.33 44.5596 182.646 47.1807 179.211C48.8034 177.087 52.6103 177.43 55.013 177.711C57.9692 178.473 61.0933 178.242 63.9062 177.056C64.8423 177.056 65.7784 176.774 66.7146 176.712C67.6507 176.65 69.3045 176.993 69.0549 175.931C69.0549 175.588 68.3372 173.62 68.774 173.526C69.2109 173.433 69.6478 174.463 70.2718 174.463C70.8959 174.463 70.8959 172.87 71.1456 172.121C71.5512 170.684 72.4873 169.216 72.7682 167.811C73.4235 165.718 71.676 165.281 71.3328 163.938C70.9895 162.595 73.1114 164.125 73.6731 162.595C74.2348 161.065 73.8291 161.502 75.0149 160.253C75.5142 159.753 76.0134 157.973 76.7623 159.097C77.5112 160.221 78.1977 159.659 79.0402 159.847C79.8827 160.034 78.6658 162.97 80.1324 162.345C81.4207 161.748 82.8742 161.607 84.2528 161.948C85.6314 162.289 86.8526 163.09 87.715 164.219C89.2128 165.812 88.5263 168.592 88.9944 170.466C90.1144 170.344 91.2444 170.344 92.3644 170.466C93.5502 170.684 93.519 171.059 93.519 169.435C93.519 167.811 92.2396 167.905 90.8978 166.655C89.556 165.406 88.2455 161.377 86.8101 159.191C85.7491 157.598 85.6243 156.755 83.6896 156.224C82.7223 155.943 79.3523 155.162 80.382 153.569C82.1294 152.445 83.0656 150.446 85.4371 150.446C86.9577 150.526 88.4358 150.976 89.7433 151.757C91.5766 152.444 93.5646 152.606 95.4848 152.226C97.4195 152.226 96.2961 150.258 96.2961 149.103C96.8578 149.103 99.6038 148.884 97.6691 147.853C97.1074 147.572 97.1699 145.48 97.6691 144.949L112.023 158.535C113.178 158.535 114.332 158.91 115.58 158.753C116.616 158.623 117.665 158.623 118.701 158.753C118.982 159.097 118.701 159.628 119.106 160.034C119.512 160.44 120.916 161.439 121.322 162.314C121.728 163.188 121.322 163.594 121.322 164.219C121.707 165.463 122.471 166.555 123.506 167.342C124.255 167.686 125.004 167.842 125.722 168.186C126.439 168.529 126.595 168.998 127.063 169.279C127.282 171.309 129.997 170.684 131.557 170.747C133.117 170.809 133.928 170.091 135.114 170.247C136.3 170.403 136.144 171.121 137.174 170.247C138.203 169.372 139.67 170.934 140.949 171.121C142.229 171.309 142.634 170.06 143.539 169.81C145.568 169.279 145.131 171.121 146.66 172.058C148.189 172.995 149.78 173.401 149.53 175.182C149.125 175.182 149.531 176.087 148.688 176.306C148.438 176.306 147.502 176.306 147.533 176.712C147.565 177.118 148.126 177.524 148.22 177.993C148.501 179.492 149.406 178.929 150.685 178.992C151.964 179.054 150.903 182.115 150.685 182.646C150.467 183.177 149.967 184.957 149.281 185.082C148.594 185.207 148.158 184.052 147.221 184.458C147.003 184.458 145.63 184.676 145.848 185.176C146.067 185.676 146.535 185.832 146.691 186.363C147.034 187.456 147.19 188.049 148.251 187.425C149.312 186.8 149.78 187.05 150.03 188.081C149.156 190.173 151.059 189.736 152.432 189.923C154.367 190.173 153.805 191.204 154.617 192.328C155.428 193.452 156.832 193.546 157.737 193.859C158.642 194.171 161.107 196.232 160.858 196.982C160.608 197.731 160.109 197.606 159.828 197.856C159.547 198.106 157.924 197.044 157.332 196.763C156.739 196.482 156.083 195.576 155.303 195.42C154.523 195.264 152.339 194.514 151.996 194.827C151.652 195.139 151.996 195.92 151.746 196.388C151.496 196.857 150.716 196.951 150.248 197.232C150.061 198.731 152.932 201.354 153.774 202.479C154.617 203.603 155.771 204.79 154.523 206.102C153.108 207.687 152.129 209.613 151.684 211.692C151.153 214.409 155.803 216.752 157.332 218.657C158.143 219.375 159.672 219.125 160.702 219.438C162.228 220.173 163.571 221.24 164.633 222.561C165.463 223.316 166.48 223.833 167.578 224.058C168.676 224.284 169.815 224.209 170.874 223.841C173.456 222.309 176.49 221.723 179.455 222.186L184.105 222.561C185.322 222.561 186.695 224.435 187.225 222.561C187.756 220.687 189.16 223.529 189.253 223.654C190.662 225.432 192.529 226.793 194.652 227.589C197.772 228.558 198.771 227.589 200.518 225.403V223.404C201.017 222.686 201.049 220.281 201.829 219.594C204.487 219.984 207.031 220.943 209.287 222.405C210.753 224.404 213.78 225.122 215.09 227.371C215.746 228.526 217.524 228.995 218.429 229.994C219.334 230.994 218.741 232.087 219.615 232.493C220.489 232.899 220.957 232.805 221.519 233.742C222.788 236.428 223.139 239.457 222.517 242.362C222.517 243.893 223.921 244.83 224.202 246.235C224.255 247.291 224.423 248.338 224.701 249.358C225.013 250.17 226.012 250.045 226.386 250.857C226.744 252.218 226.974 253.608 227.073 255.011C227.541 256.811 228.651 258.377 230.193 259.415C231.691 260.414 234.468 259.883 235.248 262.007C235.685 263.194 234.843 264.662 235.56 265.63C236.278 266.598 237.464 266.411 237.651 267.348C237.963 268.816 237.277 270.315 237.651 271.814C238.223 273.349 238.457 274.99 238.338 276.624C238.181 277.281 238.181 277.966 238.338 278.623C238.712 279.591 239.211 279.872 239.211 281.059C239.133 281.681 239.133 282.311 239.211 282.933C239.711 284.557 241.396 285.4 242.113 286.743L286.111 318.819L286.611 321.161L304.303 334.06L310.263 332.436L320.061 341.337C322.119 342.436 324.002 343.836 325.647 345.491C327.27 346.772 328.455 346.334 329.922 347.24C330.874 347.928 331.753 348.713 332.543 349.582C333.916 350.863 335.851 349.926 337.349 351.706C338.027 352.429 338.623 353.226 339.127 354.08C339.97 355.61 341.218 355.766 342.435 356.86C344.333 358.517 346.43 359.933 348.676 361.076C351.297 362.762 353.98 365.73 357.132 366.417C359.945 367.222 362.829 367.756 365.744 368.009C365.744 367.385 366.056 367.229 366.306 366.76H369.426C370.581 368.79 370.924 368.478 373.046 368.728C373.577 368.728 375.199 370.539 375.667 371.008C377.103 372.382 379.225 371.851 380.941 372.32C381.346 372.32 381.596 373.475 381.783 373.85C382.582 374.977 383.657 375.88 384.904 376.473C385.415 377.141 386.096 377.658 386.875 377.972C387.655 378.285 388.504 378.382 389.335 378.254C391.238 377.691 390.801 377.816 392.455 378.254C394.11 378.879 395.69 379.685 397.167 380.659C398.072 381.221 398.041 382.532 398.571 383.376C398.571 383.563 398.727 383.532 398.571 383.563C397.33 383.786 396.217 384.466 395.451 385.468C395.014 385.999 394.483 386.53 394.078 387.092C393.672 387.655 393.235 388.966 392.674 389.685V394.057C392.749 395.216 392.501 396.374 391.956 397.399C391.452 398.172 391.258 399.107 391.415 400.016C391.571 400.926 392.065 401.743 392.798 402.303C394.234 403.802 392.798 407.987 392.549 409.767C392.691 409.622 392.861 409.506 393.049 409.427C393.236 409.348 393.437 409.308 393.641 409.308C393.844 409.308 394.046 409.348 394.233 409.427C394.421 409.506 394.591 409.622 394.733 409.767C395.451 410.36 395.201 411.235 396.543 411.235C397.885 411.235 398.977 409.267 400.818 409.267C401.723 409.267 401.941 409.611 402.721 409.829C403.501 410.048 404.469 409.33 405.249 409.111C407.464 408.424 410.273 406.456 412.02 409.111C412.514 409.85 413.09 410.531 413.736 411.141C414.36 411.797 415.733 412.391 415.983 413.328C416.59 414.715 417.56 415.913 418.792 416.794C421.449 417.197 424.16 416.571 426.374 415.045C426.905 414.546 427.591 412.609 428.652 413.265C429.713 413.921 429.619 414.483 430.15 415.264C430.992 416.544 436.89 414.733 438.513 417.856L438.325 418.168Z" fill="#01CAB0"/>
</g>
</svg>
